<?xml version="1.0" encoding="iso-8859-1"?>
<!-- Generator: Adobe Illustrator 19.0.0, SVG Export Plug-In . SVG Version: 6.00 Build 0)  -->
<svg version="1.1" id="Capa_1" xmlns="http://www.w3.org/2000/svg" xmlns:xlink="http://www.w3.org/1999/xlink" x="0px" y="0px"
	 viewBox="0 0 512 512" style="enable-background:new 0 0 512 512;" xml:space="preserve">
<path style="fill:#72D8FF;" d="M437.681,107.567h-55.409c-35.501,0-64.281,28.78-64.281,64.281v21.889h183.972v-21.889
	C501.963,136.347,473.182,107.567,437.681,107.567z"/>
<path style="fill:#FCC69D;" d="M409.977,9.998L409.977,9.998c-22.982,0-41.613,18.63-41.613,41.613v14.344
	c0,22.982,18.63,41.613,41.613,41.613l0,0c22.982,0,41.613-18.63,41.613-41.613V51.611C451.589,28.629,432.958,9.998,409.977,9.998z
	"/>
<path style="fill:#FF5D5D;" d="M129.729,107.567H74.32c-35.502,0-64.281,28.78-64.281,64.281v21.889H194.01v-21.889
	C194.01,136.347,165.23,107.567,129.729,107.567z"/>
<path style="fill:#FCC69D;" d="M102.024,9.998L102.024,9.998c-22.982,0-41.613,18.63-41.613,41.613v14.344
	c0,22.982,18.63,41.613,41.613,41.613l0,0c22.982,0,41.613-18.63,41.613-41.613V51.611C143.637,28.629,125.006,9.998,102.024,9.998z
	"/>
<path style="fill:#FF5D5D;" d="M437.681,415.832h-55.409c-35.501,0-64.281,28.78-64.281,64.281v21.889h183.972v-21.889
	C501.963,444.611,473.182,415.832,437.681,415.832z"/>
<path style="fill:#FCC69D;" d="M409.977,318.263L409.977,318.263c-22.982,0-41.613,18.63-41.613,41.613v14.344
	c0,22.982,18.63,41.613,41.613,41.613l0,0c22.982,0,41.613-18.63,41.613-41.613v-14.344
	C451.589,336.894,432.958,318.263,409.977,318.263z"/>
<path style="fill:#72D8FF;" d="M129.729,415.832H74.32c-35.502,0-64.281,28.78-64.281,64.281v21.889H194.01v-21.889
	C194.01,444.611,165.23,415.832,129.729,415.832z"/>
<path style="fill:#FCC69D;" d="M102.024,318.263L102.024,318.263c-22.982,0-41.613,18.63-41.613,41.613v14.344
	c0,22.982,18.63,41.613,41.613,41.613l0,0c22.982,0,41.613-18.63,41.613-41.613v-14.344
	C143.637,336.894,125.006,318.263,102.024,318.263z"/>
<path d="M449.921,98.595c7.286-8.901,11.666-20.268,11.666-32.641V51.611C461.588,23.152,438.434,0,409.977,0
	s-51.612,23.152-51.612,51.611v14.344c0,12.373,4.38,23.74,11.666,32.641c-35.152,5.855-62.039,36.465-62.039,73.254v21.889
	c0,5.522,4.476,9.998,9.998,9.998h183.972c5.522,0,9.998-4.476,9.998-9.998v-21.889C511.961,135.06,485.073,104.451,449.921,98.595z
	 M378.362,51.611c0-17.432,14.182-31.614,31.615-31.614s31.614,14.182,31.614,31.614v14.344c0,17.432-14.182,31.614-31.614,31.614
	s-31.615-14.182-31.615-31.614V51.611z M491.964,183.739H327.989v-11.89c0-29.931,24.351-54.283,54.283-54.283h55.409
	c29.931,0,54.283,24.351,54.283,54.283L491.964,183.739L491.964,183.739z"/>
<path d="M258,85.155h51.992c5.522,0,9.998-4.476,9.998-9.998c0-5.522-4.476-9.998-9.998-9.998H258c-5.522,0-9.998,4.476-9.998,9.998
	C248.002,80.679,252.478,85.155,258,85.155z"/>
<path d="M224.005,75.157c0-2.63-1.07-5.209-2.93-7.069c-1.86-1.86-4.439-2.93-7.069-2.93c-2.63,0-5.209,1.07-7.069,2.93
	c-1.86,1.86-2.93,4.439-2.93,7.069s1.07,5.209,2.93,7.069c1.86,1.86,4.439,2.93,7.069,2.93c2.63,0,5.209-1.07,7.069-2.93
	C222.935,80.367,224.005,77.787,224.005,75.157z"/>
<path d="M282.329,427.02h-52.659c-5.522,0-9.998,4.476-9.998,9.998s4.476,9.998,9.998,9.998h52.659c5.522,0,9.998-4.476,9.998-9.998
	S287.852,427.02,282.329,427.02z"/>
<path d="M75.069,291.748c5.522,0,9.998-4.476,9.998-9.998v-51.992c0-5.522-4.476-9.998-9.998-9.998
	c-5.522,0-9.998,4.476-9.998,9.998v51.992C65.071,287.272,69.547,291.748,75.069,291.748z"/>
<path d="M447.056,281.75v-51.992c0-5.522-4.476-9.998-9.998-9.998s-9.998,4.476-9.998,9.998v51.992c0,5.522,4.476,9.998,9.998,9.998
	S447.056,287.272,447.056,281.75z"/>
<path d="M141.968,98.595c7.286-8.901,11.666-20.268,11.666-32.641V51.611C153.635,23.152,130.482,0,102.024,0
	S50.412,23.152,50.412,51.611v14.344c0,12.373,4.38,23.74,11.666,32.641C26.927,104.451,0.04,135.06,0.04,171.848v21.889
	c0,5.522,4.476,9.998,9.998,9.998H194.01c5.522,0,9.998-4.476,9.998-9.998v-21.889C204.009,135.06,177.121,104.451,141.968,98.595z
	 M70.409,51.611c0-17.432,14.182-31.614,31.615-31.614s31.614,14.182,31.614,31.614v14.344c0,17.432-14.182,31.614-31.614,31.614
	S70.409,83.387,70.409,65.955V51.611z M184.012,183.739H20.037v-11.89c0-29.931,24.351-54.283,54.283-54.283h55.409
	c29.931,0,54.283,24.351,54.283,54.283V183.739z"/>
<path d="M449.921,406.859c7.286-8.901,11.666-20.267,11.666-32.64v-14.344c0-28.459-23.152-51.611-51.611-51.611
	s-51.611,23.152-51.611,51.611v14.344c0,12.373,4.38,23.739,11.666,32.64c-35.152,5.855-62.039,36.465-62.039,73.254v21.889
	c0,5.522,4.476,9.998,9.998,9.998h183.972c5.522,0,9.998-4.476,9.998-9.998v-21.889
	C511.961,443.325,485.073,412.715,449.921,406.859z M378.362,359.876c0-17.432,14.182-31.614,31.614-31.614
	s31.614,14.182,31.614,31.614v14.344c0,17.432-14.182,31.614-31.614,31.614s-31.614-14.182-31.614-31.614V359.876z M491.964,492.003
	H327.989v-11.89c0-29.931,24.351-54.283,54.283-54.283h55.409c29.931,0,54.283,24.351,54.283,54.283L491.964,492.003
	L491.964,492.003z"/>
<path d="M141.968,406.859c7.286-8.901,11.666-20.267,11.666-32.64v-14.344c0-28.459-23.152-51.611-51.611-51.611
	s-51.611,23.153-51.611,51.612v14.344c0,12.373,4.38,23.739,11.666,32.64C26.927,412.715,0.04,443.325,0.04,480.113v21.889
	c0,5.522,4.476,9.998,9.998,9.998H194.01c5.522,0,9.998-4.476,9.998-9.998v-21.889C204.009,443.325,177.121,412.715,141.968,406.859
	z M70.409,359.876c0-17.432,14.182-31.614,31.614-31.614s31.614,14.182,31.614,31.614v14.344c0,17.432-14.182,31.614-31.614,31.614
	s-31.614-14.183-31.614-31.615V359.876z M184.012,492.003H20.037v-11.89c0-29.931,24.351-54.283,54.283-54.283h55.409
	c29.931,0,54.283,24.351,54.283,54.283V492.003z"/>
<g>
</g>
<g>
</g>
<g>
</g>
<g>
</g>
<g>
</g>
<g>
</g>
<g>
</g>
<g>
</g>
<g>
</g>
<g>
</g>
<g>
</g>
<g>
</g>
<g>
</g>
<g>
</g>
<g>
</g>
</svg>
