<svg id="Capa_1" enable-background="new 0 0 512 512" height="512" viewBox="0 0 512 512" width="512" xmlns="http://www.w3.org/2000/svg"><g><path d="m467 151.06h-31.421c-26.724-63.454-85.569-109.567-153.314-118.374-67.134-8.95-133.096 16.89-176.25 68.906-12.686 15.293-22.749 31.919-30.117 49.468h-30.898c-24.814 0-45 20.186-45 45v60c0 24.814 20.186 45 45 45h61.601l-6.445-19.673c-18.765-57.305-8.203-115.855 28.96-160.635 36.519-44.019 92.285-65.801 149.253-58.33 60.247 7.848 112.542 50.455 133.262 108.574l.126.337c3.34 8.877 5.684 18.003 7.031 27.393 4.497 28.052 1.934 56.484-7.397 82.222l-.066.179c-23.161 65.759-85.455 109.933-155.032 109.933-24.976 0-45.293 20.186-45.293 45s20.186 45 45 45 45-20.186 45-45v-20.23c59.894-14.236 110.202-56.693 134.383-114.771h31.617c24.814 0 45-20.186 45-45v-60c0-24.814-20.186-44.999-45-44.999z"/><path d="m121 331.06v30h135c74.443 0 135-60.557 135-135s-60.557-135-135-135-135 60.557-135 135c0 30.352 10.195 59.678 28.828 83.394-3.618 12.641-15.161 21.606-28.828 21.606zm180-120h30v30h-30zm-60 0h30v30h-30zm-60 0h30v30h-30z"/></g></svg>
