<svg height="512pt" viewBox="0 0 512 512" width="512pt" xmlns="http://www.w3.org/2000/svg"><path d="m474.414062 122.4375 24.832032-24.828125c4.125-4.128906 5.484375-10.277344 3.480468-15.757813-2.003906-5.484374-7.007812-9.304687-12.828124-9.796874l-46.066407-3.886719-3.886719-46.066407c-.488281-5.816406-4.3125-10.820312-9.792968-12.824218-5.480469-2.007813-11.628906-.648438-15.757813 3.480468l-24.832031 24.828126c-40.15625-24.621094-86.070312-37.585938-133.5625-37.585938-68.378906 0-132.667969 26.628906-181.019531 74.980469-48.351563 48.351562-74.980469 112.640625-74.980469 181.019531s26.628906 132.667969 74.980469 181.019531c48.351562 48.351563 112.640625 74.980469 181.019531 74.980469s132.667969-26.628906 181.019531-74.980469c48.351563-48.351562 74.980469-112.640625 74.980469-181.019531 0-47.492188-12.964844-93.402344-37.585938-133.5625zm-59.414062-39.125c.617188 7.289062 6.398438 13.070312 13.6875 13.6875l26.503906 2.234375-35.875 35.875-39.125-3.300781-3.300781-39.125 35.875-35.875zm-108 172.6875c0 28.121094-22.878906 51-51 51s-51-22.878906-51-51 22.878906-51 51-51c8.613281 0 16.726562 2.152344 23.847656 5.9375l-34.453125 34.457031c-5.859375 5.855469-5.859375 15.351563 0 21.210938 2.925781 2.929687 6.765625 4.394531 10.605469 4.394531s7.679688-1.464844 10.605469-4.394531l34.457031-34.453125c3.785156 7.121094 5.9375 15.234375 5.9375 23.847656zm-5.347656-66.867188c-13.007813-8.90625-28.730469-14.132812-45.652344-14.132812-44.664062 0-81 36.335938-81 81s36.335938 81 81 81 81-36.335938 81-81c0-16.921875-5.226562-32.644531-14.132812-45.652344l42.828124-42.828125c19.566407 24.210938 31.304688 55 31.304688 88.480469 0 77.746094-63.253906 141-141 141s-141-63.253906-141-141 63.253906-141 141-141c33.480469 0 64.269531 11.738281 88.480469 31.304688zm114.152344 226.671876c-42.683594 42.6875-99.4375 66.195312-159.804688 66.195312s-117.121094-23.507812-159.804688-66.195312c-42.6875-42.683594-66.195312-99.4375-66.195312-159.804688s23.507812-117.121094 66.195312-159.804688c42.683594-42.6875 99.4375-66.195312 159.804688-66.195312 39.492188 0 77.746094 10.144531 111.671875 29.476562l-16.917969 16.917969c-2.734375 2.734375-4.292968 6.398438-4.390625 10.222657-.011719.546874.003907 1.09375.046875 1.644531l2.019532 23.933593c-26.667969-17.203124-58.402344-27.195312-92.429688-27.195312-94.289062 0-171 76.710938-171 171s76.710938 171 171 171 171-76.710938 171-171c0-34.027344-9.992188-65.761719-27.195312-92.429688l23.933593 2.019532c.421875.03125.84375.050781 1.261719.050781.070312 0 .144531-.007813.214844-.011719.199218 0 .394531-.015625.59375-.027344.324218-.019531.652344-.039062.972656-.078124.199219-.027344.398438-.058594.597656-.089844.316406-.050782.628906-.109375.941406-.179688.199219-.046875.394532-.097656.589844-.148437.304688-.082031.605469-.175781.90625-.277344.195313-.066406.386719-.132813.578125-.207031.292969-.113282.582031-.238282.871094-.375.183594-.082032.367187-.164063.550781-.257813.289063-.148437.570313-.3125.847656-.476562.167969-.101563.335938-.195313.5-.296875.296876-.195313.582032-.40625.867188-.621094.132812-.101562.269531-.191406.398438-.296875.40625-.328125.800781-.675781 1.175781-1.050781l16.917969-16.917969c19.332031 33.925781 29.476562 72.179687 29.476562 111.671875 0 60.367188-23.507812 117.121094-66.195312 159.804688zm0 0"/></svg>
