<?xml version="1.0" encoding="iso-8859-1"?>
<!-- Generator: Adobe Illustrator 19.0.0, SVG Export Plug-In . SVG Version: 6.00 Build 0)  -->
<svg version="1.1" id="Capa_1" xmlns="http://www.w3.org/2000/svg" xmlns:xlink="http://www.w3.org/1999/xlink" x="0px" y="0px"
	 viewBox="0 0 512 512" style="enable-background:new 0 0 512 512;" xml:space="preserve">
<g>
	<g>
		<path d="M449.921,98.595c7.286-8.901,11.666-20.268,11.666-32.641V51.611C461.588,23.152,438.434,0,409.977,0
			c-28.458,0-51.612,23.152-51.612,51.611v14.344c0,12.373,4.38,23.74,11.666,32.641c-35.152,5.855-62.039,36.465-62.039,73.254
			v21.889c0,5.522,4.476,9.998,9.998,9.998h183.972c5.522,0,9.998-4.476,9.998-9.998v-21.889
			C511.961,135.06,485.073,104.451,449.921,98.595z M378.362,51.611c0-17.432,14.182-31.614,31.615-31.614
			c17.433,0,31.614,14.182,31.614,31.614v14.344c0,17.432-14.182,31.614-31.614,31.614s-31.615-14.182-31.615-31.614V51.611z
			 M327.989,183.739v-11.89c0-29.931,24.351-54.283,54.283-54.283h55.409c29.931,0,54.283,24.351,54.283,54.283v11.89H327.989z"/>
	</g>
</g>
<g>
	<g>
		<path d="M309.992,65.158H258c-5.522,0-9.998,4.476-9.998,9.998c0,5.522,4.476,9.998,9.998,9.998h51.992
			c5.522,0,9.998-4.476,9.998-9.998C319.991,69.634,315.514,65.158,309.992,65.158z"/>
	</g>
</g>
<g>
	<g>
		<path d="M221.076,68.089c-1.86-1.86-4.439-2.93-7.069-2.93c-2.63,0-5.209,1.07-7.069,2.93c-1.86,1.86-2.93,4.439-2.93,7.069
			s1.07,5.209,2.93,7.069c1.86,1.86,4.439,2.93,7.069,2.93c2.63,0,5.209-1.07,7.069-2.93c1.859-1.86,2.93-4.439,2.93-7.069
			S222.936,69.948,221.076,68.089z"/>
	</g>
</g>
<g>
	<g>
		<path d="M282.329,427.02h-52.659c-5.522,0-9.998,4.476-9.998,9.998s4.476,9.998,9.998,9.998h52.659
			c5.522,0,9.998-4.476,9.998-9.998S287.852,427.02,282.329,427.02z"/>
	</g>
</g>
<g>
	<g>
		<path d="M75.069,219.759c-5.522,0-9.998,4.476-9.998,9.998v51.992c0,5.522,4.476,9.998,9.998,9.998s9.998-4.476,9.998-9.998
			v-51.992C85.068,224.235,80.592,219.759,75.069,219.759z"/>
	</g>
</g>
<g>
	<g>
		<path d="M437.058,219.759c-5.522,0-9.998,4.476-9.998,9.998v51.992c0,5.522,4.476,9.998,9.998,9.998s9.998-4.476,9.998-9.998
			v-51.992C447.056,224.235,442.58,219.759,437.058,219.759z"/>
	</g>
</g>
<g>
	<g>
		<path d="M141.968,98.595c7.286-8.901,11.666-20.268,11.666-32.641V51.611C153.635,23.152,130.482,0,102.024,0
			C73.567,0,50.412,23.152,50.412,51.611v14.344c0,12.373,4.38,23.74,11.666,32.641C26.927,104.451,0.04,135.06,0.04,171.849v21.889
			c0,5.522,4.476,9.998,9.998,9.998H194.01c5.522,0,9.998-4.476,9.998-9.998v-21.889C204.009,135.06,177.121,104.451,141.968,98.595
			z M70.409,51.611c0-17.432,14.182-31.614,31.615-31.614c17.433,0,31.614,14.182,31.614,31.614v14.344
			c0,17.432-14.182,31.614-31.614,31.614S70.409,83.387,70.409,65.955V51.611z M184.012,183.739H20.037v-11.89
			c0-29.931,24.351-54.283,54.283-54.283h55.409c29.931,0,54.283,24.351,54.283,54.283V183.739z"/>
	</g>
</g>
<g>
	<g>
		<path d="M449.921,406.859c7.286-8.901,11.666-20.267,11.666-32.64v-14.344c0-28.459-23.152-51.611-51.611-51.611
			c-28.459,0-51.611,23.152-51.611,51.611v14.344c0,12.373,4.38,23.739,11.666,32.64c-35.152,5.855-62.039,36.465-62.039,73.254
			v21.889c0,5.522,4.476,9.998,9.998,9.998h183.972c5.522,0,9.998-4.476,9.998-9.998v-21.889
			C511.961,443.325,485.073,412.715,449.921,406.859z M378.362,359.876c0-17.432,14.182-31.614,31.614-31.614
			s31.614,14.182,31.614,31.614v14.344c0,17.432-14.182,31.614-31.614,31.614s-31.614-14.182-31.614-31.614V359.876z
			 M327.989,492.003v-11.89c0-29.931,24.351-54.283,54.283-54.283h55.409c29.931,0,54.283,24.351,54.283,54.283v11.89H327.989z"/>
	</g>
</g>
<g>
	<g>
		<path d="M141.968,406.859c7.286-8.901,11.666-20.267,11.666-32.64v-14.344c0-28.459-23.152-51.611-51.611-51.611
			s-51.611,23.153-51.611,51.612v14.344c0,12.373,4.38,23.739,11.666,32.64C26.927,412.715,0.04,443.325,0.04,480.113v21.889
			c0,5.522,4.476,9.998,9.998,9.998H194.01c5.522,0,9.998-4.476,9.998-9.998v-21.889
			C204.009,443.325,177.121,412.715,141.968,406.859z M70.409,359.876c0-17.432,14.182-31.614,31.614-31.614
			s31.614,14.182,31.614,31.614v14.344c0,17.432-14.182,31.614-31.614,31.614s-31.614-14.183-31.614-31.615V359.876z
			 M184.012,492.003H20.037v-11.89c0-29.931,24.351-54.283,54.283-54.283h55.409c29.931,0,54.283,24.351,54.283,54.283V492.003z"/>
	</g>
</g>
<g>
</g>
<g>
</g>
<g>
</g>
<g>
</g>
<g>
</g>
<g>
</g>
<g>
</g>
<g>
</g>
<g>
</g>
<g>
</g>
<g>
</g>
<g>
</g>
<g>
</g>
<g>
</g>
<g>
</g>
</svg>
