<svg id="Capa_1" enable-background="new 0 0 512 512" height="512" viewBox="0 0 512 512" width="512" xmlns="http://www.w3.org/2000/svg"><g><path d="m459.311 292.03c29.053 0 52.689-23.636 52.689-52.689v-123.015c0-9.112-7.413-16.525-16.525-16.525h-24.281c-9.112 0-16.525 7.413-16.525 16.525v12.808h-25.806c-9.112 0-16.525 7.413-16.525 16.525v33.249h-25.806c-9.112 0-16.525 7.413-16.525 16.525v43.908c0 29.053 23.636 52.689 52.689 52.689h10.808v24.686l-131.165 9.407v-6.581c0-25.551-20.787-46.338-46.338-46.338s-46.338 20.787-46.338 46.338v13.236l-131.165 9.406v-23.448h10.808c29.053 0 52.689-23.636 52.689-52.689v-43.908c0-9.112-7.413-16.525-16.525-16.525h-25.807v-52.712h30.677c9.112 0 16.525-7.413 16.525-16.525v-32.937c0-9.112-7.413-16.525-16.525-16.525h-29.152c-9.112 0-16.525 7.413-16.525 16.525v34.461h-25.807c-9.112 0-16.525 7.413-16.525 16.525v25.453h-25.806c-9.112 0-16.525 7.413-16.525 16.526v69.642c0 29.053 23.636 52.689 52.689 52.689h10.808v24.523l-42.789 3.068c-5.638.394-10.87 2.893-14.745 7.049-3.845 4.144-5.963 9.536-5.963 15.184 0 6.163 2.586 12.106 7.096 16.307 4.129 3.845 9.601 5.98 15.219 5.98.522 0 1.047-.019 1.571-.056l185.775-13.324v43.235h-25.457c-12.555 0-23.624 8.461-26.918 20.576l-7.813 28.731c-1.655 6.087-.408 12.453 3.423 17.464 3.831 5.012 9.645 7.886 15.953 7.886h174.3c6.308 0 12.123-2.874 15.953-7.886 3.831-5.011 5.079-11.377 3.423-17.463l-7.813-28.732c-3.295-12.115-14.364-20.576-26.918-20.576h-25.457v-79.541l186.853-13.402c2.037-.147 3.99.537 5.486 1.929 1.498 1.394 2.323 3.29 2.323 5.34 0 1.844-.695 3.608-1.946 4.956-1.267 1.358-2.98 2.18-4.821 2.313l-160.839 11.534c-4.131.296-7.24 3.886-6.944 8.018.283 3.949 3.575 6.964 7.473 6.964.18 0 .362-.007.544-.02l160.844-11.534c5.633-.407 10.859-2.91 14.726-7.058 3.846-4.142 5.963-9.531 5.963-15.173 0-6.172-2.59-12.122-7.105-16.323-4.514-4.199-10.632-6.344-16.781-5.908l-39.61 2.841v-23.61h10.808zm-359.648-188.59c0-.841.684-1.525 1.525-1.525h29.152c.841 0 1.525.684 1.525 1.525v32.937c0 .841-.684 1.525-1.525 1.525h-30.677zm124.999 216.102c0-17.28 14.058-31.338 31.338-31.338s31.338 14.058 31.338 31.338v101.161h-62.677v-101.161zm-124.999-97.403c0-.841.684-1.525 1.525-1.525h24.281c.841 0 1.525.684 1.525 1.525v36.408h-27.331zm-84.663 36.408v-62.142c0-.841.684-1.525 1.525-1.525h24.281c.841 0 1.525.684 1.525 1.525v34.512c0 4.142 3.358 7.5 7.5 7.5s7.5-3.358 7.5-7.5v-76.49c0-.841.684-1.525 1.525-1.525h25.806v105.646h-69.662zm37.689 45.189c-18.215 0-33.453-12.988-36.94-30.189h110.495c-3.487 17.201-18.725 30.189-36.94 30.189zm-29.871 72.093c-2.049.146-4-.543-5.498-1.939-1.496-1.393-2.32-3.286-2.32-5.33 0-1.851.695-3.618 1.946-4.966 1.265-1.357 2.972-2.174 4.821-2.303l187.895-13.474v14.612zm304.977 59.874c5.804 0 10.921 3.912 12.444 9.512l7.813 28.732c.574 2.108-.296 3.673-.866 4.418s-1.851 1.995-4.036 1.995h-174.3c-2.185 0-3.466-1.25-4.036-1.995-.569-.745-1.439-2.31-.866-4.418l7.813-28.731c1.523-5.601 6.64-9.512 12.444-9.512h143.59zm141.873-319.377c0-.841.684-1.525 1.525-1.525h24.281c.841 0 1.525.684 1.525 1.525v115.514h-27.332v-115.514zm-42.331 29.332c0-.841.684-1.525 1.525-1.525h24.281c.841 0 1.525.684 1.525 1.525v86.182h-27.331zm-42.331 86.182v-36.408c0-.841.684-1.525 1.525-1.525h24.281c.841 0 1.525.684 1.525 1.525v36.408zm37.689 45.19c-18.215 0-33.453-12.988-36.94-30.189h110.495c-3.487 17.201-18.725 30.189-36.94 30.189z"/><path d="m184.4 170.84h5.321v5.321c0 4.142 3.358 7.5 7.5 7.5s7.5-3.358 7.5-7.5v-5.321h5.321c4.142 0 7.5-3.358 7.5-7.5s-3.358-7.5-7.5-7.5h-5.321v-5.321c0-4.142-3.358-7.5-7.5-7.5s-7.5 3.358-7.5 7.5v5.321h-5.321c-4.142 0-7.5 3.358-7.5 7.5s3.358 7.5 7.5 7.5z"/><path d="m79.341 44.461h5.321v5.321c0 4.142 3.358 7.5 7.5 7.5s7.5-3.358 7.5-7.5v-5.321h5.321c4.142 0 7.5-3.358 7.5-7.5s-3.358-7.5-7.5-7.5h-5.321v-5.321c0-4.142-3.358-7.5-7.5-7.5s-7.5 3.358-7.5 7.5v5.321h-5.321c-4.142 0-7.5 3.358-7.5 7.5s3.358 7.5 7.5 7.5z"/><circle cx="256" cy="323.696" r="7.758"/></g></svg>
