<svg id="Capa_1" enable-background="new 0 0 512.017 512.017" height="512" viewBox="0 0 512.017 512.017" width="512" xmlns="http://www.w3.org/2000/svg"><g><g><path d="m508.566 227.979c-4.6-11.105-13.249-19.754-24.354-24.354l-38.741-16.047c-7.404-3.067-13.17-8.833-16.237-16.236l-12.367-29.856c.072 0 .145.005.217.005 15.365 0 30.729-5.849 42.426-17.546 23.394-23.394 23.394-61.458 0-84.853s-61.459-23.395-84.853 0c-10.203 10.203-15.954 23.198-17.257 36.548l-39.607-26.465c-26.652-17.806-58.643-24.167-90.079-17.917l-43.089 8.571c-11.79 2.345-21.96 9.14-28.638 19.135-6.678 9.994-9.064 21.991-6.719 33.779 2.345 11.789 9.141 21.959 19.135 28.637 9.994 6.677 21.987 9.063 33.779 6.719l43.09-8.571c7.858-1.564 15.857.026 22.521 4.479l13.157 8.791-87.671 87.671h-193.279v30h163.281l-21.213 21.213c-5.667 5.667-13.2 8.787-21.213 8.787h-105.855v90h105.855c32.053 0 62.187-12.483 84.853-35.147l20.459-20.459 31.066 31.066c5.666 5.667 8.787 13.2 8.786 21.213v33.328h-90v30h90v60h90v-123.328c0-32.053-12.482-62.188-35.147-84.852l-9.853-9.853 46.041-46.041c13.073 19.697 31.696 35.105 53.969 44.331l38.742 16.047c5.553 2.3 11.386 3.45 17.221 3.45 5.834 0 11.668-1.15 17.221-3.45 11.105-4.6 19.754-13.249 24.354-24.354s4.6-23.336-.001-34.441zm-112.694-167.674c5.849-5.848 13.531-8.772 21.213-8.772s15.365 2.924 21.213 8.772c11.697 11.697 11.697 30.729 0 42.427-11.697 11.696-30.729 11.696-42.427 0-11.696-11.698-11.696-30.73.001-42.427zm-156.451 29.8-43.089 8.571c-3.93.783-7.928-.013-11.26-2.239-3.331-2.226-5.596-5.616-6.378-9.546s.014-7.929 2.239-11.26c2.226-3.332 5.616-5.597 9.546-6.378l43.09-8.571c23.578-4.69 47.571.083 67.56 13.437l23.081 15.422-21.629 21.629-18.119-12.107c-13.327-8.903-29.321-12.082-45.041-8.958zm110.221 16.43 20.009 13.37.143.094c1.754 1.143 3.391 2.471 4.866 3.945 11.697 11.697 11.697 30.729 0 42.427l-63.64 63.64-42.426-42.426zm-228.788 233.935h-75.854v-30h75.854.002c10.896 0 21.346-2.892 30.483-8.302l21.655 21.655c-15.127 10.801-33.179 16.647-52.14 16.647zm105.313-68.033-31.067 31.066-21.213-21.213 73.493-73.493 42.426 42.426-21.214 21.214 20.46 20.46-21.213 21.213zm99.853 94.705v93.328h-30v-93.328c0-10.897-2.892-21.348-8.301-30.485l21.655-21.655c10.8 15.128 16.646 33.18 16.646 52.14zm154.83-116.202c-1.533 3.702-4.416 6.584-8.118 8.118-3.702 1.533-7.779 1.533-11.48 0l-38.742-16.048c-18.607-7.708-33.804-21.172-43.646-38.419l17.008-17.008c1.879-1.879 3.591-3.862 5.168-5.916l.478 1.154c6.134 14.806 17.666 26.338 32.473 32.471l38.741 16.047c3.702 1.533 6.584 4.416 8.118 8.118s1.533 7.781 0 11.483z"/></g><g><path d="m0 460.47h236.019v30h-236.019z"/></g><g><path d="m30 400.47h116.019v30h-116.019z"/></g><g><path d="m0 160.47h133.847v30h-133.847z"/></g></g></svg>
