<svg height="512pt" viewBox="-3 0 512 512.001" width="512pt" xmlns="http://www.w3.org/2000/svg"><path d="m506.082031 10c0-5.523438-4.476562-10-10-10-47.679687 0-94.191406 9.253906-138.242187 27.496094-28.085938 11.636718-54.28125 26.574218-78.328125 44.601562-.316407-.03125-.640625-.046875-.964844-.046875-.089844 0-.179687 0-.269531.003907-61.269532 1.617187-118.882813 26.371093-162.21875 69.710937l-53.277344 53.277344c-3.90625 3.90625-3.90625 10.238281 0 14.144531l44.3125 44.308594 30.589844 30.589844c-27.941406 30.835937-46.273438 69.960937-51.925782 111.246093l-2.179687 15.910157c-.425781 3.097656.625 6.214843 2.835937 8.425781 1.890626 1.890625 4.4375 2.929687 7.070313 2.929687.449219 0 .902344-.03125 1.355469-.09375l15.910156-2.175781c41.285156-5.652344 80.410156-23.984375 111.246094-51.925781l30.589844 30.585937 44.308593 44.3125c1.953125 1.953125 4.515625 2.929688 7.074219 2.929688s5.117188-.976563 7.070312-2.929688l53.277344-53.273437c43.335938-43.339844 68.09375-100.949219 69.710938-162.21875.011718-.417969-.011719-.828125-.050782-1.230469 18.03125-24.046875 32.972657-50.246094 44.605469-78.332031 18.25-44.054688 27.5-90.566406 27.5-138.246094zm-375.882812 145.90625c33.484375-33.480469 76.265625-54.855469 122.515625-61.621094-4.097656 3.742188-8.128906 7.578125-12.074219 11.519532l-126.476563 126.476562-30.167968-30.167969zm-22.160157 244.605469-2.859374.390625.390624-2.855469c5.0625-36.984375 21.382813-72.058594 46.265626-99.804687l56.007812 56.003906c-27.75 24.882812-62.824219 41.203125-99.804688 46.265625zm242.132813-24.628907-46.203125 46.207032-30.171875-30.171875 26.769531-26.769531c3.902344-3.902344 3.902344-10.234376 0-14.140626-3.90625-3.90625-10.238281-3.90625-14.144531 0l-26.765625 26.765626-30.410156-30.40625-100.941406-100.941407 126.480468-126.476562c62.054688-62.058594 143.796875-97.269531 231.148438-99.804688-2.53125 87.355469-37.742188 169.097657-99.800782 231.152344l-39.964843 39.964844c-3.90625 3.90625-3.90625 10.238281 0 14.144531 3.90625 3.902344 10.234375 3.902344 14.140625 0l39.964844-39.964844c3.945312-3.945312 7.78125-7.976562 11.519531-12.074218-6.761719 46.25-28.136719 89.03125-61.621094 122.515624zm0 0"/><path d="m322.832031 318.75c-2.640625 0-5.210937 1.058594-7.078125 2.929688-1.863281 1.859374-2.921875 4.429687-2.921875 7.070312 0 2.628906 1.058594 5.210938 2.921875 7.070312 1.867188 1.859376 4.4375 2.929688 7.078125 2.929688 2.628907 0 5.199219-1.070312 7.070313-2.929688 1.859375-1.859374 2.929687-4.441406 2.929687-7.070312 0-2.640625-1.070312-5.210938-2.929687-7.070312-1.871094-1.871094-4.449219-2.929688-7.070313-2.929688zm0 0"/><path d="m302.210938 203.871094c-9.441407-9.445313-22-14.644532-35.355469-14.644532-13.351563 0-25.910157 5.199219-35.351563 14.644532-9.445312 9.441406-14.648437 22-14.648437 35.355468 0 13.351563 5.203125 25.910157 14.648437 35.351563 9.441406 9.445313 22 14.648437 35.351563 14.648437 13.355469 0 25.914062-5.203124 35.355469-14.648437 9.445312-9.441406 14.644531-22 14.644531-35.351563 0-13.355468-5.199219-25.914062-14.644531-35.355468zm-14.140626 56.566406c-5.667968 5.667969-13.199218 8.789062-21.214843 8.789062-8.011719 0-15.546875-3.121093-21.210938-8.789062-5.667969-5.664062-8.789062-13.199219-8.789062-21.210938 0-8.015624 3.121093-15.546874 8.789062-21.214843 5.664063-5.667969 13.199219-8.785157 21.210938-8.785157 8.015625 0 15.546875 3.117188 21.214843 8.785157 5.664063 5.667969 8.785157 13.199219 8.785157 21.214843 0 8.011719-3.121094 15.546876-8.785157 21.210938zm0 0"/><path d="m367.378906 188.703125c13.355469 0 25.914063-5.203125 35.355469-14.644531 9.445313-9.445313 14.644531-22 14.644531-35.355469s-5.199218-25.914063-14.644531-35.355469c-9.441406-9.445312-22-14.644531-35.355469-14.644531-13.355468 0-25.910156 5.199219-35.355468 14.644531-9.441407 9.441406-14.644532 22-14.644532 35.355469s5.203125 25.910156 14.644532 35.355469c9.445312 9.441406 22 14.644531 35.355468 14.644531zm-21.210937-71.214844c5.664062-5.667969 13.199219-8.785156 21.210937-8.785156 8.015625 0 15.546875 3.117187 21.214844 8.785156s8.785156 13.199219 8.785156 21.214844c0 8.011719-3.117187 15.546875-8.785156 21.210937-5.667969 5.667969-13.199219 8.789063-21.214844 8.789063-8.011718 0-15.546875-3.121094-21.210937-8.789063-5.667969-5.664062-8.789063-13.199218-8.789063-21.210937 0-8.015625 3.121094-15.546875 8.789063-21.214844zm0 0"/><path d="m224.757812 412.675781-68.335937 68.332031c-3.90625 3.90625-3.90625 10.238282 0 14.144532 1.953125 1.949218 4.511719 2.925781 7.070313 2.925781 2.558593 0 5.117187-.976563 7.070312-2.925781l68.335938-68.335938c3.90625-3.902344 3.90625-10.234375 0-14.140625-3.902344-3.902343-10.234376-3.90625-14.140626 0zm0 0"/><path d="m51.011719 333.554688-48.082031 48.082031c-3.90625 3.902343-3.90625 10.234375 0 14.140625 1.953124 1.953125 4.511718 2.929687 7.070312 2.929687s5.117188-.976562 7.070312-2.929687l48.082032-48.078125c3.90625-3.90625 3.90625-10.238281 0-14.144531s-10.234375-3.90625-14.140625 0zm0 0"/><path d="m87.3125 321.398438c2.628906 0 5.199219-1.070313 7.070312-2.929688 1.859376-1.859375 2.929688-4.4375 2.929688-7.070312 0-2.628907-1.070312-5.210938-2.929688-7.070313-1.871093-1.859375-4.441406-2.929687-7.070312-2.929687-2.632812 0-5.210938 1.070312-7.082031 2.929687-1.859375 1.859375-2.929688 4.441406-2.929688 7.070313 0 2.632812 1.070313 5.210937 2.929688 7.070312 1.871093 1.859375 4.449219 2.929688 7.082031 2.929688zm0 0"/><path d="m128.011719 449.515625-45.414063 45.414063c-3.90625 3.90625-3.90625 10.234374 0 14.140624 1.953125 1.953126 4.511719 2.929688 7.070313 2.929688 2.558593 0 5.117187-.976562 7.070312-2.929688l45.414063-45.414062c3.90625-3.902344 3.90625-10.234375 0-14.140625s-10.234375-3.90625-14.140625 0zm0 0"/></svg>
