<svg id="Capa_1" enable-background="new 0 0 512 512" height="512" viewBox="0 0 512 512" width="512" xmlns="http://www.w3.org/2000/svg"><g><path d="m239.649 44.317c4.142 0 7.5-3.357 7.5-7.5v-6.166c0-4.143-3.358-7.5-7.5-7.5s-7.5 3.357-7.5 7.5v6.166c0 4.143 3.358 7.5 7.5 7.5z"/><path d="m298.219 41.234c4.143 0 7.5-3.357 7.5-7.5s-3.357-7.5-7.5-7.5h-31.707c-4.143 0-7.5 3.357-7.5 7.5s3.357 7.5 7.5 7.5z"/><path d="m216.743 55.892-7.237-15.541c-2.927-6.289-9.301-10.351-16.236-10.351h-41.983c-9.876 0-17.911 8.035-17.911 17.911v362.851c0 4.143 3.358 7.5 7.5 7.5s7.5-3.357 7.5-7.5v-362.851c0-1.605 1.306-2.911 2.911-2.911h41.983c1.127 0 2.163.66 2.639 1.683l7.237 15.541c2.928 6.288 9.301 10.351 16.236 10.351h99.103c6.936 0 13.309-4.062 16.236-10.351l7.237-15.541c.477-1.023 1.512-1.683 2.639-1.683h41.982c1.605 0 2.911 1.306 2.911 2.911v416.179c0 1.605-1.306 2.911-2.911 2.911h-235.292c-1.605 0-2.911-1.306-2.911-2.911v-24.328c0-4.143-3.358-7.5-7.5-7.5s-7.5 3.357-7.5 7.5v24.328c0 9.876 8.035 17.911 17.911 17.911h235.293c9.876 0 17.911-8.035 17.911-17.911v-416.179c0-9.876-8.035-17.911-17.911-17.911h-41.982c-6.936 0-13.309 4.062-16.236 10.351l-7.237 15.541c-.477 1.022-1.512 1.683-2.639 1.683h-99.103c-1.128-.001-2.164-.661-2.64-1.683z"/><path d="m396.489 0h-150.435c-4.142 0-7.5 3.357-7.5 7.5s3.358 7.5 7.5 7.5h150.435c12.684 0 23.002 10.319 23.002 23.003v435.995c0 12.684-10.318 23.002-23.002 23.002h-255.11c-12.684 0-23.002-10.318-23.002-23.002v-435.995c0-12.684 10.319-23.003 23.002-23.003h75.675c4.142 0 7.5-3.357 7.5-7.5s-3.358-7.5-7.5-7.5h-75.675c-20.955 0-38.002 17.048-38.002 38.003v33.351h-14.184c-6.442 0-11.684 5.241-11.684 11.684v48c0 6.442 5.241 11.684 11.684 11.684h14.184v9.184h-14.184c-6.442 0-11.684 5.241-11.684 11.684v23.339c0 6.442 5.241 11.684 11.684 11.684h14.184v9.184h-14.184c-6.442 0-11.684 5.241-11.684 11.684v23.34c0 6.441 5.241 11.683 11.684 11.683h14.184v219.498c0 20.954 17.048 38.002 38.002 38.002h255.11c20.954 0 38.002-17.048 38.002-38.002v-435.999c0-20.955-17.048-38.003-38.002-38.003zm-303.98 127.721v-41.367h10.867v41.367zm0 55.889v-16.706h10.867v16.706zm0 55.89v-16.706h10.867v16.706z"/><path d="m232.084 377.721c-9.268 0-16.807 7.539-16.807 16.807v29.358c0 9.268 7.54 16.808 16.807 16.808h73.699c9.268 0 16.807-7.54 16.807-16.808v-29.358c0-9.268-7.539-16.807-16.807-16.807zm75.506 16.806v29.358c0 .997-.811 1.808-1.807 1.808h-73.699c-.997 0-1.807-.811-1.807-1.808v-29.358c0-.996.811-1.807 1.807-1.807h73.699c.996.001 1.807.811 1.807 1.807z"/><path d="m268.933 190.443c-4.143 0-7.5 3.357-7.5 7.5v29.725c0 4.143 3.357 7.5 7.5 7.5h17.175c4.143 0 7.5-3.357 7.5-7.5s-3.357-7.5-7.5-7.5h-9.675v-22.225c0-4.142-3.357-7.5-7.5-7.5z"/><path d="m296.162 151.97-12.158 12.159c-4.84-1.148-9.885-1.759-15.07-1.759s-10.23.611-15.07 1.759l-12.159-12.16c-6.592-6.593-17.319-6.592-23.911.001l-17.794 17.794c-3.193 3.193-4.952 7.439-4.952 11.955 0 4.517 1.759 8.763 4.952 11.956l8.724 8.724c-3.276 7.777-5.089 16.315-5.089 25.269 0 21.454 10.402 40.523 26.426 52.434l-7.304 16.36h-28.027c-4.142 0-7.5 3.357-7.5 7.5s3.358 7.5 7.5 7.5h148.406c4.143 0 7.5-3.357 7.5-7.5s-3.357-7.5-7.5-7.5h-28.027l-7.293-16.336c3.966-2.942 7.626-6.348 10.891-10.189 2.683-3.156 2.299-7.89-.857-10.572s-7.891-2.299-10.572.857c-9.585 11.276-23.561 17.744-38.344 17.744-27.734 0-50.298-22.563-50.298-50.298s22.563-50.298 50.298-50.298 50.299 22.563 50.299 50.298c0 3.306-.322 6.611-.958 9.825-.804 4.063 1.839 8.009 5.902 8.812 4.063.808 8.008-1.838 8.812-5.902.825-4.17 1.243-8.455 1.243-12.735 0-8.954-1.813-17.493-5.089-25.27l8.725-8.724c6.59-6.592 6.59-17.317 0-23.91l-17.795-17.795c-6.595-6.592-17.32-6.593-23.911.001zm-1.412 135.685 3.932 8.807h-59.497l3.937-8.819c7.922 3.422 16.648 5.323 25.812 5.323 8.995 0 17.76-1.844 25.816-5.311zm-78.32-98.764-5.823-5.823c-.744-.743-.744-1.953 0-2.697l17.794-17.794c.744-.743 1.954-.743 2.697-.001l7.358 7.359c-8.685 4.603-16.213 11.107-22.026 18.956zm110.831-5.824-5.824 5.824c-5.813-7.85-13.341-14.354-22.026-18.957l7.358-7.358c.743-.744 1.955-.742 2.696 0l17.795 17.794c.744.744.744 1.954.001 2.697z"/><path d="m199.146 133.154c-4.625 1.064-8.85 3.406-12.218 6.774-3.81 3.811-6.268 8.632-7.108 13.943-.646 4.091 2.146 7.932 6.237 8.579 4.118.648 7.936-2.169 8.58-6.237.341-2.16 1.344-4.124 2.898-5.679 1.375-1.375 3.094-2.33 4.974-2.762 4.037-.929 6.556-4.954 5.627-8.991-.929-4.035-4.958-6.552-8.99-5.627z"/><path d="m193.297 111.888c-8.293 2.077-15.885 6.384-21.955 12.454-6.438 6.437-10.86 14.523-12.79 23.387-.881 4.047 1.686 8.042 5.733 8.923 4.047.882 8.043-1.685 8.924-5.733 1.316-6.047 4.338-11.569 8.739-15.97 4.15-4.15 9.334-7.093 14.993-8.51 4.018-1.007 6.459-5.079 5.453-9.098-1.005-4.019-5.078-6.461-9.097-5.453z"/><path d="m329.73 138.782c-.928 4.037 1.592 8.062 5.628 8.991 1.88.432 3.6 1.387 4.973 2.761 1.556 1.556 2.559 3.521 2.9 5.681.646 4.078 4.474 6.884 8.58 6.236 4.092-.647 6.884-4.489 6.236-8.58-.841-5.311-3.298-10.131-7.108-13.943-3.368-3.367-7.593-5.709-12.219-6.773-4.036-.928-8.061 1.59-8.99 5.627z"/><path d="m340.926 126.438c5.658 1.417 10.843 4.359 14.993 8.511 4.4 4.399 7.422 9.922 8.739 15.97.881 4.047 4.877 6.615 8.924 5.732 4.047-.881 6.614-4.877 5.732-8.924-1.93-8.862-6.352-16.948-12.788-23.386-6.071-6.07-13.664-10.377-21.956-12.454-4.02-1.004-8.091 1.436-9.098 5.453-1.005 4.019 1.436 8.093 5.454 9.098z"/></g></svg>
