<svg id="Capa_1" enable-background="new 0 0 512 512" height="512" viewBox="0 0 512 512" width="512" xmlns="http://www.w3.org/2000/svg"><g><g><g><path d="m377.64 347.666c-4.473 0-8.1 3.626-8.1 8.099s3.626 8.1 8.1 8.1c4.473 0 8.099-3.626 8.099-8.1s-3.626-8.099-8.099-8.099z"/><path d="m377.716 334.615c4.149 0 7.511-3.363 7.511-7.511v-67.172c0-4.148-3.362-7.511-7.511-7.511-4.148 0-7.511 3.363-7.511 7.511v67.172c0 4.148 3.362 7.511 7.511 7.511z"/><path d="m377.64 219.085c-7.974 0-15.716 1.011-23.105 2.912v-14.937c0-59.921-37.644-111.208-90.522-131.476 2.741-6.491 4.267-13.614 4.267-21.092 0-30.047-24.445-54.492-54.492-54.492s-54.491 24.445-54.491 54.491c0 7.469 1.522 14.586 4.256 21.071-16.063 6.135-30.994 15.219-44.006 26.957-3.081 2.778-3.325 7.528-.547 10.608 2.781 3.081 7.53 3.324 10.608.546 23.118-20.854 53.014-32.339 84.18-32.339 69.324 0 125.725 56.4 125.725 125.725v20.222c-32.217 14.573-54.688 47.021-54.688 84.618 0 11.997 2.288 23.47 6.45 34.005h-203.212v-138.845c0-24.475 7.036-48.196 20.346-68.599 2.267-3.474 1.288-8.128-2.187-10.394-3.474-2.266-8.129-1.288-10.394 2.186-14.907 22.851-22.787 49.41-22.787 76.807v143.829l-28.543 37.616c-1.903 2.506-2.952 5.62-2.952 8.768v27.183c0 7.996 6.505 14.501 14.501 14.501h94.92c-.468 3.102-.719 6.274-.719 9.504 0 35.036 28.504 63.541 63.541 63.541 35.036 0 63.541-28.504 63.541-63.541 0-3.232-.263-6.402-.735-9.504h29.487c4.149 0 7.511-3.363 7.511-7.511s-3.362-7.511-7.511-7.511h-249.514v-26.486l27.713-36.521h214.585c15.307 24.506 41.72 41.39 72.142 43.548v19.459h-29.946c-4.148 0-7.511 3.363-7.511 7.511s3.362 7.511 7.511 7.511h30.467c7.996 0 14.5-6.505 14.5-14.501v-20.125c47.261-4.255 84.425-44.082 84.425-92.431 0-51.178-41.636-92.814-92.814-92.814zm-127.992-148.137c-11.454-3.02-23.471-4.636-35.86-4.636-12.217 0-24.259 1.583-35.863 4.634-2.311-5.012-3.607-10.584-3.607-16.455 0-21.764 17.706-39.469 39.469-39.469s39.469 17.706 39.469 39.469c.002 5.873-1.295 11.445-3.608 16.457zm-83.427 368.007h95.144c.616 3.074.942 6.251.942 9.504 0 26.753-21.765 48.519-48.519 48.519s-48.519-21.766-48.519-48.519c.001-3.254.335-6.429.952-9.504zm211.419-49.263c-42.895 0-77.793-34.898-77.793-77.793s34.897-77.793 77.793-77.793 77.793 34.898 77.793 77.793c-.001 42.895-34.898 77.793-77.793 77.793z"/></g></g></g></svg>
