<svg height="512pt" viewBox="0 0 512.00075 512" width="512pt" xmlns="http://www.w3.org/2000/svg"><g fill="#020202"><path d="m200 10c0 5.523438-4.476562 10-10 10s-10-4.476562-10-10 4.476562-10 10-10 10 4.476562 10 10zm0 0"/><path d="m190.5 380.5c36.890625 0 72.335938-10.476562 103.0625-30.363281l158.9375 158.933593c3.902344 3.902344 10.234375 3.90625 14.140625 0l42.429687-42.429687c3.90625-3.90625 3.90625-10.234375 0-14.140625l-158.933593-158.9375c19.886719-30.722656 30.363281-66.171875 30.363281-103.0625 0-16.753906-2.179688-33.332031-6.476562-49.371094l36.179687-36.179687c5.953125 3.523437 12.890625 5.550781 20.296875 5.550781 22.054688 0 40-17.941406 40-40 0-22.054688-17.945312-40-40-40s-40 17.945312-40 40c0 7.410156 2.03125 14.351562 5.558594 20.308594l-29.109375 29.109375c-22.445313-56.140625-70.917969-99.175781-129.824219-114.121094-5.355469-1.359375-10.792969 1.882813-12.152344 7.234375-1.355468 5.355469 1.882813 10.796875 7.234375 12.152344 55.523438 14.085937 100.699219 56.066406 119.199219 110.277344l-50.597656 50.597656c-5.957032-3.523438-12.898438-5.558594-20.308594-5.558594-7.261719 0-14.226562 1.929688-20.320312 5.539062l-35.234376-35.234374c3.523438-5.957032 5.554688-12.894532 5.554688-20.304688 0-22.054688-17.945312-40-40-40s-40 17.945312-40 40c0 7.410156 2.03125 14.351562 5.558594 20.308594l-35.25 35.25c-5.957032-3.523438-12.898438-5.558594-20.308594-5.558594-22.054688 0-40 17.945312-40 40 0 22.058594 17.945312 40 40 40s40-17.941406 40-40c0-7.402344-2.03125-14.339844-5.550781-20.292969l35.253906-35.257812c5.957031 3.523437 12.890625 5.550781 20.296875 5.550781s14.347656-2.03125 20.300781-5.554688l35.234375 35.234376c-3.605468 6.09375-5.535156 13.058593-5.535156 20.320312 0 22.058594 17.945312 40 40 40s40-17.941406 40-40c0-7.402344-2.03125-14.339844-5.550781-20.292969l42.40625-42.410156c2.085937 10.726563 3.144531 21.671875 3.144531 32.703125 0 93.886719-76.082031 170-170 170-94.015625 0-170.5-76.261719-170.5-170 0-77.695312 52.582031-145.582031 127.871094-165.085938 5.347656-1.386718 8.558594-6.84375 7.171875-12.191406-1.386719-5.34375-6.84375-8.558594-12.1875-7.171875-81.261719 21.050781-142.855469 95.203125-142.855469 184.449219 0 104.765625 85.457031 190 190.5 190zm240-330c11.027344 0 20 8.972656 20 20s-8.972656 20-20 20-20-8.972656-20-20 8.972656-20 20-20zm-330 190c-11.027344 0-20-8.972656-20-20s8.972656-20 20-20 20 8.972656 20 20-8.972656 20-20 20zm70-110c0-11.027344 8.972656-20 20-20s20 8.972656 20 20-8.972656 20-20 20-20-8.972656-20-20zm110 110c-11.027344 0-20-8.972656-20-20 0-11.042969 8.953125-20 20-20 11.027344 0 20 8.972656 20 20s-8.972656 20-20 20zm179.070312 247.359375-111.136718-111.140625 28.285156-28.285156 111.136719 111.136718zm-121.320312-177.898437 24.328125 24.328124-28.289063 28.289063-24.328124-24.328125c10.40625-8.417969 19.867187-17.882812 28.289062-28.289062zm0 0"/></g></svg>
