<svg id="Capa_1" enable-background="new 0 0 512 512" height="512" viewBox="0 0 512 512" width="512" xmlns="http://www.w3.org/2000/svg"><g><g><path d="m256.002 452.459c-13.411 0-24.321-10.911-24.321-24.321s10.911-24.321 24.321-24.321 24.321 10.911 24.321 24.321-10.91 24.321-24.321 24.321zm0-33.642c-5.14 0-9.321 4.182-9.321 9.321s4.182 9.321 9.321 9.321 9.321-4.182 9.321-9.321-4.181-9.321-9.321-9.321z"/></g><path d="m480.94 306.007v-228.878c0-8.271-6.729-15-15-15h-47.125c-8.271 0-15 6.729-15 15v141.969c-.319-.226-.638-.451-.958-.676-.048-.034-.097-.067-.146-.1-4.891-3.426-9.88-6.669-14.958-9.727v-162.528c0-8.271-6.729-15-15-15h-47.125c-8.271 0-15 6.729-15 15v131.896c-5.312-1.153-10.668-2.136-16.062-2.949v-51.291c0-8.271-6.729-15-15-15h-47.126c-8.271 0-15 6.729-15 15v51.291c-5.394.813-10.751 1.797-16.063 2.949v-147.427c0-8.271-6.729-15-15-15h-47.125c-8.271 0-15 6.729-15 15v79.776c0 4.142 3.358 7.5 7.5 7.5s7.5-3.358 7.5-7.5v-79.776h47.125v151.165c-16.26 4.581-32.032 10.781-47.125 18.539v-53.927c0-4.142-3.358-7.5-7.5-7.5s-7.5 3.358-7.5 7.5v62.287c-5.497 3.31-10.82 6.793-16.062 10.506v-64.319c0-8.271-6.729-15-15-15h-47.125c-8.271 0-15 6.729-15 15v151.223c-20.094 37.002-31.065 78.895-31.065 122.126 0 16.95 1.666 33.889 4.951 50.348 1.201 6.019 4.891 11.336 10.123 14.588 3.598 2.236 7.75 3.393 11.93 3.393 1.949 0 3.904-.252 5.812-.763l31.124-8.337c11.31-3.029 18.475-14.354 16.311-25.782-2.07-10.941-3.12-22.194-3.12-33.446 0-98.313 79.699-178.87 178.87-178.87 20.87 0 41.307 3.558 60.743 10.575 3.897 1.406 8.195-.611 9.601-4.507 1.407-3.896-.611-8.194-4.507-9.601-21.074-7.609-43.225-11.467-65.837-11.467-37.556 0-73.692 10.649-104.98 30.865l-27.052-38.635c79.58-52.258 183.697-52.782 264.075 0l-27.053 38.636c-1.926-1.243-3.873-2.452-5.828-3.619-3.556-2.121-8.162-.958-10.283 2.599-2.122 3.557-.959 8.161 2.599 10.283 30.921 18.446 55.61 45.687 70.802 78.377l-90.646 24.288c-12.22 3.276-24.82 4.548-37.451 3.793l-8.907-.534c-7.547-4.005-16.15-6.275-25.273-6.275-9.528 0-18.899 2.514-27.101 7.27-3.583 2.078-4.804 6.667-2.726 10.25 2.079 3.584 6.668 4.805 10.25 2.726 5.918-3.432 12.688-5.246 19.577-5.246 21.556 0 39.094 17.538 39.094 39.094s-17.538 39.094-39.094 39.094-39.094-17.538-39.094-39.094c0-3.793.541-7.54 1.607-11.136 1.178-3.971-1.087-8.145-5.058-9.323-3.971-1.177-8.145 1.087-9.323 5.058-1.477 4.98-2.226 10.162-2.226 15.4 0 29.827 24.267 54.094 54.094 54.094 19.256 0 36.195-10.114 45.782-25.309l7.46-4.925c10.559-6.972 22.109-12.167 34.331-15.441l90.608-24.278c.463 5.272.697 10.576.697 15.855 0 11.231-1.05 22.485-3.12 33.447-2.16 11.428 5.003 22.754 16.31 25.788l31.111 8.33c5.914 1.585 12.401.697 17.759-2.637 5.228-3.252 8.912-8.569 10.105-14.577 3.288-16.441 4.956-33.381 4.956-50.351-.003-43.233-10.973-85.125-31.063-122.127zm-434.875-151.221h47.125v75.796c-18.114 14.95-33.923 32.187-47.125 51.129zm92.676 118.961c-48.109 36.583-76.611 93.744-76.611 154.389 0 12.186 1.138 24.377 3.382 36.236.711 3.759-1.684 7.494-5.454 8.503l-31.124 8.337c-2.039.545-4.15.233-5.943-.881-1.749-1.087-2.932-2.786-3.331-4.783-3.092-15.495-4.66-31.446-4.66-47.412 0-75.985 36.006-147.581 96.689-193.024zm186.886-227.68h47.125v154.17c-15.093-7.757-30.865-13.956-47.125-18.537zm-93.187 127.136v-49.48h47.125v49.48c-15.295-1.392-31.148-1.454-47.125 0zm186.375-96.074h47.125v204.577c-13.202-18.944-29.011-36.181-47.125-51.131zm-79.122 344.938c-10.466 2.804-20.495 6.857-29.929 12.089.22-1.976.333-3.984.333-6.018 0-12.005-3.931-23.109-10.574-32.093 10.796-.185 21.518-1.688 31.992-4.495l92.922-24.898c8.414-2.253 17.093 2.756 19.347 11.169 1.092 4.076.532 8.333-1.578 11.987-1.315 2.277-3.133 4.15-5.302 5.502-.15.083-.297.172-.44.264-1.192.69-2.483 1.227-3.849 1.593zm152.64 53.485c-.396 1.993-1.574 3.688-3.318 4.773-1.794 1.117-3.91 1.431-5.955.883l-31.107-8.329c-3.77-1.011-6.165-4.751-5.454-8.515 3.536-18.725 4.43-38.699 2.048-59.033 2.623-2.245 4.872-4.944 6.649-8.023 4.113-7.124 5.206-15.423 3.077-23.369-3.161-11.797-12.803-20.163-24.07-22.296-13.241-30.821-34.163-57.557-60.933-77.899l27.052-38.635c2.094 1.568 4.159 3.168 6.194 4.798.074.062.15.122.226.181 56.787 45.592 90.258 114.777 90.258 188.045 0 15.984-1.569 31.935-4.667 47.419z"/></g></svg>
