<svg id="Capa_1" enable-background="new 0 0 512 512" height="512" viewBox="0 0 512 512" width="512" xmlns="http://www.w3.org/2000/svg"><g><path d="m497.782 323.339c-1.364-3.911-5.64-5.976-9.552-4.612-3.911 1.364-5.976 5.64-4.612 9.551 8.88 25.464 13.382 52.239 13.382 79.583v20.111h-176.907c-3.438 0-6.579 2.027-8 5.166-9.967 22.022-31.985 36.251-56.094 36.251-24.108 0-46.126-14.229-56.094-36.252-1.42-3.137-4.561-5.165-8-5.165h-176.905v-20.111c0-137.599 112.428-241.149 240.041-241.149 14.66 0 148.545 1.844 215.189 130.488 1.906 3.678 6.432 5.114 10.109 3.21 3.678-1.905 5.115-6.432 3.21-10.109-7.557-14.587-16.516-28.407-26.771-41.316v-212.693c0-4.787-3.894-8.681-8.681-8.681h-52.861c-4.787 0-8.681 3.894-8.681 8.681v151.24c-4.141-2.464-8.346-4.806-12.611-7.024v-90.175c0-4.786-3.894-8.68-8.681-8.68h-52.861c-4.786 0-8.68 3.894-8.68 8.68v65.941c-4.177-.783-8.382-1.464-12.611-2.04v-90.332c0-4.786-3.894-8.68-8.681-8.68h-52.861c-4.786 0-8.68 3.894-8.68 8.68v90.331c-4.23.577-8.434 1.257-12.611 2.04v-52.135c0-4.786-3.894-8.68-8.681-8.68h-52.861c-4.786 0-8.68 3.894-8.68 8.68v76.369c-4.264 2.219-8.47 4.561-12.611 7.024v-54.601c0-4.786-3.894-8.68-8.68-8.68h-52.862c-4.787 0-8.681 3.894-8.681 8.68v49.572c0 4.142 3.358 7.5 7.5 7.5s7.5-3.358 7.5-7.5v-43.252h40.222v57.933c-14.498 10.062-27.973 21.64-40.222 34.543v-14.222c0-4.142-3.358-7.5-7.5-7.5s-7.5 3.358-7.5 7.5v31.48c-35.796 45.053-55.222 100.472-55.222 158.877v26.32c0 4.848 3.944 8.792 8.792 8.792h179.219c13.1 25.289 39.358 41.417 67.989 41.417 28.632 0 54.89-16.129 67.99-41.417h179.219c4.848 0 8.792-3.944 8.792-8.792v-26.32c-.001-29.029-4.785-57.467-14.219-84.522zm-96.226-280.728h40.223v189.116c-12.104-12.75-25.549-24.36-40.223-34.544zm-82.833 54.042h40.222v76.668c-12.975-5.7-26.421-10.303-40.222-13.764zm-82.834-26.431h40.222v82.412c-12.929-.998-26.442-1.064-40.222 0zm-82.833 40.236h40.222v49.098c-13.801 3.46-27.247 8.064-40.222 13.763z"/><path d="m155.844 379.247c-1.136 3.983 1.172 8.134 5.155 9.27 3.984 1.137 8.134-1.173 9.27-5.155 9.264-32.483 36.302-56.603 68.66-62.974l-6.133 7.574c-2.607 3.219-2.11 7.942 1.109 10.548 3.226 2.612 7.946 2.104 10.548-1.109l17.334-21.407c.278-.334.571-.762.794-1.171 1.686-3.084 1.02-6.955-1.7-9.294-.244-.208-.974-.793-21.619-17.511-3.218-2.606-7.942-2.111-10.548 1.109-2.607 3.219-2.11 7.941 1.109 10.548l7.176 5.811c-38.219 7.158-70.242 35.493-81.155 73.761z"/><path d="m263.5 242.194v-27.611c0-4.142-3.358-7.5-7.5-7.5s-7.5 3.358-7.5 7.5v27.611c0 4.142 3.358 7.5 7.5 7.5s7.5-3.358 7.5-7.5z"/><path d="m211.49 241.749c4.001-1.072 6.375-5.185 5.304-9.186l-3.573-13.335c-1.072-4.001-5.186-6.373-9.186-5.304-4.001 1.072-6.375 5.185-5.304 9.186l3.573 13.335c1.073 4.003 5.185 6.374 9.186 5.304z"/><path d="m134.397 286.258c2.929-2.929 2.929-7.678 0-10.606l-9.762-9.762c-2.929-2.93-7.678-2.929-10.606 0-2.929 2.929-2.929 7.678 0 10.606l9.762 9.762c2.928 2.929 7.677 2.93 10.606 0z"/><path d="m71.25 350.593c-3.999-1.068-8.113 1.302-9.186 5.303-1.072 4.001 1.302 8.114 5.303 9.186l13.335 3.573c4.008 1.071 8.115-1.306 9.186-5.303 1.072-4.001-1.302-8.114-5.303-9.186z"/><path d="m165.856 236.728c-2.071-3.588-6.658-4.817-10.245-2.745-3.587 2.071-4.816 6.658-2.745 10.245l13.806 23.912c2.077 3.599 6.668 4.811 10.245 2.745 3.587-2.071 4.816-6.658 2.745-10.245z"/><path d="m119.023 328.778c2.071-3.587.842-8.174-2.745-10.245l-23.912-13.806c-3.588-2.073-8.174-.843-10.245 2.745-2.071 3.587-.842 8.174 2.745 10.245l23.912 13.806c3.572 2.062 8.165.858 10.245-2.745z"/><path d="m309.696 236.445 3.573-13.335c1.072-4.001-1.302-8.113-5.304-9.186-3.994-1.069-8.113 1.302-9.186 5.304l-3.573 13.335c-1.072 4.001 1.302 8.113 5.304 9.186 3.999 1.069 8.112-1.298 9.186-5.304z"/><path d="m387.365 265.89-9.762 9.762c-2.929 2.929-2.929 7.677 0 10.606 2.928 2.929 7.677 2.929 10.606 0l9.762-9.762c2.929-2.929 2.929-7.677 0-10.606-2.928-2.93-7.677-2.929-10.606 0z"/><path d="m422.113 363.352c1.07 3.991 5.172 6.376 9.186 5.303l13.335-3.573c4.001-1.072 6.375-5.185 5.303-9.186s-5.185-6.372-9.186-5.303l-13.335 3.573c-4.001 1.072-6.375 5.185-5.303 9.186z"/><path d="m345.329 268.14 13.806-23.912c2.071-3.587.842-8.174-2.745-10.245-3.588-2.072-8.175-.842-10.245 2.745l-13.806 23.912c-2.071 3.587-.842 8.174 2.745 10.245 3.572 2.063 8.165.856 10.245-2.745z"/><path d="m419.634 304.727-23.912 13.806c-3.587 2.071-4.816 6.658-2.745 10.245 2.077 3.599 6.668 4.811 10.245 2.745l23.912-13.806c3.587-2.071 4.816-6.658 2.745-10.245-2.071-3.588-6.658-4.817-10.245-2.745z"/><path d="m143.967 407.861c0 4.142 3.358 7.5 7.5 7.5h56.191c3.62 23.425 23.919 41.417 48.342 41.417s44.723-17.991 48.343-41.417h172.546c4.142 0 7.5-3.358 7.5-7.5 0-126.224-102.147-228.389-228.389-228.389-126.223 0-228.389 102.147-228.389 228.389 0 4.142 3.358 7.5 7.5 7.5h81.354c4.142 0 7.5-3.358 7.5-7.5s-3.358-7.5-7.5-7.5h-73.724c3.97-114.199 98.11-205.889 213.259-205.889s209.289 91.69 213.259 205.889h-164.916c-.107-.693-.229-1.381-.365-2.065l45.348-76.895c5.941-10.076 3.366-22.966-5.992-29.985s-22.454-5.881-30.463 2.644l-61.125 65.068c-22.494 1.947-40.681 19.182-44.088 41.233h-56.191c-4.142 0-7.5 3.358-7.5 7.5zm179.836-103.53c2.769-2.947 7.296-3.341 10.53-.915 3.235 2.426 4.125 6.882 2.071 10.365l-39.594 67.137c-6.176-9.323-15.458-16.418-26.359-19.795zm-68.161 69.616c18.764-.196 34.275 14.994 34.275 33.914 0 18.702-15.215 33.917-33.917 33.917s-33.917-15.215-33.917-33.917c0-18.421 14.824-33.686 33.559-33.914z"/></g></svg>
