<svg id="Capa_1" enable-background="new 0 0 511.989 511.989" height="512" viewBox="0 0 511.989 511.989" width="512" xmlns="http://www.w3.org/2000/svg"><g><path d="m272.033 440.887h-208.419c-.285 0-.517-.231-.517-.516v-353.225h56.629c8.556 0 15.517-6.961 15.517-15.517v-56.629h232.983c.285 0 .517.231.517.517v272.548c0 4.143 3.357 7.5 7.5 7.5s7.5-3.357 7.5-7.5v-272.548c0-8.556-6.961-15.517-15.517-15.517h-241.859c-6.284 0-12.193 2.447-16.64 6.892l-54.736 54.738c-4.445 4.443-6.894 10.354-6.894 16.64v362.102c0 8.556 6.961 15.516 15.517 15.516h208.419c4.143 0 7.5-3.357 7.5-7.5s-3.358-7.501-7.5-7.501zm-151.79-423.297v54.039c0 .285-.231.517-.517.517h-54.037z"/><path d="m457.011 471.827-45.346-45.346c-7.32-7.318-18.293-8.778-27.094-4.421l-16.813-16.813c9.985-12.314 15.984-27.985 15.984-45.037 0-39.496-32.133-71.629-71.629-71.629-39.497 0-71.63 32.133-71.63 71.629s32.133 71.629 71.63 71.629c17.052 0 32.723-5.999 45.037-15.984l16.812 16.812c-4.358 8.801-2.897 19.775 4.422 27.095l45.347 45.347c4.588 4.587 10.613 6.881 16.64 6.881 6.025 0 12.052-2.294 16.64-6.881 9.175-9.176 9.175-24.106 0-33.282zm-144.897-54.988c-31.226 0-56.63-25.403-56.63-56.629s25.404-56.629 56.63-56.629 56.629 25.403 56.629 56.629-25.404 56.629-56.629 56.629zm76.879 20.25c1.663-1.664 3.848-2.495 6.033-2.495s4.369.831 6.032 2.495l7.978 7.978-12.065 12.065-7.978-7.978c-3.328-3.326-3.328-8.739 0-12.065zm57.411 57.412c-3.327 3.329-8.74 3.325-12.065 0l-26.761-26.761 12.066-12.066 26.761 26.761c3.326 3.326 3.326 8.74-.001 12.066z"/><path d="m336.161 271.517c4.143 0 7.5-3.357 7.5-7.5s-3.357-7.5-7.5-7.5h-.516v-136.791c0-4.143-3.357-7.5-7.5-7.5h-32.064c-4.143 0-7.5 3.357-7.5 7.5v136.791h-17.064v-48.613c0-4.143-3.357-7.5-7.5-7.5h-32.065c-4.143 0-7.5 3.357-7.5 7.5v48.613h-17.064v-72.662c0-4.143-3.357-7.5-7.5-7.5h-32.064c-4.143 0-7.5 3.357-7.5 7.5v72.662h-17.064v-24.565c0-4.143-3.357-7.5-7.5-7.5h-32.064c-4.143 0-7.5 3.357-7.5 7.5v24.565h-.516c-4.143 0-7.5 3.357-7.5 7.5s3.357 7.5 7.5 7.5zm-32.58-144.291h17.064v129.291h-17.064zm-64.129 88.177h17.065v41.113h-17.065zm-64.129-24.049h17.064v65.162h-17.064zm-64.129 48.097h17.064v17.065h-17.064z"/><path d="m247.468 296.081c0-4.143-3.357-7.5-7.5-7.5h-144.29c-4.143 0-7.5 3.357-7.5 7.5s3.357 7.5 7.5 7.5h144.29c4.143 0 7.5-3.357 7.5-7.5z"/><path d="m223.419 328.146c0-4.143-3.357-7.5-7.5-7.5h-120.241c-4.143 0-7.5 3.357-7.5 7.5s3.357 7.5 7.5 7.5h120.241c4.143 0 7.5-3.358 7.5-7.5z"/><path d="m95.678 352.71c-4.143 0-7.5 3.357-7.5 7.5s3.357 7.5 7.5 7.5h112.226c4.143 0 7.5-3.357 7.5-7.5s-3.357-7.5-7.5-7.5z"/><path d="m320.129 95.161c4.143 0 7.5-3.357 7.5-7.5s-3.357-7.5-7.5-7.5h-16.032c-4.143 0-7.5 3.357-7.5 7.5s3.357 7.5 7.5 7.5z"/><path d="m256 183.339c4.143 0 7.5-3.357 7.5-7.5s-3.357-7.5-7.5-7.5h-16.032c-4.143 0-7.5 3.357-7.5 7.5s3.357 7.5 7.5 7.5z"/><path d="m191.871 159.29c4.143 0 7.5-3.357 7.5-7.5s-3.357-7.5-7.5-7.5h-16.032c-4.143 0-7.5 3.357-7.5 7.5s3.357 7.5 7.5 7.5z"/><path d="m127.743 207.387c4.143 0 7.5-3.357 7.5-7.5s-3.357-7.5-7.5-7.5h-16.033c-4.143 0-7.5 3.357-7.5 7.5s3.357 7.5 7.5 7.5z"/></g></svg>
