<svg xmlns="http://www.w3.org/2000/svg">
    <symbol id="goal" viewBox="0 0 512 512.001"><path d="m457.085938 68.828125-21.878907-19.265625 21.878907-19.261719c3.402343-3 4.566406-7.675781 2.96875-11.917969-1.605469-4.246093-5.570313-6.988281-10.105469-6.988281h-90.539063v-3.890625c0-4.144531-3.359375-7.503906-7.503906-7.503906s-7.503906 3.359375-7.503906 7.503906v101.203125l-61.628906 33.464844c-.339844-2.710937-1.152344-5.375-2.4375-7.882813l-8.683594-16.953124c-5.960938-11.640626-20.28125-16.253907-31.914063-10.296876l-6.714843 3.4375c-5.640626 2.890626-9.816407 7.796876-11.761719 13.828126-1.945313 6.027343-1.425781 12.453124 1.464843 18.089843l8.683594 16.957031c2.027344 3.957032 5.023438 7.089844 8.546875 9.285157-4.609375 6.207031-6.796875 13.839843-9.046875 21.769531l-1.617187 5.726562c-1.128907 3.988282 1.191406 8.136719 5.179687 9.261719.679688.195313 1.367188.285157 2.042969.285157 3.273437 0 6.28125-2.15625 7.21875-5.464844l1.617187-5.714844c3.289063-11.597656 5.308594-17.808594 11.738282-21.300781l11.527344-6.261719 1.421874-.726562c.472657-.242188.914063-.515626 1.363282-.785157l82.15625-44.613281c-.519532 10.269531-6.046875 19.972656-15.148438 25.5l-53.425781 32.460938c-.0625.035156-.125.070312-.183594.109374l-16.628906 10.101563c-3.539063 2.152344-4.667969 6.769531-2.515625 10.3125 2.027344 3.339844 6.246094 4.527344 9.6875 2.851563l-12.617188 38.140624-9.222656 3.78125-25.078125 10.277344 7.226563-25.546875c1.125-3.988281-1.191406-8.136719-5.179688-9.265625-3.992187-1.132812-8.136718 1.191406-9.265625 5.179688l-11.417969 40.378906c-.148437.519531-.246093 1.089844-.269531 1.632812l-2.988281 54.890626c-.089844 2.09375.355469 6.050781-.613281 8.09375l-33.1875 69.820312h-24.117188c-14.128906 0-25.621093 11.492188-25.621093 25.617188v21.660156c-3.234376-1.480469-6.824219-2.308594-10.609376-2.308594h-61.246093c-14.125 0-25.617188 11.488281-25.617188 25.617188v26.875h-18.015625c-4.144531 0-7.503906 3.359374-7.503906 7.503906 0 4.144531 3.359375 7.503906 7.503906 7.503906h442.4375c4.144532 0 7.503906-3.359375 7.503906-7.503906 0-4.144532-3.359374-7.503906-7.503906-7.503906h-19.515625v-193.417969c0-14.125-11.492187-25.617188-25.617187-25.617188h-45.398438v-130.910156c8.320313-11.277344 11.402344-26.058594 7.539063-40.105469-.605469-2.207031-2.1875-4.019531-4.296875-4.914062-1.035156-.441406-2.144532-.636719-3.242188-.59375v-13.699219h90.535156c4.539063 0 8.503907-2.742187 10.105469-6.984375 1.601563-4.242188.4375-8.921875-2.964843-11.921875zm-221.539063 60.085937c.714844-2.214843 2.246094-4.019531 4.316406-5.078124l6.714844-3.4375c1.265625-.648438 2.617187-.957032 3.953125-.957032 3.164062 0 6.222656 1.730469 7.761719 4.734375l8.6875 16.957031c2.027343 3.960938.714843 8.761719-2.890625 11.1875l-2.445313 1.324219-5.160156 2.644531c-4.269531 2.1875-9.527344.492188-11.714844-3.78125l-8.6875-16.953124c-1.058593-2.070313-1.25-4.429688-.535156-6.640626zm-15.078125 272.925782c-2.550781-1.164063-5.324219-1.925782-8.238281-2.195313l8.238281-10.941406zm35.628906-60.464844c3.609375-4.324219 4.605469-9.375 5.410156-13.445312.203126-.96875 3.90625-21.195313 3.90625-21.195313s3.503907 2.183594 3.871094 2.339844c.253906.113281.433594.363281.460938.65625l4.082031 41.496093h-25.148437zm44.375-41.417969-6.335937 51.234375h-5.230469l-4.222656-42.929687c-.539063-5.5-3.90625-10.300781-8.839844-12.6875l-7.546875-4.785157 5.027344-27.863281s21.179687 25.160157 21.671875 25.800781c4.382812 5.699219 5.882812 7.980469 5.476562 11.230469zm-81.054687 36.316407c1.515625-4.5625 2.21875-9.207032 2.101562-13.929688l2.726563-50.0625 34.707031-14.222656-6.308594 34.945312c-.019531.09375-.039062.191406-.050781.285156l-5.21875 28.894532c-.679688 2.992187-1.273438 7.53125-3.140625 9.996094l-50.707031 67.351562h-4.179688zm-178.890625 133.839843c0-5.847656 4.757812-10.605469 10.609375-10.605469h61.246093c5.851563 0 10.613282 4.757813 10.613282 10.605469v26.878907h-82.46875zm97.472656 0v-44.964843c0-5.851563 4.761719-10.609376 10.613281-10.609376h61.246094c5.851563 0 10.609375 4.757813 10.609375 10.609376v71.84375h-82.464844v-26.878907zm277.417969-166.539062v193.417969h-82.464844v-44.992188c0-4.144531-3.359375-7.503906-7.503906-7.503906-4.148438 0-7.507813 3.359375-7.507813 7.503906v44.992188h-82.464844v-120.152344c0-5.847656 4.757813-10.605469 10.609376-10.605469h61.246093c5.851563 0 10.609375 4.757813 10.609375 10.605469v37.617187c0 4.144531 3.359375 7.503907 7.503906 7.503907 4.148438 0 7.503907-3.359376 7.503907-7.503907v-110.882812c0-5.851563 4.761719-10.609375 10.613281-10.609375h8.265625c.023437 0 .050781.003906.078125.003906.023438 0 .050781-.003906.074219-.003906h52.824219c5.851562 0 10.613281 4.761718 10.613281 10.609375zm-71.855469-25.617188c-14.125 0-25.617188 11.492188-25.617188 25.617188v49.960937c-2.6875-1.226562-5.617187-2.003906-8.699218-2.230468l6.121094-49.5c1.203124-9.648438-3.71875-16.042969-8.476563-22.230469-.503906-.65625-29.671875-35.289063-29.671875-35.289063l17.894531-54.101562 49.289063-29.945313v117.71875zm15.847656-205.234375v-46.316406h79.386719l-17.097656 15.054688c-2.328125 2.050781-3.664063 5.003906-3.664063 8.105468 0 3.101563 1.335938 6.054688 3.664063 8.105469l17.097656 15.054687h-79.386719zm0 0" fill="currentColor" stroke="currentColor"/></symbol>

    <symbol id="compliant" viewBox="0 0 512 512.001"><g><g><path d="m123.729 225.348h-34.166c-5.79 0-10.5 4.71-10.5 10.5v34.166c0 5.79 4.71 10.5 10.5 10.5h34.166c5.79 0 10.5-4.71 10.5-10.5v-34.166c0-5.789-4.709-10.5-10.5-10.5zm-4.5 40.166h-25.166v-25.166h25.166z" fill="currentColor" stroke="currentColor"/><path d="m123.729 303.345h-34.166c-5.79 0-10.5 4.71-10.5 10.5v34.167c0 5.79 4.71 10.5 10.5 10.5h34.166c5.79 0 10.5-4.71 10.5-10.5v-34.167c0-5.789-4.709-10.5-10.5-10.5zm-4.5 40.167h-25.166v-25.167h25.166z" fill="currentColor" stroke="currentColor"/><path d="m123.729 381.343h-34.166c-5.79 0-10.5 4.71-10.5 10.5v34.166c0 5.79 4.71 10.5 10.5 10.5h34.166c5.79 0 10.5-4.71 10.5-10.5v-34.166c0-5.79-4.709-10.5-10.5-10.5zm-4.5 40.166h-25.166v-25.166h25.166z" fill="currentColor" stroke="currentColor"/><path d="m142.598 141.625c-3.434-2.314-8.097-1.406-10.411 2.028l-23.064 34.225-10.487-13.983c-2.485-3.313-7.187-3.985-10.5-1.5s-3.985 7.187-1.5 10.5l16.814 22.418c1.419 1.892 3.643 3 6 3 .063 0 .126-.001.189-.002 2.427-.061 4.674-1.293 6.03-3.306l28.957-42.969c2.314-3.435 1.406-8.096-2.028-10.411z" fill="currentColor" stroke="currentColor"/><path d="m243.986 81.933c0-4.142-3.357-7.5-7.5-7.5h-95.278c-4.143 0-7.5 3.358-7.5 7.5s3.357 7.5 7.5 7.5h95.278c4.143 0 7.5-3.358 7.5-7.5z" fill="currentColor" stroke="currentColor"/><path d="m496.749 206.5c4.143 0 7.5-3.358 7.5-7.5v-47.053c0-5.79-4.71-10.5-10.5-10.5h-123.805v-73.375c0-6.893-5.607-12.5-12.5-12.5h-70.806c-1.959-4.349-6.325-7.389-11.395-7.389h-23.312c-7.58-27.733-32.979-48.183-63.083-48.183s-55.504 20.45-63.084 48.183h-23.312c-5.071 0-9.437 3.04-11.395 7.389h-70.806c-6.893 0-12.5 5.607-12.5 12.5v431.428c0 6.893 5.607 12.5 12.5 12.5h337.193c6.893 0 12.5-5.607 12.5-12.5v-54.904h86.463c2.805 0 5.441-1.092 7.425-3.075l37.343-37.343c1.982-1.982 3.074-4.619 3.074-7.424v-162.754c0-4.142-3.357-7.5-7.5-7.5s-7.5 3.358-7.5 7.5v156.497h-31.6c-4.143 0-7.5 3.358-7.5 7.5v31.6h-166.899v-273.15h205.999v42.553c0 4.142 3.357 7.5 7.5 7.5zm-31.6 198.997h13.493l-13.493 13.493zm-110.205-264.05h-13.023v-47.352c0-5.79-4.71-10.5-10.5-10.5h-43.678v-13.023h67.201zm-166.096-126.447c21.745 0 40.303 13.848 47.356 33.183h-94.713c7.053-19.335 25.611-33.183 47.357-33.183zm89.902 126.447c-5.79 0-10.5 4.71-10.5 10.5v6.146h-107.748c-4.143 0-7.5 3.358-7.5 7.5s3.357 7.5 7.5 7.5h107.748v10.221h-107.748c-4.143 0-7.5 3.358-7.5 7.5s3.357 7.5 7.5 7.5h107.748v37.777h-107.748c-4.143 0-7.5 3.358-7.5 7.5s3.357 7.5 7.5 7.5h107.748v10.221h-107.748c-4.143 0-7.5 3.358-7.5 7.5s3.357 7.5 7.5 7.5h107.748v37.776h-107.748c-4.143 0-7.5 3.358-7.5 7.5s3.357 7.5 7.5 7.5h107.748v10.221h-107.748c-4.143 0-7.5 3.358-7.5 7.5s3.357 7.5 7.5 7.5h107.748v37.777h-107.748c-4.143 0-7.5 3.358-7.5 7.5s3.357 7.5 7.5 7.5h107.748v10.221h-107.748c-4.143 0-7.5 3.358-7.5 7.5s3.357 7.5 7.5 7.5h107.748v1.791c0 5.79 4.71 10.5 10.5 10.5h48.171v24.381h-199.921c-4.143 0-7.5 3.358-7.5 7.5s3.357 7.5 7.5 7.5h204.421c5.79 0 10.5-4.71 10.5-10.5v-28.881h13.023v52.402h-332.193v-426.428h67.2v13.023h-43.678c-5.79 0-10.5 4.71-10.5 10.5v379.382c0 5.79 4.71 10.5 10.5 10.5h45.727c4.143 0 7.5-3.358 7.5-7.5s-3.357-7.5-7.5-7.5h-41.227v-370.382h39.178v4.589c0 6.893 5.607 12.5 12.5 12.5h99.549c4.143 0 7.5-3.358 7.5-7.5s-3.357-7.5-7.5-7.5h-97.049v-37.5h167.792v37.5h-35.743c-4.143 0-7.5 3.358-7.5 7.5s3.357 7.5 7.5 7.5h38.243c6.893 0 12.5-5.607 12.5-12.5v-4.589h39.178v42.853h-48.171z" fill="currentColor" stroke="currentColor"/><path d="m445.75 303.372h-119c-4.143 0-7.5 3.358-7.5 7.5s3.357 7.5 7.5 7.5h119c4.143 0 7.5-3.358 7.5-7.5s-3.357-7.5-7.5-7.5z" fill="currentColor" stroke="currentColor"/><path d="m445.75 330.572h-119c-4.143 0-7.5 3.358-7.5 7.5s3.357 7.5 7.5 7.5h119c4.143 0 7.5-3.358 7.5-7.5s-3.357-7.5-7.5-7.5z" fill="currentColor" stroke="currentColor"/><path d="m453.25 365.271c0-4.142-3.357-7.5-7.5-7.5h-119c-4.143 0-7.5 3.358-7.5 7.5s3.357 7.5 7.5 7.5h119c4.143 0 7.5-3.357 7.5-7.5z" fill="currentColor" stroke="currentColor"/><path d="m326.75 384.972c-4.143 0-7.5 3.358-7.5 7.5s3.357 7.5 7.5 7.5h91.8c4.143 0 7.5-3.358 7.5-7.5s-3.357-7.5-7.5-7.5z" fill="currentColor" stroke="currentColor"/><path d="m452.479 265.099-57.335-91.353c-1.933-3.08-5.258-4.918-8.894-4.918s-6.961 1.839-8.894 4.918l-57.335 91.353c-2.03 3.235-2.144 7.321-.295 10.664 1.849 3.342 5.369 5.418 9.188 5.418h114.67c3.819 0 7.34-2.076 9.188-5.418s1.737-7.429-.293-10.664zm-115.427 1.082 49.198-78.388 49.198 78.388z" fill="currentColor" stroke="currentColor"/><path d="m378.75 213.683v20.813c0 4.142 3.357 7.5 7.5 7.5s7.5-3.358 7.5-7.5v-20.813c0-4.142-3.357-7.5-7.5-7.5s-7.5 3.358-7.5 7.5z" fill="currentColor" stroke="currentColor"/><circle cx="386.25" cy="252.81" r="7.5" fill="currentColor" stroke="currentColor"/></g></g></symbol>
    <symbol id="trust" viewBox="0 0 512 512.001">
    <g><g><path d="m497.625 83.425c0-19.331-3.297-38.302-9.801-56.389-2.268-6.304-9.256-9.761-15.577-7.697-8.981 2.931-20.279-2.358-32.237-7.958-11.39-5.335-24.302-11.381-37.896-11.381s-26.507 6.046-37.898 11.38c-11.957 5.599-23.251 10.888-32.237 7.958-6.323-2.06-13.311 1.394-15.576 7.699-6.503 18.084-9.801 37.056-9.801 56.388 0 2.825.095 5.62.237 8.397-24.218-9.865-50.683-15.322-78.403-15.322-114.967 0-208.5 93.533-208.5 208.5 0 26.288 4.912 51.443 13.832 74.627l-15.093 15.093c-5.734 5.735-5.734 15.067 0 20.803l112.169 112.168c2.778 2.779 6.473 4.309 10.402 4.309s7.623-1.53 10.402-4.309l21.617-21.617c17.58 4.832 36.077 7.426 55.17 7.426s37.59-2.594 55.17-7.426l21.617 21.616c2.778 2.779 6.473 4.309 10.402 4.309s7.623-1.53 10.402-4.309l42.956-42.956c2.929-2.929 2.929-7.678 0-10.606-2.93-2.929-7.678-2.929-10.607 0l-42.751 42.751-39.119-39.119 111.76-111.759 39.118 39.119-44.26 44.259c-2.929 2.929-2.929 7.678 0 10.606 2.93 2.929 7.678 2.929 10.607 0l44.464-44.464c2.778-2.779 4.309-6.473 4.309-10.402 0-3.93-1.53-7.624-4.309-10.402l-15.092-15.092c8.92-23.184 13.832-48.339 13.832-74.627 0-25.304-4.555-49.557-12.85-72.014 47.585-30.324 73.541-75.731 73.541-129.559zm-356.378 413.455-111.76-111.759 39.118-39.118 111.76 111.759zm77.293-292.113h14.803l13.972 13.972c2.746 2.747 4.212 6.399 4.126 10.284-.085 3.881-1.717 7.47-4.594 10.104-5.478 5.013-14.428 4.598-19.951-.927l-49.578-49.578c-5.497-5.498-5.497-14.442-.001-19.94 2.069-2.068 4.626-3.346 7.302-3.854-.019.353-.054.702-.054 1.059v4.905c0 18.734 15.241 33.975 33.975 33.975zm-18.975-33.975v-4.905c0-2.381 1.938-4.318 4.318-4.318h38.567c5.035 0 9.576 2.673 12.076 6.825l-21.375 21.375h-14.611c-10.463-.002-18.975-8.514-18.975-18.977zm22.862 84.152c2.692 2.692 4.158 6.272 4.129 10.08-.03 3.808-1.553 7.365-4.287 10.015-5.496 5.326-14.371 5.257-19.781-.155l-55.716-55.716h-.001c-2.663-2.663-4.13-6.204-4.13-9.97s1.467-7.307 4.131-9.97c2.662-2.663 6.203-4.129 9.97-4.129 3.766 0 7.307 1.466 9.969 4.129zm-40.519 20.574c2.693 2.693 4.159 6.273 4.129 10.081-.029 3.808-1.552 7.364-4.287 10.015-5.496 5.327-14.37 5.256-19.781-.155l-36.395-36.395-9.349-9.349c-2.663-2.663-4.129-6.204-4.129-9.97s1.466-7.307 4.129-9.97c2.749-2.749 6.36-4.123 9.971-4.123 3.609 0 7.219 1.373 9.967 4.12l.003.003zm-66.951-5.858 24.375 24.375c2.689 2.692 4.154 6.27 4.124 10.074-.03 3.808-1.553 7.365-4.287 10.015-5.497 5.326-14.37 5.257-19.781-.155l-24.361-24.361c-5.497-5.498-5.497-14.442-.001-19.94 2.749-2.749 6.36-4.123 9.971-4.123 3.606.002 7.212 1.373 9.96 4.115zm14.405 63.388c7.315 0 14.635-2.713 20.247-8.152 4.027-3.903 6.772-8.761 8.042-14.078 4.412 2.472 9.35 3.718 14.292 3.718 7.315 0 14.634-2.713 20.246-8.152 4.258-4.126 7.09-9.318 8.251-14.993 3.804 1.71 7.911 2.571 12.021 2.571 7.315 0 14.635-2.713 20.247-8.152 5.644-5.47 8.786-12.81 8.847-20.669.02-2.602-.305-5.151-.942-7.6 5.928-.622 11.674-3.058 16.362-7.35 5.925-5.424 9.285-12.824 9.462-20.836.176-8.016-2.849-15.553-8.517-21.221l-10.961-10.961 23.941-23.941c5.5-5.496 14.444-5.497 19.94 0 5.491 5.491 5.497 14.422.02 19.921-.006.006-.012.012-.019.019-2.929 2.929-2.929 7.678.001 10.606 2.928 2.929 7.677 2.928 10.606 0 5.496-5.497 14.442-5.497 19.938 0 5.491 5.491 5.497 14.422.019 19.921-.006.006-.012.012-.018.019h-.001c-2.929 2.929-2.929 7.678 0 10.606 2.929 2.929 7.678 2.929 10.606 0 2.664-2.664 6.204-4.13 9.971-4.13 3.766 0 7.307 1.466 9.969 4.129 5.498 5.498 5.498 14.443 0 19.94-2.929 2.929-2.929 7.678 0 10.606 2.929 2.929 7.678 2.929 10.606 0 2.728-2.727 6.326-4.197 10.209-4.127 3.853.064 7.43 1.655 10.071 4.479 5.13 5.483 4.798 14.45-.74 19.988l-53.812 53.812c-2.929 2.929-2.929 7.678 0 10.606 2.93 2.929 7.678 2.929 10.607 0l13.127-13.122 12.275 12.275-79.593 79.593-43.044-43.044c6.122-2.144 12.64-3.173 19.219-2.928l14.273.527c12.573.473 24.98-2.592 35.916-8.841 3.597-2.055 4.847-6.637 2.791-10.233-2.055-3.597-6.638-4.846-10.232-2.792-8.504 4.859-18.169 7.239-27.92 6.875l-14.273-.527c-18.657-.7-36.933 6.486-50.135 19.688l-40.18 40.18-77.123-77.122 20.924-20.924c4.455 2.539 9.457 3.816 14.464 3.816zm99.074 145.452c-14.704 0-29.018-1.681-42.79-4.806l5.531-5.531c2.778-2.778 4.309-6.473 4.309-10.402 0-3.93-1.53-7.624-4.309-10.402l-9.473-9.473 40.181-40.181c1.836-1.837 3.804-3.516 5.873-5.045l46.318 46.318-8.381 8.381c-5.733 5.735-5.733 15.067.001 20.803l5.531 5.531c-13.773 3.126-28.087 4.807-42.791 4.807zm193.5-193.5c0 22.026-3.706 43.201-10.517 62.943l-12.751-12.751c-2.778-2.779-6.473-4.309-10.402-4.309s-7.624 1.53-10.402 4.309l-2.982 2.982-12.275-12.275 30.082-30.082c11.193-11.194 11.682-29.516 1.088-40.841-5.443-5.82-12.822-9.098-20.776-9.231-.664-.012-1.327 0-1.986.033.401-7.938-2.423-16.011-8.472-22.061-5.496-5.496-12.804-8.523-20.576-8.523-.502 0-1.002.013-1.499.038.401-7.938-2.422-16.012-8.472-22.061-6.054-6.054-14.126-8.873-22.075-8.471.406-7.943-2.418-16.022-8.472-22.075-9.658-9.658-24.469-11.089-35.662-4.303-5.37-7.216-13.926-11.753-23.335-11.753h-38.567c-4.139 0-7.969 1.32-11.117 3.545-9.153-1.746-18.983.89-26.056 7.961-6.05 6.05-8.871 14.123-8.469 22.062-.498-.025-.998-.039-1.5-.039-7.773 0-15.081 3.027-20.576 8.523-5.497 5.496-8.524 12.804-8.524 20.577 0 .502.014 1.002.039 1.5-7.938-.402-16.011 2.42-22.061 8.47-5.497 5.496-8.523 12.804-8.523 20.577 0 3.965.792 7.807 2.293 11.351-5.488 1.07-10.726 3.725-14.969 7.967-11.345 11.346-11.345 29.807 0 41.153l19.142 19.142-20.194 20.194-4.36-4.36c-2.778-2.779-6.473-4.309-10.402-4.309s-7.623 1.53-10.401 4.309l-12.751 12.751c-6.81-19.742-10.516-40.917-10.516-62.943 0-106.696 86.804-193.5 193.5-193.5 28.603 0 55.765 6.259 80.219 17.448 7.866 48.178 38.315 87.859 87.732 113.379 1.793.926 3.76 1.39 5.727 1.39 1.966 0 3.933-.463 5.724-1.389 1.045-.54 2.063-1.099 3.09-1.651 7.115 20.134 11.004 41.781 11.004 64.323zm-19.822-76.604c-24.82-13.019-44.348-29.804-58.056-49.906-14.901-21.854-22.457-47.109-22.457-75.065 0-16.823 2.741-33.341 8.153-49.138 13.804 3.33 27.528-3.096 40.822-9.322 10.463-4.899 21.281-9.965 31.538-9.965 10.256 0 21.074 5.066 31.536 9.965 13.295 6.227 27.02 12.653 40.823 9.322 5.411 15.796 8.152 32.316 8.152 49.138 0 27.956-7.556 53.211-22.457 75.065-13.707 20.101-33.235 36.887-58.054 49.906z" fill="currentColor" stroke="currentColor"/><path d="m453.87 93.158c3.953-1.237 6.154-5.445 4.917-9.398-7.792-24.896-30.567-41.623-56.673-41.623-32.741 0-59.379 26.637-59.379 59.378s26.638 59.378 59.379 59.378c24.293 0 45.894-14.552 55.03-37.074 1.557-3.838-.292-8.212-4.131-9.769-3.84-1.559-8.213.292-9.77 4.13-6.829 16.834-22.974 27.712-41.13 27.712-24.471 0-44.379-19.908-44.379-44.378s19.908-44.378 44.379-44.378c19.513 0 36.535 12.5 42.358 31.104 1.238 3.954 5.45 6.155 9.399 4.918z" fill="currentColor" stroke="currentColor"/><path d="m421.766 83.278-23.16 23.161-16.146-16.146c-2.93-2.929-7.678-2.929-10.607 0s-2.929 7.678 0 10.606l21.449 21.449c1.465 1.464 3.385 2.197 5.304 2.197s3.839-.732 5.304-2.197l28.464-28.464c2.929-2.929 2.929-7.678 0-10.606-2.93-2.929-7.678-2.929-10.608 0z" fill="currentColor" stroke="currentColor"/></g></g>
    </symbol>

    <symbol id="runner" viewBox="0 0 512 512.001">
<g>
	<g>
		<path d="M231.63,222.139H8.061C3.609,222.139,0,225.748,0,230.2s3.609,8.061,8.061,8.061H231.63c4.452,0,8.061-3.609,8.061-8.061
			S236.082,222.139,231.63,222.139z" fill="currentColor" stroke="currentColor"/>
	</g>
</g>
<g>
	<g>
		<path d="M145.642,187.748l-68.79-0.004c-4.452,0-8.061,3.608-8.061,8.061s3.608,8.06,8.061,8.061l68.79,0.004
			c4.452,0,8.061-3.608,8.061-8.061C153.704,191.356,150.095,187.748,145.642,187.748z" fill="currentColor" stroke="currentColor"/>
	</g>
</g>
<g>
	<g>
		<path d="M145.642,153.348h-0.001l-25.796,0.004c-4.453,0-8.061,3.61-8.06,8.063c0,4.452,3.609,8.06,8.061,8.06l25.797-0.004
			c4.453,0,8.061-3.61,8.06-8.062C153.704,156.957,150.094,153.348,145.642,153.348z" fill="currentColor" stroke="currentColor"/>
	</g>
</g>
<g>
	<g>
		<path d="M214.433,256.534H76.852c-4.452,0-8.061,3.609-8.061,8.061s3.609,8.061,8.061,8.061h137.581
			c4.452,0,8.061-3.609,8.061-8.061S218.885,256.534,214.433,256.534z" fill="currentColor" stroke="currentColor"/>
	</g>
</g>
<g>
	<g>
		<path d="M42.457,187.744H25.259c-4.452,0-8.061,3.609-8.061,8.061s3.609,8.061,8.061,8.061h17.198
			c4.452,0,8.061-3.609,8.061-8.061S46.909,187.744,42.457,187.744z" fill="currentColor" stroke="currentColor"/>
	</g>
</g>
<g>
	<g>
		<path d="M382.671,206.601l20.795,9.359c6.653,2.991,13.707,4.509,20.966,4.509c12.872,0,25.181-4.825,34.66-13.589l44.298-40.984
			c9.37-8.668,11.365-22.849,4.642-32.988c-4.146-6.252-10.752-10.347-18.124-11.233c-7.368-0.884-14.724,1.494-20.176,6.533
			l-44.947,41.589c-0.16,0.148-0.39,0.185-0.587,0.097l-38.099-17.145c-7.299-3.285-15.941-0.834-20.553,5.825
			c-6.592,9.517-16.23,14.052-23.438,11.027c-7.494-3.145-10.999-13.959-8.333-25.713c1.75-7.722-2.182-15.667-9.35-18.893
			l-41.695-18.763c-17.961-8.082-39.227-5.022-54.178,7.794l-47.056,40.333c-9.695,8.31-12.236,22.414-5.91,32.806
			c3.903,6.41,10.349,10.755,17.688,11.92c7.333,1.164,14.774-0.939,20.403-5.771l47.756-40.932
			c0.158-0.134,0.383-0.167,0.573-0.083l19.843,8.93c2.246,1.011,3.957,2.84,4.814,5.15c0.858,2.31,0.758,4.811-0.284,7.044
			L218.46,319.067c-0.118,0.253-0.39,0.375-0.663,0.282l-100.639-34.358c-4.191-1.508-8.807,0.666-10.314,4.856l-20.378,56.637
			c-0.723,2.012-0.619,4.228,0.291,6.163c0.91,1.934,2.553,3.428,4.565,4.151l8.091,2.911c3.774,1.358,7.633,2.001,11.43,2.001
			c11.319,0,22.081-5.725,28.36-15.317l68.652,22.856c5.237,1.746,10.671,2.63,16.153,2.63c19.698,0,37.813-11.515,46.195-29.349
			l15.737-30.742l72.753,30.076c0.157,0.066,0.258,0.177,0.32,0.38l27.933,89.164v30.961c0,4.452,3.609,8.061,8.061,8.061h60.192
			c4.452,0,8.061-3.609,8.061-8.061v-8.599c0-16.19-11.427-29.756-26.637-33.074l-31.111-100.361
			c-4.478-14.55-15.106-26.256-29.162-32.118l-34.905-14.543l29.195-62.606C372.742,206.566,378.138,204.562,382.671,206.601z
			 M276.007,140.922l-7.39-3.326c-5.86-2.638-12.799-1.639-17.679,2.544l-47.759,40.935c-2.036,1.747-4.724,2.507-7.381,2.085
			c-2.696-0.428-4.984-1.983-6.443-4.38c-2.226-3.658-1.072-9.008,2.63-12.181l47.056-40.333c10.23-8.77,24.782-10.862,37.07-5.332
			l7.726,3.477L276.007,140.922z M127.561,333.857c-3.31,9.202-13.489,13.995-22.691,10.684l-0.506-0.182l14.92-41.467l17.193,6.186
			L127.561,333.857z M410.529,181.42l7.052,3.174c6.107,2.748,13.234,1.585,18.152-2.964l44.945-41.587
			c1.971-1.822,4.627-2.684,7.306-2.362c2.712,0.327,5.06,1.794,6.611,4.135c2.363,3.563,1.417,8.942-2.154,12.245l-44.296,40.982
			c-6.489,6-14.91,9.303-23.712,9.303c-4.964,0-9.793-1.039-14.351-3.09l-7.383-3.322L410.529,181.42z M255.785,335.313
			c-0.045,0.088-0.088,0.177-0.13,0.267c-5.716,12.259-18.139,20.18-31.649,20.18c-3.746,0-7.465-0.606-11.057-1.805l-67.409-22.442
			l6.174-17.158l60.975,20.287c8.035,2.694,16.796-1.071,20.382-8.758l0.441-0.945l22.765,9.411L255.785,335.313z M447.138,453.773
			v0.537h-44.069v-18.273h26.334C439.182,436.038,447.138,443.994,447.138,453.773z M366.377,301.529l3.771,1.571
			c9.618,4.011,16.891,12.022,19.961,21.995l29.393,94.82H400.24l-25.831-82.448c-1.462-4.751-4.93-8.572-9.538-10.492l-7.452-3.081
			L366.377,301.529z M356.029,204.258l-29.478,63.212l-31.65-13.084c-4.115-1.699-8.828,0.256-10.529,4.37
			c-1.701,4.115,0.256,8.829,4.37,10.529l62.75,26.044l-8.974,22.407l-57.291-23.683c-3.878-1.604-8.342,0.039-10.256,3.777
			l-11.325,22.124l-23.316-9.639l60.657-130.077c2.878-6.174,3.158-13.089,0.785-19.474c-2.084-5.607-5.986-10.187-11.113-13.113
			l7.882-16.619l19.262,8.668c0.24,0.109,0.293,0.4,0.243,0.625c-4.47,19.713,2.857,37.866,17.819,44.144
			c14.303,6.003,31.959-0.871,42.932-16.713c0.155-0.224,0.435-0.413,0.683-0.302l16.343,7.354l-7.849,16.551
			C375.732,186.657,361.636,192.235,356.029,204.258z" fill="currentColor" stroke="currentColor"/>
	</g>
</g>
<g>
	<g>
		<path d="M412.205,41.568h-42.994c-18.669,0-33.858,15.189-33.858,33.858v17.198c0,23.41,19.046,42.457,42.457,42.457
			c23.41,0,42.457-19.046,42.457-42.457V49.629C420.267,45.177,416.657,41.568,412.205,41.568z M404.144,92.623
			c0,14.52-11.813,26.334-26.334,26.334c-14.52,0-26.334-11.814-26.334-26.334V75.426c0-9.779,7.956-17.735,17.735-17.735h34.933
			V92.623z" fill="currentColor" stroke="currentColor"/>
	</g>
</g>
<g>
</g>
<g>
</g>
<g>
</g>
<g>
</g>
<g>
</g>
<g>
</g>
<g>
</g>
<g>
</g>
<g>
</g>
<g>
</g>
<g>
</g>
<g>
</g>
<g>
</g>
<g>
</g>
<g>
</g>
    </symbol>
    <symbol id="language" viewBox="0 0 512 512.001">
<g id="XMLID_59_"><g id="XMLID_969_"><path id="XMLID_1003_" d="m267 87.5c-5.522 0-10 4.477-10 10s4.478 10 10 10h32.877c.068 23.807 7.794 46.044 20.954 64.195-13.635 13.29-31.496 22.362-51.575 24.883-5.48.688-9.365 5.688-8.677 11.167.635 5.057 4.941 8.755 9.909 8.755.415 0 .836-.026 1.258-.079 24.154-3.032 45.695-13.808 62.255-29.635 16.56 15.827 38.101 26.603 62.255 29.635.423.053.842.079 1.258.079 4.967 0 9.274-3.699 9.909-8.755.688-5.48-3.196-10.48-8.677-11.167-20.079-2.521-37.941-11.592-51.575-24.883 13.159-18.152 20.886-40.388 20.954-64.195h32.875c5.522 0 10-4.477 10-10s-4.478-10-10-10h-57v-26c0-5.523-4.478-10-10-10s-10 4.477-10 10v26zm67 68.003c-8.901-13.956-14.059-30.452-14.12-48.003h28.239c-.06 17.551-5.218 34.047-14.119 48.003z" fill="currentColor" stroke="currentColor"/><path id="XMLID_1023_" d="m458.962 0h-79.962c-5.522 0-10 4.477-10 10s4.478 10 10 10h79.962c18.218 0 33.038 14.821 33.038 33.039v161.923c0 18.217-14.821 33.038-33.039 33.038-5.522 0-10 4.477-10 10v42.313l-58.468-49.918c-1.81-1.546-4.112-2.395-6.493-2.395h-174.962c-18.218 0-33.038-14.821-33.038-33.039v-161.922c0-18.218 14.82-33.039 33.038-33.039h79.962c5.522 0 10-4.477 10-10s-4.478-10-10-10h-79.962c-29.245 0-53.038 23.793-53.038 53.039v126.961h-102.962c-29.245 0-53.038 23.793-53.038 53.039v161.923c0 25.827 18.558 47.402 43.038 52.093v54.945c0 3.902 2.27 7.447 5.813 9.081 1.339.617 2.767.919 4.186.919 2.337 0 4.648-.818 6.495-2.395l72.156-61.605h171.273c29.246 0 53.039-23.793 53.039-53.039v-126.961h24.312l72.156 61.605c1.847 1.577 4.158 2.396 6.495 2.395 1.419 0 2.847-.302 4.186-.919 3.543-1.634 5.813-5.179 5.813-9.081l.001-54.945c24.48-4.691 43.038-26.266 43.038-52.093v-161.923c-.001-29.246-23.794-53.039-53.039-53.039zm-280.799 279.506 19.812 52.496h-39.805zm157.837 115.455c0 18.218-14.82 33.039-33.038 33.039h-174.962c-2.381 0-4.683.849-6.493 2.395l-58.469 49.919v-42.314c0-5.523-4.478-10-10-10-18.218 0-33.038-14.821-33.038-33.039v-161.922c0-18.218 14.82-33.039 33.038-33.039h102.962v14.961c0 13.348 4.967 25.55 13.135 34.883-1.083 1.126-1.969 2.464-2.587 3.974-.031.076-.062.152-.09.229l-42.804 112.388c-1.966 5.161.624 10.938 5.785 12.904 5.161 1.965 10.938-.625 12.904-5.786l8.208-21.55h54.97l8.122 21.521c1.511 4.005 5.315 6.472 9.357 6.472 1.173 0 2.366-.208 3.529-.647 5.167-1.95 7.774-7.72 5.824-12.887l-37.938-100.528c4.648 1.335 9.549 2.066 14.62 2.066h126.965z" fill="currentColor" stroke="currentColor"/><path id="XMLID_1025_" d="m334 20c2.63 0 5.21-1.07 7.069-2.93 1.861-1.86 2.931-4.44 2.931-7.07s-1.07-5.21-2.931-7.07c-1.859-1.86-4.439-2.93-7.069-2.93s-5.21 1.07-7.07 2.93c-1.861 1.86-2.93 4.44-2.93 7.07s1.069 5.21 2.93 7.07 4.44 2.93 7.07 2.93z" fill="currentColor" stroke="currentColor"/></g></g>
    </symbol>

    <symbol id="chart" viewBox="0 0 512 512.001">
<g><g><path d="m45.398 241.957 277.872-149.38-5.772 23.661c-.982 4.024 1.485 8.082 5.509 9.063 3.997.977 8.076-1.46 9.063-5.509l9.761-40.015c.986-4.029-1.531-8.093-5.509-9.063l-40.015-9.761c-4.025-.984-8.082 1.484-9.063 5.509-.982 4.024 1.485 8.082 5.509 9.063l21.019 5.127-275.476 148.093c-3.648 1.961-5.016 6.509-3.055 10.157 1.971 3.667 6.528 5.007 10.157 3.055z" fill="currentColor" stroke="currentColor"/><path d="m485.097 437.532h-18.672v-291.962c0-9.946-8.092-18.038-18.038-18.038h-30.342v-39.383h64.03c4.669 0 8.795-2.629 10.768-6.86s1.333-9.082-1.668-12.658l-11.942-14.226 11.942-14.226c3.001-3.576 3.641-8.427 1.668-12.658s-6.099-6.86-10.768-6.86h-71.53c-4.142 0-7.5 3.358-7.5 7.5v99.37h-30.342c-9.946 0-18.038 8.092-18.038 18.038v16.264c0 4.142 3.358 7.5 7.5 7.5s7.5-3.358 7.5-7.5v-16.263c0-1.675 1.363-3.038 3.038-3.038h75.684c1.675 0 3.038 1.363 3.038 3.038v291.962h-81.759v-240.449c0-4.142-3.358-7.5-7.5-7.5s-7.5 3.358-7.5 7.5v240.449h-42.786v-187.034c0-9.946-8.092-18.038-18.038-18.038h-75.684c-9.946 0-18.038 8.092-18.038 18.038v187.034h-42.786v-94.949c0-9.946-8.092-18.038-18.038-18.038h-75.683c-9.946 0-18.038 8.092-18.038 18.038v16.417c0 4.142 3.358 7.5 7.5 7.5s7.5-3.358 7.5-7.5v-16.417c0-1.675 1.363-3.038 3.038-3.038h75.684c1.675 0 3.038 1.363 3.038 3.038v94.949h-81.76v-43.616c0-4.142-3.358-7.5-7.5-7.5s-7.5 3.358-7.5 7.5v43.616h-18.672c-14.835 0-26.903 12.069-26.903 26.904s12.068 26.903 26.903 26.903h458.194c14.834 0 26.903-12.068 26.903-26.903s-12.068-26.904-26.903-26.904zm-19.037-375.488 9.322 11.105h-57.337v-37.487h57.338l-9.323 11.106c-3.716 4.426-3.715 10.851 0 15.276zm-250.939 188.454c0-1.675 1.363-3.038 3.038-3.038h75.684c1.675 0 3.038 1.363 3.038 3.038v187.034h-81.759v-187.034zm269.976 225.84h-458.194c-6.563 0-11.903-5.339-11.903-11.903s5.339-11.903 11.903-11.903h458.194c6.563 0 11.903 5.34 11.903 11.903s-5.339 11.903-11.903 11.903z" fill="currentColor" stroke="currentColor"/></g></g>
    </symbol>
</svg>
