<svg enable-background="new 0 0 511.996 511.996" height="512" viewBox="0 0 511.996 511.996" width="512" xmlns="http://www.w3.org/2000/svg"><path d="m453.434 31.062h-19.093v-8.031c0-12.699-10.332-23.031-23.031-23.031s-23.031 10.332-23.031 23.031v8.031h-109.25v-8.031c0-12.699-10.332-23.031-23.031-23.031s-23.031 10.332-23.031 23.031v8.031h-53.812c-4.143 0-7.5 3.357-7.5 7.5s3.357 7.5 7.5 7.5h53.812v8.031c0 12.699 10.332 23.031 23.031 23.031s23.031-10.332 23.031-23.031v-8.031h109.249v8.031c0 12.699 10.332 23.031 23.031 23.031s23.031-10.332 23.031-23.031v-8.031h19.093c6.893 0 12.5 5.607 12.5 12.5v34.624h-419.871v-34.624c0-6.893 5.607-12.5 12.5-12.5h19.093v8.031c0 12.699 10.332 23.031 23.031 23.031s23.031-10.332 23.031-23.031v-8.031h22.75c4.143 0 7.5-3.357 7.5-7.5s-3.357-7.5-7.5-7.5h-22.75v-8.031c.001-12.699-10.331-23.031-23.03-23.031s-23.032 10.332-23.032 23.031v8.031h-19.093c-15.163 0-27.5 12.337-27.5 27.5v425.934c0 15.163 12.337 27.5 27.5 27.5h50.428c4.143 0 7.5-3.357 7.5-7.5s-3.357-7.5-7.5-7.5h-50.428c-6.893 0-12.5-5.607-12.5-12.5v-6.571c3.752 1.923 8.002 3.009 12.5 3.009h368.278c.062 0 .125-.001.188-.002.056-.001.113-.003.168-.006.006 0 .011 0 .017-.001 1.588-.078 3.046-.649 4.224-1.564l.015-.012c.039-.03.077-.061.115-.092.01-.009.021-.017.032-.026.029-.024.058-.049.087-.073.019-.016.038-.032.057-.049.016-.014.032-.029.048-.043.121-.106.238-.216.353-.33l33.789-33.789v39.548c0 6.893-5.607 12.5-12.5 12.5h-311.756c-4.143 0-7.5 3.357-7.5 7.5s3.357 7.5 7.5 7.5h311.757c15.163 0 27.5-12.337 27.5-27.5v-289.809c0-4.143-3.357-7.5-7.5-7.5s-7.5 3.357-7.5 7.5v224.655h-24.093c-12.406 0-22.5 10.094-22.5 22.5v24.093h-360.779c-6.893 0-12.5-5.607-12.5-12.5v-314.185h419.871v22.75c0 4.143 3.357 7.5 7.5 7.5s7.5-3.357 7.5-7.5v-103.437c.001-15.163-12.336-27.5-27.499-27.5zm-189.405 23.032c0 4.429-3.603 8.031-8.031 8.031s-8.031-3.603-8.031-8.031v-31.063c0-4.429 3.603-8.031 8.031-8.031s8.031 3.603 8.031 8.031zm155.312 0c0 4.429-3.603 8.031-8.031 8.031s-8.031-3.603-8.031-8.031v-31.063c0-4.429 3.603-8.031 8.031-8.031s8.031 3.603 8.031 8.031zm-326.686-31.063c0-4.429 3.603-8.031 8.031-8.031s8.031 3.603 8.031 8.031v31.062c0 4.429-3.603 8.031-8.031 8.031s-8.031-3.603-8.031-8.031zm349.186 411.31h13.486l-20.986 20.986v-13.486c0-4.136 3.364-7.5 7.5-7.5zm-395.779-310.092v-16.062h419.871v16.062z"/><path d="m325.622 178.343c0-4.143-3.357-7.5-7.5-7.5h-124.248c-4.143 0-7.5 3.357-7.5 7.5s3.357 7.5 7.5 7.5h124.248c4.143 0 7.5-3.358 7.5-7.5z"/><path d="m131.483 231.936c0-7.995-6.505-14.5-14.5-14.5h-32.593c-7.995 0-14.5 6.505-14.5 14.5v32.594c0 7.995 6.505 14.5 14.5 14.5h32.594c7.995 0 14.5-6.505 14.5-14.5v-32.594zm-15 32.093h-31.593v-31.594h31.594v31.594z"/><path d="m131.483 309.592c0-7.995-6.505-14.5-14.5-14.5h-32.593c-7.995 0-14.5 6.505-14.5 14.5v32.593c0 7.995 6.505 14.5 14.5 14.5h32.594c7.995 0 14.5-6.505 14.5-14.5v-32.593zm-15 32.093h-31.593v-31.593h31.594v31.593z"/><path d="m116.983 372.747h-32.593c-7.995 0-14.5 6.505-14.5 14.5v32.594c0 7.995 6.505 14.5 14.5 14.5h32.594c7.995 0 14.5-6.505 14.5-14.5v-32.594c-.001-7.995-6.505-14.5-14.501-14.5zm-.5 46.594h-31.593v-31.594h31.594v31.594z"/><path d="m209.139 231.936c0-7.995-6.505-14.5-14.5-14.5h-32.593c-7.995 0-14.5 6.505-14.5 14.5v32.594c0 7.995 6.505 14.5 14.5 14.5h32.593c7.995 0 14.5-6.505 14.5-14.5zm-15 32.093h-31.593v-31.594h31.593z"/><path d="m209.139 309.592c0-7.995-6.505-14.5-14.5-14.5h-32.593c-7.995 0-14.5 6.505-14.5 14.5v32.593c0 7.995 6.505 14.5 14.5 14.5h32.593c7.995 0 14.5-6.505 14.5-14.5zm-15 32.093h-31.593v-31.593h31.593z"/><path d="m194.639 372.747h-32.593c-7.995 0-14.5 6.505-14.5 14.5v32.594c0 7.995 6.505 14.5 14.5 14.5h32.593c7.995 0 14.5-6.505 14.5-14.5v-32.594c0-7.995-6.505-14.5-14.5-14.5zm-.5 46.594h-31.593v-31.594h31.593z"/><path d="m286.795 231.936c0-7.995-6.505-14.5-14.5-14.5h-32.594c-7.995 0-14.5 6.505-14.5 14.5v32.594c0 7.995 6.505 14.5 14.5 14.5h32.594c7.995 0 14.5-6.505 14.5-14.5zm-15 32.093h-31.594v-31.594h31.594z"/><path d="m286.795 309.592c0-7.995-6.505-14.5-14.5-14.5h-32.594c-7.995 0-14.5 6.505-14.5 14.5v32.593c0 7.995 6.505 14.5 14.5 14.5h32.594c7.995 0 14.5-6.505 14.5-14.5zm-15 32.093h-31.594v-31.593h31.594z"/><path d="m272.295 372.747h-32.594c-7.995 0-14.5 6.505-14.5 14.5v32.594c0 7.995 6.505 14.5 14.5 14.5h32.594c7.995 0 14.5-6.505 14.5-14.5v-32.594c0-7.995-6.505-14.5-14.5-14.5zm-.5 46.594h-31.594v-31.594h31.594z"/><path d="m364.45 231.936c0-7.995-6.505-14.5-14.5-14.5h-32.593c-7.995 0-14.5 6.505-14.5 14.5v32.594c0 7.995 6.505 14.5 14.5 14.5h32.593c7.995 0 14.5-6.505 14.5-14.5zm-15 32.093h-31.593v-31.594h31.593z"/><path d="m317.357 356.685h32.593c7.995 0 14.5-6.505 14.5-14.5v-32.593c0-7.995-6.505-14.5-14.5-14.5h-32.593c-7.995 0-14.5 6.505-14.5 14.5v32.593c0 7.995 6.505 14.5 14.5 14.5zm.5-46.593h31.593v31.593h-31.593z"/><path d="m442.106 231.936c0-7.995-6.505-14.5-14.5-14.5h-32.594c-7.995 0-14.5 6.505-14.5 14.5v32.594c0 7.995 6.505 14.5 14.5 14.5h32.594c7.995 0 14.5-6.505 14.5-14.5zm-15 32.093h-31.594v-31.594h31.594z"/><path d="m427.606 295.092h-32.594c-7.995 0-14.5 6.505-14.5 14.5v32.593c0 7.995 6.505 14.5 14.5 14.5h32.594c7.995 0 14.5-6.505 14.5-14.5v-32.593c0-7.995-6.504-14.5-14.5-14.5zm-.5 46.593h-31.594v-31.593h31.594z"/></svg>
