<svg id="Capa_1" enable-background="new 0 0 512 512" height="512" viewBox="0 0 512 512" width="512" xmlns="http://www.w3.org/2000/svg"><g><g><path d="m463.224 39.732h-85.729c-4.143 0-7.5 3.357-7.5 7.5s3.357 7.5 7.5 7.5h85.729c4.143 0 7.5-3.357 7.5-7.5s-3.358-7.5-7.5-7.5z"/><path d="m463.224 72.738h-85.729c-4.143 0-7.5 3.357-7.5 7.5s3.357 7.5 7.5 7.5h85.729c4.143 0 7.5-3.357 7.5-7.5s-3.358-7.5-7.5-7.5z"/><path d="m469.47.253h-49.11c-4.143 0-7.5 3.357-7.5 7.5s3.357 7.5 7.5 7.5h49.11c15.181 0 27.53 12.351 27.53 27.531v42.084c0 15.181-12.35 27.53-27.53 27.53h-56.519c-5.777 0-11.255 2.79-14.651 7.462l-19.578 26.918v-17.518c0-8.445-5.678-15.68-13.808-17.593-12.479-2.936-21.195-13.955-21.195-26.799v-42.084c0-15.181 12.35-27.531 27.53-27.531h14.479c4.143 0 7.5-3.357 7.5-7.5s-3.357-7.5-7.5-7.5h-14.479c-23.451 0-42.53 19.079-42.53 42.531v42.084c0 19.839 13.472 36.863 32.761 41.4 1.299.306 2.242 1.563 2.242 2.991v30.774c0 4.646 2.968 8.73 7.386 10.167 4.426 1.437 9.224-.13 11.948-3.88l27.376-37.64c.584-.804 1.526-1.283 2.52-1.283h56.519c23.451 0 42.53-19.079 42.53-42.53v-42.083c-.001-23.452-19.08-42.531-42.531-42.531z"/><path d="m422.452 468.459v-104.242c0-11.787-9.589-21.376-21.376-21.376h-45.718c-8.599-13.861-22.218-24.129-38.014-28.465-14.876-4.084-53.706-14.743-68.233-18.731-3.55-.974-6.68-2.833-9.197-5.288 31.6-1.827 56.709-27.985 56.707-60.153l-.003-34.765c5.996-1.379 11.502-4.404 15.96-8.862 6.267-6.268 9.718-14.6 9.717-23.462l-.002-22.93c-.003-77.16-62.78-139.932-139.939-139.932-77.346 0-139.946 62.599-139.938 139.953.004 87.462.003 69.464.003 71.982 0 10.941 8.902 19.844 19.844 19.844h5.89c.938 31.305 25.852 56.688 56.972 58.348-2.523 2.495-5.674 4.388-9.256 5.377-13.909 3.844-56.385 15.584-68.212 18.853-28.085 7.761-47.682 33.534-47.657 62.673l.093 109.036c.012 14.025 11.427 25.429 25.452 25.428h.02c273.015-.002-323.814-.074 394.741 0 11.964 0 21.697-9.733 21.697-21.697 0-11.24-8.591-20.509-19.551-21.591zm-85.905-125.618h-54.46c5.32-5.786 10.14-12.001 14.388-18.64l16.899 4.64c8.913 2.446 16.922 7.353 23.173 14zm-253.443-125.809-.003-20.738h15.823c1.019 5.779 2.699 11.421 5.022 16.891-.797 1.203-1.47 2.492-2.016 3.848h-18.826zm184.001-79.703 14.446-.011c.123 3.64.039 2.019.068 43.976h-14.586zm-56.4-14.956c-35.951-3.194-64.09-32.585-64.12-67.043-.002-2.749.607-5.442 1.76-7.908 10.755-3.913 22.225-5.958 34.01-5.958 48.444 0 88.888 34.887 97.542 80.855-17.217.014-62.969.049-69.192.054zm-79.119-66.987c.016 11.586 2.565 22.88 7.376 33.254-.208 18.504-15.241 33.514-33.764 33.668-.001 0-.001 0-.002 0h-20.4c5.408-28.984 23.296-52.889 46.79-66.922zm-48.487 125.908-.005-40.561c0-1.146.026-2.287.064-3.426h14.329l.246 43.986h-14.634zm38.819 37.207h29.994c3.613 0 6.553 2.939 6.553 6.552s-2.939 6.553-6.553 6.553h-29.994c-3.613 0-6.552-2.939-6.552-6.553-.001-3.613 2.939-6.552 6.552-6.552zm51.546 6.552c0-11.884-9.668-21.552-21.553-21.552h-29.994c-1.865 0-3.666.263-5.393.71-2.506-6.887-3.776-14.086-3.783-21.504l-.257-45.977c17.247-2.684 31.537-14.389 37.909-30.115 1.345 1.612 2.738 3.193 4.216 4.717 14.55 14.999 34.133 24.237 55.142 26.014.21.018.421.026.632.026h.005l41.716-.032-.075 45.282c.021 24.578-13.865 43.47-29.941 55.871-.113.068-21.177 16.581-39.639 17.111-6.756-.186-17.05-3.379-27.592-9.226 10.493-1.442 18.607-10.443 18.607-21.325zm62.896 50.417h-2.886c-.002-.112-.014-.222-.014-.334l-.023-26.584c16.665-13.539 28.642-31.391 32.383-52.258h15.799l.003 33.911c.002 25.016-20.242 45.265-45.262 45.265zm-54.006-260.217c68.889 0 124.936 56.044 124.94 124.933l.002 22.931c0 4.855-1.891 9.42-5.323 12.854-1.572 1.572-3.389 2.803-5.354 3.695l-.003-38.947c0-3.918-.199-7.791-.586-11.608-.005-.049-.01-.097-.015-.146-5.906-57.499-54.627-102.5-113.659-102.5-63.152 0-114.266 51.109-114.26 114.271l.005 38.919c-6.288-2.864-10.68-9.192-10.681-16.541l-.003-22.91c-.009-69.054 55.874-124.951 124.937-124.951zm-124.936 196.935v-21.34c3.217 2.116 6.821 3.684 10.683 4.581l.003 21.604h-5.842c-2.671-.001-4.844-2.174-4.844-4.845zm70.95 63.282c-24.344 0-44.254-19.324-45.216-43.437h18.396c2.909 8.464 10.931 14.573 20.37 14.573h7.077c.808.693 1.627 1.378 2.46 2.049l.023 26.57c0 .082-.009.163-.01.245zm-8.504 34.746c15.684-4.334 26.628-18.729 26.614-35.005l-.014-16.339c12.38 7.078 25.455 11.52 35.838 11.733.052.001.103.002.154.002.056 0 .111-.001.167-.002 8.945-.199 22.207-3.974 35.823-11.768l.014 16.312c.014 16.274 10.985 30.651 26.681 34.96l36.076 9.904c-5.882 8.449-12.824 16.088-20.715 22.828h-57.275c-11.787 0-21.376 9.589-21.376 21.376v7.489c-39.166-.155-75.937-19.623-98.261-51.465zm-94.311 186.531c-.003 0-.005 0-.008 0-5.758 0-10.446-4.683-10.451-10.441l-.094-109.036c-.02-22.411 15.052-42.232 36.652-48.202l16.681-4.61c11.519 17.897 27.171 32.938 45.557 43.722 20.538 12.047 44.029 18.445 67.96 18.527v18.476c0 4.143 3.358 7.5 7.5 7.5s7.5-3.357 7.5-7.5v-40.965c0-3.516 2.86-6.376 6.376-6.376h197.85c3.516 0 6.376 2.86 6.376 6.376v104.136h-210.601v-28.147c0-4.143-3.358-7.5-7.5-7.5s-7.5 3.357-7.5 7.5v28.254c-10.96 1.082-19.551 10.351-19.551 21.59 0 2.292.36 4.502 1.022 6.578l-89.002.077v-41.926c0-4.143-3.358-7.5-7.5-7.5s-7.5 3.357-7.5 7.5v41.938zm394.753 0h-236.309c-.229 0-.455-.012-.678-.034-.138-.022-.274-.049-.415-.063-3.174-.524-5.605-3.28-5.605-6.6 0-3.693 3.004-6.697 6.697-6.697h236.309c3.693 0 6.697 3.004 6.697 6.697s-3.003 6.697-6.696 6.697z"/></g></g></svg>
