<svg id="Capa_1" enable-background="new 0 0 512 512" height="512" viewBox="0 0 512 512" width="512" xmlns="http://www.w3.org/2000/svg"><g><g><path d="m45.398 241.957 277.872-149.38-5.772 23.661c-.982 4.024 1.485 8.082 5.509 9.063 3.997.977 8.076-1.46 9.063-5.509l9.761-40.015c.986-4.029-1.531-8.093-5.509-9.063l-40.015-9.761c-4.025-.984-8.082 1.484-9.063 5.509-.982 4.024 1.485 8.082 5.509 9.063l21.019 5.127-275.476 148.093c-3.648 1.961-5.016 6.509-3.055 10.157 1.971 3.667 6.528 5.007 10.157 3.055z"/><path d="m485.097 437.532h-18.672v-291.962c0-9.946-8.092-18.038-18.038-18.038h-30.342v-39.383h64.03c4.669 0 8.795-2.629 10.768-6.86s1.333-9.082-1.668-12.658l-11.942-14.226 11.942-14.226c3.001-3.576 3.641-8.427 1.668-12.658s-6.099-6.86-10.768-6.86h-71.53c-4.142 0-7.5 3.358-7.5 7.5v99.37h-30.342c-9.946 0-18.038 8.092-18.038 18.038v16.264c0 4.142 3.358 7.5 7.5 7.5s7.5-3.358 7.5-7.5v-16.263c0-1.675 1.363-3.038 3.038-3.038h75.684c1.675 0 3.038 1.363 3.038 3.038v291.962h-81.759v-240.449c0-4.142-3.358-7.5-7.5-7.5s-7.5 3.358-7.5 7.5v240.449h-42.786v-187.034c0-9.946-8.092-18.038-18.038-18.038h-75.684c-9.946 0-18.038 8.092-18.038 18.038v187.034h-42.786v-94.949c0-9.946-8.092-18.038-18.038-18.038h-75.683c-9.946 0-18.038 8.092-18.038 18.038v16.417c0 4.142 3.358 7.5 7.5 7.5s7.5-3.358 7.5-7.5v-16.417c0-1.675 1.363-3.038 3.038-3.038h75.684c1.675 0 3.038 1.363 3.038 3.038v94.949h-81.76v-43.616c0-4.142-3.358-7.5-7.5-7.5s-7.5 3.358-7.5 7.5v43.616h-18.672c-14.835 0-26.903 12.069-26.903 26.904s12.068 26.903 26.903 26.903h458.194c14.834 0 26.903-12.068 26.903-26.903s-12.068-26.904-26.903-26.904zm-19.037-375.488 9.322 11.105h-57.337v-37.487h57.338l-9.323 11.106c-3.716 4.426-3.715 10.851 0 15.276zm-250.939 188.454c0-1.675 1.363-3.038 3.038-3.038h75.684c1.675 0 3.038 1.363 3.038 3.038v187.034h-81.759v-187.034zm269.976 225.84h-458.194c-6.563 0-11.903-5.339-11.903-11.903s5.339-11.903 11.903-11.903h458.194c6.563 0 11.903 5.34 11.903 11.903s-5.339 11.903-11.903 11.903z"/></g></g></svg>
