<svg id="Layer_1" enable-background="new 0 0 512 512" height="512" viewBox="0 0 512 512" width="512" xmlns="http://www.w3.org/2000/svg"><g><path d="m430.978 370.983c14.099-13.334 22.922-32.192 22.922-53.084 0-40.308-32.793-73.101-73.102-73.101-40.308 0-73.101 32.793-73.101 73.101 0 20.891 8.823 39.749 22.921 53.083-19.696 8.184-36.982 21.031-50.474 37.159-17.524-26.476-43.067-47.196-73.143-58.674 18.074-15.393 29.569-38.292 29.569-63.837 0-46.239-37.618-83.857-83.857-83.857s-83.857 37.618-83.857 83.857c0 25.546 11.496 48.444 29.57 63.838-57.482 21.937-98.426 77.639-98.426 142.734 0 8.284 6.716 15 15 15h482c8.284 0 15-6.716 15-15 0-54.58-33.504-101.476-81.022-121.219zm-126.286 106.219c-1.342-13.705-4.508-26.88-9.243-39.288 17.986-28.178 49.512-46.914 85.349-46.914 50.708 0 92.824 37.486 100.093 86.202zm-273.78 0c7.418-60.618 59.213-107.714 121.803-107.714s114.384 47.097 121.802 107.714zm67.945-191.572c0-29.697 24.16-53.857 53.857-53.857s53.857 24.16 53.857 53.857-24.16 53.857-53.857 53.857c-29.697.001-53.857-24.159-53.857-53.857zm238.84 32.269c0-23.766 19.335-43.101 43.101-43.101 23.767 0 43.102 19.335 43.102 43.101s-19.336 43.101-43.102 43.101-43.101-19.335-43.101-43.101z"/><path d="m145.284 174.951c2.322 1.342 4.914 2.013 7.505 2.013 2.585 0 5.172-.668 7.49-2.004l47.253-27.231 26.524-.01v22.898c0 19.564 15.917 35.481 35.475 35.481l70.439.026 33.338 19.212c2.317 1.335 4.903 2.003 7.489 2.003 2.592 0 5.184-.671 7.505-2.013 4.639-2.68 7.495-7.63 7.495-12.987v-82.685c0-19.564-15.916-35.481-35.48-35.481h-10.984v-46.152c0-23.833-19.39-43.224-43.223-43.224h-125.098c-23.833 0-43.223 19.39-43.223 43.224v113.942c0 5.358 2.857 10.308 7.495 12.988zm22.505-126.93c0-7.292 5.932-13.224 13.223-13.224h125.098c7.291 0 13.223 5.932 13.223 13.224v56.447c0 7.292-5.932 13.224-13.229 13.224l-102.594.038c-2.627.001-5.208.692-7.484 2.004l-28.237 16.273zm198.009 81.633v56.729l-14.322-8.254c-2.275-1.312-4.856-2.002-7.483-2.003l-74.455-.028c-3.022 0-5.481-2.458-5.481-5.481v-22.909l42.055-.016c16.738 0 31.273-9.57 38.45-23.519h15.757c3.02 0 5.479 2.459 5.479 5.481z"/></g></svg>
