<svg id="Capa_1" enable-background="new 0 0 512 512" height="512" viewBox="0 0 512 512" width="512" xmlns="http://www.w3.org/2000/svg"><path d="m430.895 354.721c-18.964 0-36.381 6.753-49.974 17.982l-20.531-20.747c20.848-23.175 34.112-53.302 35.862-86.436h20.297c3.591 21.776 22.532 38.441 45.301 38.441 25.322 0 45.923-20.609 45.923-45.941 0-25.316-20.601-45.913-45.923-45.913-22.767 0-41.708 16.653-45.3 38.413h-20.297c-.464-8.851-1.738-17.6-3.826-26.097-.988-4.022-5.056-6.481-9.073-5.493-4.022.989-6.481 5.051-5.493 9.073 2.39 9.72 3.601 19.819 3.601 30.017 0 35.89-15.13 68.307-39.337 91.21-3.19-29.422-28.516-36.219-47.339-41.266-1.253-.336-2.498-.67-3.759-1.015-1.467-.396-2.667-2.38-3.596-4.442 18.703-12.82 32.602-34.664 32.602-53.742v-17.283c0-21.486-6.863-39.73-19.85-52.76-11.62-11.661-27.268-18.238-44.058-18.519-.085-.001-.17-.001-.257 0-9.162.16-18.302 2.279-26.429 6.129-3.743 1.773-5.34 6.245-3.567 9.989s6.247 5.34 9.989 3.567c6.176-2.925 13.138-4.544 20.14-4.684 21.575.417 44.607 15.269 48.468 46.772-2.987-1.424-4.953-3.431-7.088-5.61-4.24-4.326-10.047-10.25-21.997-7.171-2.93.756-5.42 1.423-7.576 2.001-6.215 1.665-9.334 2.5-11.809 2.5s-5.594-.835-11.809-2.5c-2.156-.578-4.646-1.245-7.579-2.001-11.952-3.081-17.756 2.846-21.994 7.171-2.138 2.182-4.106 4.191-7.101 5.616 1.089-9.066 3.789-17.1 8.068-23.973 2.188-3.516 1.113-8.142-2.403-10.331s-8.141-1.114-10.331 2.403c-7.223 11.601-10.885 25.53-10.885 41.401v17.283c0 19.08 13.904 40.928 32.6 53.744-.931 2.062-2.137 4.047-3.622 4.448-1.232.337-2.478.671-3.73 1.007-18.823 5.047-44.149 11.844-47.339 41.266-24.208-22.903-39.337-55.32-39.337-91.21 0-69.214 56.281-125.524 125.461-125.524 44.306 0 85.793 23.779 108.271 62.057.019.03.036.06.054.09.394.649.77 1.33 1.145 2.004l.338.608c2.02 3.617 6.59 4.913 10.205 2.891 3.616-2.02 4.91-6.588 2.891-10.205l-.319-.574c-.458-.826-.922-1.658-1.403-2.454-4.806-8.177-10.436-15.823-16.752-22.841l20.907-21.126c12.788 9.015 28.359 14.331 45.157 14.331 19.038 0 36.514-6.81 50.131-18.118.435-.302.834-.651 1.195-1.036 16.688-14.431 27.279-35.738 27.279-59.485.001-43.361-35.262-78.638-78.605-78.638s-78.605 35.277-78.605 78.639c0 21.153 8.407 40.368 22.035 54.516l-20.104 20.315c-7.061-6.346-14.754-11.999-22.984-16.816-19.258-11.273-41.012-17.747-63.334-18.939v-20.323c21.766-3.593 38.423-22.542 38.423-45.318 0-25.316-20.601-45.913-45.923-45.913s-45.923 20.597-45.923 45.913c0 22.776 16.657 41.725 38.423 45.318v20.306c-33.088 1.75-63.17 15.016-86.323 35.846l-20.235-20.245c13.709-14.162 22.172-33.436 22.172-54.66-.001-43.362-35.263-78.639-78.606-78.639s-78.606 35.277-78.606 78.639c0 23.748 10.591 45.054 27.279 59.485.361.385.76.734 1.195 1.036 13.617 11.308 31.093 18.118 50.131 18.118 16.724 0 32.233-5.269 44.989-14.211l21.074 21.084c-20.824 23.163-34.077 53.265-35.827 86.37h-20.293c-3.593-21.76-22.533-38.413-45.3-38.413-25.322 0-45.923 20.597-45.923 45.913 0 25.332 20.601 45.941 45.923 45.941 22.769 0 41.71-16.665 45.301-38.441h20.288c1.748 33.114 15.013 63.217 35.838 86.386l-20.484 20.475c-13.596-11.236-31.018-17.995-49.989-17.995-43.343 0-78.605 35.277-78.605 78.639s35.263 78.64 78.605 78.64 78.605-35.278 78.605-78.64c0-18.992-6.766-36.432-18.011-50.037l20.481-20.473c1.801 1.621 3.642 3.199 5.522 4.728 1.792 1.458 3.641 3.216 5.653 4.352 21.314 15.572 47.154 25.29 75.143 26.772v20.31c-21.766 3.591-38.423 22.528-38.423 45.291 0 25.332 20.601 45.941 45.923 45.941s45.923-20.609 45.923-45.941c0-22.762-16.657-41.7-38.423-45.291v-20.31c27.987-1.482 53.825-11.199 75.138-26.769.51-.288.981-.636 1.408-1.031 3.366-2.523 6.61-5.199 9.734-8.007l20.532 20.748c-11.252 13.608-18.023 31.053-18.023 50.052 0 23.692 10.542 44.953 27.161 59.383.431.481.919.909 1.461 1.266 13.595 11.234 31.015 17.99 49.984 17.99s36.389-6.757 49.984-17.99c.541-.357 1.03-.785 1.461-1.266 16.62-14.43 27.161-35.691 27.161-59.383.002-43.362-35.261-78.64-78.603-78.64zm30.955-127.613c17.051 0 30.923 13.868 30.923 30.913 0 17.061-13.872 30.941-30.923 30.941s-30.923-13.88-30.923-30.941c0-17.045 13.872-30.913 30.923-30.913zm-35.358-84.829c-14.316 0-27.54-4.76-38.182-12.777 1.136-12.261 8.18-23.294 18.834-29.574 5.653 3.419 12.274 5.39 19.348 5.39s13.695-1.971 19.348-5.39c10.654 6.28 17.698 17.313 18.834 29.574-10.642 8.017-23.866 12.777-38.182 12.777zm-22.509-74.484c0-12.418 10.098-22.522 22.509-22.522s22.508 10.104 22.508 22.522c0 12.419-10.097 22.522-22.508 22.522s-22.509-10.103-22.509-22.522zm-41.096 10.844c0-35.091 28.533-63.639 63.605-63.639s63.605 28.548 63.605 63.639c0 14.328-4.76 27.562-12.777 38.21-3.531-11.027-10.61-20.71-20.179-27.466 4.314-6.11 6.859-13.555 6.859-21.588 0-20.689-16.826-37.522-37.508-37.522-20.683 0-37.509 16.833-37.509 37.522 0 8.033 2.545 15.478 6.859 21.589-9.569 6.756-16.647 16.438-20.179 27.465-8.016-10.648-12.776-23.882-12.776-38.21zm-137.81-26.565c0-17.045 13.872-30.913 30.923-30.913s30.923 13.868 30.923 30.913c0 17.061-13.872 30.941-30.923 30.941s-30.923-13.88-30.923-30.941zm-139.569 90.205c-14.316 0-27.54-4.76-38.182-12.777 1.136-12.261 8.18-23.294 18.834-29.574 5.653 3.419 12.274 5.39 19.348 5.39s13.695-1.971 19.348-5.39c10.653 6.28 17.698 17.313 18.834 29.574-10.642 8.017-23.866 12.777-38.182 12.777zm-22.508-74.484c0-12.418 10.097-22.522 22.508-22.522s22.509 10.104 22.509 22.522c0 12.419-10.098 22.522-22.509 22.522s-22.508-10.103-22.508-22.522zm53.158 21.589c4.314-6.111 6.859-13.556 6.859-21.589 0-20.689-16.826-37.522-37.509-37.522-20.682 0-37.508 16.833-37.508 37.522 0 8.033 2.545 15.478 6.858 21.589-9.569 6.756-16.648 16.438-20.179 27.466-8.017-10.648-12.777-23.883-12.777-38.21 0-35.092 28.534-63.64 63.606-63.64s63.605 28.548 63.605 63.639c0 14.328-4.76 27.562-12.777 38.21-3.531-11.027-10.609-20.709-20.178-27.465zm-66.008 199.578c-17.051 0-30.923-13.88-30.923-30.941 0-17.045 13.872-30.913 30.923-30.913s30.923 13.868 30.923 30.913c0 17.061-13.872 30.941-30.923 30.941zm30.955 207.704c-14.316 0-27.541-4.76-38.182-12.777 1.135-12.271 8.175-23.306 18.825-29.579 5.655 3.422 12.279 5.395 19.357 5.395 7.072 0 13.692-1.97 19.344-5.388 10.657 6.279 17.702 17.31 18.838 29.571-10.641 8.017-23.865 12.778-38.182 12.778zm-22.507-74.484c0-12.418 10.097-22.522 22.508-22.522s22.509 10.104 22.509 22.522c0 12.419-10.098 22.522-22.509 22.522s-22.508-10.103-22.508-22.522zm73.336 49.054c-3.531-11.028-10.599-20.722-20.171-27.476 4.309-6.109 6.851-13.55 6.851-21.578 0-20.689-16.826-37.522-37.509-37.522-20.682 0-37.508 16.833-37.508 37.522 0 8.023 2.538 15.46 6.842 21.566-9.57 6.753-16.636 16.45-20.166 27.485-8.014-10.648-12.773-23.881-12.773-38.207 0-35.091 28.533-63.639 63.605-63.639s63.605 28.548 63.605 63.639c.001 14.328-4.759 27.562-12.776 38.21zm75.033-222.47v-10.841c9.747-2.284 14.81-7.432 18.366-11.061 3.524-3.597 3.976-4.061 7.534-3.145 2.878.743 5.325 1.398 7.443 1.966 7.248 1.941 11.241 3.011 15.689 3.011s8.441-1.069 15.689-3.011c2.118-.568 4.565-1.223 7.44-1.965 3.556-.915 4.012-.455 7.537 3.144 3.556 3.629 8.619 8.777 18.366 11.061v10.841c0 17.528-17.866 40.112-37.503 47.388-8.515 3.18-14.549 3.178-23.079-.007-19.616-7.269-37.482-29.853-37.482-47.381zm74.168 69.735-21.266 12.468c-.1.058-.197.118-.294.181-3.475 2.258-3.676 2.258-7.15 0-.097-.063-.194-.123-.294-.181l-21.27-12.471c3.274-2.465 5.437-5.816 6.922-8.861.479.192.956.39 1.438.568 5.962 2.227 11.372 3.339 16.782 3.339 5.405 0 10.81-1.111 16.756-3.332.488-.181.971-.381 1.456-.575 1.486 3.048 3.649 6.401 6.92 8.864zm5.788 145.467c0 17.061-13.872 30.941-30.923 30.941s-30.923-13.88-30.923-30.941c0-17.045 13.872-30.913 30.923-30.913s30.923 13.868 30.923 30.913zm40.54-102.814c-20.292 14.125-44.926 22.419-71.463 22.419s-51.171-8.295-71.463-22.419v-5.511c0-18.812 10.282-25.324 27.704-30.674l32.162 18.857c4.165 2.682 7.881 4.023 11.597 4.023s7.432-1.341 11.597-4.023l32.162-18.857c17.422 5.35 27.704 11.862 27.704 30.674zm103.432 135.846c-14.315 0-27.538-4.759-38.179-12.775 1.142-12.266 8.184-23.297 18.835-29.573 5.652 3.417 12.272 5.387 19.344 5.387 7.077 0 13.702-1.973 19.357-5.395 10.644 6.271 17.682 17.305 18.823 29.581-10.642 8.016-23.865 12.775-38.18 12.775zm-22.509-74.483c0-12.419 10.098-22.522 22.509-22.522s22.508 10.104 22.508 22.522-10.097 22.522-22.508 22.522-22.509-10.103-22.509-22.522zm73.336 49.055c-3.531-11.038-10.595-20.737-20.162-27.489 4.304-6.106 6.843-13.543 6.843-21.566 0-20.69-16.826-37.522-37.508-37.522-20.683 0-37.509 16.833-37.509 37.522 0 8.028 2.542 15.469 6.851 21.578-9.569 6.755-16.635 16.45-20.167 27.481-8.019-10.649-12.78-23.885-12.78-38.215 0-35.091 28.533-63.64 63.605-63.64s63.605 28.549 63.605 63.64c0 14.328-4.761 27.563-12.778 38.211z"/></svg>
