<?xml version="1.0" encoding="iso-8859-1"?>
<!-- Generator: Adobe Illustrator 19.0.0, SVG Export Plug-In . SVG Version: 6.00 Build 0)  -->
<svg version="1.1" id="Layer_1" xmlns="http://www.w3.org/2000/svg" xmlns:xlink="http://www.w3.org/1999/xlink" x="0px" y="0px"
	 viewBox="0 0 512.001 512.001" style="enable-background:new 0 0 512.001 512.001;" xml:space="preserve">
<g>
	<g>
		<g>
			<path d="M212.623,108.789c3.203,9.791,9.923,18,18.662,23.134v4.464l-33.068,12.949c-3.049,1.103-28.928,11.43-28.928,44.332
				v28.799c0,4.464,3.618,8.09,8.084,8.09h20.539c4.466,0,8.084-3.619,8.084-8.084c0-4.464-3.618-8.084-8.084-8.084h-12.456v-20.722
				c0-22.367,17.487-28.854,18.166-29.096c0.125-0.042,0.25-0.087,0.372-0.136l30.283-11.86l16.085,15.665
				c1.511,1.471,3.535,2.294,5.64,2.294c0.043,0,0.085-0.001,0.128-0.001c2.151-0.034,4.2-0.925,5.693-2.474l15.188-15.765
				l30.215,12.116c0.142,0.057,0.288,0.11,0.432,0.16c0.182,0.061,18.167,6.369,18.167,29.095v20.722h-45.341h-49.689h-7.197
				c-4.466,0-8.084,3.619-8.084,8.084c0,4.464,3.618,8.084,8.084,8.084h7.197h49.689h53.425c4.464,0,8.084-3.675,8.084-8.14v-28.748
				c0-32.775-25.68-43.151-28.894-44.319l-32.208-12.915v-4.511c8.743-5.137,15.465-13.35,18.666-23.148
				c11.703-0.94,20.943-10.743,20.943-22.682c0-7.1-3.267-13.447-8.373-17.627V54.205C312.127,24.316,287.811,0,257.923,0h-3.844
				c-29.888,0-54.204,24.316-54.204,54.205v14.197c-5.153,4.179-8.458,10.553-8.458,17.691
				C191.417,98.121,200.796,107.977,212.623,108.789z M301.625,81.344c0.293,0.092,0.594,0.163,0.9,0.221
				c1.117,1.185,1.808,2.775,1.808,4.528c0,2.184-1.069,4.117-2.708,5.321V81.344z M264.722,141.748l-8.904,9.244l-8.366-8.148
				v-5.475c1.632,0.194,3.287,0.305,4.97,0.305h7.33c1.684,0,3.339-0.111,4.97-0.305V141.748z M285.457,95.801
				c0,14.174-11.531,25.703-25.703,25.703h-7.33c-14.174,0-25.706-11.531-25.706-25.703V74.6
				c10.469-1.137,28.961-4.817,43.238-16.714c3.202,5.475,8.143,11.386,15.502,14.848V95.801z M216.043,54.205
				c0-20.974,17.063-38.037,38.036-38.037h3.844c20.973,0,38.036,17.063,38.036,38.037v5.106c-0.137-0.043-0.279-0.073-0.419-0.11
				c-0.069-0.017-0.136-0.041-0.205-0.057c-11.173-2.542-14.831-17.468-14.858-17.58c-0.701-3.098-3.152-5.498-6.264-6.135
				c-3.113-0.639-6.309,0.608-8.17,3.182c-14.542,20.104-46.978,20.331-47.383,20.331c-0.009,0-0.017,0-0.026,0
				c-0.278,0-0.554,0.014-0.825,0.042c-0.072,0.008-0.143,0.024-0.214,0.032c-0.197,0.025-0.395,0.051-0.587,0.089
				c-0.101,0.022-0.199,0.053-0.3,0.078c-0.157,0.039-0.318,0.073-0.472,0.121c-0.066,0.021-0.127,0.049-0.192,0.07V54.205z
				 M209.219,81.756c0.458-0.071,0.902-0.179,1.331-0.324v10.169c-1.785-1.185-2.965-3.21-2.965-5.508
				C207.585,84.433,208.203,82.918,209.219,81.756z"/>
			<path d="M330.387,28.05c52.257,17.127,97.456,52.159,127.27,98.643c1.545,2.407,4.151,3.721,6.812,3.721
				c1.495,0,3.006-0.414,4.357-1.281c3.758-2.41,4.85-7.411,2.441-11.169c-31.818-49.608-80.061-86.996-135.844-105.279
				c-4.251-1.393-8.809,0.923-10.2,5.164C323.833,22.094,326.145,26.659,330.387,28.05z"/>
			<path d="M42.453,129.134c1.351,0.867,2.862,1.281,4.357,1.281c2.661,0,5.269-1.314,6.812-3.721
				c30.159-47.022,75.946-82.245,128.923-99.18c4.253-1.359,6.599-5.909,5.238-10.162c-1.36-4.253-5.912-6.599-10.161-5.238
				C121.069,30.19,72.197,67.783,40.011,117.964C37.603,121.723,38.695,126.724,42.453,129.134z"/>
			<path d="M155.595,474.009c-41.808-19.218-77.069-49.899-101.972-88.725c-2.411-3.76-7.414-4.851-11.169-2.441
				c-3.758,2.41-4.851,7.411-2.441,11.169c26.575,41.434,64.208,74.175,108.829,94.688c1.095,0.503,2.242,0.742,3.372,0.742
				c3.06,0,5.989-1.747,7.35-4.709C161.428,480.675,159.652,475.875,155.595,474.009z"/>
			<path d="M468.826,382.843c-3.755-2.408-8.758-1.319-11.169,2.441c-24.545,38.271-59.235,68.684-100.317,87.951
				c-4.042,1.896-5.782,6.71-3.886,10.752c1.374,2.933,4.287,4.653,7.324,4.653c1.149,0,2.317-0.247,3.428-0.767
				c43.847-20.563,80.868-53.018,107.063-93.86C473.677,390.254,472.585,385.254,468.826,382.843z"/>
			<path d="M172.716,363.128v-28.748c0-32.774-25.676-43.148-28.894-44.319l-32.208-12.916v-4.511
				c8.743-5.137,15.465-13.351,18.666-23.149c11.702-0.94,20.943-10.743,20.943-22.682c0-7.099-3.267-13.446-8.374-17.627v-14.26
				c0-29.889-24.316-54.206-54.204-54.206h-3.844c-29.889,0-54.204,24.317-54.204,54.206v14.197
				c-5.153,4.18-8.458,10.553-8.458,17.69c0,12.028,9.379,21.884,21.204,22.696c3.204,9.791,9.923,18.001,18.663,23.135v4.463
				l-33.068,12.951c-3.056,1.103-28.928,11.432-28.928,44.332v28.797c0,4.466,3.618,8.091,8.084,8.091h20.539
				c4.466,0,8.084-3.618,8.084-8.084c0-4.466-3.618-8.084-8.084-8.084H16.178v-20.721c0-22.369,17.487-28.854,18.165-29.095
				c0.125-0.042,0.25-0.087,0.373-0.136l30.282-11.859l16.086,15.665c1.51,1.471,3.534,2.293,5.639,2.293
				c0.043,0,0.085,0,0.128-0.001c2.151-0.033,4.2-0.925,5.693-2.474l15.188-15.765l30.214,12.116
				c0.143,0.058,0.222,0.088,0.369,0.137c0.744,0.265,18.232,6.751,18.232,29.119v20.721h-45.341H61.518h-7.197
				c-4.466,0-8.084,3.618-8.084,8.084c0,4.466,3.618,8.084,8.084,8.084h7.197h49.689h53.425
				C169.097,371.268,172.716,367.592,172.716,363.128z M132.348,222.054c0.292,0.092,0.594,0.163,0.899,0.221
				c1.118,1.185,1.809,2.775,1.809,4.528c0,2.184-1.069,4.117-2.708,5.321V222.054z M41.273,232.311
				c-1.785-1.185-2.965-3.21-2.965-5.508c0-1.66,0.62-3.175,1.635-4.337c0.457-0.072,0.902-0.179,1.33-0.324V232.311z
				 M49.382,199.653c-0.009,0-0.017,0-0.026,0c-0.278,0-0.554,0.014-0.825,0.042c-0.072,0.008-0.143,0.024-0.214,0.032
				c-0.197,0.025-0.394,0.051-0.587,0.089c-0.101,0.022-0.199,0.053-0.3,0.078c-0.157,0.039-0.318,0.073-0.472,0.121
				c-0.066,0.02-0.127,0.049-0.192,0.07v-5.168c0-20.976,17.063-38.039,38.036-38.039h3.844c20.973,0,38.036,17.064,38.036,38.038
				v5.105c-0.137-0.043-0.279-0.073-0.419-0.11c-0.069-0.017-0.136-0.042-0.205-0.057c-11.173-2.542-14.831-17.466-14.858-17.579
				c-0.701-3.098-3.152-5.498-6.264-6.134c-3.113-0.638-6.31,0.607-8.169,3.182C82.222,199.425,49.787,199.653,49.382,199.653z
				 M95.445,282.458l-8.904,9.244l-8.366-8.148v-5.475c1.632,0.194,3.287,0.305,4.97,0.305h7.33c1.684,0,3.339-0.111,4.97-0.305
				V282.458z M90.476,262.215h-7.33c-14.174,0-25.706-11.531-25.706-25.704V215.31h0.001c10.469-1.137,28.961-4.816,43.238-16.714
				c3.202,5.477,8.143,11.385,15.502,14.848v23.067C116.18,250.685,104.649,262.215,90.476,262.215z"/>
			<path d="M483.096,290.06l-32.208-12.916v-4.511c8.743-5.137,15.465-13.351,18.666-23.149
				c11.702-0.94,20.943-10.743,20.943-22.682c0-7.099-3.267-13.446-8.374-17.627v-14.26c0-29.889-24.316-54.206-54.204-54.206
				h-3.845c-29.888,0-54.204,24.317-54.204,54.206v14.197c-5.153,4.18-8.458,10.553-8.458,17.69
				c0,12.028,9.379,21.884,21.205,22.696c3.204,9.791,9.923,18.001,18.663,23.135v4.463l-33.067,12.951
				c-3.056,1.103-28.928,11.432-28.928,44.332v28.797c0,4.466,3.618,8.091,8.084,8.091h20.539c4.466,0,8.084-3.618,8.084-8.084
				c0-4.466-3.618-8.084-8.084-8.084h-12.456v-20.721c0-22.369,17.487-28.854,18.165-29.095c0.125-0.042,0.249-0.087,0.373-0.136
				l30.282-11.859l16.086,15.665c1.51,1.471,3.534,2.293,5.64,2.293c0.043,0,0.085,0,0.128-0.001
				c2.151-0.033,4.201-0.925,5.693-2.474l15.188-15.765l30.214,12.116c0.143,0.058,0.222,0.088,0.369,0.137
				c0.744,0.265,18.232,6.751,18.232,29.119v20.721h-45.341h-49.689h-7.197c-4.466,0-8.084,3.618-8.084,8.084
				c0,4.466,3.618,8.084,8.084,8.084h7.197h49.689h53.425c4.466,0,8.084-3.675,8.084-8.14v-28.748
				C511.989,301.605,486.313,291.231,483.096,290.06z M471.622,222.054c0.292,0.092,0.594,0.163,0.899,0.221
				c1.118,1.185,1.809,2.775,1.809,4.528c0,2.184-1.069,4.117-2.708,5.321V222.054z M380.547,232.311
				c-1.785-1.185-2.965-3.21-2.965-5.508c0-1.66,0.62-3.175,1.635-4.337c0.457-0.072,0.902-0.179,1.33-0.324V232.311z
				 M388.656,199.653c-0.009,0-0.017,0-0.026,0c-0.278,0-0.554,0.014-0.825,0.042c-0.072,0.008-0.143,0.024-0.214,0.032
				c-0.197,0.025-0.395,0.051-0.587,0.089c-0.101,0.022-0.199,0.053-0.3,0.078c-0.157,0.039-0.318,0.073-0.473,0.121
				c-0.065,0.02-0.127,0.049-0.192,0.07v-5.168c0-20.976,17.063-38.039,38.036-38.039h3.845c20.973,0,38.036,17.064,38.036,38.038
				v5.105c-0.137-0.043-0.279-0.073-0.419-0.11c-0.069-0.017-0.136-0.042-0.205-0.057c-11.173-2.542-14.831-17.466-14.858-17.579
				c-0.701-3.098-3.152-5.498-6.264-6.134c-3.112-0.638-6.309,0.607-8.169,3.182C421.497,199.425,389.062,199.653,388.656,199.653z
				 M434.719,282.458l-8.904,9.244l-8.366-8.148v-5.475c1.632,0.194,3.287,0.305,4.97,0.305h7.33c1.682,0,3.339-0.111,4.97-0.305
				V282.458z M429.749,262.216h-7.33c-14.174,0-25.706-11.531-25.706-25.705v-21.201h0.001c10.472-1.14,28.974-4.827,43.238-16.714
				c3.202,5.477,8.143,11.385,15.502,14.848v23.067C455.454,250.686,443.923,262.216,429.749,262.216z"/>
			<path d="M313.099,430.794l-32.208-12.916v-4.511c8.743-5.137,15.465-13.351,18.666-23.149
				c11.703-0.94,20.943-10.744,20.943-22.683c0-7.099-3.267-13.446-8.373-17.627v-14.26c0-29.889-24.316-54.206-54.204-54.206
				h-3.844c-29.888,0-54.204,24.316-54.204,54.206v14.197c-5.153,4.18-8.458,10.553-8.458,17.69
				c0,12.028,9.379,21.884,21.204,22.696c3.204,9.792,9.923,18.001,18.663,23.136v4.463l-33.069,12.95
				c-3.056,1.103-28.928,11.433-28.928,44.332v28.797c0,4.466,3.618,8.091,8.084,8.091h20.539c4.466,0,8.084-3.618,8.084-8.084
				s-3.618-8.084-8.084-8.084h-12.456v-20.721c0-22.369,17.487-28.854,18.166-29.095c0.125-0.042,0.25-0.087,0.373-0.136
				l30.282-11.86l16.086,15.665c1.51,1.471,3.534,2.293,5.639,2.293c0.043,0,0.085,0,0.128-0.001c2.151-0.033,4.2-0.924,5.693-2.474
				l15.188-15.765l30.214,12.116c0.143,0.058,0.222,0.088,0.369,0.137c0.744,0.265,18.232,6.751,18.232,29.119v20.721h-45.341
				h-49.689h-7.197c-4.466,0-8.084,3.618-8.084,8.084s3.618,8.084,8.084,8.084h7.197h49.689h53.425c4.464,0,8.084-3.675,8.084-8.14
				v-28.748C341.992,442.339,316.316,431.964,313.099,430.794z M301.625,362.786c0.293,0.092,0.594,0.163,0.899,0.221
				c1.118,1.185,1.809,2.775,1.809,4.528c0,2.185-1.069,4.117-2.708,5.322V362.786z M210.55,373.044
				c-1.785-1.185-2.965-3.211-2.965-5.509c0-1.66,0.62-3.174,1.634-4.336c0.458-0.072,0.903-0.179,1.331-0.324V373.044z
				 M218.658,340.383c-0.009,0-0.017,0-0.026,0c-0.278,0-0.554,0.014-0.825,0.042c-0.085,0.009-0.167,0.026-0.252,0.038
				c-0.183,0.024-0.369,0.047-0.549,0.084c-0.127,0.025-0.249,0.064-0.375,0.096c-0.133,0.033-0.268,0.063-0.398,0.102
				c-0.066,0.019-0.127,0.048-0.193,0.069v-5.168c0.001-20.973,17.065-38.036,38.037-38.036h3.844
				c20.973,0,38.036,17.063,38.036,38.038v5.105c-0.13-0.041-0.266-0.069-0.4-0.105c-0.075-0.021-0.148-0.045-0.224-0.064
				c-11.173-2.541-14.831-17.465-14.858-17.579c-0.701-3.098-3.152-5.498-6.264-6.134c-3.113-0.638-6.309,0.607-8.169,3.181
				C251.499,340.156,219.064,340.383,218.658,340.383z M264.722,423.19l-8.904,9.245l-8.366-8.148v-5.475
				c1.632,0.194,3.287,0.305,4.97,0.305h7.33c1.684,0,3.339-0.112,4.97-0.305V423.19z M259.753,402.948h-7.33
				c-14.174,0-25.706-11.531-25.706-25.704v-21.2h0.001c10.469-1.138,28.961-4.817,43.238-16.715
				c3.202,5.475,8.143,11.386,15.502,14.848v23.067C285.457,391.416,273.926,402.948,259.753,402.948z"/>
		</g>
	</g>
</g>
<g>
</g>
<g>
</g>
<g>
</g>
<g>
</g>
<g>
</g>
<g>
</g>
<g>
</g>
<g>
</g>
<g>
</g>
<g>
</g>
<g>
</g>
<g>
</g>
<g>
</g>
<g>
</g>
<g>
</g>
</svg>
