<svg id="Capa_1" enable-background="new 0 0 512 512" height="512" viewBox="0 0 512 512" width="512" xmlns="http://www.w3.org/2000/svg"><g><g><path d="m123.729 225.348h-34.166c-5.79 0-10.5 4.71-10.5 10.5v34.166c0 5.79 4.71 10.5 10.5 10.5h34.166c5.79 0 10.5-4.71 10.5-10.5v-34.166c0-5.789-4.709-10.5-10.5-10.5zm-4.5 40.166h-25.166v-25.166h25.166z"/><path d="m123.729 303.345h-34.166c-5.79 0-10.5 4.71-10.5 10.5v34.167c0 5.79 4.71 10.5 10.5 10.5h34.166c5.79 0 10.5-4.71 10.5-10.5v-34.167c0-5.789-4.709-10.5-10.5-10.5zm-4.5 40.167h-25.166v-25.167h25.166z"/><path d="m123.729 381.343h-34.166c-5.79 0-10.5 4.71-10.5 10.5v34.166c0 5.79 4.71 10.5 10.5 10.5h34.166c5.79 0 10.5-4.71 10.5-10.5v-34.166c0-5.79-4.709-10.5-10.5-10.5zm-4.5 40.166h-25.166v-25.166h25.166z"/><path d="m142.598 141.625c-3.434-2.314-8.097-1.406-10.411 2.028l-23.064 34.225-10.487-13.983c-2.485-3.313-7.187-3.985-10.5-1.5s-3.985 7.187-1.5 10.5l16.814 22.418c1.419 1.892 3.643 3 6 3 .063 0 .126-.001.189-.002 2.427-.061 4.674-1.293 6.03-3.306l28.957-42.969c2.314-3.435 1.406-8.096-2.028-10.411z"/><path d="m243.986 81.933c0-4.142-3.357-7.5-7.5-7.5h-95.278c-4.143 0-7.5 3.358-7.5 7.5s3.357 7.5 7.5 7.5h95.278c4.143 0 7.5-3.358 7.5-7.5z"/><path d="m496.749 206.5c4.143 0 7.5-3.358 7.5-7.5v-47.053c0-5.79-4.71-10.5-10.5-10.5h-123.805v-73.375c0-6.893-5.607-12.5-12.5-12.5h-70.806c-1.959-4.349-6.325-7.389-11.395-7.389h-23.312c-7.58-27.733-32.979-48.183-63.083-48.183s-55.504 20.45-63.084 48.183h-23.312c-5.071 0-9.437 3.04-11.395 7.389h-70.806c-6.893 0-12.5 5.607-12.5 12.5v431.428c0 6.893 5.607 12.5 12.5 12.5h337.193c6.893 0 12.5-5.607 12.5-12.5v-54.904h86.463c2.805 0 5.441-1.092 7.425-3.075l37.343-37.343c1.982-1.982 3.074-4.619 3.074-7.424v-162.754c0-4.142-3.357-7.5-7.5-7.5s-7.5 3.358-7.5 7.5v156.497h-31.6c-4.143 0-7.5 3.358-7.5 7.5v31.6h-166.899v-273.15h205.999v42.553c0 4.142 3.357 7.5 7.5 7.5zm-31.6 198.997h13.493l-13.493 13.493zm-110.205-264.05h-13.023v-47.352c0-5.79-4.71-10.5-10.5-10.5h-43.678v-13.023h67.201zm-166.096-126.447c21.745 0 40.303 13.848 47.356 33.183h-94.713c7.053-19.335 25.611-33.183 47.357-33.183zm89.902 126.447c-5.79 0-10.5 4.71-10.5 10.5v6.146h-107.748c-4.143 0-7.5 3.358-7.5 7.5s3.357 7.5 7.5 7.5h107.748v10.221h-107.748c-4.143 0-7.5 3.358-7.5 7.5s3.357 7.5 7.5 7.5h107.748v37.777h-107.748c-4.143 0-7.5 3.358-7.5 7.5s3.357 7.5 7.5 7.5h107.748v10.221h-107.748c-4.143 0-7.5 3.358-7.5 7.5s3.357 7.5 7.5 7.5h107.748v37.776h-107.748c-4.143 0-7.5 3.358-7.5 7.5s3.357 7.5 7.5 7.5h107.748v10.221h-107.748c-4.143 0-7.5 3.358-7.5 7.5s3.357 7.5 7.5 7.5h107.748v37.777h-107.748c-4.143 0-7.5 3.358-7.5 7.5s3.357 7.5 7.5 7.5h107.748v10.221h-107.748c-4.143 0-7.5 3.358-7.5 7.5s3.357 7.5 7.5 7.5h107.748v1.791c0 5.79 4.71 10.5 10.5 10.5h48.171v24.381h-199.921c-4.143 0-7.5 3.358-7.5 7.5s3.357 7.5 7.5 7.5h204.421c5.79 0 10.5-4.71 10.5-10.5v-28.881h13.023v52.402h-332.193v-426.428h67.2v13.023h-43.678c-5.79 0-10.5 4.71-10.5 10.5v379.382c0 5.79 4.71 10.5 10.5 10.5h45.727c4.143 0 7.5-3.358 7.5-7.5s-3.357-7.5-7.5-7.5h-41.227v-370.382h39.178v4.589c0 6.893 5.607 12.5 12.5 12.5h99.549c4.143 0 7.5-3.358 7.5-7.5s-3.357-7.5-7.5-7.5h-97.049v-37.5h167.792v37.5h-35.743c-4.143 0-7.5 3.358-7.5 7.5s3.357 7.5 7.5 7.5h38.243c6.893 0 12.5-5.607 12.5-12.5v-4.589h39.178v42.853h-48.171z"/><path d="m445.75 303.372h-119c-4.143 0-7.5 3.358-7.5 7.5s3.357 7.5 7.5 7.5h119c4.143 0 7.5-3.358 7.5-7.5s-3.357-7.5-7.5-7.5z"/><path d="m445.75 330.572h-119c-4.143 0-7.5 3.358-7.5 7.5s3.357 7.5 7.5 7.5h119c4.143 0 7.5-3.358 7.5-7.5s-3.357-7.5-7.5-7.5z"/><path d="m453.25 365.271c0-4.142-3.357-7.5-7.5-7.5h-119c-4.143 0-7.5 3.358-7.5 7.5s3.357 7.5 7.5 7.5h119c4.143 0 7.5-3.357 7.5-7.5z"/><path d="m326.75 384.972c-4.143 0-7.5 3.358-7.5 7.5s3.357 7.5 7.5 7.5h91.8c4.143 0 7.5-3.358 7.5-7.5s-3.357-7.5-7.5-7.5z"/><path d="m452.479 265.099-57.335-91.353c-1.933-3.08-5.258-4.918-8.894-4.918s-6.961 1.839-8.894 4.918l-57.335 91.353c-2.03 3.235-2.144 7.321-.295 10.664 1.849 3.342 5.369 5.418 9.188 5.418h114.67c3.819 0 7.34-2.076 9.188-5.418s1.737-7.429-.293-10.664zm-115.427 1.082 49.198-78.388 49.198 78.388z"/><path d="m378.75 213.683v20.813c0 4.142 3.357 7.5 7.5 7.5s7.5-3.358 7.5-7.5v-20.813c0-4.142-3.357-7.5-7.5-7.5s-7.5 3.358-7.5 7.5z"/><circle cx="386.25" cy="252.81" r="7.5"/></g></g></svg>
