<svg id="Layer_1" enable-background="new 0 0 512 512" height="512" viewBox="0 0 512 512" width="512" xmlns="http://www.w3.org/2000/svg"><g><g><path d="m465.124 363.549-53.976-15.285v-338.264c0-5.522-4.477-10-10-10h-351.547c-5.523 0-10 4.478-10 10v178.026c0 5.522 4.477 10 10 10s10-4.478 10-10v-168.026h331.546v328.264l-53.976 15.285c-4.304 1.22-7.275 5.148-7.275 9.622v48.116c0 9.283 1.51 18.61 4.414 27.424h-274.709v-172.95c-.459-13.191-19.495-13.3-20 0v182.95c0 5.522 4.477 10 10 10h294.329c12.225 20.233 32.582 30.066 52.064 41.859 3.171 1.906 7.135 1.906 10.307 0l23.644-14.217c26.187-15.746 42.455-44.51 42.455-75.066v-48.116c-.001-4.474-2.972-8.402-7.276-9.622zm-12.725 57.738c0 23.579-12.553 45.775-32.761 57.926l-18.49 11.118-18.491-11.118c-20.069-12.067-32.758-34.508-32.758-57.924v-40.552l51.258-14.515 51.243 14.51v40.555z"/><path d="m397.045 422.172-6.763-6.763c-3.905-3.904-10.237-3.904-14.143 0-3.905 3.905-3.905 10.237 0 14.143l13.834 13.834c3.906 3.905 10.237 3.905 14.143 0l28.59-28.59c3.905-3.905 3.905-10.237 0-14.143-3.905-3.904-10.237-3.904-14.143 0z"/><path d="m149.231 153.368c23.75 0 43.072-19.322 43.072-43.072-2.166-57.063-83.988-57.047-86.145.001.001 23.749 19.323 43.071 43.073 43.071zm0-66.144c12.722 0 23.072 10.351 23.072 23.072-1.16 30.566-44.989 30.558-46.145 0 .001-12.722 10.351-23.072 23.073-23.072z"/><path d="m149.231 275.157c23.75 0 43.072-19.322 43.072-43.072-2.166-57.063-83.988-57.047-86.145.001.001 23.749 19.323 43.071 43.073 43.071zm0-66.144c12.722 0 23.072 10.351 23.072 23.072-1.16 30.566-44.989 30.558-46.145 0 .001-12.722 10.351-23.072 23.073-23.072z"/><path d="m149.231 396.946c23.75 0 43.072-19.322 43.072-43.072-2.165-57.061-83.988-57.046-86.145.001.001 23.749 19.323 43.071 43.073 43.071zm0-66.143c12.722 0 23.072 10.35 23.072 23.071-1.16 30.566-44.989 30.558-46.145 0 .001-12.722 10.351-23.071 23.073-23.071z"/><path d="m238.638 101.084h96.949c13.254-.492 13.244-19.513 0-20h-96.949c-13.254.492-13.244 19.513 0 20z"/><path d="m238.638 145.181h52.874c13.254-.492 13.244-19.513 0-20h-52.874c-13.254.492-13.244 19.512 0 20z"/><path d="m238.638 220.037h96.949c13.254-.492 13.244-19.513 0-20h-96.949c-13.254.492-13.244 19.513 0 20z"/><path d="m238.638 264.133h52.874c13.254-.492 13.244-19.513 0-20h-52.874c-13.254.492-13.244 19.513 0 20z"/><path d="m238.638 338.99h96.949c13.254-.492 13.244-19.513 0-20h-96.949c-13.254.492-13.244 19.513 0 20z"/><path d="m238.638 383.086h52.874c13.254-.492 13.244-19.513 0-20h-52.874c-13.254.492-13.244 19.513 0 20z"/><path d="m44.05 240.399c8.151 5.419 18.523-3.094 14.78-12.14-3.408-8.142-15.353-8.029-18.548.228-1.673 4.322-.076 9.332 3.768 11.912z"/></g></g></svg>
