<svg width="48" height="49" viewBox="0 0 48 49" fill="none" xmlns="http://www.w3.org/2000/svg">
<g clip-path="url(#clip0_6378_116)">
<path d="M13.3517 3.77441H4.3344C3.40346 3.80666 3.40421 5.14865 4.3344 5.18053H13.3516C14.2826 5.14828 14.2819 3.80629 13.3517 3.77441Z" fill="black"/>
<path d="M15.8219 10.6309H5.94759C4.67037 10.6309 3.63135 11.6699 3.63135 12.9471V13.9669C3.63135 15.2441 4.67037 16.2832 5.94759 16.2832H15.8219C17.0991 16.2832 18.1381 15.2441 18.1381 13.9669V12.9471C18.1381 11.67 17.0991 10.6309 15.8219 10.6309ZM16.732 13.9669C16.732 14.4688 16.3238 14.877 15.8219 14.877H5.94759C5.4457 14.877 5.03746 14.4688 5.03746 13.9669V12.9471C5.03746 12.4452 5.4457 12.037 5.94759 12.037H15.8219C16.3238 12.037 16.732 12.4452 16.732 12.9471V13.9669Z" fill="black"/>
<path d="M10.2759 20.161V23.0556C10.2759 24.3328 11.3149 25.3718 12.5921 25.3718H22.4664C23.7436 25.3718 24.7826 24.3328 24.7826 23.0556V20.161C24.7826 18.8838 23.7436 17.8447 22.4664 17.8447H12.5921C11.3149 17.8446 10.2759 18.8838 10.2759 20.161ZM23.3765 20.161V23.0556C23.3765 23.5575 22.9683 23.9657 22.4664 23.9657H12.5921C12.0902 23.9657 11.682 23.5575 11.682 23.0556V20.161C11.682 19.6591 12.0902 19.2508 12.5921 19.2508H22.4664C22.9683 19.2507 23.3765 19.6591 23.3765 20.161Z" fill="black"/>
<path d="M3.63135 32.1435C3.63135 33.4207 4.67037 34.4597 5.94759 34.4597H15.8219C17.0991 34.4597 18.1381 33.4207 18.1381 32.1435V29.2489C18.1381 27.9716 17.0991 26.9326 15.8219 26.9326H5.94759C4.67037 26.9326 3.63135 27.9716 3.63135 29.2489V32.1435ZM5.03746 29.2489C5.03746 28.747 5.4457 28.3387 5.94759 28.3387H15.8219C16.3238 28.3387 16.732 28.747 16.732 29.2489V32.1435C16.732 32.6454 16.3238 33.0536 15.8219 33.0536H5.94759C5.4457 33.0536 5.03746 32.6454 5.03746 32.1435V29.2489Z" fill="black"/>
<path d="M38.1102 19.9331C33.5406 19.9331 29.6852 23.0494 28.5583 27.2682V3.4397C28.5583 1.81976 27.2404 0.501953 25.6205 0.501953H2.93784C1.3179 0.501953 0 1.81986 0 3.4397V20.0432C0 20.4314 0.314688 20.7462 0.703056 20.7462C1.09142 20.7462 1.40611 20.4314 1.40611 20.0432V8.45258H27.1521V28.8182C23.2126 29.346 20.0003 32.203 18.9507 35.9537H5.77819C4.52478 35.9537 3.50497 36.9735 3.50497 38.227C3.50497 39.4805 4.52478 40.5002 5.77819 40.5002H18.7678C18.9094 41.2299 19.1315 41.9311 19.4245 42.5943H2.93784C2.09323 42.5943 1.40611 41.9072 1.40611 41.0626V23.6671C1.40611 23.2788 1.09142 22.964 0.703056 22.964C0.314688 22.964 0 23.2788 0 23.6671V41.0626C0 42.6825 1.3179 44.0004 2.93784 44.0004H20.1877C22.6379 47.9355 28.1585 49.6822 32.5122 47.6362L34.4133 48.4393C34.9706 48.5729 35.2962 48.357 35.39 47.7917V45.6731C37.0359 44.0629 38.0518 41.9709 38.2985 39.6981C39.9145 39.6673 41.5059 39.2395 42.9126 38.4563C43.7068 38.0141 43.0228 36.7855 42.2286 37.2278C39.8606 38.5633 36.8283 38.6501 34.3934 37.4377C34.2107 37.3484 33.9984 37.3426 33.8112 37.4218L32.5984 37.9342V36.5738C32.5984 36.3771 32.516 36.1895 32.3712 36.0564C26.7203 30.87 30.4316 21.3351 38.1102 21.3392C45.1057 21.3061 49.1324 29.5318 44.8031 35.021C44.2444 35.738 45.3535 36.6024 45.9122 35.8853C50.961 29.4838 46.2654 19.8946 38.1102 19.9331ZM1.40611 7.04647V3.4397C1.40611 2.59509 2.09323 1.90807 2.93784 1.90807H25.6205C26.4651 1.90807 27.1522 2.59519 27.1522 3.4397V7.04647H1.40611ZM5.77819 39.0941C4.62902 39.0477 4.6277 37.4068 5.77819 37.3598H18.6662C18.5935 37.9316 18.5709 38.5182 18.5987 39.0941H5.77819ZM31.1924 36.8756V38.9945C31.2862 39.5598 31.6118 39.7757 32.169 39.6421L34.0701 38.839C34.9717 39.2439 35.9161 39.5072 36.8914 39.6264C36.6543 41.6316 35.7171 43.4683 34.211 44.8537C34.0663 44.9869 33.9839 45.1745 33.9839 45.3712V46.7316L32.7711 46.2192C32.5838 46.1401 32.3715 46.1458 32.1888 46.2351C26.6793 49.009 19.9179 44.7879 19.9931 38.6138C19.993 34.0203 23.6664 30.2683 28.2304 30.14C28.3143 32.6748 29.3798 35.0983 31.1924 36.8756Z" fill="black"/>
<path d="M40.2727 27.1796C41.2036 27.1473 41.2028 25.8053 40.2727 25.7734H35.9479C35.017 25.8057 35.0177 27.1477 35.9479 27.1796H40.2727Z" fill="black"/>
<path d="M42.9383 29.1133H33.2819C32.351 29.1455 32.3517 30.4875 33.2819 30.5194H42.9383C43.8692 30.4871 43.8685 29.1452 42.9383 29.1133Z" fill="black"/>
<path d="M35.9479 32.4531C35.017 32.4854 35.0177 33.8274 35.9479 33.8592H40.2727C41.2036 33.827 41.2028 32.485 40.2727 32.4531H35.9479Z" fill="black"/>
</g>
<defs>
<clipPath id="clip0_6378_116">
<rect width="48" height="48" fill="white" transform="translate(0 0.5)"/>
</clipPath>
</defs>
</svg>
