<svg id="Capa_1" enable-background="new 0 0 512 512" height="512" viewBox="0 0 512 512" width="512" xmlns="http://www.w3.org/2000/svg"><g><path d="m116.973 94.471c4.142 0 7.5-3.358 7.5-7.5s-3.358-7.5-7.5-7.5-7.5 3.358-7.5 7.5 3.357 7.5 7.5 7.5zm-60 0c4.142 0 7.5-3.358 7.5-7.5s-3.358-7.5-7.5-7.5-7.5 3.358-7.5 7.5 3.357 7.5 7.5 7.5zm30 0c4.142 0 7.5-3.358 7.5-7.5s-3.358-7.5-7.5-7.5-7.5 3.358-7.5 7.5 3.357 7.5 7.5 7.5zm-1.645 79.453c.046.001.092.001.138.001l67.809.017h.004c4.685 0 8.662-3.035 9.899-7.553 1.238-4.52-.641-9.159-4.673-11.544l-10.313-6.102c16.576-16.429 25.899-38.845 25.751-62.331-.297-46.968-38.739-85.727-85.693-86.403-48.655-.699-88.25 38.658-88.25 86.964 0 46.323 38.168 85.948 85.328 86.951zm-48.878-138.211c13.83-13.632 32.11-20.977 51.585-20.706 38.853.559 70.662 32.633 70.908 71.499.133 20.969-8.859 40.91-24.671 54.708-2.644 2.306-4.029 5.767-3.709 9.258.32 3.489 2.313 6.637 5.328 8.42l.075.044-50.426-.012c-38.982-.748-70.54-32.862-70.54-71.951 0-19.421 7.618-37.625 21.45-51.26zm468.05 461.287h-7.5v-111.69c0-29.262-17.291-55.834-44.135-67.733l-39.526-16.941c9.618-3.035 18.307-8.447 25.377-15.954 10.667-11.325 16.784-26.692 16.784-42.161 0-14.214-4.966-27.63-14.363-38.801-11.754-13.957-18.227-31.695-18.227-49.949v-35.94c0-31.478-12.259-61.066-34.517-83.313-22.258-22.26-51.849-34.518-83.323-34.518-64.972 0-117.83 52.858-117.83 117.83v34.77c.004 18.888-7.419 36.917-19.481 51.45-15.181 18.29-18.335 43.019-8.23 64.536 7.5 15.972 21.028 27.447 37.223 32.304l-39.25 17.068c-27.537 11.588-45.331 38.379-45.331 68.253v88.29c0 4.142 3.357 7.5 7.5 7.5s7.5-3.358 7.5-7.5v-88.29c0-23.822 14.189-45.187 36.231-54.462l49.198-21.394v45.145h-22.603c-6.37 0-12.467 2.716-16.728 7.452-4.26 4.736-6.318 11.085-5.646 17.419l12.363 116.629h-172.486c-4.143 0-7.5 3.358-7.5 7.5s3.357 7.5 7.5 7.5h497c4.143 0 7.5-3.358 7.5-7.5s-3.357-7.5-7.5-7.5zm-74.839-283.622c7.091 8.43 10.839 18.507 10.839 29.142 0 11.687-4.63 23.305-12.703 31.877-8.548 9.075-20.291 14.073-33.066 14.073h-9.774l-12.839-5.503c-11.215-4.81-18.887-15.121-20.455-26.99 23.141-12.46 38.908-36.914 38.908-64.987v-56.383c2.195.149 4.388.23 6.575.23 3.607 0 7.2-.205 10.765-.609v19.542c-.001 21.784 7.725 42.954 21.75 59.608zm-122.768 118.401c-26.831.475-53.46-2.925-79.293-10.09v-17.857l2.169-.943c.017-.007.034-.015.052-.022l13.38-5.818c14.894-6.475 25.419-19.737 28.61-35.235 6.531 1.899 13.424 2.937 20.56 2.937h24.439c7.163 0 14.082-1.046 20.635-2.959 3.296 15.427 13.861 28.57 28.762 34.962l14.28 6.12c.009.004.018.008.027.011l1.058.453v16.877c-24.273 7.232-49.367 11.122-74.679 11.564zm74.677 4.052v19.67h-153.97v-18.28c24.314 6.375 49.278 9.601 74.411 9.601 1.714 0 3.429-.015 5.144-.045 25.19-.44 50.174-4.121 74.415-10.946zm26.34-216.727c-20.659 2.791-43.946-2.743-59.99-15.174-3.273-2.536-7.984-1.94-10.522 1.335-2.537 3.274-1.939 7.985 1.335 10.522 10.489 8.126 23.14 13.85 36.838 16.736v40.831c-3.604 8.214-7.616 15.045-16.661 22.507-3.808 3.142-7.976 5.751-12.44 7.821-3.645-7.113-11.048-11.995-19.574-11.995h-17.576c-12.123 0-21.985 9.863-21.985 21.985s9.862 21.985 21.985 21.985h17.576c10.202 0 18.802-6.986 21.271-16.424 10.033-3.823 26.392-17.461 26.396-17.466-5.079 27.267-29.035 47.98-57.752 47.98h-24.441c-32.4 0-58.76-26.359-58.76-58.76v-57.974c25.473-3.993 49.538-12.613 71.608-25.667 33.604-19.877 55.159-45.851 68.167-66.372 22.257 19.823 34.918 48.242 34.525 78.13zm-74.031 94.589c-.011 3.843-3.139 6.966-6.984 6.966h-17.576c-3.852 0-6.985-3.134-6.985-6.985s3.134-6.985 6.985-6.985h17.576c3.844 0 6.971 3.121 6.984 6.962zm-131.639-95.863c0-56.701 46.129-102.83 102.83-102.83 20.335 0 39.767 5.87 56.372 16.798-11.971 19.189-32.12 43.865-63.861 62.641-21.775 12.88-45.66 21.103-70.994 24.441h-.468c-.003 0-.006 0-.01 0s-.006 0-.01 0h-23.86v-1.05zm-29.135 144.38c-7.605-16.198-5.231-34.813 6.187-48.569 14.327-17.261 22.964-38.589 22.948-61.041v-18.72h16.37v57.11c0 28.089 15.787 52.555 38.949 65.008-1.449 11.959-9.098 22.406-20.34 27.294l-11.908 5.178h-10.871c-17.89 0-33.728-10.062-41.335-26.26zm261.087 116.581-12.531 118.209h-226.591l-12.531-118.209c-.227-2.143.441-4.205 1.882-5.806 1.441-1.602 3.422-2.484 5.576-2.484h236.737c2.154 0 4.135.882 5.576 2.484 1.441 1.601 2.109 3.663 1.882 5.806zm47.808 118.209h-45.255l12.363-116.627c.672-6.335-1.387-12.684-5.646-17.42-4.261-4.736-10.357-7.452-16.728-7.452h-30.164v-45.733l50.301 21.559c21.34 9.46 35.129 30.649 35.129 53.983zm-173.635-91.75c-15.715 0-28.5 12.785-28.5 28.5s12.785 28.5 28.5 28.5 28.5-12.785 28.5-28.5-12.785-28.5-28.5-28.5zm0 42c-7.444 0-13.5-6.056-13.5-13.5s6.056-13.5 13.5-13.5 13.5 6.056 13.5 13.5-6.055 13.5-13.5 13.5z"/></g></svg>
