<svg id="Capa_1" enable-background="new 0 0 512 512" height="512" viewBox="0 0 512 512" width="512" xmlns="http://www.w3.org/2000/svg"><g><path d="m438.398 362.608c8.461-9.721 13.602-22.405 13.602-36.275 0-25.685-17.593-47.335-41.36-53.543-4.101-26.276-20.241-48.604-42.576-61.183 8.461-9.721 13.602-22.405 13.602-36.274 0-30.511-24.822-55.333-55.333-55.333s-55.333 24.822-55.333 55.333c0 13.87 5.141 26.553 13.602 36.275-11.412 6.427-21.206 15.395-28.602 26.143-7.396-10.748-17.19-19.716-28.602-26.143 8.461-9.721 13.602-22.405 13.602-36.275 0-30.511-24.822-55.333-55.333-55.333s-55.333 24.822-55.333 55.333c0 13.87 5.141 26.553 13.602 36.274-22.335 12.579-38.475 34.907-42.576 61.183-23.767 6.208-41.36 27.858-41.36 53.543 0 13.87 5.141 26.553 13.602 36.275-25.995 14.641-43.602 42.491-43.602 74.392v75h452v-75c0-31.901-17.607-59.751-43.602-74.392zm-16.398-36.275c0 13.969-11.365 25.333-25.333 25.333s-25.333-11.364-25.333-25.333 11.364-25.333 25.333-25.333 25.333 11.365 25.333 25.333zm-95.667 62.418c-7.396-10.748-17.19-19.716-28.602-26.143 8.461-9.721 13.602-22.405 13.602-36.275 0-24.788-16.384-45.821-38.891-52.84 5.686-24.505 27.681-42.827 53.891-42.827 26.209 0 48.205 18.323 53.89 42.828-22.507 7.019-38.89 28.052-38.89 52.839 0 13.87 5.141 26.553 13.602 36.274-11.411 6.428-21.205 15.396-28.602 26.144zm-15 93.249h-110.666v-45c0-30.511 24.822-55.333 55.333-55.333s55.333 24.822 55.333 55.333zm-154.269-119.392c8.461-9.721 13.602-22.405 13.602-36.274 0-24.788-16.383-45.821-38.89-52.839 5.686-24.505 27.681-42.828 53.89-42.828 26.21 0 48.205 18.323 53.891 42.827-22.507 7.019-38.891 28.052-38.891 52.84 0 13.87 5.141 26.553 13.602 36.275-11.412 6.427-21.206 15.395-28.602 26.143-7.396-10.749-17.19-19.717-28.602-26.144zm98.936-10.941c-13.969 0-25.333-11.364-25.333-25.333s11.364-25.334 25.333-25.334 25.333 11.365 25.333 25.333-11.364 25.334-25.333 25.334zm45-176.334c0-13.968 11.365-25.333 25.333-25.333s25.333 11.365 25.333 25.333-11.364 25.333-25.333 25.333-25.333-11.364-25.333-25.333zm-140.667 0c0-13.969 11.364-25.333 25.333-25.333s25.334 11.365 25.334 25.333-11.365 25.333-25.333 25.333-25.334-11.364-25.334-25.333zm-70.333 151c0-13.968 11.365-25.333 25.333-25.333s25.333 11.365 25.333 25.333-11.364 25.333-25.333 25.333-25.333-11.364-25.333-25.333zm-30 110.667c0-30.511 24.823-55.333 55.333-55.333s55.333 24.822 55.333 55.333v45h-110.666zm392 45h-110.667v-45c0-30.511 24.822-55.333 55.333-55.333s55.334 24.822 55.334 55.333z"/><path d="m241 0h30v45h-30z"/><path d="m168.844 11.428h30v45h-30z" transform="matrix(.951 -.309 .309 .951 -1.487 58.469)"/><path d="m103.752 44.594h30v45h-30z" transform="matrix(.809 -.588 .588 .809 -16.757 82.616)"/><path d="m52.094 96.252h30v45h-30z" transform="matrix(.588 -.809 .809 .588 -68.415 103.231)"/><path d="m18.928 161.344h30v45h-30z" transform="matrix(.309 -.951 .951 .309 -151.403 159.3)"/><path d="m0 241h45v30h-45z"/><path d="m467 241h45v30h-45z"/><path d="m455.572 168.844h45v30h-45z" transform="matrix(.951 -.309 .309 .951 -33.412 156.724)"/><path d="m422.405 103.752h45v30h-45z" transform="matrix(.809 -.588 .588 .809 15.17 284.191)"/><path d="m370.748 52.094h45v30h-45z" transform="matrix(.588 -.809 .809 .588 107.82 345.8)"/><path d="m305.655 18.928h45v30h-45z" transform="matrix(.309 -.951 .951 .309 194.484 335.539)"/></g></svg>
