<svg width="128" height="128" viewBox="0 0 128 128" fill="none" xmlns="http://www.w3.org/2000/svg">
<g clip-path="url(#clip0_6311_9508)">
<path d="M126.125 15.0417C127.161 15.0417 128 14.2022 128 13.1667V6.11825C128 2.74475 125.255 0 121.882 0H79.0155C75.6418 0 72.897 2.74475 72.897 6.11825V32.04C72.897 32.1707 72.8253 32.2905 72.71 32.3522L66.7345 35.552C65.5993 36.16 64.8943 37.3375 64.8943 38.625C64.8943 39.9125 65.5993 41.09 66.7345 41.698L72.71 44.8975C72.8255 44.9595 72.8973 45.079 72.8973 45.21V60.1317C72.8973 63.5055 75.642 66.25 79.0158 66.25H121.882C125.255 66.25 128 63.5052 128 60.1317V21.8333C128 20.7978 127.161 19.9583 126.125 19.9583C125.09 19.9583 124.25 20.7978 124.25 21.8333V60.1315C124.25 61.4375 123.188 62.4997 121.882 62.4997H79.0155C77.7095 62.4997 76.647 61.4373 76.647 60.1315V45.21C76.647 43.694 75.8168 42.3075 74.4803 41.5918L68.9398 38.625L74.4805 35.658C75.817 34.9422 76.6473 33.556 76.6473 32.04V6.11825C76.6473 4.81225 77.7098 3.75 79.0158 3.75H121.882C123.188 3.75 124.25 4.8125 124.25 6.11825V13.1665C124.25 14.2023 125.09 15.0417 126.125 15.0417Z" fill="black"/>
<path d="M45 49.6535V46.1367C47.5645 45.614 49.5 43.3415 49.5 40.625C49.5 37.5233 46.9767 35 43.875 35H34.875C31.7733 35 29.25 37.5233 29.25 40.625C29.25 43.3415 31.1855 45.6142 33.75 46.1367V49.6535C14.6938 52.3915 0 68.8232 0 88.625C0 100.683 5.4325 111.92 14.9047 119.453C15.7153 120.098 16.8947 119.964 17.5392 119.153C18.184 118.342 18.0495 117.163 17.239 116.519C8.6665 109.701 3.75 99.5338 3.75 88.625C3.75 68.9813 19.7313 53 39.375 53C59.0187 53 75 68.9813 75 88.625C75 108.269 59.0187 124.25 39.375 124.25C34.1278 124.25 29.0715 123.131 24.3463 120.923C23.408 120.485 22.2922 120.89 21.8538 121.828C21.4153 122.766 21.8205 123.882 22.7588 124.32C27.9848 126.762 33.5752 128 39.375 128C61.0865 128 78.75 110.337 78.75 88.625C78.75 68.8232 64.0563 52.3915 45 49.6535ZM33 40.625C33 39.591 33.841 38.75 34.875 38.75H43.875C44.909 38.75 45.75 39.591 45.75 40.625C45.75 41.659 44.909 42.5 43.875 42.5H34.875C33.841 42.5 33 41.659 33 40.625ZM37.5 49.2957V46.25H41.25V49.2957C40.6285 49.2665 40.0037 49.25 39.375 49.25C38.7463 49.25 38.1215 49.2665 37.5 49.2957Z" fill="black"/>
<path d="M71.25 88.625C71.25 71.049 56.951 56.75 39.375 56.75C21.799 56.75 7.5 71.049 7.5 88.625C7.5 106.201 21.799 120.5 39.375 120.5C56.951 120.5 71.25 106.201 71.25 88.625ZM11.25 88.625C11.25 73.1167 23.8667 60.5 39.375 60.5C54.8833 60.5 67.5 73.1167 67.5 88.625C67.5 104.133 54.8833 116.75 39.375 116.75C23.8667 116.75 11.25 104.133 11.25 88.625Z" fill="black"/>
<path d="M114.771 35.4187C116.496 33.7365 117.106 31.268 116.361 28.9762C115.616 26.6845 113.672 25.0457 111.288 24.6992L108.759 24.3317C108.149 24.243 107.622 23.86 107.349 23.3072L106.219 21.0152C105.152 18.8542 102.993 17.5117 100.583 17.5117C98.1738 17.5117 96.0145 18.8542 94.9483 21.015L93.8175 23.3067C93.5448 23.8597 93.0175 24.243 92.4073 24.3317L89.879 24.6992C87.4945 25.0457 85.5508 26.6845 84.806 28.9762C84.0613 31.268 84.6705 33.7365 86.3958 35.4187L88.226 37.2032C88.6678 37.634 88.869 38.254 88.7648 38.862L88.3325 41.3825C87.9253 43.7575 88.8835 46.1122 90.8328 47.5285C91.9343 48.3287 93.2228 48.7352 94.52 48.7352C95.519 48.7352 96.523 48.4942 97.4508 48.0062L99.7123 46.817C100.258 46.5302 100.909 46.53 101.455 46.817L103.715 48.0055C105.848 49.1267 108.384 48.944 110.334 47.5277C112.284 46.1115 113.242 43.7562 112.834 41.381L112.402 38.862C112.298 38.254 112.5 37.634 112.941 37.2035L114.771 35.4187ZM112.153 32.7337L110.323 34.5182C108.998 35.8105 108.393 37.6715 108.706 39.4957L109.138 42.0147C109.305 42.9872 108.928 43.914 108.13 44.4937C107.332 45.0737 106.334 45.1457 105.46 44.6865L103.2 43.498C101.562 42.6365 99.6053 42.6367 97.9668 43.498L95.7053 44.6872C94.8323 45.1462 93.8348 45.0742 93.0368 44.4945C92.2388 43.9147 91.862 42.9885 92.0285 42.0162L92.4608 39.496C92.7738 37.6715 92.1693 35.8107 90.8438 34.5182L89.0135 32.7337C88.307 32.045 88.0673 31.0737 88.3723 30.1352C88.6773 29.197 89.442 28.5522 90.4183 28.4102L92.9465 28.0427C94.7785 27.7765 96.3613 26.6262 97.1803 24.9662L98.311 22.6745C98.7475 21.79 99.5968 21.262 100.583 21.262C101.57 21.262 102.419 21.79 102.855 22.6745L103.986 24.9665C104.805 26.6265 106.388 27.7765 108.22 28.0427L110.748 28.4102C111.725 28.5522 112.489 29.197 112.794 30.1352C113.099 31.0735 112.86 32.045 112.153 32.7337Z" fill="black"/>
<path d="M39.375 69.328C40.4105 69.328 41.25 68.4885 41.25 67.453V66.625C41.25 65.5895 40.4105 64.75 39.375 64.75C38.3395 64.75 37.5 65.5895 37.5 66.625V67.453C37.5 68.4885 38.3395 69.328 39.375 69.328Z" fill="black"/>
<path d="M41.25 110.625V109.797C41.25 108.761 40.4105 107.922 39.375 107.922C38.3395 107.922 37.5 108.761 37.5 109.797V110.625C37.5 111.66 38.3395 112.5 39.375 112.5C40.4105 112.5 41.25 111.66 41.25 110.625Z" fill="black"/>
<path d="M55.6717 74.9795L56.2572 74.394C56.9895 73.6618 56.9895 72.4745 56.2572 71.7425C55.525 71.0103 54.3377 71.0103 53.6057 71.7425L53.0202 72.328C52.288 73.0603 52.2625 74.2738 53.0202 74.9795C53.802 75.708 55.0207 75.6248 55.6717 74.9795Z" fill="black"/>
<path d="M23.0783 102.27L22.4928 102.855C21.7605 103.588 21.7605 104.775 22.4928 105.507C23.203 106.217 24.4155 106.236 25.1443 105.507L25.7298 104.921C26.462 104.189 26.462 103.002 25.7298 102.27C24.9978 101.538 23.8105 101.538 23.0783 102.27Z" fill="black"/>
<path d="M60.5471 90.5H61.3751C62.4106 90.5 63.2501 89.6605 63.2501 88.625C63.2501 87.5895 62.4106 86.75 61.3751 86.75H60.5471C59.5116 86.75 58.6721 87.5895 58.6721 88.625C58.6721 89.6605 59.5116 90.5 60.5471 90.5Z" fill="black"/>
<path d="M18.203 86.75H17.375C16.3395 86.75 15.5 87.5895 15.5 88.625C15.5 89.6605 16.3395 90.5 17.375 90.5H18.203C19.2385 90.5 20.078 89.6605 20.078 88.625C20.078 87.5895 19.2385 86.75 18.203 86.75Z" fill="black"/>
<path d="M53.6054 105.507C54.3159 106.217 55.5276 106.236 56.2569 105.507C56.9891 104.775 56.9891 103.587 56.2569 102.855L55.6714 102.27C54.9391 101.538 53.7519 101.538 53.0199 102.27C52.2876 103.002 52.2876 104.189 53.0199 104.921L53.6054 105.507Z" fill="black"/>
<path d="M25.1445 71.7425C24.4123 71.0103 23.225 71.0103 22.493 71.7425C21.7608 72.4748 21.7608 73.662 22.493 74.394C22.493 74.394 23.0778 74.9788 23.0785 74.9795C23.784 75.685 25.0075 75.702 25.73 74.9795C26.4623 74.2473 26.4623 73.06 25.73 72.328L25.1445 71.7425Z" fill="black"/>
<path d="M42.5417 93.2714L49.2532 98.3992C49.593 98.6587 49.9932 98.7844 50.3902 98.7844C50.9545 98.7844 51.5125 98.5307 51.8815 98.0477C52.5102 97.2247 52.3527 96.0482 51.53 95.4194L44.7607 90.2474C44.9157 89.7337 45.0002 89.1892 45.0002 88.6254C45.0002 86.1809 43.4325 84.0969 41.2502 83.3229V74.9092C41.2502 73.8737 40.4107 73.0342 39.3752 73.0342C38.3397 73.0342 37.5002 73.8737 37.5002 74.9092V83.3229C35.318 84.0969 33.7502 86.1809 33.7502 88.6254C33.7502 91.7272 36.2735 94.2504 39.3752 94.2504C40.5487 94.2504 41.6392 93.8887 42.5417 93.2714ZM37.5 88.6254C37.5 87.5914 38.341 86.7504 39.375 86.7504C40.409 86.7504 41.25 87.5914 41.25 88.6254C41.25 89.6594 40.409 90.5004 39.375 90.5004C38.341 90.5004 37.5 89.6594 37.5 88.6254Z" fill="black"/>
</g>
<defs>
<clipPath id="clip0_6311_9508">
<rect width="128" height="128" fill="white"/>
</clipPath>
</defs>
</svg>
