<svg id="Capa_1" enable-background="new 0 0 511.996 511.996" height="512" viewBox="0 0 511.996 511.996" width="512" xmlns="http://www.w3.org/2000/svg"><g><path d="m48.617 428.66v44.938c0 10.696 8.702 19.398 19.398 19.398h103.19c1.375 10.702 10.537 19 21.607 19h126.37c11.07 0 20.231-8.298 21.607-19h103.19c10.696 0 19.398-8.702 19.398-19.398v-44.938c0-23.924-16.873-43.971-39.34-48.894 7.987-8.214 12.92-19.413 12.92-31.748 0-25.133-20.447-45.58-45.58-45.58s-45.58 20.447-45.58 45.58c0 12.332 4.931 23.528 12.915 31.742-12.341 2.692-23.156 9.948-30.324 20.236-8.828-11.193-21.634-19.1-36.272-21.567 10.521-9.733 17.123-23.643 17.123-39.071 0-29.357-23.884-53.241-53.241-53.241s-53.242 23.883-53.242 53.24c0 15.428 6.603 29.338 17.124 39.071-14.639 2.466-27.445 10.373-36.272 21.567-7.168-10.288-17.983-17.544-30.324-20.236 7.984-8.214 12.915-19.41 12.915-31.742 0-25.133-20.447-45.58-45.58-45.58s-45.58 20.447-45.58 45.58c0 12.335 4.933 23.534 12.92 31.748-22.469 4.924-39.342 24.971-39.342 48.895zm342.761-111.223c16.862 0 30.58 13.718 30.58 30.58s-13.718 30.58-30.58 30.58-30.58-13.718-30.58-30.58 13.718-30.58 30.58-30.58zm-21.938 76.16h43.875c19.334 0 35.062 15.729 35.062 35.062v44.938c0 2.425-1.973 4.398-4.398 4.398h-103.004v-41.771c0-7.319-1.426-14.631-3.905-21.042 5.402-13.015 18.093-21.585 32.37-21.585zm-151.684-54.24c0-21.086 17.155-38.241 38.242-38.241 21.086 0 38.241 17.155 38.241 38.241 0 21.087-17.155 38.242-38.241 38.242-21.087 0-38.242-17.155-38.242-38.242zm-31.735 96.868c0-23.889 19.436-43.626 43.626-43.626h52.702c24.148 0 43.626 19.701 43.626 43.626v53.979c0 3.745-3.047 6.792-6.792 6.792h-126.37c-3.745 0-6.792-3.047-6.792-6.792 0-6.199 0-47.572 0-53.979zm-65.404-118.788c16.862 0 30.58 13.718 30.58 30.58s-13.718 30.58-30.58 30.58-30.58-13.718-30.58-30.58 13.718-30.58 30.58-30.58zm-57 111.223c0-19.334 15.729-35.062 35.062-35.062h43.875c14.277 0 26.969 8.569 32.371 21.586-2.441 6.312-3.905 13.603-3.905 21.042v41.771h-103.004c-2.426 0-4.398-1.974-4.398-4.398v-44.939z"/><path d="m162.874 117.217c0 13.948 11.348 25.296 25.297 25.296 13.948 0 25.296-11.348 25.296-25.296s-11.348-25.296-25.296-25.296c-13.949 0-25.297 11.348-25.297 25.296zm35.593 0c0 5.677-4.619 10.296-10.296 10.296-5.678 0-10.297-4.619-10.297-10.296s4.619-10.296 10.297-10.296c5.677 0 10.296 4.619 10.296 10.296z"/><path d="m230.701 117.217c0 13.948 11.348 25.296 25.297 25.296 13.948 0 25.296-11.348 25.296-25.296s-11.348-25.296-25.296-25.296c-13.949 0-25.297 11.348-25.297 25.296zm25.297-10.296c5.677 0 10.296 4.619 10.296 10.296s-4.619 10.296-10.296 10.296c-5.678 0-10.297-4.619-10.297-10.296s4.619-10.296 10.297-10.296z"/><path d="m349.121 117.217c0-13.948-11.348-25.296-25.296-25.296-13.949 0-25.297 11.348-25.297 25.296s11.348 25.296 25.297 25.296c13.948 0 25.296-11.348 25.296-25.296zm-35.593 0c0-5.677 4.619-10.296 10.297-10.296 5.677 0 10.296 4.619 10.296 10.296s-4.619 10.296-10.296 10.296c-5.678 0-10.297-4.619-10.297-10.296z"/><path d="m467.441 23.291h-79.477c-9.188-14.011-25.024-23.291-42.994-23.291h-71.473c-4.143 0-7.5 3.358-7.5 7.5s3.357 7.5 7.5 7.5h71.473c20.037 0 36.39 16.33 36.39 36.39v116.13c0 19.889-16.188 36.39-36.39 36.39h-47.848c-13.367 0-25.426 8.437-30.008 20.994l-10.946 30.003c-.021.057-.038.09-.039.1-.07.027-.215.029-.245.021 0-.001-.024-.033-.057-.121l-10.946-30.003c-4.582-12.558-16.641-20.994-30.007-20.994h-47.849c-20.128 0-36.39-16.419-36.39-36.39v-116.13c0-19.877 16.166-36.39 36.39-36.39h71.472c4.143 0 7.5-3.358 7.5-7.5s-3.357-7.5-7.5-7.5h-71.472c-17.97 0-33.806 9.279-42.995 23.291h-79.475c-24.568 0-44.555 19.988-44.555 44.555v98.044c0 24.567 19.987 44.555 44.555 44.555h9.719c5.497 0 10.455 3.47 12.339 8.634l9.242 25.33c2.037 5.584 7.194 9.192 13.138 9.192s11.102-3.608 13.139-9.192l9.241-25.33c1.884-5.164 6.843-8.634 12.34-8.634h15.106c8.104 5.343 17.796 8.465 28.208 8.465h47.849c7.09 0 13.485 4.475 15.915 11.135l10.946 30.003c2.212 6.062 7.81 9.979 14.262 9.979 6.453 0 12.051-3.917 14.263-9.979l10.946-30.003c2.43-6.66 8.826-11.135 15.916-11.135h47.848c10.412 0 20.104-3.121 28.208-8.465h15.106c5.497 0 10.456 3.47 12.34 8.634l9.242 25.33c2.037 5.584 7.194 9.192 13.138 9.192s11.101-3.608 13.138-9.192l9.242-25.33c1.884-5.164 6.843-8.634 12.34-8.634h9.719c24.567 0 44.555-19.987 44.555-44.555v-26.782c0-4.142-3.357-7.5-7.5-7.5s-7.5 3.358-7.5 7.5v26.782c0 16.296-13.258 29.555-29.555 29.555h-9.719c-11.773 0-22.396 7.432-26.432 18.493l-8.288 22.716-8.288-22.716c-4.036-11.062-14.658-18.493-26.432-18.493h-.206c.012-.019.023-.038.035-.057 5.556-8.571 8.247-18.381 8.247-27.868v-116.13c0-4.123-.551-8.749-1.698-13.099h72.78c16.297 0 29.555 13.258 29.555 29.555v36.263c0 4.142 3.357 7.5 7.5 7.5s7.5-3.358 7.5-7.5v-36.263c-.003-24.567-19.99-44.555-44.558-44.555zm-343.729 172.154c-11.773 0-22.396 7.432-26.432 18.493l-8.288 22.717-8.288-22.717c-4.034-11.062-14.656-18.493-26.431-18.493h-9.719c-16.296 0-29.554-13.258-29.554-29.555v-98.044c0-16.296 13.258-29.555 29.555-29.555h72.779c-1.151 4.363-1.698 9.026-1.698 13.099v116.13c0 9.714 2.793 19.454 8.247 27.868.012.019.023.038.035.057z"/></g></svg>
