<svg id="Capa_1" enable-background="new 0 0 512 512" viewBox="0 0 512 512" xmlns="http://www.w3.org/2000/svg"><g><path d="m225.718 298.354c3.873 1.474 8.203-.469 9.678-4.339l5.592-14.682h37.59l5.533 14.66c1.134 3.003 3.987 4.854 7.019 4.854.879 0 1.775-.156 2.646-.485 3.875-1.462 5.832-5.79 4.369-9.665l-29.568-78.349c-.026-.069-.053-.137-.081-.205-1.44-3.502-4.816-5.763-8.602-5.763h-.009c-3.79.003-7.166 2.272-8.6 5.779-.023.057-.046.113-.067.17l-29.839 78.346c-1.475 3.871.468 8.204 4.339 9.679zm34.151-68.596 13.048 34.574h-26.216z"/><path d="m349.282 219.67c4.142 0 7.5-3.358 7.5-7.5s-3.358-7.5-7.5-7.5h-31.972c-4.142 0-7.5 3.358-7.5 7.5v78.884c0 4.142 3.358 7.5 7.5 7.5s7.5-3.358 7.5-7.5v-32.689h21.932c4.142 0 7.5-3.358 7.5-7.5s-3.358-7.5-7.5-7.5h-21.932v-23.695z"/><path d="m407.493 219.67c4.142 0 7.5-3.358 7.5-7.5s-3.358-7.5-7.5-7.5h-31.972c-4.142 0-7.5 3.358-7.5 7.5v78.884c0 4.142 3.358 7.5 7.5 7.5s7.5-3.358 7.5-7.5v-32.689h21.932c4.142 0 7.5-3.358 7.5-7.5s-3.358-7.5-7.5-7.5h-21.932v-23.695z"/><path d="m132.199 283.845c-8.574 0-16.848-3.482-22.134-9.315-2.781-3.069-7.524-3.303-10.594-.521-3.069 2.782-3.303 7.524-.521 10.594 8.083 8.918 20.512 14.243 33.25 14.243 15.315 0 28.661-10.062 31.043-23.404 1.805-10.11-2.907-23.363-21.547-30.239-10.157-3.747-19.583-7.835-22.041-8.915-2.388-1.771-3.545-4.584-3.108-7.628.558-3.882 3.558-7.004 8.027-8.351 12.527-3.771 23.877 5.313 24.114 5.505 3.17 2.639 7.881 2.222 10.538-.939 2.665-3.171 2.255-7.902-.915-10.567-.709-.596-17.597-14.528-38.063-8.361-10.054 3.028-17.161 10.915-18.549 20.582-1.294 9.012 2.609 17.679 10.187 22.619.332.216.679.405 1.041.566.457.204 11.329 5.043 23.578 9.562 8.579 3.164 12.942 8.095 11.972 13.529-.97 5.426-7.323 11.04-16.278 11.04z"/><path d="m219.992 204.379h-43.885c-4.142 0-7.5 3.358-7.5 7.5s3.358 7.5 7.5 7.5h14.354v71.965c0 4.142 3.358 7.5 7.5 7.5s7.5-3.358 7.5-7.5v-71.965h14.531c4.142 0 7.5-3.358 7.5-7.5s-3.358-7.5-7.5-7.5z"/><path d="m256 431.789c-4.142 0-7.5 3.358-7.5 7.5v1.211c0 4.142 3.358 7.5 7.5 7.5s7.5-3.358 7.5-7.5v-1.211c0-4.143-3.358-7.5-7.5-7.5z"/><path d="m256 462.789c-4.142 0-7.5 3.358-7.5 7.5v1.211c0 4.142 3.358 7.5 7.5 7.5s7.5-3.358 7.5-7.5v-1.211c0-4.143-3.358-7.5-7.5-7.5z"/><path d="m504.5 447.5c4.142 0 7.5-3.358 7.5-7.5v-10.701c0-22.405-18.228-40.633-40.633-40.633h-7.29c-.003 0-.006 0-.01 0s-.006 0-.01 0h-.225c6.433-8.703 10.246-19.457 10.246-31.086 0-5.072-.738-9.971-2.088-14.613h4.162c11.855 0 21.5-9.645 21.5-21.5v-135.028c0-11.855-9.645-21.5-21.5-21.5h-46.986v-40.808c0-22.405-18.228-40.633-40.633-40.633h-7.533c6.433-8.703 10.246-19.457 10.246-31.086 0-28.9-23.512-52.412-52.412-52.412s-52.412 23.512-52.412 52.412c0 11.629 3.812 22.382 10.246 31.086h-7.534c-13.663 0-25.763 6.786-33.133 17.156-7.37-10.371-19.47-17.156-33.133-17.156h-7.534c6.433-8.703 10.246-19.457 10.246-31.086 0-28.9-23.512-52.412-52.412-52.412s-52.412 23.512-52.412 52.412c0 11.629 3.812 22.382 10.246 31.086h-7.533c-22.405 0-40.633 18.228-40.633 40.633v40.808h-46.989c-11.855 0-21.5 9.645-21.5 21.5v48.561c0 4.142 3.358 7.5 7.5 7.5s7.5-3.358 7.5-7.5v-48.561c0-3.584 2.916-6.5 6.5-6.5h440.306c3.584 0 6.5 2.916 6.5 6.5v135.028c0 3.584-2.916 6.5-6.5 6.5h-11.272c-9.456-13.757-25.297-22.799-43.215-22.799s-33.759 9.043-43.215 22.799h-79.237c-9.456-13.757-25.297-22.799-43.215-22.799s-33.759 9.043-43.215 22.799h-79.237c-9.456-13.757-25.297-22.799-43.215-22.799s-33.759 9.043-43.215 22.799h-11.27c-3.584 0-6.5-2.916-6.5-6.5v-51.467c0-4.142-3.358-7.5-7.5-7.5s-7.5 3.358-7.5 7.5v51.467c0 11.855 9.645 21.5 21.5 21.5h4.162c-1.35 4.642-2.088 9.541-2.088 14.613 0 11.629 3.812 22.382 10.246 31.086h-7.534c-22.405 0-40.633 18.228-40.633 40.633v10.701c0 4.142 3.358 7.5 7.5 7.5s7.5-3.358 7.5-7.5v-10.701c0-14.134 11.499-25.633 25.633-25.633h22.379l11.329 29.814-12.874 63.52h-43.967c-1.378 0-2.5-1.122-2.5-2.5v-19.5c0-4.142-3.358-7.5-7.5-7.5s-7.5 3.358-7.5 7.5v19.5c0 9.649 7.851 17.5 17.5 17.5h477c9.649 0 17.5-7.851 17.5-17.5v-19.5c0-4.142-3.358-7.5-7.5-7.5s-7.5 3.358-7.5 7.5v19.5c0 1.378-1.122 2.5-2.5 2.5h-22.933v-93.329c14.042.109 25.433 11.561 25.433 25.628v10.701c0 4.142 3.358 7.5 7.5 7.5zm-162.718-327.323h-5.986l-6.146-16.175c2.984.53 6.05.822 9.184.822 3.056 0 6.047-.278 8.961-.782zm-2.949-105.177c20.629 0 37.412 16.783 37.412 37.412s-16.783 37.412-37.412 37.412-37.412-16.783-37.412-37.412 16.784-37.412 37.412-37.412zm-90.333 109.131v40.808h-52.159l-7.247-36.635 11.106-29.806h22.666c14.135 0 25.634 11.499 25.634 25.633zm-78.371-3.954-6.146-16.175c2.984.53 6.049.822 9.183.822 3.056 0 6.047-.278 8.961-.782l-6.012 16.135zm3.038-105.177c20.629 0 37.412 16.783 37.412 37.412s-16.783 37.412-37.412 37.412-37.412-16.783-37.412-37.412 16.783-37.412 37.412-37.412zm-75.334 109.131c0-14.134 11.499-25.633 25.633-25.633h22.379l11.329 29.815-7.424 36.627h-51.917zm67.223 40.808 6.032-29.763h4.074l5.888 29.763zm98.444-40.808c0-14.134 11.499-25.633 25.633-25.633h22.379l11.329 29.815-7.423 36.627h-51.918zm67.223 40.808 6.032-29.763h4.074l5.888 29.763zm31.285 0-7.247-36.635 11.107-29.807h22.666c14.134 0 25.633 11.499 25.633 25.633v40.808h-52.159zm94.559 257.392-17.934-15.173c2.768-.95 5.439-2.112 7.977-3.492h9.956v18.665zm-69.801-18.665h9.956c2.538 1.379 5.209 2.542 7.977 3.492l-17.934 15.173v-18.665zm34.901-83.498c20.629 0 37.412 16.783 37.412 37.412s-16.783 37.412-37.412 37.412-37.412-16.783-37.412-37.412 16.783-37.412 37.412-37.412zm-50.324 22.799c-1.35 4.642-2.088 9.541-2.088 14.613 0 11.629 3.812 22.382 10.246 31.086h-.225c-.003 0-.006 0-.01 0s-.006 0-.01 0h-7.289c-13.663 0-25.763 6.786-33.133 17.156-7.37-10.371-19.47-17.156-33.133-17.156h-7.533c6.433-8.703 10.245-19.456 10.245-31.085 0-5.072-.738-9.971-2.088-14.613h65.018zm-150.244 60.699h9.955c2.539 1.38 5.21 2.542 7.978 3.492l-17.933 15.172zm59.847 0h9.955v18.665l-17.933-15.172c2.768-.952 5.439-2.114 7.978-3.493zm-24.946-83.498c20.629 0 37.412 16.783 37.412 37.412s-16.783 37.412-37.412 37.412-37.412-16.783-37.412-37.412 16.783-37.412 37.412-37.412zm-50.324 22.799c-1.35 4.642-2.088 9.541-2.088 14.613 0 11.629 3.812 22.382 10.245 31.085h-7.533c-13.663 0-25.763 6.786-33.133 17.156-7.37-10.37-19.47-17.156-33.133-17.156h-7.534c6.433-8.703 10.246-19.457 10.246-31.086 0-5.072-.738-9.971-2.088-14.613h65.018zm-40.009 154.033h-46.839l-12.567-63.528 11.107-29.806h22.666c14.134 0 25.633 11.499 25.633 25.633zm-78.371-71.656-6.146-16.174c2.984.53 6.049.822 9.184.822 3.056 0 6.047-.278 8.961-.782l-6.012 16.134zm3.037-105.176c20.629 0 37.412 16.783 37.412 37.412s-16.783 37.412-37.412 37.412-37.412-16.783-37.412-37.412 16.784-37.412 37.412-37.412zm-13.561 176.832 11.483-56.656h4.074l11.208 56.656zm103.895-67.701c0-14.067 11.391-25.52 25.433-25.629v24.05c0 4.923 2.774 9.268 7.24 11.34 1.708.792 3.51 1.18 5.294 1.18 2.882 0 5.719-1.014 8.04-2.978l29.326-24.811 29.327 24.812c3.759 3.18 8.869 3.868 13.334 1.797 4.466-2.072 7.24-6.417 7.24-11.34v-24.05c14.042.109 25.433 11.561 25.433 25.628v67.702h-150.667zm165.666 0c0-14.067 11.391-25.519 25.432-25.628v93.329h-25.432zm40.433 67.701v-55.021l34.901-29.528 34.901 29.528v55.021z"/><path d="m421.667 431.789c-4.142 0-7.5 3.358-7.5 7.5v1.211c0 4.142 3.358 7.5 7.5 7.5s7.5-3.358 7.5-7.5v-1.211c0-4.143-3.358-7.5-7.5-7.5z"/><path d="m421.667 462.789c-4.142 0-7.5 3.358-7.5 7.5v1.211c0 4.142 3.358 7.5 7.5 7.5s7.5-3.358 7.5-7.5v-1.211c0-4.143-3.358-7.5-7.5-7.5z"/></g><g/><g/><g/><g/><g/><g/><g/><g/><g/><g/><g/><g/><g/><g/><g/></svg>
