<svg id="Capa_1" enable-background="new 0 0 511.747 511.747" height="512" viewBox="0 0 511.747 511.747" width="512" xmlns="http://www.w3.org/2000/svg"><g id="XMLID_1151_"><path id="XMLID_1188_" d="m359.011 86.964-10.956 10.94c-19.987 19.986-48.073 30.978-77.043 30.158-10.606-.302-20.577.672-29.802 2.854-12.821-10.12-28.485-16.009-44.987-16.739l-17.014-.754-26.474-26.459-152.581 152.582 40.045 40.62c3.273 26.671 15.381 51.579 34.455 70.651l3.282 3.282-5.169 5.169c-16.426 16.425-16.98 43.318-1.238 59.948 3.338 3.527 7.166 6.408 11.337 8.58-6.333 7.638-9.779 17.155-9.779 27.203 0 11.406 4.442 22.131 12.508 30.196 15.345 15.345 39.557 16.55 56.292 3.611 2.181 4.229 5.088 8.107 8.656 11.485 8.084 7.652 18.593 11.454 29.145 11.454 11.157-.001 22.363-4.25 30.804-12.691l9.338-9.338c4.426 1.488 9.048 2.241 13.672 2.241 10.935-.001 21.873-4.164 30.197-12.488 3.092-3.091 5.651-6.574 7.632-10.336l7.23 7.23c16.424 16.425 43.318 16.979 59.949 1.237 3.483-3.297 6.336-7.07 8.499-11.181 7.949 7.486 18.285 11.593 29.253 11.593 11.407 0 22.131-4.442 30.197-12.509 16.34-16.34 16.645-42.734.916-59.45 4.111-2.162 7.883-5.015 11.18-8.497 9.955-10.517 13.385-25.135 10.414-38.617l8.123-8.123c19.074-19.072 31.182-43.98 34.455-70.651l40.045-40.62zm-265.694 311.629c-4.678-4.941-4.38-13.066.664-18.111l5.169-5.169 17.968 17.968-5.576 5.576c-2.446 2.445-5.695 3.789-9.161 3.72-3.458-.048-6.677-1.462-9.064-3.984zm56.334 40.516-24.874 24.874c-4.954 4.953-13.014 4.953-17.968 0-2.4-2.4-3.721-5.591-3.721-8.983 0-3.394 1.321-6.584 3.721-8.984l31.522-31.522 17.968 17.968s-6.634 6.634-6.648 6.647zm21.517 39.397c-2.521-2.387-3.936-5.605-3.983-9.063-.047-3.461 1.273-6.714 3.72-9.16l6.607-6.607 17.968 17.968-6.2 6.2c-5.044 5.043-13.17 5.341-18.112.662zm225.601-101.572c-2.387 2.521-5.605 3.936-9.063 3.983-3.464.074-6.714-1.273-9.161-3.72l-91.037-91.037-21.213 21.213 118.952 118.951c2.399 2.399 3.721 5.59 3.721 8.983s-1.321 6.584-3.722 8.984c-2.4 2.4-5.59 3.722-8.983 3.722s-6.583-1.321-8.984-3.722l-118.951-118.95-21.213 21.213 91.036 91.037c2.447 2.446 3.768 5.7 3.72 9.161-.047 3.458-1.462 6.676-3.983 9.062-4.943 4.679-13.068 4.381-18.112-.663l-90.629-90.629-21.213 21.213 54.554 54.554c2.399 2.399 3.721 5.591 3.721 8.984s-1.322 6.584-3.721 8.983c-4.954 4.953-13.014 4.953-17.968 0l-128.653-128.652c-15.337-15.337-24.681-35.695-26.31-57.324l-.413-5.485-26.714-27.099 110.313-110.313 13.495 13.495 28.659 1.27c4.489.199 8.878 1.017 13.061 2.402-2.488 1.948-4.865 4.034-7.108 6.277l-102.571 102.569 19.479 19.479c10.929 10.929 25.459 16.948 40.915 16.948s29.987-6.02 40.915-16.948l30.995-30.995c15.145 3.525 30.927 1.251 44.364-6.216l121.158 121.159c5.045 5.043 5.343 13.168.664 18.111zm45.834-110.139-.413 5.485c-1.629 21.629-10.973 41.987-26.31 57.324l-3.282 3.282-114.73-114.729 15.448-15.448-21.214-21.213-24.447 24.448c-9.348 9.347-23.275 12.109-35.482 7.037l-9.267-3.851-44.531 44.53c-5.262 5.263-12.259 8.161-19.702 8.161-6.619 0-12.885-2.292-17.893-6.502l81.281-81.281c11.197-11.197 27.369-16.587 48.1-15.988 32.215.888 63.667-9.628 88.264-29.245l110.891 110.891z"/><path id="XMLID_1193_" d="m240.874 0h30v40.333h-30z"/><path id="XMLID_1194_" d="m136.201 7.94h30v40.334h-30z" transform="matrix(.904 -.429 .429 .904 2.547 67.525)"/><path id="XMLID_1196_" d="m47.546 58.218h30v40.333h-30z" transform="matrix(.722 -.692 .692 .722 -36.856 65.14)"/><path id="XMLID_1197_" d="m427.114 63.385h40.333v30h-40.333z" transform="matrix(.692 -.722 .722 .692 81.013 346.81)"/><path id="XMLID_1198_" d="m340.766 13.107h40.334v30h-40.334z" transform="matrix(.429 -.904 .904 .429 180.828 342.153)"/></g></svg>
