<svg id="Capa_1" enable-background="new 0 0 512.002 512.002" height="512" viewBox="0 0 512.002 512.002" width="512" xmlns="http://www.w3.org/2000/svg"><g><path d="m511.869 278.689-32.004-195.024c-.522-3.184-2.548-5.92-5.441-7.348-2.892-1.427-6.296-1.372-9.141.147l-79.363 42.426c-4.5 2.406-6.467 7.814-4.564 12.55l5.159 12.833c-14.653 6.372-31.404 6.897-46.461 1.361-27.523-10.12-57.85-8.507-84.052 4.297-26.201-12.803-56.529-14.415-84.053-4.297-15.056 5.535-31.807 5.01-46.461-1.362l5.159-12.833c1.903-4.735-.063-10.144-4.564-12.55l-79.363-42.424c-2.844-1.521-6.249-1.575-9.141-.147-2.893 1.428-4.919 4.164-5.441 7.348l-32.005 195.023c-.781 4.759 1.946 9.396 6.483 11.028l43.698 15.721c1.117.401 2.259.592 3.384.592 3.972 0 7.715-2.382 9.279-6.271l5.068-12.607 23.219 18.389c.582 7.679 3.793 15.194 9.653 21.054 6.431 6.431 14.854 9.676 23.3 9.751.074 8.446 3.321 16.869 9.751 23.3 6.431 6.431 14.854 9.676 23.3 9.751.074 8.446 3.321 16.87 9.752 23.301 6.506 6.505 15.051 9.758 23.596 9.758 1.883 0 3.764-.167 5.625-.483 1.072 6.696 4.176 13.127 9.327 18.279 6.506 6.506 15.051 9.758 23.597 9.758 6.389 0 12.778-1.819 18.315-5.456l2.407 2.407c6.506 6.506 15.051 9.758 23.597 9.758 8.545 0 17.091-3.252 23.597-9.758 4.064-4.063 6.858-8.923 8.383-14.082 4.004 1.662 8.335 2.534 12.8 2.534 8.914 0 17.294-3.472 23.597-9.774 5.241-5.242 8.367-11.808 9.386-18.63 1.7.262 3.415.4 5.131.4 8.546 0 17.091-3.252 23.597-9.758 6.233-6.232 9.69-14.499 9.767-23.3 8.441-.08 16.858-3.325 23.285-9.75 9.888-9.889 12.253-24.486 7.112-36.637l26.512-14.109 2.375 5.906c1.564 3.89 5.307 6.271 9.279 6.271 1.124 0 2.268-.19 3.384-.592l43.698-15.721c4.536-1.633 7.263-6.271 6.482-11.03zm-463.853 4.667-26.799-9.641 28.394-173.026 59.134 31.611zm85.95 29.099c-5.213 5.21-13.693 5.209-18.905-.003-5.213-5.213-5.213-13.695 0-18.908l10.909-10.908c2.525-2.525 5.883-3.916 9.454-3.916s6.929 1.391 9.454 3.916c5.213 5.213 5.213 13.695 0 18.908l-10.909 10.909c-.001 0-.002.001-.003.002zm33.054 33.048c-5.213 5.215-13.696 5.215-18.909 0-5.211-5.211-5.212-13.688-.006-18.901.002-.002.005-.004.007-.007l24.51-24.51c2.525-2.525 5.883-3.917 9.454-3.917s6.929 1.392 9.454 3.917c5.213 5.213 5.213 13.695 0 18.908zm33.052 33.052c-5.212 5.212-13.696 5.215-18.909 0-5.214-5.213-5.214-13.696 0-18.909l24.51-24.51c2.606-2.606 6.03-3.91 9.454-3.91s6.848 1.304 9.455 3.91c2.526 2.525 3.917 5.883 3.917 9.454s-1.391 6.929-3.916 9.454zm47.184 18.917-8.637 8.637c-5.213 5.214-13.696 5.212-18.909 0s-5.213-13.693-.002-18.907l8.638-8.638c2.606-2.606 6.03-3.91 9.454-3.91s6.848 1.304 9.455 3.91c5.214 5.212 5.214 13.695.001 18.908zm35.682 15.345c-5.212 5.213-13.695 5.213-18.909 0l-1.935-1.935c5.856-6.213 9.077-14.29 9.077-22.865 0-2.21-.215-4.386-.632-6.507l12.398 12.397c5.215 5.214 5.215 13.697.001 18.91zm115.946-82.361c-5.213 5.213-13.696 5.214-18.909 0l-64.64-64.641c-3.906-3.903-10.237-3.904-14.143 0-3.905 3.905-3.905 10.237 0 14.143l64.641 64.641c2.525 2.525 3.916 5.883 3.916 9.454s-1.391 6.929-3.917 9.454c-5.213 5.212-13.696 5.214-18.909 0l-46.784-46.784c-3.905-3.904-10.237-3.904-14.143 0-3.905 3.905-3.905 10.237 0 14.143l41.722 41.722c2.526 2.525 3.917 5.883 3.917 9.454s-1.391 6.929-3.917 9.454c-2.525 2.525-5.883 3.917-9.454 3.917s-6.929-1.392-9.454-3.917l-30.057-30.057c-3.905-3.904-10.237-3.904-14.143 0-1.121 1.121-1.909 2.444-2.386 3.851-.272-.292-.543-.584-.827-.868-4.179-4.178-9.273-7.104-14.828-8.606 1.266-3.555 1.927-7.339 1.927-11.225 0-8.913-3.471-17.294-9.774-23.597-6.43-6.431-14.854-9.677-23.3-9.752-.075-8.446-3.321-16.869-9.751-23.299-6.303-6.303-14.683-9.774-23.597-9.774-5.281 0-10.37 1.228-14.955 3.531-1.575-4.831-4.269-9.373-8.101-13.206-6.303-6.303-14.683-9.773-23.597-9.773s-17.294 3.471-23.596 9.773l-10.909 10.908c-1.561 1.562-2.93 3.243-4.117 5.012l-20.975-16.612 42.204-104.978c19.224 8.201 41.119 8.826 60.82 1.583 17.577-6.461 36.558-7.038 54.218-1.951l-25.436 14.07c-9.247 5.114-15.936 13.947-18.353 24.234s-.361 21.175 5.64 29.872c9.706 14.067 27.693 19.789 43.746 13.919l54.819-20.057c8.161-2.984 17.402-.944 23.546 5.2l81.853 81.853c5.216 5.213 5.216 13.696.003 18.909zm8.716-38.478-76.427-76.426c-11.627-11.629-29.119-15.487-44.561-9.84l-54.818 20.056c-7.49 2.741-15.883.069-20.413-6.495-2.842-4.117-3.776-9.067-2.632-13.938 1.145-4.87 4.186-8.887 8.563-11.309l43.528-24.079c22.172-12.265 48.528-14.285 72.311-5.54 19.7 7.243 41.597 6.617 60.82-1.583l45.174 112.366zm56.386-8.622-60.729-151.056 59.134-31.611 28.394 173.026z"/></g></svg>
