<svg width="80" height="80" viewBox="0 0 80 80" fill="none" xmlns="http://www.w3.org/2000/svg">
<path d="M0 40C0 17.9086 17.9086 0 40 0C62.0914 0 80 17.9086 80 40C80 62.0914 62.0914 80 40 80C17.9086 80 0 62.0914 0 40Z" fill="#DFE1E2"/>
<g clip-path="url(#clip0_8468_13536)">
<path d="M62.9189 32.8653C62.1048 30.2495 60.8506 27.8022 59.191 25.5915C58.504 24.6764 57.7484 23.8053 56.9451 23.0025C56.3095 22.3484 55.2963 23.3615 55.9512 23.9971C56.7075 24.753 57.4193 25.5736 58.0665 26.4357C61.1709 30.571 62.7324 35.4828 62.5825 40.6401C62.4369 45.6463 60.6125 50.5186 57.4455 54.3593C57.2035 54.63 57.2007 55.0452 57.456 55.3149L57.8289 55.7094L54.2675 56.3015L54.9836 52.699L55.3845 53.1231C55.5127 53.2928 55.733 53.3961 55.937 53.3929C56.1436 53.3929 56.3483 53.3023 56.4872 53.1282C62.4673 45.6292 62.6172 35.0279 56.8517 27.3476C53.4726 22.8464 48.5428 19.9304 42.9706 19.137C37.448 18.3507 31.9496 19.7436 27.47 23.0584L27.5423 22.6949C27.5873 22.4684 27.5183 22.2343 27.3576 22.0685C27.1969 21.9027 26.9651 21.8262 26.7374 21.8642L26.4683 21.909C30.4541 18.9257 35.1937 17.368 40.1544 17.4068C44.9761 17.4434 49.7417 19.0505 53.5734 21.9322C53.8837 22.1655 54.3244 22.1033 54.5579 21.7929C54.7913 21.4826 54.7288 21.0418 54.4185 20.8084C50.3477 17.747 45.2858 16.0396 40.1651 16.0007C34.8726 15.9609 29.8354 17.6226 25.5932 20.8072C24.9444 21.2943 24.3159 21.8187 23.722 22.3657L20.8699 22.8399C20.6136 22.8826 20.4017 23.063 20.3188 23.3093C20.236 23.5556 20.2957 23.8275 20.4742 24.0163L21.3271 24.9188C18.0888 28.9262 16.208 33.9492 16.0179 39.1329C15.8173 44.5988 17.5189 50.0226 20.8089 54.4051C25.3052 60.4568 32.5203 64.0212 40.0502 63.9999C46.1271 64.024 52.1461 61.6028 56.5848 57.3417L59.3624 56.8799C59.6187 56.8372 59.8306 56.6568 59.9135 56.4104C59.9963 56.1641 59.9366 55.8922 59.7581 55.7034L58.8987 54.7943C62.036 50.7882 63.8391 45.8005 63.988 40.681C64.0653 38.023 63.7056 35.3935 62.9189 32.8653ZM53.5625 58.0648C48.7368 61.6876 42.7891 63.2143 36.8152 62.3634C30.8412 61.5128 25.5561 58.3866 21.9334 53.5609C18.8361 49.4351 17.2344 44.3294 17.4231 39.1844C17.6091 34.1128 19.5126 29.2049 22.7829 25.3647C22.7879 25.3588 22.7921 25.3525 22.7969 25.3465C23.0301 25.0768 23.0256 24.669 22.7755 24.4043L22.4033 24.0104L25.9648 23.4182L25.2487 27.0207L24.8169 26.5639C24.6953 26.4353 24.5367 26.3634 24.3734 26.3476C24.1397 26.3152 23.8952 26.4004 23.734 26.5957C20.7768 30.1788 19.0729 34.7242 18.9362 39.3946C18.7953 44.2073 20.2518 48.7905 23.1483 52.649C23.6951 53.3773 24.2924 54.075 24.9236 54.7229C25.0615 54.8644 25.2442 54.9354 25.4273 54.9354C25.6042 54.9354 25.7812 54.869 25.9179 54.7359C26.196 54.4649 26.2017 54.0198 25.9308 53.7416C25.3415 53.1367 24.7837 52.485 24.2729 51.8047C21.5696 48.2038 20.2102 43.9266 20.3418 39.4359C20.4618 35.3376 21.8743 31.3433 24.3353 28.1016L25.1618 28.9761C25.2966 29.1187 25.4822 29.1963 25.6727 29.1962C25.7376 29.1962 25.8031 29.1872 25.8674 29.1687C26.1201 29.0959 26.311 28.8881 26.3623 28.6302L27.0433 25.2047C27.414 24.8808 27.7998 24.5669 28.1936 24.2713C32.3944 21.1177 37.572 19.7889 42.7724 20.5292C47.9728 21.2697 52.5735 23.9911 55.727 28.1919C60.9439 35.1412 60.9717 44.6526 55.8828 51.6033L55.0704 50.7438C54.8897 50.5526 54.6174 50.4783 54.3648 50.5512C54.1121 50.624 53.9211 50.8317 53.8699 51.0897L53.172 54.6002C52.7353 54.9931 52.2775 55.3715 51.8063 55.7253C48.372 58.3035 44.297 59.665 40.0171 59.665C35.8272 59.6658 31.6685 58.3003 28.3174 55.8243C28.0051 55.5936 27.5649 55.6597 27.3342 55.9721C27.1035 56.2844 27.1695 56.7245 27.4819 56.9553C31.0731 59.6087 35.5287 61.0721 40.0172 61.0712C44.6386 61.0712 49.047 59.5879 52.7383 56.7824C52.6573 57.076 52.6346 57.4235 52.8747 57.6514C53.1345 57.9574 53.5862 57.8482 53.9244 57.7842C53.8042 57.8782 53.6844 57.9733 53.5625 58.0648Z" fill="#005EA2"/>
<path d="M30.1081 49.5935C30.1227 49.5935 30.1347 49.6056 30.1347 49.6204V52.1072C30.1347 52.8564 30.7444 53.4658 31.4938 53.4658C31.8139 53.4658 32.125 53.352 32.3697 53.1454L36.5685 49.5998C36.5735 49.5955 36.5794 49.5934 36.586 49.5934H51.5378C52.7302 49.5934 53.7003 48.6231 53.7003 47.4304V46.3265C53.7003 45.9382 53.3855 45.6235 52.9972 45.6235C52.6089 45.6235 52.2941 45.9382 52.2941 46.3265V47.4304C52.2941 47.8477 51.9549 48.1872 51.5378 48.1872H36.5859C36.2479 48.1872 35.9195 48.3073 35.6613 48.5254L31.5409 52.0047V49.6202C31.5409 48.83 30.8982 48.1871 30.1081 48.1871H28.6488C28.2317 48.1871 27.8925 47.8476 27.8925 47.4303V32.1542C27.8925 31.7369 28.2317 31.3974 28.6488 31.3974H30.6818C31.0701 31.3974 31.3849 31.0826 31.3849 30.6943C31.3849 30.306 31.0701 29.9912 30.6818 29.9912H28.6488C27.4564 29.9912 26.4863 30.9615 26.4863 32.1542V47.4305C26.4863 48.6231 27.4564 49.5935 28.6488 49.5935H30.1081Z" fill="#005EA2"/>
<path d="M33.9627 31.3974H51.5378C51.9549 31.3974 52.2941 31.7369 52.2941 32.1542V43.0457C52.2941 43.434 52.6089 43.7488 52.9972 43.7488C53.3855 43.7488 53.7003 43.434 53.7003 43.0457V32.1542C53.7003 30.9615 52.7302 29.9912 51.5378 29.9912H33.9628C33.5746 29.9912 33.2598 30.306 33.2598 30.6943C33.2598 31.0826 33.5745 31.3974 33.9627 31.3974Z" fill="#005EA2"/>
<path d="M31.2109 35.5404H41.3587C41.747 35.5404 42.0618 35.2256 42.0618 34.8374C42.0618 34.4491 41.747 34.1343 41.3587 34.1343H31.2109C30.8226 34.1343 30.5078 34.4491 30.5078 34.8374C30.5078 35.2256 30.8226 35.5404 31.2109 35.5404Z" fill="#005EA2"/>
<path d="M48.9759 43.7368H38.8281C38.4398 43.7368 38.125 44.0516 38.125 44.4399C38.125 44.8282 38.4398 45.143 38.8281 45.143H48.9759C49.3642 45.143 49.6789 44.8282 49.6789 44.4399C49.6789 44.0516 49.3642 43.7368 48.9759 43.7368Z" fill="#005EA2"/>
<path d="M48.976 34.1345H45.4628C45.0746 34.1345 44.7598 34.4493 44.7598 34.8376C44.7598 35.2259 45.0746 35.5407 45.4628 35.5407H48.976C49.3642 35.5407 49.679 35.2259 49.679 34.8376C49.679 34.4493 49.3642 34.1345 48.976 34.1345Z" fill="#005EA2"/>
<path d="M31.2109 43.7368C30.8226 43.7368 30.5078 44.0516 30.5078 44.4399C30.5078 44.8282 30.8226 45.143 31.2109 45.143H34.724C35.1123 45.143 35.4271 44.8282 35.4271 44.4399C35.4271 44.0516 35.1123 43.7368 34.724 43.7368H31.2109Z" fill="#005EA2"/>
<path d="M48.9759 39.0898H31.2109C30.8226 39.0898 30.5078 39.4046 30.5078 39.7929C30.5078 40.1812 30.8226 40.496 31.2109 40.496H48.9759C49.3642 40.496 49.679 40.1812 49.679 39.7929C49.679 39.4046 49.3642 39.0898 48.9759 39.0898Z" fill="#005EA2"/>
</g>
<defs>
<clipPath id="clip0_8468_13536">
<rect width="48" height="48" fill="white" transform="translate(16 16)"/>
</clipPath>
</defs>
</svg>
