<svg width="80" height="80" viewBox="0 0 80 80" fill="none" xmlns="http://www.w3.org/2000/svg">
<path d="M0 40C0 17.9086 17.9086 0 40 0C62.0914 0 80 17.9086 80 40C80 62.0914 62.0914 80 40 80C17.9086 80 0 62.0914 0 40Z" fill="#DFE1E2"/>
<g clip-path="url(#clip0_8468_13457)">
<path d="M40.1617 42.703C40.6188 42.703 40.9894 42.3324 40.9894 41.8753C40.9894 41.4182 40.6188 41.0476 40.1617 41.0476C39.7046 41.0476 39.334 41.4182 39.334 41.8753C39.334 42.3324 39.7046 42.703 40.1617 42.703Z" fill="#005EA2"/>
<path d="M51.4428 16H51.3788H28.6206H28.5567C27.2557 16 26.1973 17.0584 26.1973 18.3594V18.4234V22.3155V55.3397V61.5767V61.6407C26.1973 62.9416 27.2557 64.0001 28.5567 64.0001H28.6206H51.3789H51.4429C52.7438 64.0001 53.8023 62.9416 53.8023 61.6407V61.5767V55.3397V22.3155V18.4234V18.3594C53.8022 17.0584 52.7437 16 51.4428 16ZM28.6206 62.589C28.0624 62.589 27.6083 62.1348 27.6083 61.5766V56.0451H41.0049C41.3946 56.0451 41.7104 55.7292 41.7104 55.3396C41.7104 54.95 41.3946 54.6341 41.0049 54.6341H27.6083V23.021H31.0388C31.4285 23.021 31.7443 22.7051 31.7443 22.3155C31.7443 21.9259 31.4285 21.61 31.0388 21.61H27.6083V18.4234C27.6083 17.8652 28.0624 17.411 28.6206 17.411H51.3789C51.9371 17.411 52.3912 17.8652 52.3912 18.4234V21.61H33.8609C33.4712 21.61 33.1554 21.9259 33.1554 22.3155C33.1554 22.7051 33.4712 23.021 33.8609 23.021H52.3912V54.6342H43.827C43.4373 54.6342 43.1215 54.9501 43.1215 55.3397C43.1215 55.7293 43.4373 56.0452 43.827 56.0452H52.3912V61.5767C52.3912 62.1349 51.9371 62.5891 51.3789 62.5891L28.6206 62.589Z" fill="#005EA2"/>
<path d="M35.4135 20.3204H39.7852C40.1749 20.3204 40.4907 20.0046 40.4907 19.6149C40.4907 19.2253 40.1749 18.9094 39.7852 18.9094H35.4135C35.0238 18.9094 34.708 19.2253 34.708 19.6149C34.708 20.0046 35.0238 20.3204 35.4135 20.3204Z" fill="#005EA2"/>
<path d="M43.0678 20.3204H44.5861C44.9758 20.3204 45.2916 20.0046 45.2916 19.6149C45.2916 19.2253 44.9758 18.9094 44.5861 18.9094H43.0678C42.6781 18.9094 42.3623 19.2253 42.3623 19.6149C42.3623 20.0046 42.6781 20.3204 43.0678 20.3204Z" fill="#005EA2"/>
<path d="M40.0001 56.7068C38.5424 56.7068 37.3564 57.8927 37.3564 59.3505C37.3564 60.8082 38.5424 61.9941 40.0001 61.9941C41.4579 61.9941 42.6438 60.8082 42.6438 59.3505C42.6438 57.8927 41.4578 56.7068 40.0001 56.7068ZM40.0001 60.583C39.3204 60.583 38.7675 60.0301 38.7675 59.3504C38.7675 58.6706 39.3204 58.1177 40.0001 58.1177C40.6798 58.1177 41.2328 58.6706 41.2328 59.3504C41.2328 60.0301 40.6797 60.583 40.0001 60.583Z" fill="#005EA2"/>
<path d="M49.8946 45.6483C49.9576 45.5392 49.9891 45.4174 49.9891 45.2956C49.9891 45.1738 49.9576 45.0519 49.8946 44.9428L40.772 29.1421C40.646 28.9237 40.4132 28.7893 40.1611 28.7893C39.909 28.7893 39.6761 28.9237 39.5501 29.1421L30.4275 44.9428C30.3645 45.0519 30.333 45.1738 30.333 45.2956C30.333 45.4174 30.3645 45.5392 30.4275 45.6483C30.5536 45.8667 30.7864 46.0011 31.0385 46.0011H49.2837C49.5357 46.0011 49.7685 45.8666 49.8946 45.6483ZM32.2604 44.5901L40.161 30.9058L48.0616 44.5901H32.2604Z" fill="#005EA2"/>
<path d="M39.4561 34.853V39.6758C39.4561 40.0654 39.7718 40.3813 40.1616 40.3813C40.5513 40.3813 40.8671 40.0654 40.8671 39.6758V34.853C40.8671 34.4633 40.5513 34.1475 40.1616 34.1475C39.7718 34.1475 39.4561 34.4633 39.4561 34.853Z" fill="#005EA2"/>
</g>
<defs>
<clipPath id="clip0_8468_13457">
<rect width="48" height="48" fill="white" transform="translate(16 16)"/>
</clipPath>
</defs>
</svg>
