<svg width="80" height="80" viewBox="0 0 80 80" fill="none" xmlns="http://www.w3.org/2000/svg">
<path d="M0 40C0 17.9086 17.9086 0 40 0C62.0914 0 80 17.9086 80 40C80 62.0914 62.0914 80 40 80C17.9086 80 0 62.0914 0 40Z" fill="#DFE1E2"/>
<g clip-path="url(#clip0_8468_13480)">
<path d="M28.049 30.1295H48.1007C48.6229 30.1295 49.0462 29.7062 49.0462 29.184C49.0462 28.6618 48.6229 28.2385 48.1007 28.2385H28.049C27.5268 28.2385 27.1035 28.6618 27.1035 29.184C27.1035 29.7062 27.5268 30.1295 28.049 30.1295Z" fill="#005EA2"/>
<path d="M48.101 32.9592H41.5675C41.0454 32.9592 40.6221 33.3825 40.6221 33.9047C40.6221 34.4269 41.0454 34.8502 41.5675 34.8502H48.101C48.6232 34.8502 49.0464 34.4269 49.0464 33.9047C49.0464 33.3825 48.6232 32.9592 48.101 32.9592Z" fill="#005EA2"/>
<path d="M28.049 34.8502H34.9621C35.4843 34.8502 35.9076 34.4269 35.9076 33.9047C35.9076 33.3825 35.4843 32.9592 34.9621 32.9592H28.049C27.5268 32.9592 27.1035 33.3825 27.1035 33.9047C27.1035 34.4269 27.5268 34.8502 28.049 34.8502Z" fill="#005EA2"/>
<path d="M28.049 39.5706H48.1007C48.6229 39.5706 49.0462 39.1473 49.0462 38.6252C49.0462 38.103 48.6229 37.6797 48.1007 37.6797H28.049C27.5268 37.6797 27.1035 38.103 27.1035 38.6252C27.1035 39.1473 27.5268 39.5706 28.049 39.5706Z" fill="#005EA2"/>
<path d="M28.049 44.2913H29.9365C30.4587 44.2913 30.882 43.868 30.882 43.3459C30.882 42.8237 30.4587 42.4004 29.9365 42.4004H28.049C27.5268 42.4004 27.1035 42.8237 27.1035 43.3459C27.1035 43.868 27.5268 44.2913 28.049 44.2913Z" fill="#005EA2"/>
<path d="M42.4041 42.4004H34.6574C34.1352 42.4004 33.7119 42.8237 33.7119 43.3459C33.7119 43.868 34.1352 44.2913 34.6574 44.2913H42.4041C42.9263 44.2913 43.3496 43.868 43.3496 43.3459C43.3496 42.8237 42.9263 42.4004 42.4041 42.4004Z" fill="#005EA2"/>
<path d="M40.5374 48.0666C40.5374 47.5444 40.1141 47.1211 39.592 47.1211H28.049C27.5268 47.1211 27.1035 47.5444 27.1035 48.0666C27.1035 48.5887 27.5268 49.012 28.049 49.012H39.592C40.1141 49.0119 40.5374 48.5887 40.5374 48.0666Z" fill="#005EA2"/>
<path d="M28.049 25.4063H39.6079C40.1301 25.4063 40.5534 24.983 40.5534 24.4608C40.5534 23.9387 40.1301 23.5154 39.6079 23.5154H28.049C27.5268 23.5154 27.1035 23.9387 27.1035 24.4608C27.1035 24.983 27.5268 25.4063 28.049 25.4063Z" fill="#005EA2"/>
<path d="M61.8156 45.5844L54.8074 41.8016V25.1275C54.8074 25.0935 54.8055 25.0599 54.8019 25.0267C54.8012 25.0197 54.7997 25.0127 54.7987 25.0057C54.7953 24.9795 54.7914 24.9533 54.7859 24.9278C54.7842 24.9199 54.7817 24.9123 54.7799 24.9044C54.774 24.88 54.7676 24.8559 54.7598 24.8323C54.757 24.8236 54.7535 24.8151 54.7504 24.8066C54.7425 24.7845 54.734 24.7626 54.7245 24.7413C54.7202 24.7318 54.7154 24.7224 54.7108 24.7129C54.7012 24.6933 54.6912 24.6741 54.6803 24.6554C54.6744 24.6452 54.6682 24.6351 54.6619 24.6251C54.6511 24.6078 54.6397 24.591 54.6278 24.5745C54.6204 24.5642 54.6129 24.554 54.605 24.544C54.5927 24.5283 54.5797 24.5133 54.5664 24.4983C54.558 24.4889 54.5497 24.4793 54.5408 24.4702C54.5257 24.4547 54.5098 24.4399 54.4937 24.4254C54.4873 24.4197 54.4817 24.4133 54.4751 24.4078L44.8727 16.2258C44.8708 16.2242 44.8687 16.2228 44.8667 16.2212C44.8567 16.2127 44.8462 16.2051 44.8358 16.1971C44.8232 16.1874 44.8108 16.1777 44.7978 16.1687C44.7859 16.1604 44.7737 16.1529 44.7615 16.1452C44.7493 16.1376 44.7372 16.1299 44.7246 16.1229C44.7112 16.1153 44.6976 16.1084 44.6838 16.1014C44.6718 16.0954 44.6598 16.0894 44.6476 16.084C44.6331 16.0774 44.6185 16.0714 44.6036 16.0656C44.5912 16.0608 44.5788 16.0563 44.5663 16.052C44.5514 16.0469 44.5364 16.042 44.5211 16.0376C44.5075 16.0337 44.4937 16.0304 44.4799 16.027C44.4655 16.0235 44.4511 16.02 44.4363 16.0172C44.4196 16.014 44.4027 16.0117 44.3857 16.0095C44.3735 16.0079 44.3615 16.0057 44.3493 16.0046C44.3197 16.0017 44.2897 16 44.2595 16H24.561C22.788 16 21.3456 17.4442 21.3456 19.2195V21.1297H19.6867C17.9123 21.1297 16.4688 22.5739 16.4688 24.3492V60.7806C16.4688 62.5558 17.9123 64 19.6867 64H53.8619C53.8994 64 53.9362 63.9972 53.9726 63.993C54.3918 63.966 54.8207 63.7894 55.3718 63.4595C57.6228 62.1139 59.5969 59.8773 61.2393 56.8121C62.7635 53.9687 63.556 50.9993 63.5311 48.2253C63.5162 46.5785 62.9326 46.1872 61.8156 45.5844ZM45.205 18.9932L51.2946 24.182H47.0497C46.0325 24.182 45.205 23.3549 45.205 22.3382V18.9932ZM18.3597 60.7805V24.3492C18.3597 23.6166 18.955 23.0207 19.6867 23.0207H21.3456V55.6482C21.3456 57.4233 22.788 58.8677 24.561 58.8677H29.252C29.7742 58.8677 30.1975 58.4444 30.1975 57.9222C30.1975 57.4 29.7742 56.9767 29.252 56.9767H24.561C23.8307 56.9767 23.2366 56.3807 23.2366 55.6482V19.2195C23.2366 18.4869 23.8307 17.8909 24.561 17.8909H43.3141V22.3382C43.3141 24.3976 44.9899 26.073 47.0497 26.073H52.9164V41.8016L45.9377 45.5684L45.9099 45.5834C44.7901 46.1862 44.2051 46.5775 44.1902 48.2253C44.1652 50.9993 44.9577 53.9686 46.4818 56.8119C46.5117 56.8678 46.5425 56.9213 46.5727 56.9766H37.665C37.1428 56.9766 36.7195 57.3999 36.7195 57.9221C36.7195 58.4443 37.1428 58.8676 37.665 58.8676H47.7174C48.5787 60.1443 49.5135 61.2263 50.515 62.109H19.6867C18.955 62.1091 18.3597 61.5132 18.3597 60.7805ZM59.5727 55.9189C58.0942 58.6782 56.3545 60.6693 54.401 61.8369C54.0206 62.0646 53.8979 62.1052 53.863 62.1092C53.8627 62.1092 53.8625 62.1092 53.8622 62.1092C53.8227 62.1051 53.6997 62.0643 53.32 61.8369C53.3199 61.8368 53.3197 61.8367 53.3195 61.8366C51.3942 60.6856 49.606 58.6393 48.1484 55.9187C46.7737 53.3543 46.0588 50.6998 46.081 48.2423C46.0855 47.7377 46.1445 47.654 46.147 47.6507C46.2077 47.5705 46.5257 47.3993 46.8062 47.2484L53.862 43.44L60.8887 47.2327L60.9175 47.2483C61.1969 47.3991 61.5137 47.57 61.574 47.6501C61.5766 47.6535 61.6356 47.7374 61.6401 48.2423C61.6623 50.6999 60.9474 53.3543 59.5727 55.9189Z" fill="#005EA2"/>
<path d="M33.4599 56.9768H33.4546C32.9324 56.9768 32.5117 57.4001 32.5117 57.9223C32.5117 58.4445 32.9376 58.8677 33.4598 58.8677C33.982 58.8677 34.4053 58.4445 34.4053 57.9223C34.4053 57.4001 33.9821 56.9768 33.4599 56.9768Z" fill="#005EA2"/>
<path d="M56.1048 49.649L52.8123 53.0302L51.5883 51.8824C51.2074 51.5253 50.6091 51.5445 50.2519 51.9253C49.8947 52.3062 49.9139 52.9045 50.2948 53.2617L52.1956 55.0442C52.3779 55.2151 52.6102 55.3 52.8422 55.3C53.0886 55.3 53.3346 55.2042 53.5197 55.0142L57.4595 50.9683C57.8238 50.5942 57.8158 49.9956 57.4418 49.6313C57.0675 49.2671 56.4689 49.2751 56.1048 49.649Z" fill="#005EA2"/>
</g>
<defs>
<clipPath id="clip0_8468_13480">
<rect width="48" height="48" fill="white" transform="translate(16 16)"/>
</clipPath>
</defs>
</svg>
