<svg width="80" height="80" viewBox="0 0 80 80" fill="none" xmlns="http://www.w3.org/2000/svg">
<path d="M0 40C0 17.9086 17.9086 0 40 0C62.0914 0 80 17.9086 80 40C80 62.0914 62.0914 80 40 80C17.9086 80 0 62.0914 0 40Z" fill="#DFE1E2"/>
<path d="M61.75 43.5H48.25V39.75H55.75V41.25C55.75 41.4489 55.829 41.6397 55.9697 41.7803C56.1103 41.921 56.3011 42 56.5 42C56.6989 42 56.8897 41.921 57.0303 41.7803C57.171 41.6397 57.25 41.4489 57.25 41.25V29.25H58C58.1989 29.25 58.3897 29.171 58.5303 29.0303C58.671 28.8897 58.75 28.6989 58.75 28.5C58.75 28.3011 58.671 28.1103 58.5303 27.9697C58.3897 27.829 58.1989 27.75 58 27.75H48.25V22.5H50.5C50.6989 22.5 50.8897 22.421 51.0303 22.2803C51.171 22.1397 51.25 21.9489 51.25 21.75V18.75C51.25 18.5511 51.171 18.3603 51.0303 18.2197C50.8897 18.079 50.6989 18 50.5 18H29.5C29.3011 18 29.1103 18.079 28.9697 18.2197C28.829 18.3603 28.75 18.5511 28.75 18.75V21.75C28.75 21.9489 28.829 22.1397 28.9697 22.2803C29.1103 22.421 29.3011 22.5 29.5 22.5H46.75V43.5H33.25V24.75C33.25 24.5511 33.171 24.3603 33.0303 24.2197C32.8897 24.079 32.6989 24 32.5 24C32.3011 24 32.1103 24.079 31.9697 24.2197C31.829 24.3603 31.75 24.5511 31.75 24.75V27.75H22C21.8011 27.75 21.6103 27.829 21.4697 27.9697C21.329 28.1103 21.25 28.3011 21.25 28.5C21.25 28.6989 21.329 28.8897 21.4697 29.0303C21.6103 29.171 21.8011 29.25 22 29.25H22.75V43.5H18.25C18.0511 43.5 17.8603 43.579 17.7197 43.7197C17.579 43.8603 17.5 44.0511 17.5 44.25V47.25C17.5 47.4489 17.579 47.6397 17.7197 47.7803C17.8603 47.921 18.0511 48 18.25 48H58V61.5H40.75V52.5H43.75V59.25C43.75 59.4489 43.829 59.6397 43.9697 59.7803C44.1103 59.921 44.3011 60 44.5 60C44.6989 60 44.8897 59.921 45.0303 59.7803C45.171 59.6397 45.25 59.4489 45.25 59.25V51.75C45.25 51.5511 45.171 51.3603 45.0303 51.2197C44.8897 51.079 44.6989 51 44.5 51H35.5C35.3011 51 35.1103 51.079 34.9697 51.2197C34.829 51.3603 34.75 51.5511 34.75 51.75V61.5H22V50.25C22 50.0511 21.921 49.8603 21.7803 49.7197C21.6397 49.579 21.4489 49.5 21.25 49.5C21.0511 49.5 20.8603 49.579 20.7197 49.7197C20.579 49.8603 20.5 50.0511 20.5 50.25V62.25C20.5 62.4489 20.579 62.6397 20.7197 62.7803C20.8603 62.921 21.0511 63 21.25 63H58.75C58.9489 63 59.1397 62.921 59.2803 62.7803C59.421 62.6397 59.5 62.4489 59.5 62.25V48H61.75C61.9489 48 62.1397 47.921 62.2803 47.7803C62.421 47.6397 62.5 47.4489 62.5 47.25V44.25C62.5 44.0511 62.421 43.8603 62.2803 43.7197C62.1397 43.579 61.9489 43.5 61.75 43.5ZM30.25 19.5H49.75V21H30.25V19.5ZM48.25 33.75H49.75V38.25H48.25V33.75ZM52.75 33.75V38.25H51.25V33.75H52.75ZM54.25 38.25V33.75H55.75V38.25H54.25ZM55.75 29.25V32.25H48.25V29.25H55.75ZM36.25 52.5H39.25V61.5H36.25V52.5ZM27.25 38.25V33.75H28.75V38.25H27.25ZM24.25 38.25V33.75H25.75V38.25H24.25ZM30.25 33.75H31.75V38.25H30.25V33.75ZM31.75 32.25H24.25V29.25H31.75V32.25ZM24.25 39.75H31.75V43.5H24.25V39.75ZM61 46.5H19V45H61V46.5Z" fill="#005EA2"/>
<path d="M35.5 38.25C35.5 38.4489 35.579 38.6397 35.7197 38.7803C35.8603 38.921 36.0511 39 36.25 39H37.75V40.5C37.75 40.6989 37.829 40.8897 37.9697 41.0303C38.1103 41.171 38.3011 41.25 38.5 41.25H41.5C41.6989 41.25 41.8897 41.171 42.0303 41.0303C42.171 40.8897 42.25 40.6989 42.25 40.5V39H43.75C43.9489 39 44.1397 38.921 44.2803 38.7803C44.421 38.6397 44.5 38.4489 44.5 38.25V35.25C44.5 35.0511 44.421 34.8603 44.2803 34.7197C44.1397 34.579 43.9489 34.5 43.75 34.5H42.25V33C42.25 32.8011 42.171 32.6103 42.0303 32.4697C41.8897 32.329 41.6989 32.25 41.5 32.25H38.5C38.3011 32.25 38.1103 32.329 37.9697 32.4697C37.829 32.6103 37.75 32.8011 37.75 33V34.5H36.25C36.0511 34.5 35.8603 34.579 35.7197 34.7197C35.579 34.8603 35.5 35.0511 35.5 35.25V38.25ZM37 36H38.5C38.6989 36 38.8897 35.921 39.0303 35.7803C39.171 35.6397 39.25 35.4489 39.25 35.25V33.75H40.75V35.25C40.75 35.4489 40.829 35.6397 40.9697 35.7803C41.1103 35.921 41.3011 36 41.5 36H43V37.5H41.5C41.3011 37.5 41.1103 37.579 40.9697 37.7197C40.829 37.8603 40.75 38.0511 40.75 38.25V39.75H39.25V38.25C39.25 38.0511 39.171 37.8603 39.0303 37.7197C38.8897 37.579 38.6989 37.5 38.5 37.5H37V36Z" fill="#005EA2"/>
<path d="M36.25 30H43.75C43.9489 30 44.1397 29.921 44.2803 29.7803C44.421 29.6397 44.5 29.4489 44.5 29.25V24.75C44.5 24.5511 44.421 24.3603 44.2803 24.2197C44.1397 24.079 43.9489 24 43.75 24H36.25C36.0511 24 35.8603 24.079 35.7197 24.2197C35.579 24.3603 35.5 24.5511 35.5 24.75V29.25C35.5 29.4489 35.579 29.6397 35.7197 29.7803C35.8603 29.921 36.0511 30 36.25 30ZM43 28.5H40.75V25.5H43V28.5ZM37 25.5H39.25V28.5H37V25.5Z" fill="#005EA2"/>
<path d="M55.75 58.5C55.9489 58.5 56.1397 58.421 56.2803 58.2803C56.421 58.1397 56.5 57.9489 56.5 57.75V51.75C56.5 51.5511 56.421 51.3603 56.2803 51.2197C56.1397 51.079 55.9489 51 55.75 51H48.25C48.0511 51 47.8603 51.079 47.7197 51.2197C47.579 51.3603 47.5 51.5511 47.5 51.75V57.75C47.5 57.9489 47.579 58.1397 47.7197 58.2803C47.8603 58.421 48.0511 58.5 48.25 58.5H55.75ZM55 57H52.75V52.5H55V57ZM49 52.5H51.25V57H49V52.5Z" fill="#005EA2"/>
</svg>
