<svg width="80" height="80" viewBox="0 0 80 80" fill="none" xmlns="http://www.w3.org/2000/svg">
<path d="M0 40C0 17.9086 17.9086 0 40 0C62.0914 0 80 17.9086 80 40C80 62.0914 62.0914 80 40 80C17.9086 80 0 62.0914 0 40Z" fill="#DFE1E2"/>
<path d="M50.9478 29.6837C50.6312 29.4586 50.1922 29.5325 49.9671 29.8489C49.742 30.1653 49.816 30.6044 50.1324 30.8296C54.7439 34.1109 57.4971 39.4442 57.4971 45.0962C57.4971 54.7443 49.6477 62.5938 39.9995 62.5938C30.3514 62.5938 22.502 54.7443 22.502 45.0962C22.502 35.448 30.3514 27.5987 39.9995 27.5987C42.5935 27.5987 45.0918 28.1527 47.4236 29.247C47.7753 29.4123 48.194 29.2607 48.3589 28.9092C48.5239 28.5576 48.3725 28.1388 48.0211 27.9739C46.209 27.1235 44.3038 26.5746 42.3335 26.3336V22.299H42.4039C43.2644 22.299 43.9644 21.5988 43.9644 20.7384V17.5606C43.9645 16.7001 43.2644 16 42.4039 16H37.5952C36.7347 16 36.0346 16.7001 36.0346 17.5606V20.7383C36.0346 21.5988 36.7347 22.2989 37.5952 22.2989H37.6655V22.7368C37.6655 23.1252 37.9804 23.4399 38.3687 23.4399C38.757 23.4399 39.0718 23.1252 39.0718 22.7368V22.2989H40.9274V26.2143C40.3072 26.1847 39.688 26.1849 39.0718 26.2148V26.018C39.0718 25.6296 38.757 25.3149 38.3687 25.3149C37.9804 25.3149 37.6655 25.6296 37.6655 26.018V26.3357C35.8782 26.5567 34.1675 27.0282 32.5694 27.7139L31.1975 25.3379L31.2821 25.289C31.6368 25.0842 31.8905 24.7536 31.9965 24.358C32.1025 23.9623 32.0481 23.5491 31.8433 23.1945L30.227 20.3951C29.8043 19.6628 28.8648 19.4109 28.1326 19.8339L23.9209 22.2658C23.5661 22.4706 23.3124 22.8012 23.2064 23.1969C23.1005 23.5925 23.1548 24.0057 23.3596 24.3603L24.9757 27.1596C25.2594 27.651 25.7759 27.926 26.3061 27.926C26.5661 27.926 26.8295 27.8599 27.0702 27.7209L27.1548 27.6721L28.5399 30.0711C24.0179 33.5283 21.0957 38.9775 21.0957 45.0962C21.0957 55.5197 29.576 64 39.9995 64C50.4231 64 58.9034 55.5198 58.9034 45.0962C58.9034 38.9901 55.9293 33.2284 50.9478 29.6837ZM42.5583 17.5606V20.7383C42.5583 20.8234 42.489 20.8926 42.404 20.8926H40.7027V17.4062H42.4039C42.489 17.4062 42.5583 17.4754 42.5583 17.5606ZM37.4408 20.7384V17.5606C37.4408 17.4754 37.5101 17.4062 37.5952 17.4062H39.2964V20.8927H37.5952C37.5101 20.8927 37.4408 20.8235 37.4408 20.7384ZM28.8357 21.0519C28.8581 21.039 28.8798 21.0347 28.8985 21.0347C28.9113 21.0347 28.9227 21.0367 28.9321 21.0392C28.9552 21.0453 28.9875 21.0607 29.0092 21.0984L30.6255 23.8978C30.6472 23.9354 30.6444 23.971 30.6381 23.9942C30.632 24.0174 30.6167 24.0496 30.579 24.0713L29.8859 24.4714C29.8858 24.4715 29.8856 24.4715 29.8855 24.4716L29.8851 24.4718L29.082 24.9355L27.3387 21.9161L28.8357 21.0519ZM26.2708 26.5157C26.2475 26.5096 26.2154 26.4942 26.1936 26.4565L24.5775 23.6572C24.5557 23.6195 24.5585 23.584 24.5648 23.5608C24.571 23.5376 24.5863 23.5054 24.624 23.4837L26.121 22.6194L27.8643 25.6388L26.3673 26.5031C26.3295 26.5247 26.294 26.5218 26.2708 26.5157ZM28.3728 26.9689L29.9798 26.0412L31.2947 28.3186C30.7445 28.6052 30.2101 28.9182 29.693 29.2557L28.3728 26.9689Z" fill="#005EA2"/>
<path d="M24.0078 45.0962C24.0078 53.914 31.1817 61.0879 39.9995 61.0879C48.8173 61.0879 55.9912 53.914 55.9912 45.0962C55.9912 36.2783 48.8173 29.1045 39.9995 29.1045C31.1817 29.1045 24.0078 36.2784 24.0078 45.0962ZM54.5849 45.0962C54.5849 53.1386 48.0419 59.6816 39.9995 59.6816C31.9571 59.6816 25.4141 53.1386 25.4141 45.0962C25.4141 37.0537 31.9571 30.5107 39.9995 30.5107C48.0419 30.5107 54.5849 37.0537 54.5849 45.0962Z" fill="#005EA2"/>
<path d="M39.2764 32.7197V34.1758C39.2764 34.5642 39.5912 34.8789 39.9795 34.8789C40.3678 34.8789 40.6826 34.5642 40.6826 34.1758V32.7197C40.6826 32.3313 40.3678 32.0166 39.9795 32.0166C39.5912 32.0166 39.2764 32.3313 39.2764 32.7197Z" fill="#005EA2"/>
<path d="M39.9795 55.3135C39.5912 55.3135 39.2764 55.6282 39.2764 56.0166V57.4726C39.2764 57.861 39.5912 58.1758 39.9795 58.1758C40.3678 58.1758 40.6826 57.861 40.6826 57.4726V56.0166C40.6826 55.6282 40.3678 55.3135 39.9795 55.3135Z" fill="#005EA2"/>
<path d="M33.9103 35.9902C34.0405 36.2158 34.2768 36.3419 34.5198 36.3419C34.6391 36.3419 34.76 36.3115 34.8707 36.2476C35.207 36.0534 35.3222 35.6234 35.1281 35.2871L34.4 34.0262C34.2059 33.6899 33.7758 33.5748 33.4396 33.7688C33.1033 33.963 32.9881 34.393 33.1822 34.7293L33.9103 35.9902Z" fill="#005EA2"/>
<path d="M46.0485 54.2019C45.8542 53.8656 45.4241 53.7506 45.088 53.9446C44.7517 54.1388 44.6365 54.5688 44.8306 54.9051L45.5587 56.166C45.689 56.3916 45.9253 56.5177 46.1683 56.5177C46.2875 56.5177 46.4085 56.4873 46.5192 56.4233C46.8555 56.2292 46.9707 55.7992 46.7765 55.4629L46.0485 54.2019Z" fill="#005EA2"/>
<path d="M30.8734 39.0269L29.6124 38.2989C29.2761 38.1048 28.8461 38.2199 28.6519 38.5562C28.4578 38.8925 28.573 39.3225 28.9093 39.5167L30.1703 40.2448C30.281 40.3087 30.402 40.3391 30.5212 40.3391C30.7642 40.3391 31.0006 40.213 31.1308 39.9874C31.3249 39.6511 31.2097 39.2211 30.8734 39.0269Z" fill="#005EA2"/>
<path d="M49.0851 51.1654L50.346 51.8935C50.4567 51.9574 50.5777 51.9878 50.6969 51.9878C50.9399 51.9878 51.1762 51.8617 51.3065 51.6361C51.5006 51.2999 51.3854 50.8698 51.0491 50.6757L49.7882 49.9476C49.4517 49.7535 49.0218 49.8686 48.8277 50.205C48.6336 50.5411 48.7488 50.9712 49.0851 51.1654Z" fill="#005EA2"/>
<path d="M29.7617 45.0962C29.7617 44.7078 29.4469 44.3931 29.0586 44.3931H27.6025C27.2142 44.3931 26.8994 44.7078 26.8994 45.0962C26.8994 45.4846 27.2142 45.7993 27.6025 45.7993H29.0586C29.4469 45.7993 29.7617 45.4846 29.7617 45.0962Z" fill="#005EA2"/>
<path d="M50.1963 45.0962C50.1963 45.4846 50.511 45.7993 50.8994 45.7993H52.3554C52.7439 45.7993 53.0586 45.4846 53.0586 45.0962C53.0586 44.7078 52.7439 44.3931 52.3554 44.3931H50.8994C50.511 44.3931 50.1963 44.7079 50.1963 45.0962Z" fill="#005EA2"/>
<path d="M30.1703 49.9475L28.9093 50.6756C28.573 50.8698 28.4578 51.2998 28.6519 51.6361C28.7822 51.8616 29.0185 51.9877 29.2615 51.9877C29.3807 51.9877 29.5017 51.9574 29.6124 51.8934L30.8734 51.1654C31.2097 50.9712 31.3249 50.5412 31.1308 50.2049C30.9366 49.8686 30.5066 49.7535 30.1703 49.9475Z" fill="#005EA2"/>
<path d="M49.4373 40.3393C49.5565 40.3393 49.6775 40.3089 49.7882 40.245L51.0491 39.5169C51.3854 39.3227 51.5006 38.8927 51.3065 38.5564C51.1122 38.2201 50.6821 38.1051 50.346 38.2991L49.0851 39.0271C48.7488 39.2213 48.6336 39.6513 48.8277 39.9876C48.958 40.2132 49.1943 40.3393 49.4373 40.3393Z" fill="#005EA2"/>
<path d="M34.8707 53.9446C34.5345 53.7506 34.1044 53.8656 33.9103 54.202L33.1822 55.4629C32.9881 55.7992 33.1033 56.2292 33.4396 56.4234C33.5503 56.4873 33.6712 56.5177 33.7905 56.5177C34.0335 56.5177 34.2698 56.3916 34.4 56.166L35.1281 54.9051C35.3222 54.5688 35.207 54.1388 34.8707 53.9446Z" fill="#005EA2"/>
<path d="M45.088 36.2476C45.1987 36.3116 45.3196 36.342 45.4389 36.342C45.6819 36.342 45.9182 36.2159 46.0484 35.9903L46.7765 34.7294C46.9707 34.3931 46.8554 33.9631 46.5192 33.7689C46.1829 33.5747 45.7528 33.6899 45.5587 34.0262L44.8306 35.2872C44.6365 35.6234 44.7518 36.0534 45.088 36.2476Z" fill="#005EA2"/>
<path d="M40.0776 36.8636L37.5702 40.8756C37.3644 41.2048 37.4645 41.6387 37.7938 41.8445C38.1232 42.0503 38.5569 41.9501 38.7627 41.6208L40.5518 38.7582V43.5261C40.5518 44.0871 41.0083 44.5437 41.5693 44.5437H43.7533L39.4467 51.4342V46.6662C39.4467 46.1052 38.9902 45.6487 38.4291 45.6487H36.2452L36.9854 44.4642C37.1912 44.1349 37.0911 43.701 36.7618 43.4952C36.4324 43.2896 35.9986 43.3897 35.7929 43.7189L34.681 45.4981C34.485 45.8117 34.4746 46.2072 34.6538 46.5307C34.833 46.8541 35.174 47.055 35.5438 47.055H38.0403V52.7896C38.0403 53.2482 38.3365 53.6412 38.7773 53.7677C39.2189 53.8944 39.678 53.7171 39.9207 53.3289L45.3173 44.6942C45.5132 44.3806 45.5235 43.9851 45.3443 43.6617C45.165 43.3382 44.8241 43.1374 44.4544 43.1374H41.9578V37.4028C41.9578 36.9442 41.6616 36.5511 41.2208 36.4247C40.7803 36.2983 40.3207 36.4746 40.0776 36.8636Z" fill="#005EA2"/>
</svg>
