<svg width="80" height="80" viewBox="0 0 80 80" fill="none" xmlns="http://www.w3.org/2000/svg">
<path d="M0 40C0 17.9086 17.9086 0 40 0C62.0914 0 80 17.9086 80 40C80 62.0914 62.0914 80 40 80C17.9086 80 0 62.0914 0 40Z" fill="#DFE1E2"/>
<path d="M40.1596 38.1919L37.1696 38.1791C37.1654 38.1791 37.1614 38.1791 37.1571 38.1791C36.0732 38.1791 35.1876 39.0577 35.1807 40.1432C35.174 41.233 36.0549 42.1253 37.1463 42.1322L43.0807 42.1577C44.0164 42.2025 45.1169 41.28 45.0696 40.1685V30.7075C45.0696 29.6176 44.183 28.731 43.0931 28.731C42.0033 28.731 41.1166 29.6176 41.1166 30.7075V37.1595L36.3846 32.3562C36.1121 32.0795 35.6669 32.0762 35.3903 32.3488C35.1138 32.6213 35.1104 33.0664 35.3829 33.3431L40.1596 38.1919ZM43.3898 40.6683C43.3897 40.6683 43.3897 40.6683 43.3896 40.6683C43.2998 40.7233 43.1991 40.7531 43.088 40.7513L37.1538 40.7258C36.8393 40.7238 36.585 40.4663 36.587 40.152C36.5889 39.8386 36.8444 39.5852 37.1586 39.5852H37.1622L43.0966 39.6107C43.4111 39.6127 43.6654 39.8701 43.6634 40.1847C43.6623 40.3835 43.5599 40.5644 43.3898 40.6683ZM43.0931 30.1372C43.4075 30.1372 43.6634 30.3931 43.6634 30.7075V38.2899C43.486 38.2363 43.2986 38.2058 43.1041 38.2046L42.5228 38.2021V30.7075C42.5228 30.3931 42.7787 30.1372 43.0931 30.1372Z" fill="#005EA2"/>
<path d="M59.0639 26.4932C58.8129 26.1969 58.3694 26.1598 58.0729 26.4108C57.7766 26.6617 57.7397 27.1054 57.9905 27.4017C60.9589 30.9088 62.5938 35.383 62.5938 40.0001C62.5938 45.2164 60.562 50.1219 56.8728 53.8129C53.1836 57.5021 48.2781 59.5338 43.06 59.5338C40.6108 59.5338 38.1971 59.0779 35.9479 58.202H40.3215C41.2213 58.3364 42.1421 58.4051 43.06 58.4051C53.2085 58.4051 61.465 50.1486 61.465 40.0001C61.465 29.8515 53.2085 21.5951 43.06 21.5951C41.7213 21.5951 40.3886 21.7415 39.0929 22.0268C38.8127 21.881 38.4948 21.798 38.1576 21.798H35.9479C38.1971 20.9221 40.6108 20.4662 43.06 20.4662C47.7221 20.4662 52.229 22.1288 55.7506 25.1476C55.8831 25.2612 56.0458 25.3169 56.2078 25.3169C56.406 25.3169 56.6029 25.2337 56.742 25.0714C56.9946 24.7766 56.9606 24.3327 56.6657 24.0799C52.8895 20.8429 48.0575 19.0601 43.06 19.0601C39.4067 19.0601 35.8259 20.0067 32.6905 21.7981H26.6883C25.5669 21.7981 24.6546 22.7104 24.6546 23.8317C24.6546 24.9531 25.5669 25.8654 26.6883 25.8654H31.2723C27.0949 29.3442 24.655 34.4853 24.655 40.0001C24.655 42.0814 24.9983 44.1117 25.6744 46.0506H24.4773C23.9784 44.5137 23.6723 42.9133 23.568 41.2854C23.5443 40.9152 23.2372 40.6272 22.8663 40.6272H18.0334C17.6876 40.6272 17.4062 40.3459 17.4062 40.0001C17.4062 39.833 17.4716 39.6757 17.5914 39.5559C17.709 39.4378 17.866 39.3729 18.0335 39.3729H22.8663C23.2371 39.3729 23.5443 39.0849 23.568 38.7147C23.811 34.9312 25.1376 31.3337 27.4048 28.3111C27.6377 28.0005 27.5747 27.5597 27.2642 27.3267C26.9535 27.0938 26.5128 27.1568 26.2798 27.4674C23.98 30.5336 22.5825 34.1508 22.2172 37.9665H18.0334C17.4891 37.9665 16.9783 38.1786 16.596 38.5624C16.2117 38.9467 16 39.4572 16 40.0001C16 41.1213 16.9122 42.0335 18.0334 42.0335H22.2171C22.3478 43.4 22.6135 44.7448 23.0057 46.0506C21.885 46.0512 20.9734 46.9632 20.9734 48.0842C20.9734 49.2056 21.8856 50.1178 23.007 50.1178H24.7159C25.5147 51.5617 26.4855 52.908 27.6104 54.1347H18.0336C16.9123 54.1348 16 55.0469 16 56.1684C16 57.2898 16.9123 58.202 18.0336 58.202H32.6904C35.8258 59.9935 39.4065 60.9401 43.0599 60.9401C48.6537 60.9401 53.9123 58.7621 57.8673 54.8071C61.8221 50.8504 64 45.5919 64 40.0001C64 35.0507 62.247 30.2539 59.0639 26.4932ZM26.0608 23.8317C26.0608 23.4858 26.3422 23.2044 26.6882 23.2044H38.1575C38.3 23.2044 38.4311 23.2527 38.5366 23.333C38.5395 23.3352 38.5424 23.3373 38.5453 23.3395C38.691 23.4545 38.785 23.6322 38.785 23.8317C38.785 24.1777 38.5036 24.4591 38.1576 24.4591H26.6883C26.3422 24.4591 26.0608 24.1778 26.0608 23.8317ZM26.0765 40.7032H27.3419C27.7303 40.7032 28.045 40.3884 28.045 40.0001C28.045 39.6117 27.7303 39.2969 27.3419 39.2969H26.0774C26.2436 35.2284 27.8458 31.4177 30.5508 28.4854L31.4483 29.383C31.5857 29.5202 31.7656 29.5889 31.9456 29.5889C32.1255 29.5889 32.3055 29.5203 32.4427 29.3831C32.7174 29.1085 32.7174 28.6632 32.4428 28.3887L31.5473 27.4932C32.1889 26.9037 32.8804 26.3592 33.6185 25.8656H38.1576C39.279 25.8656 40.1912 24.9533 40.1912 23.8319C40.1912 23.6325 40.1619 23.4399 40.1082 23.2577C40.849 23.1279 41.6009 23.0487 42.3569 23.0177V24.2819C42.3569 24.6702 42.6716 24.9851 43.06 24.9851C43.4484 24.9851 43.7631 24.6702 43.7631 24.2819V23.017C47.9207 23.187 51.6976 24.8569 54.5662 27.4994L53.6772 28.3885C53.4026 28.6631 53.4026 29.1083 53.6772 29.3828C53.8145 29.52 53.9945 29.5887 54.1744 29.5887C54.3543 29.5887 54.5343 29.5201 54.6717 29.3828L55.5607 28.4937C58.2032 31.3624 59.8731 35.1393 60.0432 39.2968H58.7781C58.3897 39.2968 58.075 39.6117 58.075 40C58.075 40.3883 58.3897 40.7031 58.7781 40.7031H60.0432C59.8731 44.8606 58.2032 48.6375 55.5607 51.5062L54.6717 50.6172C54.397 50.3426 53.9519 50.3426 53.6773 50.6172C53.4027 50.8917 53.4027 51.337 53.6773 51.6115L54.5663 52.5005C51.6576 55.1799 47.8154 56.8597 43.5893 56.9896C43.7008 56.7383 43.7632 56.4605 43.7632 56.1682C43.7632 55.0468 42.8509 54.1346 41.7296 54.1346H33.6162C32.8884 53.647 32.1965 53.1012 31.5498 52.5047L32.4431 51.6115C32.7177 51.3369 32.7177 50.8917 32.4431 50.6172C32.1684 50.3426 31.7233 50.3426 31.4487 50.6172L30.5559 51.5099C30.1082 51.024 29.6889 50.5125 29.3008 49.9795C30.0596 49.684 30.5989 48.9461 30.5989 48.084C30.5989 46.9627 29.6867 46.0504 28.5653 46.0504H27.171C26.5175 44.3392 26.151 42.5454 26.0765 40.7032ZM22.3798 48.0842C22.3798 47.7383 22.6612 47.4568 23.0071 47.4568H28.5649C28.9109 47.4568 29.1923 47.7383 29.1923 48.0842C29.1923 48.4302 28.9109 48.7116 28.5649 48.7116H23.0071C22.6612 48.7116 22.3798 48.4302 22.3798 48.0842ZM29.248 53.8127C28.1274 52.6929 27.1536 51.4536 26.3419 50.1178H27.6849C28.6753 51.6181 29.8939 52.9786 31.2762 54.1347H29.5785C29.4669 54.0282 29.3562 53.9209 29.248 53.8127ZM17.4062 56.1684C17.4062 55.8224 17.6877 55.541 18.0336 55.541H41.7294C42.0753 55.541 42.3568 55.8224 42.3568 56.1684C42.3568 56.5143 42.0753 56.7957 41.7294 56.7957H18.0336C17.6877 56.7957 17.4062 56.5143 17.4062 56.1684Z" fill="#005EA2"/>
<path d="M18.0336 33.9496H20.542C21.6633 33.9496 22.5755 33.0373 22.5755 31.9159C22.5755 30.7946 21.6633 29.8823 20.542 29.8823H18.0336C16.9123 29.8823 16 30.7946 16 31.9159C16 33.0373 16.9123 33.9496 18.0336 33.9496ZM18.0336 31.2886H20.542C20.8878 31.2886 21.1693 31.57 21.1693 31.9159C21.1693 32.2619 20.8878 32.5433 20.542 32.5433H18.0336C17.6877 32.5433 17.4062 32.2619 17.4062 31.9159C17.4062 31.57 17.6877 31.2886 18.0336 31.2886Z" fill="#005EA2"/>
<path d="M16.7031 24.5349H22.4398C22.8282 24.5349 23.1429 24.2201 23.1429 23.8318C23.1429 23.4435 22.8282 23.1287 22.4398 23.1287H16.7031C16.3147 23.1287 16 23.4435 16 23.8318C16 24.2201 16.3147 24.5349 16.7031 24.5349Z" fill="#005EA2"/>
<path d="M18.6379 48.7874C19.0263 48.7874 19.3411 48.4725 19.3411 48.0842C19.3411 47.6959 19.0263 47.3811 18.6379 47.3811H16.7031C16.3147 47.3811 16 47.6959 16 48.0842C16 48.4725 16.3147 48.7874 16.7031 48.7874H18.6379Z" fill="#005EA2"/>
</svg>
