<svg width="128" height="128" viewBox="0 0 128 128" fill="none" xmlns="http://www.w3.org/2000/svg">
<path d="M117.375 5.82422H27.1625C26.127 5.82422 25.2875 6.66347 25.2875 7.69922C25.2875 8.73497 26.127 9.57422 27.1625 9.57422H117.375C121.166 9.57422 124.25 12.6582 124.25 16.4492V29.1212H3.75V16.4492C3.75 12.6585 6.834 9.57422 10.625 9.57422H18.4125C19.448 9.57422 20.2875 8.73497 20.2875 7.69922C20.2875 6.66347 19.448 5.82422 18.4125 5.82422H10.625C4.76625 5.82422 0 10.5905 0 16.4492V107.668C0 113.527 4.76625 118.293 10.625 118.293H48.4953C53.1185 120.77 58.3983 122.176 64 122.176C69.6018 122.176 74.8815 120.77 79.5048 118.293H117.375C123.234 118.293 128 113.527 128 107.668V16.4492C128 10.5905 123.234 5.82422 117.375 5.82422ZM37.2557 77.5242H47.687C47.0868 80.5977 46.7183 83.9017 46.6203 87.3632H34.8717C35.0877 83.9435 35.8947 80.6245 37.2557 77.5242ZM73.674 116.778C76.1003 113.758 78.0847 109.612 79.4355 104.702H88.7452C85.26 110.259 79.956 114.565 73.674 116.778ZM73.3053 68.1122C74.1665 69.8347 74.909 71.7352 75.5245 73.774H65.875V60.3527C68.5888 61.2235 71.2215 63.945 73.3053 68.1122ZM76.4805 77.5242C77.1335 80.613 77.5238 83.9302 77.628 87.3632H65.875V77.5242H76.4805ZM77.6277 91.1132C77.5235 94.5462 77.1332 97.8635 76.4802 100.952H65.875V91.1132H77.6277ZM75.5242 104.702C74.9087 106.741 74.1663 108.642 73.305 110.364C71.2215 114.531 68.5887 117.253 65.8747 118.124V104.702H75.5242ZM62.125 100.952H51.5195C50.8665 97.8637 50.4763 94.5465 50.372 91.1135H62.125V100.952ZM62.125 104.702V118.124C59.4113 117.253 56.7785 114.531 54.6948 110.364C53.8335 108.642 53.0913 106.741 52.4757 104.702H62.125ZM90.733 100.952H80.313C80.9133 97.879 81.2818 94.575 81.3798 91.1135H93.128C92.9062 94.5922 92.0723 97.9077 90.733 100.952ZM81.3798 87.3632C81.2818 83.9015 80.9135 80.5977 80.313 77.5242H90.733C92.0725 80.569 92.9062 83.8842 93.128 87.3632H81.3798ZM79.4355 73.7742C78.0847 68.8642 76.1003 64.7182 73.674 61.6985C79.956 63.9117 85.26 68.2172 88.7452 73.7742H79.4355ZM62.125 60.353V73.7742H52.4757C53.0913 71.7355 53.8338 69.8347 54.6948 68.1125C56.7785 63.945 59.4113 61.2235 62.125 60.353ZM62.125 77.5242V87.3632H50.3722C50.4765 83.9302 50.8667 80.613 51.5197 77.5242H62.125ZM46.6203 91.1132C46.7183 94.575 47.0865 97.8787 47.687 100.952H37.267C35.9277 97.9075 35.0938 94.5922 34.872 91.1132H46.6203ZM48.5645 104.702C49.9152 109.612 51.8997 113.758 54.326 116.778C48.044 114.565 42.74 110.259 39.2547 104.702H48.5645ZM124.25 107.668C124.25 111.459 121.166 114.543 117.375 114.543H85.0622C92.3148 108.496 96.9375 99.397 96.9375 89.2382C96.9375 71.1897 82.282 56.3007 64 56.3007C56.5457 56.3007 49.2417 58.8607 43.4333 63.5095C42.6248 64.1565 42.494 65.3365 43.141 66.145C43.7878 66.9532 44.968 67.0847 45.7765 66.4372C48.3908 64.345 51.276 62.7467 54.347 61.6722C51.9113 64.694 49.9193 68.8497 48.5645 73.774H39.2405C39.506 73.35 39.783 72.932 40.0715 72.5197C40.6652 71.6712 40.4592 70.5022 39.6107 69.9085C38.7625 69.3142 37.5933 69.5202 36.9995 70.369C33.1152 75.917 31.0623 82.442 31.0623 89.2382C31.0623 99.397 35.6852 108.496 42.9375 114.543H10.625C6.834 114.543 3.75 111.459 3.75 107.668V48.4022H78.2968C79.3325 48.4022 80.1718 47.563 80.1718 46.5272C80.1718 45.4915 79.3325 44.6522 78.2968 44.6522H3.75V32.871H124.25V36.8865H104.122C102.787 36.8865 101.531 37.4065 100.587 38.3507L94.6523 44.2855C94.4157 44.5217 94.1017 44.652 93.768 44.652H87.2968C86.261 44.652 85.4218 45.4912 85.4218 46.527C85.4218 47.5627 86.261 48.402 87.2968 48.402H93.768C95.1032 48.402 96.3585 47.882 97.3037 46.9377L103.239 41.0027C103.475 40.7667 103.788 40.6365 104.122 40.6365H124.25V107.668Z" fill="black"/>
<path d="M120.234 19.3476C120.234 16.1728 117.651 13.5898 114.477 13.5898C111.302 13.5898 108.719 16.1728 108.719 19.3476C108.719 22.5223 111.302 25.1053 114.477 25.1053C117.651 25.1053 120.234 22.5223 120.234 19.3476ZM112.469 19.3476C112.469 18.2403 113.369 17.3398 114.476 17.3398C115.583 17.3398 116.484 18.2406 116.484 19.3476C116.484 20.4546 115.583 21.3553 114.476 21.3553C113.369 21.3553 112.469 20.4546 112.469 19.3476Z" fill="black"/>
<path d="M104.703 19.3476C104.703 16.1728 102.12 13.5898 98.9453 13.5898C95.7705 13.5898 93.1875 16.1726 93.1875 19.3476C93.1875 22.5226 95.7705 25.1053 98.9453 25.1053C102.12 25.1053 104.703 22.5223 104.703 19.3476ZM96.9375 19.3476C96.9375 18.2403 97.8383 17.3398 98.9453 17.3398C100.052 17.3398 100.953 18.2406 100.953 19.3476C100.953 20.4546 100.052 21.3553 98.9453 21.3553C97.8383 21.3553 96.9375 20.4546 96.9375 19.3476Z" fill="black"/>
<path d="M89.172 19.3476C89.172 16.1728 86.589 13.5898 83.4142 13.5898C80.2395 13.5898 77.6565 16.1728 77.6565 19.3476C77.6565 22.5223 80.2395 25.1053 83.4142 25.1053C86.589 25.1053 89.172 22.5223 89.172 19.3476ZM81.4062 19.3476C81.4062 18.2403 82.307 17.3398 83.414 17.3398C84.521 17.3398 85.4217 18.2406 85.4217 19.3476C85.4217 20.4546 84.521 21.3553 83.414 21.3553C82.307 21.3553 81.4062 20.4546 81.4062 19.3476Z" fill="black"/>
<path d="M7.76538 17.3398V21.3553C7.76538 23.4231 9.44763 25.1053 11.5154 25.1053H38.8279C40.8956 25.1053 42.5779 23.4231 42.5779 21.3553V17.3398C42.5779 15.2721 40.8956 13.5898 38.8279 13.5898H11.5154C9.44788 13.5898 7.76538 15.2721 7.76538 17.3398ZM38.8304 21.3556H11.5154V17.3398H38.8279L38.8304 21.3556Z" fill="black"/>
<path d="M93.0546 38.7617C93.0546 37.726 92.2154 36.8867 91.1796 36.8867H25.1716C24.1361 36.8867 23.2966 37.726 23.2966 38.7617C23.2966 39.7975 24.1361 40.6367 25.1716 40.6367H91.1794C92.2151 40.6367 93.0546 39.7972 93.0546 38.7617Z" fill="black"/>
<path d="M17.4062 40.6367C18.4418 40.6367 19.2812 39.7973 19.2812 38.7617C19.2812 37.7262 18.4418 36.8867 17.4062 36.8867C16.3707 36.8867 15.5312 37.7262 15.5312 38.7617C15.5312 39.7973 16.3707 40.6367 17.4062 40.6367Z" fill="black"/>
<path d="M9.64038 40.6367C10.6759 40.6367 11.5154 39.7973 11.5154 38.7617C11.5154 37.7262 10.6759 36.8867 9.64038 36.8867C8.60485 36.8867 7.76538 37.7262 7.76538 38.7617C7.76538 39.7973 8.60485 40.6367 9.64038 40.6367Z" fill="black"/>
</svg>
