<svg id="Capa_1" enable-background="new 0 0 512 512" height="512" viewBox="0 0 512 512" width="512" xmlns="http://www.w3.org/2000/svg"><g><path d="m481.888 156.912c.81-2.472 1.254-5.108 1.254-7.846v-123.722c0-13.975-11.411-25.344-25.436-25.344h-155.446c-14.025 0-25.436 11.369-25.436 25.344v8.902c-33.533-.672-68.387 6.287-99.202 19.801-28.212 12.313-53.438 29.731-75.046 51.765h-26.576c-4.142 0-7.5 3.358-7.5 7.5s3.358 7.5 7.5 7.5h104.882c5.754 0 10.436 4.641 10.436 10.344v123.721c0 5.704-4.682 10.345-10.436 10.345h-14.349c-10.729 0-19.458 8.701-19.458 19.396v17.47l-46.054-33.188c-3.338-2.406-7.28-3.677-11.399-3.677h-64.186c-5.754 0-10.436-4.641-10.436-10.345v-123.721c0-5.704 4.682-10.344 10.436-10.344h15.564c4.142 0 7.5-3.358 7.5-7.5s-3.358-7.5-7.5-7.5h-15.564c-14.025 0-25.436 11.369-25.436 25.344v123.721c0 13.975 11.411 25.345 25.436 25.345h8.881c1.778 61.143 26.418 118.367 69.857 161.806 45.122 45.121 105.115 69.971 168.927 69.971 33.177 0 65.293-6.674 95.458-19.836 29.134-12.712 55.096-30.852 77.166-53.915 2.864-2.993 2.76-7.74-.233-10.604-2.994-2.864-7.74-2.76-10.604.233-16.479 17.22-35.175 31.437-55.462 42.419-9.532-12.686-23.519-27.95-32.87-42.58l1.788-1.289c.768-.554 1.677-.846 2.628-.846h64.186c14.025 0 25.436-11.369 25.436-25.344v-123.721c0-1.675-.168-3.31-.481-4.895 12.89-15.429 19.951-35.097 19.951-55.852-.1-14.759-4.27-29.019-11.927-41.36h9.568c5.264 0 10.16-1.602 14.223-4.342 16.427 31.673 25.072 67.079 25.072 103.033 0 46.297-14.006 90.723-40.504 128.476-2.38 3.39-1.561 8.068 1.83 10.447 2.238 1.608 7.05 2.252 10.447-1.83 28.279-40.29 43.227-87.696 43.227-137.093 0-40.738-10.402-80.827-30.112-116.189zm-301.006-51.099h-56.612c17.613-15.735 37.295-28.388 58.426-37.713l5.014 5.785c8.417 11.05 13.671 26.913 11.948 40.194-4.654-5.076-11.348-8.266-18.776-8.266zm174.676 358.615c3.586 4.368 7.034 8.573 10.2 12.678-28.669 13.037-60.073 19.894-92.657 19.894-83.92 0-157.19-46.417-195.523-114.917 10.574-8.721 24.195-19.32 35.077-18.058 4.441.516 8.373 3.111 12.02 7.937 9.126 12.064 24.526 14.415 35.315 15.134 16.11-.996 30.466-9.225 39.429-22.493 2.343-3.416 1.474-8.084-1.942-10.427-3.416-2.344-8.084-1.473-10.427 1.942-6.445 9.396-14.957 14.48-26.746 15.963-12.244-.899-19.559-3.738-23.665-9.167-6.161-8.15-13.648-12.79-22.254-13.79-15.885-1.841-31.508 9.32-43.835 19.326-12.724-26.921-20.235-56.765-21.224-88.228h40.295c.952 0 1.861.292 2.629.846l48.453 34.918c2.352 1.695 5.108 2.557 7.883 2.557 2.1 0 4.21-.494 6.163-1.493 4.519-2.313 7.325-6.897 7.325-11.965v-20.467c0-2.424 2-4.396 4.458-4.396h14.349c14.025 0 25.436-11.37 25.436-25.345v-32.007c8.927 5.505 23.066 10.392 34.576 10.079 12.446 0 24.833-3.712 35.494-11.034 13.914-9.556 23.494-24.472 26.285-40.923.362-2.136.679-4.336.951-6.583h12.985c2.458 0 4.457 1.972 4.457 4.396v20.467c0 5.067 2.807 9.652 7.325 11.965 3.812 1.784 8.457 2.389 14.045-1.063l30.874-22.249c-1.193 11.615-4.317 23.836-18.543 38.033-6.681 6.801-10.516 15.886-10.72 25.213h-84.335c-14.025 0-25.436 11.37-25.436 25.345v3.242c-13.924 5.308-25.072 17.024-30.068 31.782-1.089 3.218-2.794 8.699-4.378 13.934-1.211 3.961 1.018 8.154 4.979 9.365 3.02.848 7.296-.198 9.365-4.979 1.063-3.478 2.521-8.328 4.243-13.511 2.888-8.532 8.6-15.61 15.86-19.975v103.862c0 13.975 11.411 25.344 25.436 25.344h14.349c2.458 0 4.457 1.972 4.457 4.396v20.466c0 5.067 2.807 9.651 7.325 11.965 1.953 1 4.063 1.493 6.164 1.493 2.775 0 5.532-.862 7.883-2.556l34.488-24.853c6.324 9.818 13.849 19.01 21.18 27.937zm70.038-64.191c0 5.704-4.682 10.344-10.436 10.344h-64.186c-4.12 0-8.062 1.272-11.399 3.678l-46.055 33.189v-17.471c0-10.695-8.729-19.396-19.457-19.396h-14.349c-5.754 0-10.436-4.641-10.436-10.344v-123.72c0-5.704 4.682-10.345 10.436-10.345h92.635c.008 0 .015.002.023.002.011 0 .022-.002.033-.002h62.756c5.754 0 10.436 4.641 10.436 10.345v123.72zm19.47-184.416c0 15.236-4.597 29.757-13.056 41.732-4.491-3.966-10.391-6.381-16.85-6.381h-56.106c.2-5.417 2.48-10.697 6.362-14.648 21.123-21.079 22.407-39.759 23.438-54.768.126-1.844.253-3.615.409-5.327l1.626-1.172c.769-.554 1.678-.847 2.63-.847h36.092c9.878 11.564 15.351 26.181 15.455 41.411zm12.64-56.411h-64.186c-4.119 0-8.061 1.271-11.399 3.677l-4.481 3.229c-.017.012-.034.024-.051.036l-41.523 29.924v-17.471c0-10.695-8.729-19.396-19.457-19.396h-14.349c-5.754 0-10.436-4.641-10.436-10.344v-28.065c0-4.142-3.358-7.5-7.5-7.5s-7.5 3.358-7.5 7.5v28.065c0 9.115 4.856 17.118 12.123 21.584-.286 2.694-.636 5.321-1.063 7.836-2.115 12.472-9.401 23.795-19.988 31.066-18.677 13.146-43.842 9.827-61.578-4.852v-67.815c16.092-21.223 8.041-54.981-8.872-74.67 24.144-8.66 52.191-13.541 79.377-12.969v36.755c0 4.142 3.358 7.5 7.5 7.5s7.5-3.358 7.5-7.5v-60.656c0-5.704 4.682-10.344 10.436-10.344h155.446c5.754 0 10.436 4.641 10.436 10.344v123.721c.001 5.704-4.681 10.345-10.435 10.345z"/><path d="m426.308 49.753h-38.825v-12.753c0-4.142-3.358-7.5-7.5-7.5s-7.5 3.358-7.5 7.5v12.753h-38.825c-4.142 0-7.5 3.358-7.5 7.5s3.358 7.5 7.5 7.5h15.551c3.601 15.961 10.724 30.639 20.644 43.123-7.591 7.247-16.472 13.255-26.375 17.669l-10.333 4.605c-3.784 1.686-5.484 6.12-3.798 9.903 1.244 2.792 3.984 4.449 6.855 4.449 1.02 0 2.057-.209 3.048-.651l10.333-4.605c11.399-5.08 21.635-11.977 30.4-20.293 8.765 8.316 19.001 15.213 30.4 20.293l10.333 4.605c2.636 1.092 7.58.786 9.903-3.798 1.686-3.783-.014-8.217-3.798-9.903l-10.333-4.605c-9.904-4.413-18.784-10.422-26.375-17.669 9.92-12.484 17.042-27.162 20.643-43.123h15.551c4.142 0 7.5-3.358 7.5-7.5s-3.357-7.5-7.499-7.5zm-46.325 46.693c-7.028-9.387-12.272-20.113-15.335-31.693h30.669c-3.063 11.58-8.306 22.306-15.334 31.693z"/><path d="m64.983 245.017c3.876 1.462 8.204-.494 9.665-4.369l6.509-17.247h43.945l6.577 17.269c1.14 2.993 3.988 4.833 7.01 4.833.887 0 1.79-.159 2.668-.493 3.871-1.474 5.813-5.807 4.339-9.678l-33.794-88.732c-.022-.057-.044-.114-.067-.171-1.472-3.597-4.934-5.923-8.82-5.927-.004 0-.006 0-.01 0-3.881 0-7.344 2.319-8.822 5.909-.028.068-.055.137-.082.207l-33.487 88.736c-1.463 3.873.493 8.201 4.369 9.663zm38.045-79.573 16.361 42.957h-32.572z"/><path d="m394.886 293h-34.891c-4.142 0-7.5 3.358-7.5 7.5s3.358 7.5 7.5 7.5h9.945v23.5h-29.833c1.743-3.549 2.724-7.537 2.724-11.75 0-14.75-12-26.75-26.75-26.75h-21.656c-4.142 0-7.5 3.358-7.5 7.5s3.358 7.5 7.5 7.5h21.656c6.479 0 11.75 5.271 11.75 11.75s-5.271 11.75-11.75 11.75h-24.063c-4.142 0-7.5 3.358-7.5 7.5s3.358 7.5 7.5 7.5h24.063c6.479 0 11.75 5.271 11.75 11.75 0 6.589-5.161 11.75-11.75 11.75-10.362 0-22.125-1.168-30.791-9.834-2.929-2.929-7.678-2.929-10.606 0-2.929 2.929-2.929 7.678 0 10.606 12.611 12.611 28.748 14.228 41.397 14.228 14.75 0 26.75-12 26.75-26.75 0-4.213-.981-8.201-2.724-11.75h29.833v31c0 4.142 3.358 7.5 7.5 7.5s7.5-3.358 7.5-7.5v-69.5h9.945c4.142 0 7.5-3.358 7.5-7.5s-3.357-7.5-7.499-7.5z"/></g></svg>
