<svg id="Capa_1" enable-background="new 0 0 512 512" height="512" viewBox="0 0 512 512" width="512" xmlns="http://www.w3.org/2000/svg"><g><path d="m78.141 62.578c-11.726 0-21.266 9.539-21.266 21.265 0 4.143 3.357 7.5 7.5 7.5s7.5-3.357 7.5-7.5c0-3.454 2.811-6.265 6.266-6.265 3.454 0 6.265 2.811 6.265 6.265 0 4.143 3.357 7.5 7.5 7.5s7.5-3.357 7.5-7.5c-.001-11.726-9.54-21.265-21.265-21.265zm81.049 31.699c-3.122-2.722-7.861-2.397-10.581.728-2.259 2.592-5.52 4.079-8.946 4.079-3.427 0-6.689-1.487-8.947-4.079-2.72-3.124-7.459-3.449-10.581-.728-3.123 2.721-3.449 7.458-.728 10.581 5.107 5.863 12.491 9.226 20.256 9.226s15.147-3.362 20.255-9.226c2.722-3.123 2.396-7.86-.728-10.581zm63.26-10.435c0-11.726-9.54-21.265-21.266-21.265s-21.265 9.539-21.265 21.265c0 4.143 3.357 7.5 7.5 7.5s7.5-3.357 7.5-7.5c0-3.454 2.811-6.265 6.265-6.265 3.455 0 6.266 2.811 6.266 6.265 0 4.143 3.357 7.5 7.5 7.5s7.5-3.357 7.5-7.5zm-55.588 177.412c-4.143 0-7.5 3.358-7.5 7.5v19.149h-42.75c-4.143 0-7.5 3.358-7.5 7.5 0 4.143 3.357 7.5 7.5 7.5h70.825c-1.635 17.691-10.19 37.072-23.064 54.056-7.171-6.447-13.002-13.806-16.701-20.747-1.948-3.655-6.489-5.04-10.146-3.092-3.655 1.948-5.039 6.491-3.092 10.147 4.404 8.263 11.416 17.249 20.251 25.141-7.724 8.19-16.464 15.461-25.852 21.222-3.53 2.167-4.636 6.785-2.47 10.315 2.171 3.537 6.792 4.632 10.315 2.47 10.649-6.535 20.834-15.05 29.907-24.866 8.657 5.649 18.393 9.968 28.734 11.85 4.045.739 7.975-1.936 8.722-6.036.741-4.076-1.961-7.98-6.036-8.722-7.571-1.377-14.939-4.514-21.69-8.693 13.817-18.191 24.496-40.354 26.168-63.044h14.63c4.143 0 7.5-3.357 7.5-7.5 0-4.142-3.357-7.5-7.5-7.5h-42.749v-19.149c-.002-4.144-3.359-7.501-7.502-7.501zm306.386 55.927c-.597-2.217.136-4.566 1.914-6.131 24.444-21.516 36.838-51.781 36.838-89.952 0-49.969-20.899-85.947-62.117-106.939-3.689-1.877-8.206-.411-10.087 3.28-1.88 3.69-.411 8.207 3.28 10.087 35.781 18.223 53.924 49.705 53.924 93.572 0 33.672-10.682 60.148-31.748 78.692-6.096 5.365-8.581 13.525-6.486 21.295 4.34 16.102 10.197 30.991 17.409 44.253 2.958 5.443-.889 12.041-7.255 11.929-28.675-.798-58.378-14.955-79.456-37.869-4.459-4.849-10.728-7.33-17.2-6.795-11.9.972-25.103 1.315-38.858.855-.936-28.5-9.006-52.295-24.092-71.12l6.762-17.754h58.422l8.732 23.139c1.464 3.88 5.794 5.829 9.665 4.368 3.875-1.462 5.831-5.789 4.368-9.665-42.864-113.579-42.401-112.362-42.495-112.597-2.674-6.5-9.436-6.279-9.336-6.247-4.307.004-8.006 2.722-9.391 6.437l-38.162 100.2c-4.525-4.095-9.472-7.886-14.851-11.361-22.695-14.663-52.644-23.474-89.266-26.303 2.009-35.385 16.718-62.085 43.823-79.408 25.556-16.332 61.778-24.613 107.661-24.613 24.572 0 46.675 2.431 65.692 7.226 4.013 1.015 8.093-1.423 9.105-5.439 1.013-4.016-1.423-8.093-5.439-9.105-26.844-6.768-57.321-8.542-85.202-7.34-15.048-60.325-71.1-92.161-162.649-92.161-93.455-.001-166.753 34.088-166.753 127.564 0 45.688 17.807 82.611 58.329 104.904-40.154 22.074-58.329 58.562-58.329 104.932 0 38.173 12.394 68.436 36.838 89.951 1.778 1.566 2.512 3.915 1.914 6.132-2.682 9.948-6.021 19.494-9.927 28.373-1.668 3.792.054 8.217 3.846 9.885 3.79 1.67 8.217-.053 9.885-3.846 4.208-9.568 7.802-19.833 10.679-30.508 2.095-7.77-.391-15.929-6.485-21.295-21.068-18.543-31.75-45.018-31.75-78.692 0-84.727 67.382-112.564 151.754-112.564 46.172 0 82.554 8.38 108.133 24.907 28.945 18.701 43.622 48.193 43.622 87.657s-14.677 68.956-43.622 87.657c-36.634 23.67-92.207 27.354-135.148 23.848-6.471-.537-12.743 1.946-17.202 6.795-21.077 22.913-50.78 37.07-79.456 37.869-3.28.073-5.332-1.636-6.246-2.675-2.733-3.111-7.473-3.419-10.584-.684-3.112 2.733-3.418 7.473-.684 10.584 4.473 5.092 10.976 7.954 17.932 7.768 33.128-.923 65.96-16.489 90.077-42.709 1.309-1.421 3.102-2.148 4.941-2 46.63 3.813 104.917-.617 144.511-26.197 31.129-20.113 47.988-50.672 50.218-90.913 14.213.467 27.878.105 40.241-.906 1.824-.147 3.631.579 4.939 2 24.118 26.221 56.95 41.787 90.077 42.709 17.905.465 29.34-18.472 20.85-34.088-6.652-12.231-12.07-26.023-16.105-40.992zm-127.828-149.644 23.416 62.048h-47.048zm-178.666 44.013c-35.761 0-66.219 4.878-90.967 14.523-42.22-18.508-60.787-51.962-60.787-96.794 0-84.727 67.379-112.565 151.754-112.565 64.39 0 130.208 16.415 147.4 78.168-34.485 3.13-62.871 11.71-84.646 25.626-31.45 20.099-48.478 50.778-50.727 91.239-3.942-.127-7.947-.197-12.027-.197z"/></g></svg>
