<svg id="Capa_1" enable-background="new 0 0 512 512" height="512" viewBox="0 0 512 512" width="512" xmlns="http://www.w3.org/2000/svg"><g><path d="m467 150.993h-30.931c-10.13-24.097-25.22-46.317-44.333-64.844-30.042-29.121-68.937-48.096-109.518-53.43-67.246-8.839-133.155 16.916-176.301 68.894-12.382 14.917-22.458 31.61-29.896 49.38h-31.021c-24.813 0-45 20.187-45 45v60c0 24.813 20.187 45 45 45h61.45l-6.426-19.66c-18.726-57.293-8.164-115.814 28.977-160.559 36.522-44 92.34-65.798 149.307-58.311 71.355 9.379 129.132 65.417 140.5 136.275 7.758 48.351-5.776 97.209-37.133 134.049-31.429 36.924-77.151 58.139-125.444 58.206-24.94.034-45.23 20.222-45.23 45 0 24.813 20.187 45 45 45s45-20.187 45-45v-20.265c39.959-9.49 76.286-31.5 103.52-63.497 13.228-15.54 23.761-32.712 31.485-51.239h30.994c24.813 0 45-20.187 45-45v-60c0-24.812-20.187-44.999-45-44.999zm-400.935 120h-21.065c-8.271 0-15-6.729-15-15v-60c0-8.271 6.729-15 15-15h21.244c-.534 2.248-1.028 4.508-1.48 6.774-5.475 27.432-5.03 55.346 1.301 83.226zm204.935 165c0 8.271-6.729 15-15 15s-15-6.729-15-15c0-8.26 6.851-14.989 15.271-15 4.934-.007 9.85-.201 14.729-.576zm211-180c0 8.271-6.729 15-15 15h-21.254c5.956-25.05 6.87-50.907 2.683-77.008-.699-4.358-1.567-8.691-2.58-12.992h21.151c8.271 0 15 6.729 15 15z"/><path d="m181 210.993h30v30h-30z"/><path d="m241 210.993h30v30h-30z"/><path d="m301 210.993h30v30h-30z"/><path d="m121 330.993v30h135c74.439 0 135-60.561 135-135s-60.561-135-135-135-135 60.561-135 135c0 30.339 10.189 59.673 28.829 83.389-3.616 12.643-15.162 21.611-28.829 21.611zm135-210c57.897 0 105 47.103 105 105s-47.103 105-105 105h-83.024c4.299-7.438 6.975-15.765 7.772-24.472l.589-6.422-4.257-4.845c-16.817-19.148-26.08-43.745-26.08-69.261 0-57.897 47.103-105 105-105z"/></g></svg>
