<?xml version="1.0" encoding="iso-8859-1"?>
<!-- Generator: Adobe Illustrator 19.0.0, SVG Export Plug-In . SVG Version: 6.00 Build 0)  -->
<svg version="1.1" id="Capa_1" xmlns="http://www.w3.org/2000/svg" xmlns:xlink="http://www.w3.org/1999/xlink" x="0px" y="0px"
	 viewBox="0 0 512 512" style="enable-background:new 0 0 512 512;" xml:space="preserve">
<g>
	<g>
		<rect x="274.5" y="461" width="15" height="15"/>
	</g>
</g>
<g>
	<g>
		<path d="M250.5,311c-15.163,0-27.5,12.337-27.5,27.5c0,15.163,12.337,27.5,27.5,27.5c15.163,0,27.5-12.337,27.5-27.5
			C278,323.337,265.663,311,250.5,311z M250.5,351c-6.893,0-12.5-5.607-12.5-12.5s5.607-12.5,12.5-12.5s12.5,5.607,12.5,12.5
			S257.393,351,250.5,351z"/>
	</g>
</g>
<g>
	<g>
		<rect x="170.5" y="38" width="15" height="15"/>
	</g>
</g>
<g>
	<g>
		<rect x="140.5" y="38" width="15" height="15"/>
	</g>
</g>
<g>
	<g>
		<rect x="200.5" y="38" width="15" height="15"/>
	</g>
</g>
<g>
	<g>
		<rect x="290.5" y="38" width="15" height="15"/>
	</g>
</g>
<g>
	<g>
		<rect x="230.5" y="38" width="15" height="15"/>
	</g>
</g>
<g>
	<g>
		<rect x="260.5" y="38" width="15" height="15"/>
	</g>
</g>
<g>
	<g>
		<path d="M133,73v44h115V73H133z M233,102h-85V88h85V102z"/>
	</g>
</g>
<g>
	<g>
		<path d="M263,134v44h115v-44H263z M363,163h-85v-14h85V163z"/>
	</g>
</g>
<g>
	<g>
		<path d="M198.714,218v45H313v-45H198.714z M298,248h-84.286v-15H298V248z"/>
	</g>
</g>
<g>
	<g>
		<rect x="133" y="131.5" width="15" height="124"/>
	</g>
</g>
<g>
	<g>
		<rect x="165.86" y="131.5" width="15" height="124"/>
	</g>
</g>
<g>
	<g>
		<rect x="198.71" y="131.5" width="15" height="71"/>
	</g>
</g>
<g>
	<g>
		<rect x="231.57" y="131.5" width="15" height="71"/>
	</g>
</g>
<g>
	<g>
		<rect x="264.43" y="190" width="15" height="15"/>
	</g>
</g>
<g>
	<g>
		<rect x="297.29" y="190" width="15" height="15"/>
	</g>
</g>
<g>
	<g>
		<rect x="264.43" y="80.5" width="15" height="37.5"/>
	</g>
</g>
<g>
	<g>
		<rect x="297.29" y="80.5" width="15" height="37.5"/>
	</g>
</g>
<g>
	<g>
		<rect x="330.14" y="192.5" width="15" height="63"/>
	</g>
</g>
<g>
	<g>
		<rect x="363" y="192.5" width="15" height="63"/>
	</g>
</g>
<g>
	<g>
		<rect x="330.14" y="99.5" width="15" height="19"/>
	</g>
</g>
<g>
	<g>
		<rect x="363" y="99.5" width="15" height="19"/>
	</g>
</g>
<g>
	<g>
		<path d="M53,352c-4.136,0-7.5-3.364-7.5-7.5v-25h-15v25c0,12.406,10.094,22.5,22.5,22.5h25v-15H53z"/>
	</g>
</g>
<g>
	<g>
		<path d="M474,30h-83.5v15H474c12.406,0,22.5,10.094,22.5,22.5V281H408V74.394L333.606,0H103v281H15.5V67.5
			C15.5,55.094,25.594,45,38,45h47.5V30H38C17.322,30,0.5,46.822,0.5,67.5v292C0.5,380.178,17.322,397,38,397h148v18.5
			c0,25.089-20.411,45.5-45.5,45.5H133v51h246v-51h-7.5c-25.089,0-45.5-20.411-45.5-45.5V397h69v114.5h15V381h47v130.5h15V397h2
			c20.678,0,37.5-16.822,37.5-37.5v-292C511.5,46.822,494.678,30,474,30z M338,25.606L382.394,70H338V25.606z M118,15h205v70h70v192
			H118V15z M364,475.537V497H148v-21h111.5v-15h-79.18c12.665-11.098,20.68-27.378,20.68-45.5V397h110v18.5
			C311,446.32,334.166,471.833,364,475.537z M416.595,366l16.905-27.267L450.405,366H416.595z M496.5,359.5
			c0,12.406-10.094,22.5-22.5,22.5h-2v-9.637l-38.5-62.097L395,372.363V382h-69H186H38c-12.406,0-22.5-10.094-22.5-22.5V296h481
			V359.5z"/>
	</g>
</g>
<g>
	<g>
		<g>
			<rect x="30.5" y="142.5" width="15" height="15"/>
			<polygon points="30.5,60 30.5,127.5 45.5,127.5 45.5,75 68,75 68,60 			"/>
		</g>
	</g>
</g>
<g>
	<g>
		<g>
			<polygon points="466.5,251 444,251 444,266 481.5,266 481.5,198.5 466.5,198.5 			"/>
			<rect x="466.5" y="168.5" width="15" height="15"/>
		</g>
	</g>
</g>
<g>
	<g>
		<g>
			<rect x="426" y="448.5" width="15" height="15"/>
			<rect x="426" y="403.5" width="15" height="30"/>
		</g>
	</g>
</g>
<g>
	<g>
		<rect x="466.5" y="76.5" width="15" height="45"/>
	</g>
</g>
<g>
</g>
<g>
</g>
<g>
</g>
<g>
</g>
<g>
</g>
<g>
</g>
<g>
</g>
<g>
</g>
<g>
</g>
<g>
</g>
<g>
</g>
<g>
</g>
<g>
</g>
<g>
</g>
<g>
</g>
</svg>
