<svg width="305" height="304" viewBox="0 0 381 380" fill="none" xmlns="http://www.w3.org/2000/svg">
<path d="M163.41 47.1289H32.7852C14.983 47.1289 0.5 61.6119 0.5 79.414V293.793C0.755313 301.164 11.3797 301.158 11.6328 293.793V79.414C11.6328 67.7506 21.1217 58.2617 32.7852 58.2617H163.41C175.074 58.2617 184.562 67.7506 184.562 79.414V335.84H11.6328V319.851C11.3775 312.481 0.753086 312.487 0.5 319.851V346.601C0.5 364.403 14.983 378.887 32.7852 378.887H163.41C181.212 378.887 195.695 364.403 195.695 346.601V79.414C195.695 61.6119 181.212 47.1289 163.41 47.1289ZM163.41 367.754H32.7852C21.2464 367.754 11.8414 358.464 11.6425 346.972H184.554C184.354 358.464 174.949 367.754 163.41 367.754Z" fill="#005EA2" stroke="#DFE1E2" stroke-width="2"/>
<path d="M72.8629 102.793H123.332C145.461 101.951 145.444 70.2287 123.332 69.3945H72.8629C50.7338 70.2362 50.7509 101.959 72.8629 102.793ZM72.8629 80.5273H123.332C130.701 80.7893 130.696 91.4004 123.332 91.6601H72.8629C65.4937 91.3981 65.4989 80.7871 72.8629 80.5273Z" fill="#005EA2" stroke="#DFE1E2" stroke-width="2"/>
<path d="M41.6899 265.26V303.853C41.6899 308.56 45.5189 312.389 50.2251 312.389H145.225C149.931 312.389 153.76 308.56 153.76 303.853V265.26C153.76 260.554 149.931 256.725 145.225 256.725H50.2251C45.5181 256.725 41.6899 260.554 41.6899 265.26ZM52.8228 267.857H142.627V301.256H52.8228V267.857Z" fill="#005EA2" stroke="#DFE1E2" stroke-width="2"/>
<path d="M374.934 50.0976C378.008 50.0976 380.5 47.6054 380.5 44.5312V21.4203C380.5 9.60909 370.835 0 358.955 0H258.626C246.746 0 237.081 9.60909 237.081 21.4203V99.174L211.672 116.104C207.446 118.746 207.447 125.434 211.673 128.076L237.081 145.005V195.298C237.081 207.109 246.746 216.718 258.626 216.718H358.955C370.835 216.719 380.5 207.109 380.5 195.298V71.9098C380.245 64.5391 369.62 64.545 369.367 71.9098V195.298C369.367 200.971 364.697 205.586 358.955 205.586H258.626C252.885 205.586 248.214 200.971 248.214 195.298V143.773C248.214 140.812 246.74 138.063 244.272 136.418L222.766 122.09L244.272 107.761C246.741 106.116 248.214 103.367 248.214 100.407V21.4203C248.214 15.7477 252.885 11.1328 258.626 11.1328H358.955C364.697 11.1328 369.367 15.7477 369.367 21.4203V44.5312C369.367 47.6054 371.86 50.0976 374.934 50.0976Z" fill="#005EA2" stroke="#DFE1E2" stroke-width="2"/>
<path d="M279.025 44.4072H313.172C320.542 44.1519 320.537 33.5275 313.172 33.2744H279.025C271.655 33.5305 271.66 44.1549 279.025 44.4072Z" fill="#005EA2" stroke="#DFE1E2" stroke-width="2"/>
<path d="M279.025 116.647H313.172C320.542 116.392 320.537 105.768 313.172 105.515H279.025C271.655 105.77 271.66 116.394 279.025 116.647Z" fill="#005EA2" stroke="#DFE1E2" stroke-width="2"/>
<path d="M279.025 62.4678H336.689C344.059 62.2125 344.054 51.588 336.689 51.335H279.025C271.655 51.5903 271.66 62.2147 279.025 62.4678Z" fill="#005EA2" stroke="#DFE1E2" stroke-width="2"/>
<path d="M279.025 80.5273H336.689C344.059 80.272 344.054 69.6476 336.689 69.3945H279.025C271.655 69.6498 271.66 80.2743 279.025 80.5273Z" fill="#005EA2" stroke="#DFE1E2" stroke-width="2"/>
<path d="M98.0967 205.319C108.123 205.319 116.28 197.161 116.28 187.135C115.366 163.045 80.8237 163.052 79.9131 187.135C79.9131 197.161 88.0705 205.319 98.0967 205.319ZM98.0967 180.084C101.984 180.084 105.147 183.248 105.147 187.135C104.793 196.476 91.3992 196.473 91.0459 187.135C91.0459 183.247 94.2091 180.084 98.0967 180.084Z" fill="#005EA2" stroke="#DFE1E2" stroke-width="2"/>
<path d="M49.0186 181.389C49.7927 183.69 51.1932 185.667 53.0569 187.135C51.1932 188.603 49.7935 190.58 49.0186 192.88C47.9662 196.005 48.1948 199.354 49.6621 202.308L56.7158 216.509C59.7425 222.603 67.1644 225.101 73.2592 222.078L77.814 219.82V224.885C77.814 231.693 83.3529 237.233 90.1618 237.233H106.039C112.844 237.233 118.38 231.697 118.38 224.891V219.82L122.935 222.078C129.032 225.101 136.452 222.603 139.479 216.509L146.533 202.305C148 199.352 148.229 196.004 147.177 192.879C146.403 190.578 145.001 188.601 143.138 187.134C147.636 183.694 149.157 177.013 146.532 171.96L139.48 157.763C136.453 151.668 129.029 149.168 122.932 152.192L118.38 154.449V149.378C118.38 142.573 112.844 137.036 106.039 137.036H90.1618C83.3537 137.036 77.814 142.575 77.814 149.384V154.449L73.2622 152.192C67.1651 149.168 59.7417 151.667 56.7144 157.762L49.6621 171.96C48.1948 174.916 47.9662 178.264 49.0186 181.389ZM59.6319 176.914L66.6842 162.717C66.9825 162.115 67.7151 161.867 68.3162 162.167L78.764 167.347C80.9646 168.437 83.5259 168.316 85.6129 167.021C87.7007 165.726 88.9468 163.486 88.9468 161.03V149.385C88.9468 148.715 89.4916 148.17 90.1618 148.17H106.039C106.705 148.17 107.247 148.712 107.247 149.379V161.03C107.247 163.486 108.493 165.726 110.581 167.021C112.668 168.316 115.228 168.439 117.43 167.346L127.878 162.166C128.48 161.868 129.211 162.115 129.51 162.716L136.563 176.913C136.747 177.284 136.698 177.62 136.626 177.836C136.553 178.053 136.388 178.349 136.016 178.533L131.411 180.817C126.23 183.267 126.231 191.002 131.411 193.451L136.019 195.736C136.39 195.92 136.554 196.215 136.626 196.431C136.699 196.647 136.747 196.982 136.563 197.351L129.509 211.555C129.211 212.154 128.48 212.401 127.881 212.103L117.43 206.921C115.229 205.83 112.668 205.952 110.582 207.247C108.494 208.542 107.248 210.782 107.248 213.239V224.89C107.248 225.556 106.706 226.099 106.039 226.099H90.1625C89.4931 226.099 88.9476 225.554 88.9476 224.884V213.239C88.9476 210.782 87.7014 208.542 85.6137 207.247C83.5229 205.95 80.9601 205.832 78.764 206.922L68.3133 212.104C67.7121 212.401 66.9833 212.155 66.6864 211.556L59.6326 197.356C59.4486 196.985 59.4968 196.649 59.5696 196.432C59.6423 196.215 59.807 195.919 60.1781 195.735L64.7842 193.451C69.9654 191.001 69.9639 183.266 64.7842 180.818L60.1789 178.534C59.8078 178.35 59.643 178.053 59.5703 177.837C59.4968 177.62 59.4486 177.285 59.6319 176.914Z" fill="#005EA2" stroke="#DFE1E2" stroke-width="2"/>
<path d="M363.426 257.783H235.796C226.382 257.783 218.723 265.442 218.723 274.856V362.927C218.723 372.341 226.383 380 235.796 380H363.426C372.841 380 380.499 372.341 380.499 362.927V274.856C380.499 265.442 372.841 257.783 363.426 257.783ZM369.366 362.927C369.366 366.203 366.702 368.867 363.426 368.867H235.796C232.52 368.867 229.856 366.203 229.856 362.927V274.856C229.856 271.58 232.521 268.916 235.796 268.916H363.426C366.702 268.916 369.366 271.58 369.366 274.856V362.927Z" fill="#005EA2" stroke="#DFE1E2" stroke-width="2"/>
<path d="M268.272 141.779V181.381C268.272 185.809 271.875 189.412 276.304 189.412H340.926C345.354 189.412 348.956 185.809 348.956 181.381V141.779C348.956 137.351 345.354 133.749 340.926 133.749H276.304C271.875 133.748 268.272 137.35 268.272 141.779ZM279.405 144.881H337.824V178.279H279.405V144.881Z" fill="#005EA2" stroke="#DFE1E2" stroke-width="2"/>
<path d="M273.174 297.591C271.206 295.229 267.695 294.909 265.334 296.878L241.975 316.344C239.33 318.441 239.331 322.8 241.975 324.897L265.334 344.364C266.375 345.23 267.638 345.654 268.895 345.653C270.489 345.653 272.073 344.971 273.174 343.65C275.142 341.289 274.823 337.779 272.462 335.811L254.233 320.62L272.462 305.431C274.823 303.462 275.142 299.953 273.174 297.591Z" fill="#005EA2" stroke="#DFE1E2" stroke-width="2"/>
<path d="M357.249 316.344L333.889 296.878C331.527 294.91 328.018 295.229 326.049 297.59C324.081 299.952 324.4 303.462 326.762 305.43L344.99 320.62L326.762 335.81C324.4 337.778 324.081 341.288 326.049 343.65C328.026 346.021 331.541 346.322 333.889 344.362L357.249 324.895C359.893 322.799 359.892 318.441 357.249 316.344Z" fill="#005EA2" stroke="#DFE1E2" stroke-width="2"/>
<path d="M314.73 284.336C311.892 283.154 308.634 284.495 307.451 287.333L281.496 349.626C280.314 352.464 281.656 355.723 284.493 356.905C287.26 358.079 290.59 356.775 291.772 353.908L317.727 291.616C318.91 288.778 317.569 285.519 314.73 284.336Z" fill="#005EA2" stroke="#DFE1E2" stroke-width="2"/>
</svg>
