<svg width="1596" height="400" viewBox="0 0 1596 400" fill="none" xmlns="http://www.w3.org/2000/svg">
<path d="M155.013 400V353.26H100.758C104.479 393.912 138.736 400 155.013 400Z" fill="#58B4FF"/>
<path d="M155.013 400V353.26H210.818C206.991 393.912 171.754 400 155.013 400Z" fill="#0076D6"/>
<path d="M124.325 33.9452C124.325 5.83608 143.21 0 155.013 0V337.68H0V304.105L38.5571 267.407V151.847C38.5571 83.1361 93.6374 42.0136 124.325 33.9452Z" fill="#58B4FF"/>
<path d="M155.013 0C166.816 0 185.701 5.83608 185.701 33.9452C195.118 36.4212 206.832 42.0098 218.547 50.5533C205.922 63.1111 198.106 80.4997 198.106 99.7136C198.106 138.008 229.15 169.051 267.444 169.051C268.795 169.051 270.074 169.127 271.406 169.051L271.469 267.407L310.026 304.105V337.68H155.013V0Z" fill="#0076D6"/>
<path d="M324.234 99.3973C324.234 130.397 299.104 155.528 268.104 155.528C237.104 155.528 211.974 130.397 211.974 99.3973C211.974 68.3975 237.104 43.2672 268.104 43.2672C299.104 43.2672 324.234 68.3975 324.234 99.3973Z" fill="#D54309"/>
<path d="M416.684 290.469C414.747 290.469 413.25 289.94 412.194 288.884C411.137 287.651 410.609 286.154 410.609 284.393V111.909C410.609 109.972 411.137 108.475 412.194 107.418C413.25 106.186 414.747 105.569 416.684 105.569H428.835C430.948 105.569 432.532 106.098 433.589 107.154C434.646 108.035 435.262 108.739 435.438 109.267L523.133 243.98V111.909C523.133 109.972 523.662 108.475 524.718 107.418C525.775 106.186 527.271 105.569 529.208 105.569H541.887C543.824 105.569 545.321 106.186 546.378 107.418C547.61 108.475 548.227 109.972 548.227 111.909V284.129C548.227 285.89 547.61 287.387 546.378 288.62C545.321 289.852 543.912 290.469 542.151 290.469H529.473C527.536 290.469 526.039 289.94 524.982 288.884C524.102 287.827 523.485 287.123 523.133 286.771L435.702 153.379V284.393C435.702 286.154 435.086 287.651 433.853 288.884C432.797 289.94 431.3 290.469 429.363 290.469H416.684Z" fill="#EDEFF0"/>
<path d="M636.275 293.11C622.892 293.11 611.71 290.557 602.729 285.45C593.748 280.343 586.88 273.299 582.126 264.319C577.371 255.162 574.73 244.772 574.201 233.15C574.025 230.156 573.937 226.37 573.937 221.792C573.937 217.037 574.025 213.251 574.201 210.434C574.73 198.635 577.371 188.246 582.126 179.265C587.056 170.284 594.012 163.24 602.993 158.133C611.974 153.027 623.068 150.473 636.275 150.473C649.482 150.473 660.576 153.027 669.557 158.133C678.537 163.24 685.405 170.284 690.16 179.265C695.09 188.246 697.82 198.635 698.348 210.434C698.524 213.251 698.612 217.037 698.612 221.792C698.612 226.37 698.524 230.156 698.348 233.15C697.82 244.772 695.178 255.162 690.424 264.319C685.669 273.299 678.802 280.343 669.821 285.45C660.84 290.557 649.658 293.11 636.275 293.11ZM636.275 272.771C647.193 272.771 655.909 269.337 662.425 262.47C668.94 255.426 672.462 245.212 672.99 231.829C673.167 229.188 673.255 225.842 673.255 221.792C673.255 217.742 673.167 214.396 672.99 211.754C672.462 198.371 668.94 188.246 662.425 181.378C655.909 174.334 647.193 170.812 636.275 170.812C625.357 170.812 616.552 174.334 609.861 181.378C603.345 188.246 599.911 198.371 599.559 211.754C599.383 214.396 599.295 217.742 599.295 221.792C599.295 225.842 599.383 229.188 599.559 231.829C599.911 245.212 603.345 255.426 609.861 262.47C616.552 269.337 625.357 272.771 636.275 272.771Z" fill="#EDEFF0"/>
<path d="M781.377 290.469C771.516 290.469 763.504 288.62 757.341 284.922C751.177 281.048 746.687 275.677 743.869 268.809C741.052 261.765 739.643 253.489 739.643 243.98V174.246H719.04C717.279 174.246 715.782 173.718 714.549 172.661C713.493 171.429 712.965 169.932 712.965 168.171V159.19C712.965 157.429 713.493 156.02 714.549 154.964C715.782 153.731 717.279 153.115 719.04 153.115H739.643V109.003C739.643 107.242 740.171 105.833 741.228 104.777C742.461 103.544 743.957 102.928 745.718 102.928H758.133C759.894 102.928 761.303 103.544 762.359 104.777C763.592 105.833 764.208 107.242 764.208 109.003V153.115H796.962C798.723 153.115 800.132 153.731 801.188 154.964C802.421 156.02 803.037 157.429 803.037 159.19V168.171C803.037 169.932 802.421 171.429 801.188 172.661C800.132 173.718 798.723 174.246 796.962 174.246H764.208V242.131C764.208 250.407 765.617 256.923 768.434 261.677C771.252 266.432 776.271 268.809 783.491 268.809H799.603C801.364 268.809 802.773 269.425 803.83 270.658C805.062 271.715 805.678 273.123 805.678 274.884V284.393C805.678 286.154 805.062 287.651 803.83 288.884C802.773 289.94 801.364 290.469 799.603 290.469H781.377Z" fill="#EDEFF0"/>
<path d="M834.371 290.469C832.61 290.469 831.113 289.94 829.88 288.884C828.824 287.651 828.296 286.154 828.296 284.393V159.19C828.296 157.429 828.824 156.02 829.88 154.964C831.113 153.731 832.61 153.115 834.371 153.115H847.05C848.811 153.115 850.219 153.731 851.276 154.964C852.333 156.02 852.861 157.429 852.861 159.19V284.393C852.861 286.154 852.333 287.651 851.276 288.884C850.219 289.94 848.811 290.469 847.05 290.469H834.371ZM832.258 127.493C830.497 127.493 829 126.965 827.767 125.908C826.711 124.675 826.182 123.179 826.182 121.418V107.154C826.182 105.393 826.711 103.984 827.767 102.928C829 101.695 830.497 101.079 832.258 101.079H848.899C850.66 101.079 852.068 101.695 853.125 102.928C854.358 103.984 854.974 105.393 854.974 107.154V121.418C854.974 123.179 854.358 124.675 853.125 125.908C852.068 126.965 850.66 127.493 848.899 127.493H832.258Z" fill="#EDEFF0"/>
<path d="M912.078 290.469C910.317 290.469 908.82 289.94 907.588 288.884C906.531 287.651 906.003 286.154 906.003 284.393V174.246H883.551C881.79 174.246 880.293 173.718 879.06 172.661C878.004 171.429 877.476 169.932 877.476 168.171V159.19C877.476 157.429 878.004 156.02 879.06 154.964C880.293 153.731 881.79 153.115 883.551 153.115H906.003V139.908C906.003 130.927 907.5 123.091 910.493 116.399C913.487 109.531 918.242 104.249 924.757 100.551C931.449 96.8525 940.341 95.0036 951.435 95.0036H967.284C969.045 95.0036 970.454 95.6199 971.51 96.8525C972.567 97.9091 973.095 99.3179 973.095 101.079V110.06C973.095 111.821 972.567 113.317 971.51 114.55C970.454 115.607 969.045 116.135 967.284 116.135H951.964C943.687 116.135 938.052 118.336 935.059 122.738C932.065 126.965 930.568 133.128 930.568 141.228V153.115H964.642C966.403 153.115 967.812 153.731 968.869 154.964C969.925 156.02 970.454 157.429 970.454 159.19V168.171C970.454 169.932 969.925 171.429 968.869 172.661C967.812 173.718 966.403 174.246 964.642 174.246H930.568V284.393C930.568 286.154 929.952 287.651 928.719 288.884C927.663 289.94 926.254 290.469 924.493 290.469H912.078Z" fill="#EDEFF0"/>
<path d="M1017.94 340.656C1016.53 340.656 1015.3 340.127 1014.24 339.071C1013.18 338.014 1012.65 336.782 1012.65 335.373C1012.65 334.668 1012.74 333.964 1012.92 333.26C1013.09 332.555 1013.45 331.675 1013.98 330.618L1034.31 282.28L983.863 163.152C982.982 161.039 982.542 159.542 982.542 158.662C982.542 157.077 983.071 155.756 984.127 154.7C985.184 153.643 986.504 153.115 988.089 153.115H1001.03C1002.79 153.115 1004.2 153.555 1005.26 154.435C1006.31 155.316 1007.02 156.373 1007.37 157.605L1047.52 253.753L1088.73 157.605C1089.26 156.373 1089.96 155.316 1090.84 154.435C1091.9 153.555 1093.39 153.115 1095.33 153.115H1107.75C1109.33 153.115 1110.65 153.643 1111.71 154.7C1112.76 155.756 1113.29 156.989 1113.29 158.398C1113.29 159.278 1112.85 160.863 1111.97 163.152L1036.96 336.165C1036.43 337.398 1035.63 338.454 1034.58 339.335C1033.7 340.215 1032.29 340.656 1030.35 340.656H1017.94Z" fill="#EDEFF0"/>
<path d="M1128.65 290.469C1126.89 290.469 1125.39 289.94 1124.16 288.884C1123.1 287.651 1122.57 286.154 1122.57 284.393V265.375C1122.57 263.614 1123.1 262.205 1124.16 261.149C1125.39 259.916 1126.89 259.3 1128.65 259.3H1147.67C1149.43 259.3 1150.84 259.916 1151.89 261.149C1153.13 262.205 1153.74 263.614 1153.74 265.375V284.393C1153.74 286.154 1153.13 287.651 1151.89 288.884C1150.84 289.94 1149.43 290.469 1147.67 290.469H1128.65Z" fill="#EDEFF0"/>
<path d="M1244.66 348.58C1232.68 348.58 1222.82 346.995 1215.07 343.825C1207.5 340.656 1201.51 336.782 1197.11 332.203C1192.89 327.801 1189.8 323.31 1187.87 318.732C1186.11 314.329 1185.14 310.808 1184.96 308.166C1184.79 306.405 1185.31 304.908 1186.55 303.676C1187.96 302.443 1189.45 301.827 1191.04 301.827H1203.72C1205.3 301.827 1206.62 302.179 1207.68 302.883C1208.73 303.588 1209.61 305.084 1210.32 307.374C1211.38 310.015 1212.96 312.921 1215.07 316.09C1217.19 319.436 1220.44 322.254 1224.85 324.543C1229.25 327.008 1235.41 328.241 1243.34 328.241C1251.61 328.241 1258.57 327.096 1264.2 324.807C1269.84 322.694 1274.07 318.82 1276.88 313.185C1279.88 307.726 1281.37 300.154 1281.37 290.469V272.507C1277.15 277.966 1271.6 282.544 1264.73 286.242C1257.86 289.764 1249.24 291.525 1238.85 291.525C1228.99 291.525 1220.53 289.852 1213.49 286.507C1206.45 282.985 1200.63 278.318 1196.06 272.507C1191.65 266.52 1188.31 259.74 1186.02 252.168C1183.91 244.596 1182.67 236.672 1182.32 228.395C1182.14 223.465 1182.14 218.622 1182.32 213.867C1182.67 205.591 1183.91 197.667 1186.02 190.095C1188.31 182.523 1191.65 175.743 1196.06 169.756C1200.63 163.769 1206.45 159.102 1213.49 155.756C1220.53 152.234 1228.99 150.473 1238.85 150.473C1249.41 150.473 1258.13 152.498 1265 156.549C1272.04 160.423 1277.76 165.177 1282.17 170.812V159.454C1282.17 157.693 1282.69 156.196 1283.75 154.964C1284.98 153.731 1286.48 153.115 1288.24 153.115H1300.39C1302.15 153.115 1303.65 153.731 1304.88 154.964C1306.11 156.196 1306.73 157.693 1306.73 159.454V287.563C1306.73 299.361 1304.71 309.839 1300.66 318.996C1296.78 328.153 1290.27 335.373 1281.11 340.656C1272.13 345.938 1259.98 348.58 1244.66 348.58ZM1244.13 270.394C1252.93 270.394 1259.98 268.369 1265.26 264.319C1270.72 260.268 1274.68 255.162 1277.15 248.998C1279.79 242.835 1281.2 236.584 1281.37 230.244C1281.55 227.779 1281.64 224.785 1281.64 221.263C1281.64 217.565 1281.55 214.484 1281.37 212.018C1281.2 205.679 1279.79 199.428 1277.15 193.264C1274.68 187.101 1270.72 181.994 1265.26 177.944C1259.98 173.894 1252.93 171.869 1244.13 171.869C1235.32 171.869 1228.28 173.894 1223 177.944C1217.72 181.818 1213.93 187.013 1211.64 193.529C1209.35 199.868 1208.03 206.736 1207.68 214.132C1207.5 218.71 1207.5 223.377 1207.68 228.131C1208.03 235.527 1209.35 242.483 1211.64 248.998C1213.93 255.338 1217.72 260.533 1223 264.583C1228.28 268.457 1235.32 270.394 1244.13 270.394Z" fill="#EDEFF0"/>
<path d="M1394.34 293.11C1380.96 293.11 1369.78 290.557 1360.8 285.45C1351.81 280.343 1344.95 273.299 1340.19 264.319C1335.44 255.162 1332.8 244.772 1332.27 233.15C1332.09 230.156 1332 226.37 1332 221.792C1332 217.037 1332.09 213.251 1332.27 210.434C1332.8 198.635 1335.44 188.246 1340.19 179.265C1345.12 170.284 1352.08 163.24 1361.06 158.133C1370.04 153.027 1381.13 150.473 1394.34 150.473C1407.55 150.473 1418.64 153.027 1427.62 158.133C1436.6 163.24 1443.47 170.284 1448.23 179.265C1453.16 188.246 1455.89 198.635 1456.42 210.434C1456.59 213.251 1456.68 217.037 1456.68 221.792C1456.68 226.37 1456.59 230.156 1456.42 233.15C1455.89 244.772 1453.25 255.162 1448.49 264.319C1443.74 273.299 1436.87 280.343 1427.89 285.45C1418.91 290.557 1407.72 293.11 1394.34 293.11ZM1394.34 272.771C1405.26 272.771 1413.98 269.337 1420.49 262.47C1427.01 255.426 1430.53 245.212 1431.06 231.829C1431.23 229.188 1431.32 225.842 1431.32 221.792C1431.32 217.742 1431.23 214.396 1431.06 211.754C1430.53 198.371 1427.01 188.246 1420.49 181.378C1413.98 174.334 1405.26 170.812 1394.34 170.812C1383.42 170.812 1374.62 174.334 1367.93 181.378C1361.41 188.246 1357.98 198.371 1357.63 211.754C1357.45 214.396 1357.36 217.742 1357.36 221.792C1357.36 225.842 1357.45 229.188 1357.63 231.829C1357.98 245.212 1361.41 255.426 1367.93 262.47C1374.62 269.337 1383.42 272.771 1394.34 272.771Z" fill="#EDEFF0"/>
<path d="M1524.74 290.469C1522.1 290.469 1519.98 289.852 1518.4 288.62C1516.99 287.387 1515.85 285.802 1514.97 283.865L1466.1 161.303C1465.75 160.423 1465.57 159.542 1465.57 158.662C1465.57 157.077 1466.1 155.756 1467.16 154.7C1468.21 153.643 1469.53 153.115 1471.12 153.115H1483.8C1485.73 153.115 1487.23 153.643 1488.29 154.7C1489.34 155.756 1489.96 156.725 1490.14 157.605L1530.55 261.677L1570.7 157.605C1571.05 156.725 1571.67 155.756 1572.55 154.7C1573.61 153.643 1575.1 153.115 1577.04 153.115H1589.98C1591.39 153.115 1592.62 153.643 1593.68 154.7C1594.91 155.756 1595.53 157.077 1595.53 158.662C1595.53 159.542 1595.35 160.423 1595 161.303L1545.87 283.865C1545.17 285.802 1544.02 287.387 1542.44 288.62C1541.03 289.852 1538.91 290.469 1536.1 290.469H1524.74Z" fill="#EDEFF0"/>
</svg>
