<svg width="1596" height="400" viewBox="0 0 1596 400" fill="none" xmlns="http://www.w3.org/2000/svg">
<path d="M155.013 400V353.26H100.759C104.479 393.912 138.737 400 155.013 400Z" fill="#2491FF"/>
<path d="M155.013 400V353.26H210.818C206.992 393.912 171.755 400 155.013 400Z" fill="#005EA2"/>
<path d="M124.326 33.9452C124.326 5.83608 143.21 0 155.014 0V337.68H0V304.105L38.5573 267.407V151.847C38.5573 83.1361 93.6378 42.0136 124.326 33.9452Z" fill="#2491FF"/>
<path d="M155.014 0C166.817 0 185.702 5.83608 185.702 33.9452C195.119 36.4212 206.833 42.0098 218.548 50.5533C205.923 63.1111 198.107 80.4997 198.107 99.7136C198.107 138.008 229.151 169.051 267.445 169.051C268.796 169.051 270.075 169.127 271.407 169.051L271.47 267.407L310.027 304.105V337.68H155.014V0Z" fill="#005EA2"/>
<path d="M324.236 99.3973C324.236 130.397 299.105 155.528 268.105 155.528C237.105 155.528 211.975 130.397 211.975 99.3973C211.975 68.3975 237.105 43.2672 268.105 43.2672C299.105 43.2672 324.236 68.3975 324.236 99.3973Z" fill="#D54309"/>
<path d="M416.686 290.469C414.749 290.469 413.252 289.94 412.195 288.884C411.139 287.651 410.61 286.154 410.61 284.393V111.909C410.61 109.972 411.139 108.475 412.195 107.418C413.252 106.186 414.749 105.569 416.686 105.569H428.836C430.95 105.569 432.534 106.098 433.591 107.154C434.647 108.035 435.264 108.739 435.44 109.267L523.135 243.98V111.909C523.135 109.972 523.664 108.475 524.72 107.418C525.777 106.186 527.274 105.569 529.211 105.569H541.89C543.827 105.569 545.323 106.186 546.38 107.418C547.613 108.475 548.229 109.972 548.229 111.909V284.129C548.229 285.89 547.613 287.387 546.38 288.62C545.323 289.852 543.915 290.469 542.154 290.469H529.475C527.538 290.469 526.041 289.94 524.984 288.884C524.104 287.827 523.488 287.123 523.135 286.771L435.704 153.379V284.393C435.704 286.154 435.088 287.651 433.855 288.884C432.798 289.94 431.302 290.469 429.365 290.469H416.686Z" fill="#2D2E2F"/>
<path d="M636.277 293.11C622.894 293.11 611.712 290.557 602.731 285.45C593.75 280.343 586.883 273.299 582.128 264.319C577.373 255.162 574.732 244.772 574.204 233.15C574.028 230.156 573.94 226.37 573.94 221.792C573.94 217.037 574.028 213.251 574.204 210.434C574.732 198.635 577.373 188.246 582.128 179.265C587.059 170.284 594.014 163.24 602.995 158.133C611.976 153.027 623.07 150.473 636.277 150.473C649.485 150.473 660.579 153.027 669.559 158.133C678.54 163.24 685.408 170.284 690.163 179.265C695.093 188.246 697.823 198.635 698.351 210.434C698.527 213.251 698.615 217.037 698.615 221.792C698.615 226.37 698.527 230.156 698.351 233.15C697.823 244.772 695.181 255.162 690.427 264.319C685.672 273.299 678.804 280.343 669.824 285.45C660.843 290.557 649.661 293.11 636.277 293.11ZM636.277 272.771C647.195 272.771 655.912 269.337 662.428 262.47C668.943 255.426 672.465 245.212 672.993 231.829C673.169 229.188 673.257 225.842 673.257 221.792C673.257 217.742 673.169 214.396 672.993 211.754C672.465 198.371 668.943 188.246 662.428 181.378C655.912 174.334 647.195 170.812 636.277 170.812C625.359 170.812 616.555 174.334 609.863 181.378C603.348 188.246 599.914 198.371 599.562 211.754C599.385 214.396 599.297 217.742 599.297 221.792C599.297 225.842 599.385 229.188 599.562 231.829C599.914 245.212 603.348 255.426 609.863 262.47C616.555 269.337 625.359 272.771 636.277 272.771Z" fill="#2D2E2F"/>
<path d="M781.381 290.469C771.519 290.469 763.507 288.62 757.344 284.922C751.18 281.048 746.69 275.677 743.872 268.809C741.055 261.765 739.646 253.489 739.646 243.98V174.246H719.043C717.282 174.246 715.785 173.718 714.552 172.661C713.496 171.429 712.968 169.932 712.968 168.171V159.19C712.968 157.429 713.496 156.02 714.552 154.964C715.785 153.731 717.282 153.115 719.043 153.115H739.646V109.003C739.646 107.242 740.174 105.833 741.231 104.777C742.464 103.544 743.96 102.928 745.721 102.928H758.136C759.897 102.928 761.306 103.544 762.362 104.777C763.595 105.833 764.211 107.242 764.211 109.003V153.115H796.965C798.726 153.115 800.135 153.731 801.191 154.964C802.424 156.02 803.04 157.429 803.04 159.19V168.171C803.04 169.932 802.424 171.429 801.191 172.661C800.135 173.718 798.726 174.246 796.965 174.246H764.211V242.131C764.211 250.407 765.62 256.923 768.438 261.677C771.255 266.432 776.274 268.809 783.494 268.809H799.607C801.368 268.809 802.776 269.425 803.833 270.658C805.066 271.715 805.682 273.123 805.682 274.884V284.393C805.682 286.154 805.066 287.651 803.833 288.884C802.776 289.94 801.368 290.469 799.607 290.469H781.381Z" fill="#2D2E2F"/>
<path d="M834.374 290.469C832.613 290.469 831.117 289.94 829.884 288.884C828.827 287.651 828.299 286.154 828.299 284.393V159.19C828.299 157.429 828.827 156.02 829.884 154.964C831.117 153.731 832.613 153.115 834.374 153.115H847.053C848.814 153.115 850.223 153.731 851.28 154.964C852.336 156.02 852.864 157.429 852.864 159.19V284.393C852.864 286.154 852.336 287.651 851.28 288.884C850.223 289.94 848.814 290.469 847.053 290.469H834.374ZM832.261 127.493C830.5 127.493 829.004 126.965 827.771 125.908C826.714 124.675 826.186 123.179 826.186 121.418V107.154C826.186 105.393 826.714 103.984 827.771 102.928C829.004 101.695 830.5 101.079 832.261 101.079H848.902C850.663 101.079 852.072 101.695 853.129 102.928C854.361 103.984 854.978 105.393 854.978 107.154V121.418C854.978 123.179 854.361 124.675 853.129 125.908C852.072 126.965 850.663 127.493 848.902 127.493H832.261Z" fill="#2D2E2F"/>
<path d="M912.082 290.469C910.321 290.469 908.824 289.94 907.592 288.884C906.535 287.651 906.007 286.154 906.007 284.393V174.246H883.555C881.794 174.246 880.297 173.718 879.064 172.661C878.008 171.429 877.479 169.932 877.479 168.171V159.19C877.479 157.429 878.008 156.02 879.064 154.964C880.297 153.731 881.794 153.115 883.555 153.115H906.007V139.908C906.007 130.927 907.504 123.091 910.497 116.399C913.491 109.531 918.245 104.249 924.761 100.551C931.453 96.8525 940.345 95.0035 951.439 95.0035H967.288C969.049 95.0035 970.458 95.6199 971.514 96.8525C972.571 97.9091 973.099 99.3179 973.099 101.079V110.06C973.099 111.821 972.571 113.317 971.514 114.55C970.458 115.607 969.049 116.135 967.288 116.135H951.968C943.691 116.135 938.056 118.336 935.062 122.738C932.069 126.965 930.572 133.128 930.572 141.228V153.115H964.646C966.407 153.115 967.816 153.731 968.873 154.964C969.929 156.02 970.458 157.429 970.458 159.19V168.171C970.458 169.932 969.929 171.429 968.873 172.661C967.816 173.718 966.407 174.246 964.646 174.246H930.572V284.393C930.572 286.154 929.956 287.651 928.723 288.884C927.667 289.94 926.258 290.469 924.497 290.469H912.082Z" fill="#2D2E2F"/>
<path d="M1017.94 340.656C1016.53 340.656 1015.3 340.127 1014.24 339.071C1013.19 338.014 1012.66 336.782 1012.66 335.373C1012.66 334.668 1012.75 333.964 1012.92 333.26C1013.1 332.555 1013.45 331.675 1013.98 330.618L1034.32 282.28L983.867 163.152C982.987 161.039 982.546 159.542 982.546 158.662C982.546 157.077 983.075 155.756 984.131 154.7C985.188 153.643 986.509 153.115 988.093 153.115H1001.04C1002.8 153.115 1004.21 153.555 1005.26 154.435C1006.32 155.316 1007.02 156.373 1007.38 157.605L1047.53 253.753L1088.73 157.605C1089.26 156.373 1089.96 155.316 1090.84 154.435C1091.9 153.555 1093.4 153.115 1095.34 153.115H1107.75C1109.33 153.115 1110.66 153.643 1111.71 154.7C1112.77 155.756 1113.3 156.989 1113.3 158.398C1113.3 159.278 1112.86 160.863 1111.98 163.152L1036.96 336.165C1036.43 337.398 1035.64 338.454 1034.58 339.335C1033.7 340.215 1032.29 340.656 1030.36 340.656H1017.94Z" fill="#2D2E2F"/>
<path d="M1128.65 290.469C1126.89 290.469 1125.4 289.94 1124.16 288.884C1123.11 287.651 1122.58 286.154 1122.58 284.393V265.375C1122.58 263.614 1123.11 262.205 1124.16 261.149C1125.4 259.916 1126.89 259.3 1128.65 259.3H1147.67C1149.43 259.3 1150.84 259.916 1151.9 261.149C1153.13 262.205 1153.75 263.614 1153.75 265.375V284.393C1153.75 286.154 1153.13 287.651 1151.9 288.884C1150.84 289.94 1149.43 290.469 1147.67 290.469H1128.65Z" fill="#2D2E2F"/>
<path d="M1244.66 348.58C1232.69 348.58 1222.83 346.995 1215.08 343.825C1207.51 340.656 1201.52 336.782 1197.12 332.203C1192.89 327.801 1189.81 323.31 1187.87 318.732C1186.11 314.329 1185.14 310.808 1184.97 308.166C1184.79 306.405 1185.32 304.908 1186.55 303.676C1187.96 302.443 1189.46 301.827 1191.04 301.827H1203.72C1205.31 301.827 1206.63 302.179 1207.68 302.883C1208.74 303.588 1209.62 305.084 1210.32 307.374C1211.38 310.015 1212.97 312.921 1215.08 316.09C1217.19 319.436 1220.45 322.254 1224.85 324.543C1229.25 327.008 1235.42 328.241 1243.34 328.241C1251.62 328.241 1258.57 327.096 1264.21 324.807C1269.84 322.694 1274.07 318.82 1276.89 313.185C1279.88 307.726 1281.38 300.154 1281.38 290.469V272.507C1277.15 277.966 1271.61 282.544 1264.74 286.242C1257.87 289.764 1249.24 291.525 1238.85 291.525C1228.99 291.525 1220.54 289.852 1213.49 286.507C1206.45 282.985 1200.64 278.318 1196.06 272.507C1191.66 266.52 1188.31 259.74 1186.02 252.168C1183.91 244.596 1182.68 236.672 1182.33 228.395C1182.15 223.465 1182.15 218.622 1182.33 213.867C1182.68 205.591 1183.91 197.667 1186.02 190.095C1188.31 182.523 1191.66 175.743 1196.06 169.756C1200.64 163.769 1206.45 159.102 1213.49 155.756C1220.54 152.234 1228.99 150.473 1238.85 150.473C1249.42 150.473 1258.13 152.498 1265 156.549C1272.05 160.423 1277.77 165.177 1282.17 170.812V159.454C1282.17 157.693 1282.7 156.196 1283.76 154.964C1284.99 153.731 1286.49 153.115 1288.25 153.115H1300.4C1302.16 153.115 1303.65 153.731 1304.89 154.964C1306.12 156.196 1306.74 157.693 1306.74 159.454V287.563C1306.74 299.361 1304.71 309.839 1300.66 318.996C1296.79 328.153 1290.27 335.373 1281.11 340.656C1272.13 345.938 1259.98 348.58 1244.66 348.58ZM1244.13 270.394C1252.94 270.394 1259.98 268.369 1265.27 264.319C1270.73 260.268 1274.69 255.162 1277.15 248.998C1279.79 242.835 1281.2 236.584 1281.38 230.244C1281.55 227.779 1281.64 224.785 1281.64 221.263C1281.64 217.565 1281.55 214.484 1281.38 212.018C1281.2 205.679 1279.79 199.428 1277.15 193.264C1274.69 187.101 1270.73 181.994 1265.27 177.944C1259.98 173.894 1252.94 171.869 1244.13 171.869C1235.33 171.869 1228.29 173.894 1223 177.944C1217.72 181.818 1213.93 187.013 1211.65 193.529C1209.36 199.868 1208.04 206.736 1207.68 214.132C1207.51 218.71 1207.51 223.377 1207.68 228.131C1208.04 235.527 1209.36 242.483 1211.65 248.998C1213.93 255.338 1217.72 260.533 1223 264.583C1228.29 268.457 1235.33 270.394 1244.13 270.394Z" fill="#2D2E2F"/>
<path d="M1394.35 293.11C1380.96 293.11 1369.78 290.557 1360.8 285.45C1351.82 280.343 1344.95 273.299 1340.2 264.319C1335.44 255.162 1332.8 244.772 1332.27 233.15C1332.1 230.156 1332.01 226.37 1332.01 221.792C1332.01 217.037 1332.1 213.251 1332.27 210.434C1332.8 198.635 1335.44 188.246 1340.2 179.265C1345.13 170.284 1352.08 163.24 1361.07 158.133C1370.05 153.027 1381.14 150.473 1394.35 150.473C1407.55 150.473 1418.65 153.027 1427.63 158.133C1436.61 163.24 1443.48 170.284 1448.23 179.265C1453.16 188.246 1455.89 198.635 1456.42 210.434C1456.6 213.251 1456.69 217.037 1456.69 221.792C1456.69 226.37 1456.6 230.156 1456.42 233.15C1455.89 244.772 1453.25 255.162 1448.5 264.319C1443.74 273.299 1436.87 280.343 1427.89 285.45C1418.91 290.557 1407.73 293.11 1394.35 293.11ZM1394.35 272.771C1405.27 272.771 1413.98 269.337 1420.5 262.47C1427.01 255.426 1430.53 245.212 1431.06 231.829C1431.24 229.188 1431.33 225.842 1431.33 221.792C1431.33 217.742 1431.24 214.396 1431.06 211.754C1430.53 198.371 1427.01 188.246 1420.5 181.378C1413.98 174.334 1405.27 170.812 1394.35 170.812C1383.43 170.812 1374.62 174.334 1367.93 181.378C1361.42 188.246 1357.98 198.371 1357.63 211.754C1357.46 214.396 1357.37 217.742 1357.37 221.792C1357.37 225.842 1357.46 229.188 1357.63 231.829C1357.98 245.212 1361.42 255.426 1367.93 262.47C1374.62 269.337 1383.43 272.771 1394.35 272.771Z" fill="#2D2E2F"/>
<path d="M1524.75 290.469C1522.1 290.469 1519.99 289.852 1518.41 288.62C1517 287.387 1515.85 285.802 1514.97 283.865L1466.11 161.303C1465.75 160.423 1465.58 159.542 1465.58 158.662C1465.58 157.077 1466.11 155.756 1467.16 154.7C1468.22 153.643 1469.54 153.115 1471.12 153.115H1483.8C1485.74 153.115 1487.24 153.643 1488.29 154.7C1489.35 155.756 1489.97 156.725 1490.14 157.605L1530.56 261.677L1570.71 157.605C1571.06 156.725 1571.67 155.756 1572.56 154.7C1573.61 153.643 1575.11 153.115 1577.05 153.115H1589.99C1591.4 153.115 1592.63 153.643 1593.69 154.7C1594.92 155.756 1595.54 157.077 1595.54 158.662C1595.54 159.542 1595.36 160.423 1595.01 161.303L1545.88 283.865C1545.17 285.802 1544.03 287.387 1542.44 288.62C1541.03 289.852 1538.92 290.469 1536.1 290.469H1524.75Z" fill="#2D2E2F"/>
</svg>
