<svg width="187" height="230" viewBox="0 0 187 230" fill="none" xmlns="http://www.w3.org/2000/svg">
<path d="M89.1324 230V203.125H57.936C60.0752 226.499 79.7735 230 89.1324 230Z" fill="#2491FF"/>
<path d="M89.1324 230V203.125H121.22C119.02 226.499 98.7587 230 89.1324 230Z" fill="#005EA2"/>
<path d="M71.4869 19.5185C71.4869 3.35574 82.3456 0 89.1324 0V194.166H0V174.861L22.1703 153.759V87.3122C22.1703 47.8033 53.8415 24.1578 71.4869 19.5185Z" fill="#2491FF"/>
<path d="M89.1324 0C95.9192 0 106.778 3.35574 106.778 19.5185C112.193 20.9422 118.928 24.1557 125.664 29.0681C118.405 36.2889 113.911 46.2873 113.911 57.3353C113.911 79.3543 131.761 97.2043 153.78 97.2043C154.557 97.2043 155.293 97.2481 156.058 97.2043L156.094 153.759L178.265 174.861V194.166H89.1324V0Z" fill="#005EA2"/>
<path d="M186.435 57.1535C186.435 74.9784 171.985 89.4283 154.16 89.4283C136.335 89.4283 121.885 74.9784 121.885 57.1535C121.885 39.3286 136.335 24.8786 154.16 24.8786C171.985 24.8786 186.435 39.3286 186.435 57.1535Z" fill="#D54309"/>
</svg>
