<svg id="Capa_1" enable-background="new 0 0 512 512" height="512" viewBox="0 0 512 512" width="512" xmlns="http://www.w3.org/2000/svg"><g><path d="m293.382 402.022c4.808-7.16 7.618-15.768 7.618-25.022 0-24.813-20.187-45-45-45s-45 20.186-45 45c0 9.254 2.81 17.862 7.618 25.022-22.46 12.971-37.618 37.23-37.618 64.978v45h150v-45c0-27.748-15.158-52.007-37.618-64.978zm-52.382-25.022c0-8.271 6.729-15 15-15s15 6.728 15 15-6.729 15-15 15-15-6.728-15-15zm60 105h-90v-15c0-24.813 20.187-45 45-45s45 20.186 45 45z"/><path d="m112.382 402.022c4.808-7.16 7.618-15.768 7.618-25.022 0-24.813-20.187-45-45-45s-45 20.186-45 45c0 9.254 2.81 17.862 7.618 25.022-22.46 12.971-37.618 37.23-37.618 64.978v45h150v-45c0-27.748-15.158-52.007-37.618-64.978zm-52.382-25.022c0-8.271 6.729-15 15-15s15 6.728 15 15-6.729 15-15 15-15-6.728-15-15zm60 105h-90v-15c0-24.813 20.187-45 45-45s45 20.186 45 45z"/><path d="m474.382 402.022c4.808-7.16 7.618-15.768 7.618-25.022 0-24.813-20.187-45-45-45s-45 20.186-45 45c0 9.254 2.81 17.862 7.618 25.022-22.46 12.971-37.618 37.23-37.618 64.978v45h150v-45c0-27.748-15.158-52.007-37.618-64.978zm-52.382-25.022c0-8.271 6.729-15 15-15s15 6.728 15 15-6.729 15-15 15-15-6.728-15-15zm60 105h-90v-15c0-24.813 20.187-45 45-45s45 20.186 45 45z"/><path d="m256 183.379c50.558 0 91.689-41.132 91.689-91.689s-41.131-91.69-91.689-91.69-91.689 41.132-91.689 91.69 41.131 91.689 91.689 91.689zm0-153.38c34.016 0 61.689 27.675 61.689 61.69s-27.673 61.69-61.689 61.69-61.689-27.674-61.689-61.689 27.673-61.691 61.689-61.691z"/><path d="m120.782 271h120.218v30h30v-30h120.218c16.973 0 30.782 13.809 30.782 30.782h30c0-33.515-27.267-60.782-60.782-60.782h-120.218v-30.087h-30v30.087h-120.218c-33.515 0-60.782 27.267-60.782 60.782h30c0-16.973 13.809-30.782 30.782-30.782z"/></g></svg>
