<svg viewBox="0 0 563 670" fill="none" xmlns="http://www.w3.org/2000/svg">
    <path fill-rule="evenodd" clip-rule="evenodd"
        d="M480.282 0C506.922 0 526.48 15.1615 539 32.8585C551.388 50.3684 557.803 71.5515 557.803 86.5178V336.165C557.943 336.136 558.088 336.122 558.236 336.122H560.835C562.031 336.122 563 337.09 563 338.285V420.476C563 421.671 562.031 422.639 560.835 422.639H558.236C558.088 422.639 557.943 422.624 557.803 422.596V959.482C557.803 974.449 551.388 995.632 539 1013.14C526.48 1030.84 506.922 1046 480.282 1046H82.7177C56.0784 1046 36.5197 1030.84 23.9997 1013.14C11.6121 995.632 5.19692 974.449 5.19692 959.482V422.596C5.05699 422.624 4.91216 422.639 4.76385 422.639H2.16538C0.969476 422.639 0 421.671 0 420.476V359.914C0 358.719 0.969476 357.751 2.16538 357.751H4.76385C4.91216 357.751 5.05699 357.766 5.19692 357.794V349.056C5.05699 349.084 4.91216 349.099 4.76385 349.099H2.16538C0.969476 349.099 0 348.131 0 346.936V286.374C0 285.179 0.969476 284.211 2.16538 284.211H4.76385C4.91216 284.211 5.05699 284.226 5.19692 284.254V262.538C5.05699 262.567 4.91216 262.581 4.76385 262.581H2.16538C0.969476 262.581 0 261.613 0 260.419V221.486C0 220.291 0.969476 219.323 2.16538 219.323H4.76385C4.91216 219.323 5.05699 219.337 5.19692 219.366V86.5178C5.19692 71.5515 11.6121 50.3684 23.9997 32.8585C36.5197 15.1615 56.0784 0 82.7177 0H480.282ZM38.1469 42.8446C27.5814 57.7789 22.52 75.5288 22.52 86.5178V959.482C22.52 970.471 27.5814 988.221 38.1469 1003.16C48.5799 1017.9 63.4508 1028.7 82.7177 1028.7H480.282C499.549 1028.7 514.42 1017.9 524.853 1003.16C535.419 988.221 540.48 970.471 540.48 959.482V86.5178C540.48 75.5288 535.419 57.7789 524.853 42.8446C514.42 28.0974 499.549 17.3036 480.282 17.3036H402.762V43.2589C402.762 50.4263 396.945 56.2366 389.769 56.2366H173.231C166.055 56.2366 160.238 50.4263 160.238 43.2589V17.3036H82.7177C63.4508 17.3036 48.5799 28.0974 38.1469 42.8446Z"
        fill="#DFE1E2" />
</svg>
