<svg viewBox="0 0 563 670" fill="none" xmlns="http://www.w3.org/2000/svg">
    <path d="M553.831 334.751V335.974L555.03 335.731C555.104 335.716 555.181 335.708 555.262 335.708H557.846C558.483 335.708 559 336.224 559 336.862V418.708C559 419.345 558.483 419.862 557.846 419.862H555.262C555.181 419.862 555.104 419.853 555.03 419.838L553.831 419.595V420.818V955.446C553.831 970.12 547.528 991.015 535.312 1008.3C522.978 1025.76 503.794 1040.6 477.723 1040.6H82.2769C56.206 1040.6 37.022 1025.76 24.6885 1008.3C12.472 991.015 6.16923 970.12 6.16923 955.446V420.818V419.595L4.97026 419.838C4.89621 419.853 4.8188 419.862 4.73846 419.862H2.15385C1.51659 419.862 1 419.345 1 418.708V358.4C1 357.763 1.51659 357.246 2.15385 357.246H4.73846C4.8188 357.246 4.89621 357.254 4.97026 357.269L6.16923 357.513V356.289V347.588V346.364L4.97026 346.608C4.89621 346.623 4.8188 346.631 4.73846 346.631H2.15385C1.51659 346.631 1 346.114 1 345.477V285.169C1 284.532 1.51659 284.015 2.15385 284.015H4.73846C4.8188 284.015 4.89621 284.023 4.97026 284.038L6.16923 284.282V283.058V261.434V260.21L4.97026 260.454C4.89621 260.469 4.8188 260.477 4.73846 260.477H2.15385C1.51659 260.477 1 259.96 1 259.323V220.554C1 219.917 1.51659 219.4 2.15385 219.4H4.73846C4.8188 219.4 4.89624 219.408 4.97036 219.423L6.16923 219.666V218.443V86.1538C6.16923 71.4804 12.472 50.5848 24.6885 33.2974C37.022 15.8443 56.206 1 82.2769 1H477.723C503.794 1 522.978 15.8443 535.312 33.2974C547.528 50.5848 553.831 71.4804 553.831 86.1538V334.751ZM400.615 16.2308H399.615V17.2308V43.0769C399.615 49.6619 394.277 55 387.692 55H172.308C165.723 55 160.385 49.6619 160.385 43.0769V17.2308V16.2308H159.385H82.2769C62.6883 16.2308 47.6257 27.2304 37.1269 42.0872C26.5125 57.1076 21.4 74.9813 21.4 86.1538V955.446C21.4 966.619 26.5125 984.492 37.1269 999.513C47.6257 1014.37 62.6883 1025.37 82.2769 1025.37H477.723C497.312 1025.37 512.374 1014.37 522.873 999.513C533.487 984.492 538.6 966.619 538.6 955.446V86.1538C538.6 74.9813 533.488 57.1076 522.873 42.0872C512.374 27.2304 497.312 16.2308 477.723 16.2308H400.615Z" stroke="black" stroke-width="2"/>
</svg>
