<svg id="Layer_1" enable-background="new 0 0 511 511" viewBox="0 0 511 511" xmlns="http://www.w3.org/2000/svg"><g><g><path d="m119.362 228c-31.706 0-57.5 25.794-57.5 57.5 3.158 76.282 111.854 76.259 115 0 0-31.706-25.794-57.5-57.5-57.5zm0 100c-23.435 0-42.5-19.065-42.5-42.5 2.335-56.382 82.674-56.366 85 0 0 23.435-19.065 42.5-42.5 42.5z"/><path d="m330.396 111.5v-67.5h-12.387l-22.236 24.801 11.168 10.013 8.455-9.429v42.115z"/><path d="m334.931 264.987c19.486-15.282 10.065-46.688-15.303-46.987-14.21 0-25.77 11.439-25.77 25.5v6h15v-6c.587-13.926 20.954-13.926 21.541 0 0 3.789-1.731 7.326-4.752 9.706l-31.789 25.057v14.737h53.785v-15h-29.221z"/><path d="m320.643 456h-19.285v15h19.285c19.375.069 29.661-23.316 16.752-37.5 12.911-14.193 2.618-37.568-16.753-37.5h-19.285v15h19.285c9.942.393 9.94 14.608 0 15h-9v15h9c9.944.393 9.94 14.609.001 15z"/><path d="m483.5 0h-20.86v15h20.86c6.893 0 12.5 5.607 12.5 12.5v100c0 6.893-5.607 12.5-12.5 12.5h-200c-6.893 0-12.5-5.607-12.5-12.5v-100c0-6.893 5.607-12.5 12.5-12.5h164.14v-15h-164.14c-15.163 0-27.5 12.337-27.5 27.5v100c0 15.163 12.337 27.5 27.5 27.5h200c15.163 0 27.5-12.337 27.5-27.5v-100c0-15.163-12.337-27.5-27.5-27.5z"/><path d="m379.5 228h84v15h-84z"/><path d="m379.5 268h54v15h-54z"/><path d="m367.5 406h96v15h-96z"/><path d="m367.5 446h66v15h-66z"/><path d="m483.5 178h-200c-15.163 0-27.5 12.337-27.5 27.5v100c0 15.163 12.337 27.5 27.5 27.5h200c15.163 0 27.5-12.337 27.5-27.5v-100c0-15.163-12.337-27.5-27.5-27.5zm12.5 127.5c0 6.893-5.607 12.5-12.5 12.5h-200c-6.893 0-12.5-5.607-12.5-12.5v-100c0-6.893 5.607-12.5 12.5-12.5h200c6.893 0 12.5 5.607 12.5 12.5z"/><path d="m483.5 356h-200c-15.163 0-27.5 12.337-27.5 27.5v100c0 15.163 12.337 27.5 27.5 27.5h21.64v-15h-21.64c-6.893 0-12.5-5.607-12.5-12.5v-100c0-6.893 5.607-12.5 12.5-12.5h200c6.893 0 12.5 5.607 12.5 12.5v100c0 6.893-5.607 12.5-12.5 12.5h-163.36v15h163.36c15.163 0 27.5-12.337 27.5-27.5v-100c0-15.163-12.337-27.5-27.5-27.5z"/><path d="m200.77 223.864 2.979-27.323-49.235-28.48-22.322 16.296h-6.192v-91.857c0-6.893 5.607-12.5 12.5-12.5h68.393l-17.197 17.196 10.607 10.607 35.303-35.303-35.303-35.304-10.607 10.607 17.197 17.197h-68.393c-15.163 0-27.5 12.337-27.5 27.5v91.856h-4.467l-22.322-16.296-49.235 28.48 2.979 27.323-12.775 22.11-25.18 11.071v56.912l25.18 11.071 12.775 22.108-2.979 27.323 49.236 28.48 22.416-16.365h25.469l22.417 16.365 49.235-28.48-2.979-27.323 12.775-22.108 25.18-11.071v-56.912l-25.18-11.071zm22.955 80.301-20.711 9.106-17.688 30.61 2.452 22.487-32.315 18.691-18.474-13.486h-35.254l-18.474 13.486-32.315-18.691 2.452-22.487-17.688-30.61-20.71-9.106v-37.33l20.711-9.106 17.688-30.61-2.452-22.487 32.315-18.691 18.379 13.417h35.443l18.379-13.417 32.315 18.691-2.452 22.487 17.688 30.61 20.711 9.106z"/></g><g><path d="m382.553 70h15v15h-15z"/><path d="m412.553 70h15v15h-15z"/></g></g><g/><g/><g/><g/><g/><g/><g/><g/><g/><g/><g/><g/><g/><g/><g/></svg>
