<?xml version="1.0" encoding="iso-8859-1"?>
<!-- Generator: Adobe Illustrator 19.0.0, SVG Export Plug-In . SVG Version: 6.00 Build 0)  -->
<svg xmlns="http://www.w3.org/2000/svg" xmlns:xlink="http://www.w3.org/1999/xlink" version="1.1" id="Capa_1" x="0px" y="0px" viewBox="0 0 512.88 512.88" style="enable-background:new 0 0 512.88 512.88;" xml:space="preserve" width="512" height="512">
<g>
	<g>
		<rect x="7.5" y="345.815" style="fill:#0083AD;" width="106.875" height="37.5"/>
	</g>
	<g>
		<rect x="294.375" y="143.315" style="fill:#FF6969;" width="172.5" height="37.5"/>
	</g>
	<g>
		<rect x="195" y="73.94" style="fill:#0083AD;" width="114.375" height="37.5"/>
	</g>
	<g>
		<rect x="420" y="8.315" style="fill:#FFEC76;" width="82.5" height="37.5"/>
	</g>
	<g>
		<rect x="131.25" y="278.315" style="fill:#18C984;" width="208.125" height="37.5"/>
	</g>
	<g>
		<rect x="46.875" y="208.94" style="fill:#FFEC76;" width="114.375" height="37.5"/>
	</g>
	<g>
		<rect x="0.875" y="437.808" width="16" height="15"/>
		<rect x="166.208" y="437.808" width="16" height="15"/>
		<rect x="331.542" y="437.808" width="16" height="15"/>
		<rect x="496.875" y="437.808" width="16" height="15"/>
		<rect x="31.875" y="438.214" width="120" height="15"/>
		<path d="M316.875,453.214v-15h-45V323.315h75v-52.5h-75v-150h45v-52.5h-45V0.19h-15v68.125h-67.5v52.5h67.5v150h-135v52.5h135    v114.899h-60v15h60v59.476h15v-59.476H316.875z M301.875,83.315v22.5h-30v-22.5H301.875z M204.375,105.815v-22.5h52.5v22.5    H204.375z M331.875,285.815v22.5h-60v-22.5H331.875z M136.875,308.315v-22.5h120v22.5H136.875z"/>
		<rect x="361.875" y="438.214" width="120" height="15"/>
		<rect x="0.875" y="467.615" width="53.5" height="15"/>
		<rect x="129.375" y="467.847" width="90" height="15"/>
		<rect x="294.375" y="467.847" width="90" height="15"/>
		<rect x="459.375" y="467.864" width="53.5" height="15"/>
		<rect x="0.875" y="497.69" width="31" height="15"/>
		<rect x="151.875" y="497.69" width="45" height="15"/>
		<rect x="316.875" y="497.69" width="45" height="15"/>
		<rect x="481.875" y="497.69" width="31" height="15"/>
		<path d="M121.875,338.315H0v52.5h121.875V338.315z M106.875,375.815H15v-22.5h91.875V375.815z"/>
		<path d="M166.875,203.315h-127.5v52.5h127.5V203.315z M151.875,240.815h-97.5v-22.5h97.5V240.815z"/>
		<path d="M474.375,135.815h-187.5v52.5h187.5V135.815z M459.375,173.315h-157.5v-22.5h157.5V173.315z"/>
		<path d="M511.875,0.815h-97.5v52.5h97.5V0.815z M496.875,38.315h-67.5v-22.5h67.5V38.315z"/>
	</g>
</g>















</svg>
