<svg id="Capa_1" enable-background="new 0 0 512 512" height="512" viewBox="0 0 512 512" width="512" xmlns="http://www.w3.org/2000/svg"><g><g><path d="m28.712 410c4.142 0 7.5-3.358 7.5-7.5v-374.8c0-7.003 5.702-12.7 12.71-12.7h258.31c.292 0 .581.023.87.042v69.23c0 15.275 12.428 27.703 27.703 27.703h69.234c.02.288.044.575.044.864v39.46c0 4.142 3.358 7.5 7.5 7.5s7.5-3.358 7.5-7.5v-39.46c0-7.287-2.958-14.425-8.117-19.583l-85.14-85.14c-5.235-5.234-12.193-8.116-19.594-8.116h-258.31c-15.279 0-27.71 12.426-27.71 27.7v374.8c0 4.142 3.358 7.5 7.5 7.5zm365.759-313.024h-58.667c-7.004 0-12.703-5.699-12.703-12.703v-58.667z"/><path d="m71.722 272.16c0 11.932 9.708 21.64 21.64 21.64h92.94c11.933 0 21.64-9.708 21.64-21.64v-53.49c0-4.142-3.358-7.5-7.5-7.5s-7.5 3.358-7.5 7.5v53.49c0 3.661-2.979 6.64-6.64 6.64h-92.94c-3.661 0-6.64-2.979-6.64-6.64v-113.14c0-3.662 2.979-6.64 6.64-6.64h92.94c3.662 0 6.64 2.979 6.64 6.64v24.67c0 4.142 3.358 7.5 7.5 7.5s7.5-3.358 7.5-7.5v-24.67c0-11.933-9.708-21.64-21.64-21.64h-92.94c-11.932 0-21.64 9.708-21.64 21.64z"/><path d="m111.549 184.708h24.244c4.142 0 7.5-3.358 7.5-7.5s-3.358-7.5-7.5-7.5h-24.244c-4.142 0-7.5 3.358-7.5 7.5s3.357 7.5 7.5 7.5z"/><path d="m168.117 202.033h-56.569c-4.142 0-7.5 3.358-7.5 7.5s3.358 7.5 7.5 7.5h56.569c4.142 0 7.5-3.358 7.5-7.5s-3.357-7.5-7.5-7.5z"/><path d="m168.117 234.358h-56.569c-4.142 0-7.5 3.358-7.5 7.5s3.358 7.5 7.5 7.5h56.569c4.142 0 7.5-3.358 7.5-7.5s-3.357-7.5-7.5-7.5z"/><path d="m273.175 184.708h24.244c4.142 0 7.5-3.358 7.5-7.5s-3.358-7.5-7.5-7.5h-24.244c-4.142 0-7.5 3.358-7.5 7.5s3.357 7.5 7.5 7.5z"/><path d="m273.175 217.033h50.508c4.142 0 7.5-3.358 7.5-7.5s-3.358-7.5-7.5-7.5h-50.508c-4.142 0-7.5 3.358-7.5 7.5s3.357 7.5 7.5 7.5z"/><path d="m484.818 332.299-20.819-4.337c-.61-2.718-1.33-5.412-2.153-8.064l15.854-14.16c2.649-2.366 3.275-6.267 1.499-9.344l-11.314-19.596c-1.776-3.076-5.467-4.484-8.841-3.374l-20.221 6.661c-1.882-2.037-3.847-4.002-5.884-5.884l6.661-20.221c1.111-3.375-.297-7.065-3.374-8.842l-16.145-9.321v-48.517c0-4.142-3.358-7.5-7.5-7.5s-7.5 3.358-7.5 7.5v50.492l-11.955 13.385c-2.652-.823-5.346-1.542-8.065-2.153l-4.337-20.819c-.725-3.478-3.79-5.97-7.342-5.97h-3.814v-63.211c0-11.934-9.708-21.642-21.642-21.642h-92.935c-11.934 0-21.642 9.708-21.642 21.642v113.138c0 9.21 5.785 17.09 13.91 20.209l-2.322 4.022c-1.776 3.077-1.15 6.978 1.499 9.344l15.854 14.16c-.823 2.653-1.542 5.346-2.153 8.065l-20.819 4.337c-3.478.725-5.97 3.79-5.97 7.342v22.627c0 3.553 2.492 6.618 5.97 7.342l20.819 4.337c.61 2.719 1.33 5.412 2.153 8.065l-15.854 14.16c-2.649 2.366-3.275 6.267-1.499 9.344l11.313 19.596c1.776 3.077 5.466 4.484 8.841 3.374l20.222-6.661c1.882 2.037 3.847 4.002 5.884 5.884l-6.661 20.221c-1.111 3.375.297 7.065 3.374 8.842l19.596 11.314c3.076 1.776 6.977 1.15 9.344-1.499l14.16-15.854c2.653.823 5.346 1.542 8.064 2.153l4.337 20.819c.725 3.478 3.79 5.97 7.342 5.97h22.627c3.553 0 6.618-2.492 7.342-5.97l4.337-20.819c2.718-.61 5.412-1.33 8.064-2.153l11.955 13.386v20.181c0 7.003-5.702 12.7-12.71 12.7h-343.446c-7.008 0-12.71-5.697-12.71-12.7v-46.8c0-4.142-3.358-7.5-7.5-7.5s-7.5 3.358-7.5 7.5v46.8c0 15.274 12.431 27.7 27.71 27.7h343.45c15.279 0 27.71-12.426 27.71-27.7v-18.206l16.145-9.321c3.077-1.776 4.485-5.467 3.374-8.842l-6.661-20.221c2.037-1.882 4.002-3.847 5.884-5.884l20.221 6.66c3.374 1.11 7.065-.298 8.841-3.374l11.314-19.596c1.776-3.077 1.15-6.978-1.499-9.344l-15.854-14.16c.823-2.653 1.542-5.346 2.153-8.064l20.819-4.337c3.478-.725 5.97-3.79 5.97-7.342v-22.627c-.001-3.553-2.493-6.618-5.971-7.343zm-229.827-53.494c-3.663 0-6.642-2.979-6.642-6.642v-113.139c0-3.663 2.979-6.642 6.642-6.642h92.935c3.663 0 6.642 2.979 6.642 6.642v63.211h-3.813c-3.553 0-6.618 2.493-7.342 5.97l-4.337 20.819c-2.719.61-5.413 1.33-8.065 2.153l-14.16-15.854c-2.366-2.649-6.267-3.276-9.344-1.499l-19.596 11.313c-3.077 1.776-4.485 5.467-3.374 8.841l6.661 20.222c-2.037 1.882-4.001 3.847-5.884 5.884l-20.221-6.661c-3.374-1.112-7.065.297-8.842 3.374l-1.159 2.007h-.101zm220.797 77.365-19.705 4.105c-3.012.627-5.335 3.031-5.86 6.062-.909 5.249-2.291 10.427-4.109 15.391-1.057 2.886-.246 6.125 2.046 8.173l15 13.396-5.215 9.033-19.132-6.302c-2.917-.959-6.125-.046-8.098 2.31-3.405 4.068-7.194 7.857-11.262 11.261-2.356 1.972-3.271 5.181-2.311 8.099l6.302 19.132-9.033 5.215-13.396-15c-2.047-2.292-5.288-3.104-8.173-2.046-4.964 1.818-10.142 3.2-15.391 4.109-3.032.525-5.435 2.848-6.062 5.86l-4.105 19.705h-10.43l-4.105-19.705c-.627-3.012-3.031-5.335-6.062-5.86-5.249-.909-10.427-2.291-15.391-4.109-2.888-1.058-6.125-.246-8.173 2.046l-13.396 15-9.034-5.215 6.302-19.132c.961-2.918.046-6.127-2.31-8.098-4.068-3.404-7.857-7.193-11.262-11.262-1.972-2.355-5.182-3.271-8.098-2.31l-19.132 6.302-5.215-9.033 15-13.396c2.292-2.047 3.104-5.287 2.046-8.173-1.817-4.961-3.2-10.139-4.109-15.39-.525-3.032-2.848-5.435-5.86-6.062l-19.705-4.105v-10.43l19.705-4.105c3.012-.627 5.335-3.031 5.86-6.062.909-5.251 2.292-10.429 4.109-15.39 1.057-2.886.246-6.126-2.046-8.173l-15-13.397 5.215-9.033 19.132 6.302c2.917.96 6.127.046 8.098-2.31 3.405-4.069 7.194-7.858 11.262-11.262 2.356-1.971 3.271-5.18 2.31-8.098l-6.302-19.132 9.033-5.215 13.397 15c2.048 2.292 5.286 3.104 8.173 2.046 4.96-1.817 10.139-3.2 15.391-4.109 3.031-.525 5.435-2.849 6.062-5.86l4.105-19.705h10.43l4.105 19.705c.627 3.012 3.031 5.335 6.062 5.86 5.252.91 10.43 2.292 15.391 4.109 2.886 1.057 6.125.246 8.173-2.046l13.397-15 9.033 5.215-6.302 19.132c-.961 2.918-.045 6.127 2.311 8.099 4.068 3.404 7.857 7.193 11.262 11.261 1.972 2.355 5.18 3.272 8.098 2.31l19.132-6.302 5.215 9.034-15 13.396c-2.292 2.047-3.104 5.287-2.046 8.173 1.818 4.964 3.2 10.142 4.109 15.391.525 3.032 2.848 5.435 5.86 6.062l19.705 4.105v10.428z"/><path d="m362.069 319.211c-17.503 0-31.744 14.24-31.744 31.744s14.24 31.744 31.744 31.744 31.744-14.24 31.744-31.744c0-17.503-14.24-31.744-31.744-31.744zm0 48.488c-9.232 0-16.744-7.511-16.744-16.744 0-9.232 7.511-16.744 16.744-16.744s16.744 7.511 16.744 16.744-7.511 16.744-16.744 16.744z"/><path d="m362.069 277.795c-40.341 0-73.16 32.819-73.16 73.16s32.819 73.161 73.16 73.161 73.161-32.82 73.161-73.161-32.821-73.16-73.161-73.16zm0 131.321c-32.07 0-58.16-26.091-58.16-58.161s26.09-58.16 58.16-58.16 58.161 26.09 58.161 58.16-26.092 58.161-58.161 58.161z"/><path d="m262.491 39.825c0-4.142-3.358-7.5-7.5-7.5h-175.768c-4.142 0-7.5 3.358-7.5 7.5v32.325c0 4.142 3.358 7.5 7.5 7.5h175.768c4.142 0 7.5-3.358 7.5-7.5zm-15 24.825h-160.768v-17.325h160.768z"/><path d="m79.223 479.675h129.301c4.142 0 7.5-3.358 7.5-7.5v-32.325c0-4.142-3.358-7.5-7.5-7.5h-129.301c-4.142 0-7.5 3.358-7.5 7.5v32.325c0 4.142 3.358 7.5 7.5 7.5zm7.5-32.325h114.301v17.325h-114.301z"/><path d="m111.549 111.976c4.142 0 7.5-3.358 7.5-7.5s-3.358-7.5-7.5-7.5h-32.326c-4.142 0-7.5 3.358-7.5 7.5s3.358 7.5 7.5 7.5z"/><path d="m262.491 104.476c0-4.142-3.358-7.5-7.5-7.5h-111.117c-4.142 0-7.5 3.358-7.5 7.5s3.358 7.5 7.5 7.5h111.118c4.142 0 7.499-3.358 7.499-7.5z"/><path d="m208.524 329.313h-46.468c-4.142 0-7.5 3.358-7.5 7.5s3.358 7.5 7.5 7.5h46.468c4.142 0 7.5-3.358 7.5-7.5s-3.358-7.5-7.5-7.5z"/><path d="m109.528 329.313c-4.142 0-7.5 3.358-7.5 7.5s3.358 7.5 7.5 7.5h20.203c4.142 0 7.5-3.358 7.5-7.5s-3.358-7.5-7.5-7.5z"/><path d="m208.524 361.638h-129.301c-4.142 0-7.5 3.358-7.5 7.5s3.358 7.5 7.5 7.5h129.301c4.142 0 7.5-3.358 7.5-7.5s-3.358-7.5-7.5-7.5z"/><path d="m79.223 408.963h76.772c4.142 0 7.5-3.358 7.5-7.5s-3.358-7.5-7.5-7.5h-76.772c-4.142 0-7.5 3.358-7.5 7.5s3.358 7.5 7.5 7.5z"/><path d="m208.524 393.963h-20.203c-4.142 0-7.5 3.358-7.5 7.5s3.358 7.5 7.5 7.5h20.203c4.142 0 7.5-3.358 7.5-7.5s-3.358-7.5-7.5-7.5z"/></g></g></svg>
