<svg id="Capa_1" enable-background="new 0 0 512 512" height="512" viewBox="0 0 512 512" width="512" xmlns="http://www.w3.org/2000/svg"><path d="m128.525 150.714h213.885c5.57 0 10.085-4.515 10.085-10.085s-4.515-10.085-10.085-10.085h-213.885c-5.57 0-10.085 4.515-10.085 10.085s4.515 10.085 10.085 10.085z"/><path d="m342.409 180.898h-69.69c-5.57 0-10.085 4.515-10.085 10.085s4.515 10.085 10.085 10.085h69.69c5.57 0 10.085-4.515 10.085-10.085s-4.515-10.085-10.085-10.085z"/><path d="m128.525 201.068h73.74c5.57 0 10.085-4.515 10.085-10.085s-4.515-10.085-10.085-10.085h-73.74c-5.57 0-10.085 4.515-10.085 10.085s4.515 10.085 10.085 10.085z"/><path d="m128.525 251.421h213.885c5.57 0 10.085-4.515 10.085-10.085s-4.515-10.085-10.085-10.085h-213.885c-5.57 0-10.085 4.515-10.085 10.085s4.515 10.085 10.085 10.085z"/><path d="m128.525 301.774h20.134c5.57 0 10.085-4.515 10.085-10.085s-4.515-10.085-10.085-10.085h-20.134c-5.57 0-10.085 4.515-10.085 10.085s4.515 10.085 10.085 10.085z"/><path d="m281.639 281.604h-82.632c-5.57 0-10.085 4.515-10.085 10.085s4.515 10.085 10.085 10.085h82.632c5.57 0 10.085-4.515 10.085-10.085s-4.515-10.085-10.085-10.085z"/><path d="m261.735 342.043c0-5.57-4.515-10.085-10.085-10.085h-123.125c-5.57 0-10.085 4.515-10.085 10.085s4.515 10.085 10.085 10.085h123.126c5.569-.001 10.084-4.516 10.084-10.085z"/><path d="m128.525 100.333h123.295c5.57 0 10.085-4.515 10.085-10.085s-4.515-10.085-10.085-10.085h-123.295c-5.57 0-10.085 4.515-10.085 10.085s4.515 10.085 10.085 10.085z"/><path d="m488.698 315.567-74.754-40.35v-177.857c0-.363-.021-.721-.059-1.075-.008-.075-.024-.149-.034-.224-.036-.28-.078-.559-.137-.831-.018-.084-.044-.166-.064-.25-.063-.26-.131-.517-.214-.769-.03-.093-.067-.183-.1-.274-.085-.236-.175-.469-.277-.696-.046-.102-.097-.202-.146-.303-.102-.209-.209-.414-.325-.614-.063-.109-.129-.216-.196-.323-.116-.184-.237-.364-.364-.54-.079-.11-.159-.218-.243-.325-.132-.167-.27-.328-.412-.487-.09-.101-.178-.203-.273-.3-.161-.166-.331-.323-.503-.478-.068-.061-.128-.129-.198-.188l-102.425-87.274c-.021-.017-.043-.032-.064-.05-.107-.09-.219-.171-.33-.257-.134-.103-.267-.207-.406-.303-.126-.088-.257-.168-.387-.25-.13-.081-.259-.163-.393-.238-.143-.081-.288-.155-.435-.229-.128-.064-.256-.128-.387-.186-.154-.07-.31-.134-.469-.196-.132-.051-.264-.1-.398-.145-.159-.055-.319-.107-.482-.154-.145-.042-.292-.077-.439-.113-.154-.037-.308-.075-.465-.105-.179-.034-.359-.058-.54-.082-.13-.017-.258-.04-.389-.052-.315-.031-.635-.049-.957-.049h-210.118c-18.912 0-34.297 15.405-34.297 34.341v20.376h-17.695c-18.927 0-34.325 15.405-34.325 34.341v388.602c0 18.935 15.398 34.34 34.325 34.34h364.535c.4 0 .793-.03 1.181-.075 4.471-.288 9.047-2.171 14.925-5.69 24.011-14.353 45.068-38.21 62.587-70.906 16.258-30.33 24.711-62.003 24.445-91.592-.159-17.566-6.384-21.74-18.298-28.17zm-177.18-283.64 64.956 55.348h-45.279c-10.85 0-19.677-8.823-19.677-19.668zm-286.35 445.732v-388.601c0-7.814 6.35-14.171 14.155-14.171h17.695v348.027c0 18.935 15.385 34.341 34.297 34.341h50.038c5.57 0 10.085-4.515 10.085-10.085s-4.515-10.085-10.085-10.085h-50.038c-7.79 0-14.127-6.357-14.127-14.171v-388.573c0-7.814 6.337-14.171 14.127-14.171h200.033v47.437c0 21.967 17.876 39.838 39.847 39.838h62.578v167.772l-74.439 40.179-.297.16c-11.945 6.43-18.185 10.604-18.344 28.18-.266 29.59 8.187 61.262 24.444 91.591.319.596.648 1.167.97 1.757h-95.016c-5.57 0-10.085 4.515-10.085 10.085s4.515 10.085 10.085 10.085h107.226c9.187 13.619 19.158 25.16 29.841 34.575h-328.835c-7.805.001-14.155-6.355-14.155-14.17zm439.605-51.857c-15.77 29.432-34.327 50.67-55.164 63.125-4.058 2.429-5.367 2.862-5.739 2.904-.003 0-.005 0-.008 0-.422-.043-1.734-.479-5.784-2.904-.001-.001-.003-.002-.005-.003-20.537-12.278-39.611-34.105-55.159-63.124-14.663-27.354-22.289-55.669-22.052-81.882.048-5.382.677-6.275.704-6.31.647-.856 4.039-2.682 7.032-4.292l75.261-40.623 74.952 40.456.307.166c2.98 1.609 6.359 3.432 7.003 4.286.027.036.657.931.705 6.317.237 26.214-7.389 54.528-22.053 81.884z"/><path d="m186.236 437.085h-.057c-5.57 0-10.057 4.515-10.057 10.085s4.543 10.085 10.113 10.085 10.085-4.515 10.085-10.085-4.514-10.085-10.084-10.085z"/><path d="m427.784 358.922-35.12 36.066-13.056-12.244c-4.063-3.809-10.445-3.604-14.255.458-3.81 4.063-3.605 10.445.458 14.255l20.275 19.013c1.944 1.823 4.422 2.729 6.897 2.729 2.628 0 5.252-1.022 7.227-3.049l42.024-43.156c3.886-3.99 3.801-10.375-.189-14.261-3.992-3.885-10.377-3.8-14.261.189z"/></svg>
