<svg width="129" height="129" viewBox="0 0 129 129" fill="none" xmlns="http://www.w3.org/2000/svg">
<g clip-path="url(#clip0_5436_2371)">
<path d="M126.432 57.4651C127.47 57.4651 128.312 56.6234 128.312 55.5847V20.7607C128.312 17.2354 125.444 14.3675 121.919 14.3675H109.509V6.89322C109.509 3.36792 106.641 0.5 103.115 0.5H93.4494C89.9241 0.5 87.0562 3.36792 87.0562 6.89322V14.3675H41.9436V6.89322C41.9436 3.36792 39.0757 0.5 35.5504 0.5H25.8843C22.3591 0.5 19.4911 3.36792 19.4911 6.89322V14.3675H7.08127C3.55597 14.3675 0.688049 17.2354 0.688049 20.7607V105.64C0.688049 109.165 3.55597 112.033 7.08127 112.033H37.2698V115.465C37.2698 118.161 39.463 120.354 42.1587 120.354H53.1385C54.7629 125.155 59.3161 128.5 64.4999 128.5C69.6837 128.5 74.2369 125.155 75.8613 120.354H86.8411C89.5367 120.354 91.73 118.161 91.73 115.465V112.033H121.918C125.444 112.033 128.311 109.165 128.311 105.64V64.36C128.311 63.3213 127.47 62.4796 126.431 62.4796C125.392 62.4796 124.551 63.3213 124.551 64.36V105.64C124.551 107.092 123.37 108.273 121.918 108.273H91.7302V107.272C91.7302 104.607 89.5849 102.436 86.9306 102.388V86.0498C86.9306 80.0587 84.5972 74.4257 80.3608 70.1886C76.5705 66.3985 71.662 64.1376 66.3802 63.7016V60.0437C69.0867 59.2329 71.0651 56.721 71.0651 53.7543C71.0651 50.1344 68.12 47.189 64.4996 47.189C60.8793 47.189 57.9342 50.1342 57.9342 53.7543C57.9342 56.7212 59.9128 59.2334 62.6195 60.0439V63.6981C51.1275 64.6563 42.0687 74.3143 42.0687 86.0498V102.388C39.4147 102.436 37.2695 104.607 37.2695 107.272V108.273H7.08127C5.62963 108.273 4.44877 107.092 4.44877 105.64V41.5565H124.551V55.5847C124.551 56.6234 125.393 57.4651 126.432 57.4651ZM64.5001 124.739C61.3935 124.739 58.6186 122.99 57.2217 120.354H71.7784C70.3817 122.99 67.6067 124.739 64.5001 124.739ZM61.6951 53.7543C61.6951 52.2079 62.9535 50.9498 64.4999 50.9498C66.0463 50.9498 67.3046 52.2079 67.3046 53.7543C67.3046 55.3007 66.0463 56.559 64.4999 56.559C62.9535 56.559 61.6951 55.3007 61.6951 53.7543ZM41.0308 107.272C41.0308 106.65 41.537 106.144 42.159 106.144H50.1919C51.2306 106.144 52.0722 105.302 52.0722 104.263C52.0722 103.225 51.2306 102.383 50.1919 102.383H45.8299V86.0498C45.8299 75.7547 54.2053 67.3793 64.5001 67.3793C69.4871 67.3793 74.1755 69.3214 77.7018 72.8479C81.2281 76.3745 83.1703 81.0633 83.1703 86.0498V102.383H58.9671C57.9284 102.383 57.0868 103.225 57.0868 104.263C57.0868 105.302 57.9284 106.144 58.9671 106.144H86.8418C87.4638 106.144 87.97 106.65 87.97 107.272V115.465C87.97 116.087 87.4638 116.594 86.8418 116.594H42.159C41.537 116.594 41.0308 116.087 41.0308 115.465V107.272ZM90.8169 6.89322C90.8169 5.44158 91.9977 4.26072 93.4494 4.26072H103.115C104.567 4.26072 105.748 5.44158 105.748 6.89322V24.4966C105.748 25.9483 104.567 27.1291 103.115 27.1291H93.4494C91.9977 27.1291 90.8169 25.9483 90.8169 24.4966V6.89322ZM23.2521 6.89322C23.2521 5.44158 24.433 4.26072 25.8846 4.26072H35.5506C37.0023 4.26072 38.1831 5.44158 38.1831 6.89322V24.4966C38.1831 25.9483 37.0023 27.1291 35.5506 27.1291H25.8846C24.433 27.1291 23.2521 25.9483 23.2521 24.4966V6.89322ZM4.44877 37.7958V20.7607C4.44877 19.3091 5.62963 18.1282 7.08127 18.1282H19.4911V24.4966C19.4911 28.0219 22.3591 30.8899 25.8843 30.8899H35.5504C39.0757 30.8899 41.9436 28.0219 41.9436 24.4966V18.1282H87.0562V24.4966C87.0562 28.0219 89.9241 30.8899 93.4494 30.8899H103.115C106.641 30.8899 109.509 28.0219 109.509 24.4966V18.1282H121.919C123.37 18.1282 124.551 19.3091 124.551 20.7607V37.7958H4.44877Z" fill="black"/>
</g>
<defs>
<clipPath id="clip0_5436_2371">
<rect width="128" height="128" fill="white" transform="translate(0.5 0.5)"/>
</clipPath>
</defs>
</svg>
