<svg id="Capa_1" enable-background="new 0 0 512 512" height="512" viewBox="0 0 512 512" width="512" xmlns="http://www.w3.org/2000/svg"><path d="m494.312 173.652c-5.971-10.748-15.769-18.527-27.591-21.905-11.822-3.377-24.254-1.949-34.999 4.022l-37.031 20.572-28.722-43.928c31.307-5.481 55.184-32.844 55.184-65.698 0-36.787-29.928-66.715-66.715-66.715-36.788 0-66.716 29.928-66.716 66.716 0 5.9.779 11.62 2.223 17.072-16.999-.002-49.347-.004-110.999-.008-16.777 0-32.226 9.129-40.32 23.824l-39.304 71.369c-5.931 10.769-7.312 23.204-3.892 35.013 3.422 11.809 11.237 21.58 22.005 27.508 6.789 3.741 14.459 5.718 22.179 5.718 16.792 0 32.251-9.131 40.347-23.83l26.183-47.544h23.86l-72.288 126.183h-99.784c-25.38 0-46.03 20.649-46.03 46.03s20.649 46.03 46.03 46.03h126.187c16.202 0 31.386-8.665 39.628-22.613l13.564-22.956 33.978 26.771-29.55 73.514c-4.585 11.408-4.454 23.919.37 35.227 4.824 11.309 13.764 20.062 25.173 24.648 5.497 2.209 11.269 3.329 17.155 3.329 18.903 0 35.671-11.333 42.718-28.871l42.408-105.5c7.57-18.834 1.723-40.76-14.221-53.322l-52.129-41.071 24.287-41.437 13.581 20.77c8.536 13.051 22.946 20.842 38.548 20.842 7.782 0 15.503-2.005 22.33-5.797l74.473-41.372c22.185-12.327 30.206-40.406 17.88-62.591zm-103.158-106.936c0 20.246-16.47 36.716-36.715 36.716-20.246 0-36.716-16.47-36.716-36.716s16.47-36.716 36.715-36.716 36.716 16.47 36.716 36.716zm70.708 143.302-74.471 41.372c-2.381 1.322-5.065 2.021-7.762 2.021-5.442 0-10.467-2.715-13.44-7.262l-26.831-41.036c-2.842-4.346-7.723-6.956-12.922-6.786-5.191.127-9.948 2.93-12.574 7.41l-43.141 73.604c-3.788 6.464-2.227 14.73 3.658 19.367l62.397 49.16c5.553 4.375 7.589 12.011 4.952 18.569l-42.409 105.502c-2.455 6.11-8.296 10.058-14.882 10.058-2.036 0-4.045-.393-5.968-1.165-3.974-1.597-7.087-4.645-8.766-8.584-1.681-3.937-1.726-8.294-.129-12.266l33.74-83.938c2.483-6.18.596-13.256-4.635-17.377l-56.275-44.337c-2.666-2.101-5.941-3.218-9.283-3.218-.918 0-1.841.084-2.758.256-4.253.795-7.955 3.389-10.156 7.113l-22.289 37.721c-2.87 4.857-8.158 7.875-13.801 7.875h-126.185c-8.839 0-16.03-7.191-16.03-16.03s7.191-16.03 16.03-16.03h108.48c5.377 0 10.343-2.878 13.015-7.544l89.473-156.182c2.659-4.642 2.644-10.349-.038-14.977-2.683-4.629-7.628-7.478-12.977-7.478h-58.603c-5.468 0-10.502 2.975-13.138 7.764l-30.459 55.308c-2.821 5.121-8.212 8.303-14.069 8.303-2.71 0-5.302-.671-7.706-1.995-3.75-2.065-6.472-5.468-7.663-9.58s-.71-8.443 1.355-12.193l39.304-71.368c2.818-5.118 8.198-8.297 14.04-8.297 1.211 0 114.472.007 128.263.009 5.645 5.663 12.306 10.305 19.672 13.661l50.34 76.99c4.306 6.584 12.966 8.722 19.839 4.903l49.233-27.351c3.741-2.08 8.07-2.577 12.187-1.4 4.116 1.177 7.529 3.886 9.608 7.628v.001c4.293 7.728 1.499 17.506-6.226 21.799z"/></svg>
