<?xml version="1.0" encoding="iso-8859-1"?>
<!-- Generator: Adobe Illustrator 19.0.0, SVG Export Plug-In . SVG Version: 6.00 Build 0)  -->
<svg version="1.1" id="Layer_1" xmlns="http://www.w3.org/2000/svg" xmlns:xlink="http://www.w3.org/1999/xlink" x="0px" y="0px"
	 viewBox="0 0 512.001 512.001" style="enable-background:new 0 0 512.001 512.001;" xml:space="preserve">
<g>
	<g>
		<path d="M231.63,222.139H8.061C3.609,222.139,0,225.748,0,230.2s3.609,8.061,8.061,8.061H231.63c4.452,0,8.061-3.609,8.061-8.061
			S236.082,222.139,231.63,222.139z"/>
	</g>
</g>
<g>
	<g>
		<path d="M145.642,187.748l-68.79-0.004c-4.452,0-8.061,3.608-8.061,8.061s3.608,8.06,8.061,8.061l68.79,0.004
			c4.452,0,8.061-3.608,8.061-8.061C153.704,191.356,150.095,187.748,145.642,187.748z"/>
	</g>
</g>
<g>
	<g>
		<path d="M145.642,153.348h-0.001l-25.796,0.004c-4.453,0-8.061,3.61-8.06,8.063c0,4.452,3.609,8.06,8.061,8.06l25.797-0.004
			c4.453,0,8.061-3.61,8.06-8.062C153.704,156.957,150.094,153.348,145.642,153.348z"/>
	</g>
</g>
<g>
	<g>
		<path d="M214.433,256.534H76.852c-4.452,0-8.061,3.609-8.061,8.061s3.609,8.061,8.061,8.061h137.581
			c4.452,0,8.061-3.609,8.061-8.061S218.885,256.534,214.433,256.534z"/>
	</g>
</g>
<g>
	<g>
		<path d="M42.457,187.744H25.259c-4.452,0-8.061,3.609-8.061,8.061s3.609,8.061,8.061,8.061h17.198
			c4.452,0,8.061-3.609,8.061-8.061S46.909,187.744,42.457,187.744z"/>
	</g>
</g>
<g>
	<g>
		<path d="M382.671,206.601l20.795,9.359c6.653,2.991,13.707,4.509,20.966,4.509c12.872,0,25.181-4.825,34.66-13.589l44.298-40.984
			c9.37-8.668,11.365-22.849,4.642-32.988c-4.146-6.252-10.752-10.347-18.124-11.233c-7.368-0.884-14.724,1.494-20.176,6.533
			l-44.947,41.589c-0.16,0.148-0.39,0.185-0.587,0.097l-38.099-17.145c-7.299-3.285-15.941-0.834-20.553,5.825
			c-6.592,9.517-16.23,14.052-23.438,11.027c-7.494-3.145-10.999-13.959-8.333-25.713c1.75-7.722-2.182-15.667-9.35-18.893
			l-41.695-18.763c-17.961-8.082-39.227-5.022-54.178,7.794l-47.056,40.333c-9.695,8.31-12.236,22.414-5.91,32.806
			c3.903,6.41,10.349,10.755,17.688,11.92c7.333,1.164,14.774-0.939,20.403-5.771l47.756-40.932
			c0.158-0.134,0.383-0.167,0.573-0.083l19.843,8.93c2.246,1.011,3.957,2.84,4.814,5.15c0.858,2.31,0.758,4.811-0.284,7.044
			L218.46,319.067c-0.118,0.253-0.39,0.375-0.663,0.282l-100.639-34.358c-4.191-1.508-8.807,0.666-10.314,4.856l-20.378,56.637
			c-0.723,2.012-0.619,4.228,0.291,6.163c0.91,1.934,2.553,3.428,4.565,4.151l8.091,2.911c3.774,1.358,7.633,2.001,11.43,2.001
			c11.319,0,22.081-5.725,28.36-15.317l68.652,22.856c5.237,1.746,10.671,2.63,16.153,2.63c19.698,0,37.813-11.515,46.195-29.349
			l15.737-30.742l72.753,30.076c0.157,0.066,0.258,0.177,0.32,0.38l27.933,89.164v30.961c0,4.452,3.609,8.061,8.061,8.061h60.192
			c4.452,0,8.061-3.609,8.061-8.061v-8.599c0-16.19-11.427-29.756-26.637-33.074l-31.111-100.361
			c-4.478-14.55-15.106-26.256-29.162-32.118l-34.905-14.543l29.195-62.606C372.742,206.566,378.138,204.562,382.671,206.601z
			 M276.007,140.922l-7.39-3.326c-5.86-2.638-12.799-1.639-17.679,2.544l-47.759,40.935c-2.036,1.747-4.724,2.507-7.381,2.085
			c-2.696-0.428-4.984-1.983-6.443-4.38c-2.226-3.658-1.072-9.008,2.63-12.181l47.056-40.333c10.23-8.77,24.782-10.862,37.07-5.332
			l7.726,3.477L276.007,140.922z M127.561,333.857c-3.31,9.202-13.489,13.995-22.691,10.684l-0.506-0.182l14.92-41.467l17.193,6.186
			L127.561,333.857z M410.529,181.42l7.052,3.174c6.107,2.748,13.234,1.585,18.152-2.964l44.945-41.587
			c1.971-1.822,4.627-2.684,7.306-2.362c2.712,0.327,5.06,1.794,6.611,4.135c2.363,3.563,1.417,8.942-2.154,12.245l-44.296,40.982
			c-6.489,6-14.91,9.303-23.712,9.303c-4.964,0-9.793-1.039-14.351-3.09l-7.383-3.322L410.529,181.42z M255.785,335.313
			c-0.045,0.088-0.088,0.177-0.13,0.267c-5.716,12.259-18.139,20.18-31.649,20.18c-3.746,0-7.465-0.606-11.057-1.805l-67.409-22.442
			l6.174-17.158l60.975,20.287c8.035,2.694,16.796-1.071,20.382-8.758l0.441-0.945l22.765,9.411L255.785,335.313z M447.138,453.773
			v0.537h-44.069v-18.273h26.334C439.182,436.038,447.138,443.994,447.138,453.773z M366.377,301.529l3.771,1.571
			c9.618,4.011,16.891,12.022,19.961,21.995l29.393,94.82H400.24l-25.831-82.448c-1.462-4.751-4.93-8.572-9.538-10.492l-7.452-3.081
			L366.377,301.529z M356.029,204.258l-29.478,63.212l-31.65-13.084c-4.115-1.699-8.828,0.256-10.529,4.37
			c-1.701,4.115,0.256,8.829,4.37,10.529l62.75,26.044l-8.974,22.407l-57.291-23.683c-3.878-1.604-8.342,0.039-10.256,3.777
			l-11.325,22.124l-23.316-9.639l60.657-130.077c2.878-6.174,3.158-13.089,0.785-19.474c-2.084-5.607-5.986-10.187-11.113-13.113
			l7.882-16.619l19.262,8.668c0.24,0.109,0.293,0.4,0.243,0.625c-4.47,19.713,2.857,37.866,17.819,44.144
			c14.303,6.003,31.959-0.871,42.932-16.713c0.155-0.224,0.435-0.413,0.683-0.302l16.343,7.354l-7.849,16.551
			C375.732,186.657,361.636,192.235,356.029,204.258z"/>
	</g>
</g>
<g>
	<g>
		<path d="M412.205,41.568h-42.994c-18.669,0-33.858,15.189-33.858,33.858v17.198c0,23.41,19.046,42.457,42.457,42.457
			c23.41,0,42.457-19.046,42.457-42.457V49.629C420.267,45.177,416.657,41.568,412.205,41.568z M404.144,92.623
			c0,14.52-11.813,26.334-26.334,26.334c-14.52,0-26.334-11.814-26.334-26.334V75.426c0-9.779,7.956-17.735,17.735-17.735h34.933
			V92.623z"/>
	</g>
</g>
<g>
</g>
<g>
</g>
<g>
</g>
<g>
</g>
<g>
</g>
<g>
</g>
<g>
</g>
<g>
</g>
<g>
</g>
<g>
</g>
<g>
</g>
<g>
</g>
<g>
</g>
<g>
</g>
<g>
</g>
</svg>
