<?xml version="1.0" standalone="no"?>
<!DOCTYPE svg PUBLIC "-//W3C//DTD SVG 20010904//EN"
 "http://www.w3.org/TR/2001/REC-SVG-20010904/DTD/svg10.dtd">
<svg version="1.0" xmlns="http://www.w3.org/2000/svg"
 width="260.000000pt" height="260.000000pt" viewBox="0 0 260.000000 260.000000"
 preserveAspectRatio="xMidYMid meet">
<metadata>
Created by potrace 1.14, written by Peter Selinger 2001-2017
</metadata>
<g transform="translate(0.000000,260.000000) scale(0.100000,-0.100000)"
fill="#000000" stroke="none">
<path d="M1177 2586 c-67 -29 -117 -107 -117 -183 0 -12 -15 -24 -48 -37 -175
-69 -342 -229 -426 -406 -74 -156 -77 -183 -78 -657 l-1 -423 -123 -116 -124
-117 0 -109 0 -108 996 2 997 3 -1 105 -1 105 -123 117 -123 118 -1 310 c0
170 -3 313 -7 316 -4 4 -26 8 -50 9 -105 6 -216 59 -292 140 -152 161 -161
417 -22 583 35 42 31 48 -71 97 -42 20 -84 41 -92 45 -8 4 -18 28 -22 54 -14
100 -80 158 -182 162 -34 1 -74 -4 -89 -10z"/>
<path d="M1854 2297 c-64 -28 -95 -48 -134 -89 -65 -68 -99 -163 -94 -265 11
-271 317 -431 547 -286 163 103 215 311 122 482 -35 64 -91 114 -165 149 -77
37 -202 41 -276 9z"/>
<path d="M910 282 c0 -32 32 -116 59 -154 114 -161 427 -170 566 -16 42 47 75
119 75 165 l0 23 -350 0 c-332 0 -350 -1 -350 -18z"/>
</g>
</svg>
