<svg width="128" height="128" viewBox="0 0 128 128" fill="none" xmlns="http://www.w3.org/2000/svg">
<g clip-path="url(#clip0_6311_9575)">
<path d="M13.1356 105.339H93.2878C94.3236 105.339 95.1628 104.5 95.1628 103.464C95.1628 102.428 94.3236 101.589 93.2878 101.589H13.1356C11.6753 101.589 10.4873 100.401 10.4873 98.9407V26.0474H44.2016C41.9081 29.6852 40.5788 33.9892 40.5788 38.5982V46.6989C37.1923 47.1732 34.5773 50.0874 34.5773 53.6027V86.9362C34.5773 90.7812 37.7053 93.9092 41.5503 93.9092H86.8113C90.6563 93.9092 93.7843 90.7812 93.7843 86.9362V53.6029C93.7843 50.0877 91.1693 47.1734 87.7826 46.6992V38.5984C87.7826 33.9892 86.4533 29.6854 84.1598 26.0477H119.138V98.9409C119.138 100.401 117.95 101.589 116.49 101.589H102.282C101.246 101.589 100.407 102.428 100.407 103.464C100.407 104.5 101.246 105.339 102.282 105.339H116.49C120.018 105.339 122.888 102.469 122.888 98.9409V14.1582C122.888 9.20744 118.86 5.17969 113.909 5.17969H38.9261C37.8903 5.17969 37.0511 6.01894 37.0511 7.05469C37.0511 8.09044 37.8903 8.92969 38.9261 8.92969H113.909C116.792 8.92969 119.138 11.2752 119.138 14.1582V22.2974H81.3611C81.3201 22.2974 81.2798 22.3009 81.2393 22.3034C76.9391 17.8034 70.8815 14.9962 64.1805 14.9962C57.4533 14.9962 51.3748 17.8257 47.0716 22.3564C46.9241 22.3192 10.4873 22.2972 10.4873 22.2972V14.1582C10.4873 11.2752 12.8328 8.92969 15.7158 8.92969H30.1583C31.1941 8.92969 32.0333 8.09044 32.0333 7.05469C32.0333 6.01894 31.1941 5.17969 30.1583 5.17969H15.7158C10.7651 5.17969 6.7373 9.20744 6.7373 14.1582V98.9409C6.7373 102.469 9.60755 105.339 13.1356 105.339ZM90.0343 53.6029V86.9364C90.0343 88.7134 88.5886 90.1594 86.8113 90.1594H41.5503C39.7733 90.1594 38.3273 88.7137 38.3273 86.9364V53.6029C38.3273 51.8259 39.7731 50.3799 41.5503 50.3799H86.8113C88.5886 50.3802 90.0343 51.8259 90.0343 53.6029ZM74.5733 46.6302H53.7881V38.5984C53.7881 32.8677 58.4501 28.2057 64.1805 28.2057C69.911 28.2057 74.5731 32.8677 74.5731 38.5984V46.6302H74.5733ZM64.1808 18.7464C75.1271 18.7464 84.0326 27.6519 84.0326 38.5982V46.6299H78.3233V38.5982C78.3233 30.7999 71.979 24.4554 64.1808 24.4554C56.3826 24.4554 50.0383 30.7999 50.0383 38.5982V46.6299H44.3291V38.5982C44.3288 27.6519 53.2346 18.7464 64.1808 18.7464Z" fill="black"/>
<path d="M91.6201 17.4883C92.6558 17.4883 93.4951 16.649 93.4951 15.6133C93.4951 14.5775 92.6558 13.7383 91.6201 13.7383H89.5701C88.5343 13.7383 87.6951 14.5775 87.6951 15.6133C87.6951 16.649 88.5343 17.4883 89.5701 17.4883H91.6201Z" fill="black"/>
<path d="M100.641 17.4883C101.676 17.4883 102.516 16.649 102.516 15.6133C102.516 14.5775 101.676 13.7383 100.641 13.7383H98.5906C97.5548 13.7383 96.7156 14.5775 96.7156 15.6133C96.7156 16.649 97.5548 17.4883 98.5906 17.4883H100.641Z" fill="black"/>
<path d="M109.661 17.4883C110.697 17.4883 111.536 16.649 111.536 15.6133C111.536 14.5775 110.697 13.7383 109.661 13.7383H107.611C106.575 13.7383 105.736 14.5775 105.736 15.6133C105.736 16.649 106.575 17.4883 107.611 17.4883H109.661Z" fill="black"/>
<path d="M126.125 113.899H105.969C105.146 110.921 102.414 108.728 99.1775 108.728C95.9412 108.728 93.2095 110.921 92.3863 113.899H35.6138C34.7905 110.921 32.0588 108.728 28.8228 108.728C25.5865 108.728 22.8547 110.921 22.0315 113.899H1.875C0.83925 113.899 0 114.738 0 115.774C0 116.81 0.83925 117.649 1.875 117.649H22.0315C22.8547 120.627 25.5865 122.82 28.8228 122.82C32.0588 122.82 34.7905 120.627 35.6138 117.649H92.3865C93.2097 120.627 95.9415 122.82 99.1777 122.82C102.414 122.82 105.146 120.627 105.969 117.649H126.125C127.161 117.649 128 116.81 128 115.774C128 114.738 127.161 113.899 126.125 113.899ZM28.8228 119.07C27.005 119.07 25.5263 117.591 25.5263 115.774C25.5263 113.956 27.005 112.477 28.8228 112.477C30.6402 112.477 32.119 113.956 32.119 115.774C32.119 117.591 30.6402 119.07 28.8228 119.07ZM99.1775 119.07C97.3597 119.07 95.881 117.591 95.881 115.774C95.881 113.956 97.3597 112.477 99.1775 112.477C100.995 112.477 102.474 113.956 102.474 115.774C102.474 117.591 100.995 119.07 99.1775 119.07Z" fill="black"/>
<path d="M74.6482 63.1457C73.9162 62.4137 72.7289 62.4135 71.9967 63.146C71.2644 63.8782 71.2644 65.0655 71.9969 65.7975L76.4694 70.2697L71.9967 74.7422C71.2644 75.4747 71.2644 76.6617 71.9967 77.394C72.3629 77.76 72.8429 77.943 73.3227 77.943C73.8024 77.943 74.2824 77.76 74.6487 77.394L80.4469 71.5957C80.7984 71.244 80.9959 70.7672 80.9959 70.2697C80.9959 69.7722 80.7984 69.2957 80.4467 68.9437L74.6482 63.1457Z" fill="black"/>
<path d="M51.8922 70.2697L56.3647 65.7974C57.0972 65.0652 57.0972 63.8779 56.365 63.1459C55.6327 62.4139 54.4455 62.4134 53.7135 63.1456L47.9152 68.9436C47.5635 69.2954 47.366 69.7722 47.366 70.2697C47.366 70.7672 47.5635 71.2436 47.915 71.5956L53.7132 77.3939C54.0795 77.7599 54.5595 77.9429 55.0392 77.9429C55.519 77.9429 55.999 77.7599 56.3652 77.3939C57.0975 76.6614 57.0975 75.4744 56.3652 74.7421L51.8922 70.2697Z" fill="black"/>
<path d="M66.0639 62.6508C65.0587 62.4026 64.0422 63.0161 63.7937 64.0211L60.9274 75.6176C60.6792 76.6228 61.2927 77.6393 62.2977 77.8878C62.4487 77.9251 62.6002 77.9431 62.7492 77.9431C63.5912 77.9431 64.3569 77.3716 64.5679 76.5176L67.4342 64.9211C67.6824 63.9158 67.0689 62.8996 66.0639 62.6508Z" fill="black"/>
</g>
<defs>
<clipPath id="clip0_6311_9575">
<rect width="128" height="128" fill="white"/>
</clipPath>
</defs>
</svg>
