<svg width="128" height="128" viewBox="0 0 128 128" fill="none" xmlns="http://www.w3.org/2000/svg">
<g clip-path="url(#clip0_6311_9539)">
<path d="M107.26 81.0871C108.302 81.0871 109.145 80.2431 109.145 79.2021V61.7874C109.145 60.7464 108.302 59.9023 107.26 59.9023H103.538C102.497 59.9023 101.653 60.7464 101.653 61.7874C101.653 62.8285 102.497 63.6725 103.538 63.6725H105.375V79.2021C105.375 80.2431 106.219 81.0871 107.26 81.0871Z" fill="black"/>
<path d="M105.03 95.3332C104.018 95.0871 102.999 95.7069 102.752 96.7186L97.7374 117.306C97.6188 117.793 97.2262 117.927 97.0625 117.963C96.8997 117.998 96.486 118.037 96.1776 117.642L59.5854 70.7809L122.95 13.8064L115.318 45.1362C115.072 46.1479 115.692 47.1676 116.703 47.4139C116.853 47.4503 117.003 47.4679 117.151 47.4679C118 47.4679 118.771 46.8901 118.981 46.0285L127.914 9.35889C128.13 8.46888 127.846 7.53061 127.173 6.91004C126.499 6.28972 125.541 6.08387 124.671 6.37267L34.2959 36.438C33.3079 36.7667 32.7735 37.8339 33.1023 38.8217C33.4308 39.8095 34.4985 40.3441 35.4858 40.0153L119.097 12.2011L56.5961 68.3984L5.56399 49.9696L27.7773 42.58C28.7653 42.2513 29.2997 41.1841 28.9709 40.1963C28.6424 39.2088 27.5755 38.6744 26.5874 39.0027L1.98209 47.1877C0.793983 47.5828 0.0163241 48.647 0.000238096 49.8989C-0.0153452 51.1506 0.735168 52.2342 1.91221 52.6592L37.0421 65.3453V98.9988C37.0421 100.55 37.8471 101.934 39.1953 102.701C39.8571 103.077 40.5798 103.265 41.3014 103.265C42.0504 103.265 42.7986 103.062 43.4772 102.659L51.7857 97.7167C52.6807 97.1843 52.9743 96.0276 52.4422 95.1328C51.9098 94.2378 50.7532 93.9442 49.8584 94.4763L41.5499 99.4185C41.3479 99.5386 41.1717 99.4871 41.0591 99.4233C40.9465 99.3592 40.8122 99.2335 40.8122 98.9988V66.7068L55.8657 72.1429L65.8687 84.9529L56.7635 90.3691C55.8685 90.9015 55.5749 92.0581 56.107 92.9529C56.4597 93.5456 57.0863 93.8746 57.729 93.8746C58.057 93.8746 58.3887 93.7891 58.6908 93.6094L68.2077 87.9484L93.2062 119.962C94.1045 121.113 95.4456 121.755 96.8595 121.755C97.1892 121.755 97.523 121.72 97.856 121.648C99.6162 121.27 100.974 119.948 101.401 118.198L106.416 97.6108C106.662 96.5994 106.042 95.5797 105.03 95.3332Z" fill="black"/>
<path d="M126.484 72.7292C125.468 72.51 124.464 73.1573 124.244 74.1747C122.533 82.1121 115.391 87.873 107.26 87.873C97.6782 87.873 89.8825 80.0773 89.8825 70.495C89.8825 60.9128 97.6782 53.1171 107.26 53.1171C115.446 53.1171 122.599 58.9234 124.269 66.9232C124.482 67.9424 125.482 68.5969 126.5 68.3832C127.519 68.1703 128.173 67.1718 127.96 66.1526C125.927 56.4145 117.221 49.3467 107.261 49.3467C95.5995 49.3467 86.1125 58.8337 86.1125 70.4948C86.1125 82.1559 95.5995 91.6429 107.261 91.6429C112.123 91.6429 116.871 89.9511 120.63 86.8791C124.335 83.8517 126.927 79.6216 127.93 74.9685C128.149 73.9515 127.502 72.9484 126.484 72.7292Z" fill="black"/>
</g>
<defs>
<clipPath id="clip0_6311_9539">
<rect width="128" height="128" fill="white"/>
</clipPath>
</defs>
</svg>
