<svg height="512pt" viewBox="0 0 512 512" width="512pt" xmlns="http://www.w3.org/2000/svg"><path d="m192.078125 133.972656-9.300781 54.320313c-1.089844 6.367187 1.480468 12.683593 6.710937 16.480469 2.953125 2.144531 6.40625 3.234374 9.882813 3.234374 2.679687 0 5.375-.648437 7.863281-1.957031l48.773437-25.65625 48.789063 25.628907c5.71875 3.007812 12.519531 2.515624 17.746094-1.285157 5.226562-3.800781 7.796875-10.117187 6.699219-16.484375l-9.328126-54.316406 39.453126-38.476562c4.625-4.515626 6.257812-11.136719 4.261718-17.28125-2-6.144532-7.214844-10.539063-13.609375-11.464844l-54.542969-7.910156-24.398437-49.414063c-2.863281-5.792969-8.652344-9.390625-15.113281-9.390625 0 0 0 0-.003906 0-6.460938.00390625-12.25 3.605469-15.109376 9.398438l-24.375 49.425781-54.539062 7.941406c-6.394531.929687-11.605469 5.324219-13.601562 11.472656-1.996094 6.148438-.359376 12.765625 4.269531 17.273438zm28.914063-55.59375c5.488281-.800781 10.230468-4.246094 12.6875-9.222656l22.289062-45.191406 22.3125 45.179687c2.457031 4.976563 7.203125 8.421875 12.691406 9.214844l49.867188 7.234375-36.070313 35.179688c-3.972656 3.875-5.785156 9.449218-4.84375 14.921874l8.527344 49.660157-44.601563-23.433594c-4.914062-2.582031-10.777343-2.582031-15.691406 0l-44.59375 23.460937 8.503906-49.664062c.9375-5.46875-.875-11.046875-4.847656-14.917969l-36.09375-35.164062zm0 0"/><path d="m407.179688 103.992188c0 5.523437 4.476562 10 10 10h30.820312c5.523438 0 10-4.476563 10-10 0-5.523438-4.476562-10-10-10h-30.820312c-5.523438 0-10 4.476562-10 10zm0 0"/><path d="m416.164062 170.980469c1.953126 1.949219 4.511719 2.925781 7.070313 2.925781 2.5625 0 5.121094-.976562 7.074219-2.925781 3.902344-3.90625 3.902344-10.238281 0-14.144531l-21.703125-21.699219c-3.902344-3.902344-10.234375-3.902344-14.140625 0-3.90625 3.90625-3.90625 10.238281 0 14.144531zm0 0"/><path d="m401.535156 75.773438c2.558594 0 5.121094-.976563 7.070313-2.925782l21.679687-21.683594c3.90625-3.902343 3.90625-10.234374 0-14.140624-3.902344-3.90625-10.234375-3.90625-14.140625 0l-21.679687 21.679687c-3.90625 3.90625-3.90625 10.238281 0 14.144531 1.953125 1.953125 4.511718 2.925782 7.070312 2.925782zm0 0"/><path d="m63.929688 113.992188h30.820312c5.523438 0 10-4.476563 10-10 0-5.523438-4.476562-10-10-10h-30.820312c-5.523438 0-10 4.476562-10 10 0 5.523437 4.476562 10 10 10zm0 0"/><path d="m103.320312 135.136719-21.699218 21.699219c-3.90625 3.90625-3.90625 10.238281 0 14.144531 1.953125 1.953125 4.511718 2.929687 7.070312 2.929687s5.121094-.976562 7.070313-2.929687l21.699219-21.699219c3.90625-3.90625 3.90625-10.238281 0-14.144531-3.902344-3.902344-10.234376-3.902344-14.140626 0zm0 0"/><path d="m103.320312 72.847656c1.953126 1.953125 4.511719 2.929688 7.070313 2.929688s5.121094-.976563 7.070313-2.929688c3.90625-3.90625 3.90625-10.238281 0-14.144531l-21.679688-21.679687c-3.902344-3.902344-10.234375-3.902344-14.140625 0-3.90625 3.90625-3.90625 10.238281 0 14.144531zm0 0"/><path d="m354.460938 404c-2.632813 0-5.210938 1.070312-7.070313 2.929688-1.859375 1.859374-2.929687 4.441406-2.929687 7.070312s1.070312 5.210938 2.929687 7.070312c1.859375 1.859376 4.4375 2.929688 7.070313 2.929688 2.628906 0 5.210937-1.070312 7.070312-2.929688 1.867188-1.859374 2.929688-4.441406 2.929688-7.070312s-1.0625-5.210938-2.929688-7.070312c-1.859375-1.859376-4.441406-2.929688-7.070312-2.929688zm0 0"/><path d="m502 404h-56v-78c0-5.523438-4.476562-10-10-10h-70v-78c0-5.523438-4.476562-10-10-10h-200c-5.523438 0-10 4.476562-10 10v78h-70c-5.523438 0-10 4.476562-10 10v78h-56c-5.523438 0-10 4.476562-10 10v88c0 5.523438 4.476562 10 10 10h492c5.523438 0 10-4.476562 10-10v-88c0-5.523438-4.476562-10-10-10zm-336-156h180v68h-180zm326 244h-472v-68h293c5.523438 0 10-4.476562 10-10s-4.476562-10-10-10h-227v-24h85c5.523438 0 10-4.476562 10-10s-4.476562-10-10-10h-85v-24h340v68h-31.667969c-5.523437 0-10 4.476562-10 10s4.476563 10 10 10h97.667969zm0 0"/><path d="m216 360c-2.628906 0-5.210938 1.070312-7.070312 2.929688-1.859376 1.859374-2.929688 4.441406-2.929688 7.070312s1.070312 5.210938 2.929688 7.070312c1.859374 1.859376 4.441406 2.929688 7.070312 2.929688s5.210938-1.070312 7.070312-2.929688c1.859376-1.859374 2.929688-4.441406 2.929688-7.070312s-1.070312-5.210938-2.929688-7.070312c-1.859374-1.859376-4.441406-2.929688-7.070312-2.929688zm0 0"/></svg>
