<svg id="Capa_1" enable-background="new 0 0 512 512" viewBox="0 0 512 512" xmlns="http://www.w3.org/2000/svg"><g><path d="m488.19 30.63h-48.55c-4.143 0-7.5 3.357-7.5 7.5s3.357 7.5 7.5 7.5h48.551c4.857 0 8.81 3.952 8.81 8.811v39.835h-482.001v-39.836c0-4.858 3.952-8.811 8.81-8.811h380.83c4.143 0 7.5-3.357 7.5-7.5s-3.357-7.5-7.5-7.5h-380.83c-13.129.001-23.81 10.683-23.81 23.811v403.12c0 13.129 10.681 23.811 23.81 23.811h69c4.143 0 7.5-3.357 7.5-7.5s-3.357-7.5-7.5-7.5h-69c-4.857 0-8.81-3.952-8.81-8.811v-348.285h482v348.285c0 4.858-3.952 8.811-8.81 8.811h-360.38c-4.143 0-7.5 3.357-7.5 7.5s3.357 7.5 7.5 7.5h360.38c13.129 0 23.81-10.682 23.81-23.811v-403.12c0-13.128-10.681-23.81-23.81-23.81z"/><path d="m185.41 134.28h-131.91c-7.444 0-13.5 6.056-13.5 13.5v66.13c0 7.444 6.056 13.5 13.5 13.5h405c7.444 0 13.5-6.056 13.5-13.5v-66.13c0-7.444-6.056-13.5-13.5-13.5h-238.09c-4.143 0-7.5 3.357-7.5 7.5s3.357 7.5 7.5 7.5h236.59v63.13h-321.142v-63.13h49.552c4.143 0 7.5-3.357 7.5-7.5s-3.357-7.5-7.5-7.5zm-64.552 78.13h-65.858v-63.13h65.858z"/><path d="m67.935 188.478 11.756 9.094c1.321 1.021 2.937 1.567 4.589 1.567.329 0 .66-.021.989-.065 1.986-.265 3.783-1.312 4.992-2.909l18.666-24.671c2.499-3.304 1.847-8.007-1.456-10.507-3.304-2.499-8.006-1.847-10.507 1.456l-14.092 18.626-5.76-4.456c-3.275-2.533-7.985-1.934-10.521 1.344-2.534 3.275-1.933 7.985 1.344 10.521z"/><path d="m153.684 180.845c0 4.143 3.357 7.5 7.5 7.5h72.66c4.143 0 7.5-3.357 7.5-7.5s-3.357-7.5-7.5-7.5h-72.66c-4.143 0-7.5 3.357-7.5 7.5z"/><path d="m431.671 188.345c4.143 0 7.5-3.357 7.5-7.5s-3.357-7.5-7.5-7.5h-162.823c-4.143 0-7.5 3.357-7.5 7.5s3.357 7.5 7.5 7.5z"/><path d="m53.504 441.366h404.992c7.444 0 13.5-6.056 13.5-13.5v-66.132c0-7.444-6.056-13.5-13.5-13.5h-404.992c-7.444 0-13.5 6.056-13.5 13.5v66.132c0 7.445 6.056 13.5 13.5 13.5zm403.492-15h-321.138v-63.132h321.138zm-401.992-63.132h65.854v63.132h-65.854z"/><path d="m98.342 394.8 6.604-6.604c2.929-2.93 2.929-7.678 0-10.607-2.93-2.928-7.678-2.928-10.607 0l-6.604 6.604-6.604-6.604c-2.93-2.928-7.678-2.928-10.607 0-2.929 2.93-2.929 7.678 0 10.607l6.604 6.604-6.604 6.604c-2.929 2.93-2.929 7.678 0 10.607 1.465 1.464 3.385 2.196 5.304 2.196s3.839-.732 5.304-2.196l6.604-6.604 6.604 6.604c1.465 1.464 3.385 2.196 5.304 2.196s3.839-.732 5.304-2.196c2.929-2.93 2.929-7.678 0-10.607z"/><path d="m161.184 402.3h72.66c4.143 0 7.5-3.357 7.5-7.5s-3.357-7.5-7.5-7.5h-72.66c-4.143 0-7.5 3.357-7.5 7.5s3.357 7.5 7.5 7.5z"/><path d="m268.848 402.3h162.823c4.143 0 7.5-3.357 7.5-7.5s-3.357-7.5-7.5-7.5h-162.823c-4.143 0-7.5 3.357-7.5 7.5s3.357 7.5 7.5 7.5z"/><path d="m458.496 241.257h-404.992c-7.444 0-13.5 6.056-13.5 13.5v66.132c0 7.444 6.056 13.5 13.5 13.5h404.992c7.444 0 13.5-6.056 13.5-13.5v-66.132c0-7.445-6.056-13.5-13.5-13.5zm-403.492 15h65.854v63.132h-65.854zm401.992 63.132h-321.138v-63.132h321.138z"/><path d="m107.471 269.506c-3.304-2.499-8.006-1.847-10.507 1.456l-14.092 18.626-5.76-4.456c-3.275-2.534-7.985-1.933-10.521 1.344-2.534 3.276-1.933 7.986 1.344 10.521l11.756 9.094c1.321 1.021 2.937 1.567 4.589 1.567.329 0 .66-.021.989-.065 1.986-.265 3.783-1.312 4.992-2.909l18.666-24.671c2.499-3.304 1.846-8.007-1.456-10.507z"/><path d="m359.011 295.322h72.66c4.143 0 7.5-3.357 7.5-7.5s-3.357-7.5-7.5-7.5h-72.66c-4.143 0-7.5 3.357-7.5 7.5s3.357 7.5 7.5 7.5z"/><path d="m161.184 295.322h162.823c4.143 0 7.5-3.357 7.5-7.5s-3.357-7.5-7.5-7.5h-162.823c-4.143 0-7.5 3.357-7.5 7.5s3.357 7.5 7.5 7.5z"/><g><circle cx="42.069" cy="69.954" r="7.5"/><circle cx="76.192" cy="69.954" r="7.5"/><circle cx="110.31" cy="69.954" r="7.5"/></g></g><g/><g/><g/><g/><g/><g/><g/><g/><g/><g/><g/><g/><g/><g/><g/></svg>
