<svg id="Capa_1" enable-background="new 0 0 512.001 512.001" height="512" viewBox="0 0 512.001 512.001" width="512" xmlns="http://www.w3.org/2000/svg"><g><path d="m445.66 123.82c4.796 0 9.42-1.903 12.831-5.315l50.268-50.268c6.717-6.717 2.343-18.245-7.121-18.839l-26.75-1.679 17.455-17.455c2.929-2.929 2.929-7.678 0-10.606-2.93-2.929-7.678-2.929-10.607 0l-17.455 17.455-1.679-26.75c-.595-9.481-12.134-13.825-18.839-7.121l-50.269 50.268c-3.681 3.681-5.604 8.772-5.278 13.967l1.728 27.528c-41.954-35.772-96.025-56.286-153.303-56.286-130.79 0-236.641 105.838-236.641 236.64 0 59.031 21.86 115.57 61.555 159.2 2.789 3.063 7.532 3.287 10.595.5 3.064-2.788 3.288-7.531.501-10.595-37.177-40.862-57.651-93.815-57.651-149.105 0-122.213 99.428-221.641 221.641-221.641 57.272 0 111.164 21.95 151.475 59.559l-34.222 34.221c-30.949-28.409-72.156-45.794-117.253-45.794-95.753 0-173.654 77.901-173.654 173.654 0 27.558 6.648 55.007 19.228 79.381.001.001.001.002.002.003 29.149 56.481 87.854 94.27 154.425 94.27 82.029 0 153.372-57.939 170.046-138.346.841-4.056-1.765-8.026-5.821-8.867-4.055-.841-8.025 1.765-8.866 5.821-15.188 73.236-80.525 126.392-155.358 126.392-59.609 0-113.675-33.011-141.096-86.149 0-.001-.001-.002-.001-.003-11.65-22.575-17.558-46.968-17.558-72.502 0-87.482 71.172-158.654 158.654-158.654 40.97 0 78.428 15.702 106.649 41.397l-33.917 33.917c-19.464-17.008-44.914-27.328-72.732-27.328-61.022 0-110.667 49.645-110.667 110.667s49.645 110.667 110.667 110.667 110.668-49.645 110.668-110.667c0-27.818-10.32-53.268-27.329-72.732l33.919-33.919c25.496 27.994 41.161 65.09 41.393 105.728.023 4.127 3.377 7.457 7.499 7.457h.044c4.142-.024 7.48-3.401 7.457-7.543-.256-44.735-17.597-85.548-45.786-116.25l34.224-34.224c37.447 40.039 59.551 93.611 59.551 151.482-.001 122.216-99.428 221.644-221.641 221.644-50.629 0-100.135-17.514-139.398-49.315-3.221-2.606-7.94-2.111-10.549 1.107-2.607 3.219-2.111 7.942 1.107 10.549 41.926 33.958 94.785 52.659 148.84 52.659 130.79 0 236.641-105.838 236.641-236.641 0-51.213-16.094-99.954-46.54-140.952-3.152-4.245-6.435-8.36-9.828-12.357 29.401 1.847 27.816 1.77 28.746 1.77zm-113.351 151.539c0 52.751-42.916 95.667-95.668 95.667-52.751 0-95.667-42.916-95.667-95.667s42.916-95.667 95.667-95.667c23.682 0 45.378 8.653 62.102 22.958l-34.13 34.13c-7.864-5.717-17.528-9.102-27.972-9.102-26.291 0-47.681 21.39-47.681 47.681s21.39 47.681 47.681 47.681c26.292 0 47.682-21.39 47.682-47.681 0-10.445-3.385-20.109-9.102-27.972l34.13-34.13c14.304 16.724 22.958 38.42 22.958 62.102zm-100.972 5.304c2.93 2.929 7.678 2.929 10.607 0l22.482-22.482c3.1 4.995 4.896 10.88 4.896 17.179 0 18.021-14.661 32.681-32.682 32.681s-32.681-14.661-32.681-32.681 14.66-32.681 32.681-32.681c6.299 0 12.184 1.796 17.179 4.895l-22.483 22.483c-2.928 2.928-2.928 7.677.001 10.606zm171.85-214.126c-.057-.901.277-1.784.915-2.421l44.078-44.077 1.959 31.216-45.082 45.082zm12.477 40.406 45.082-45.082 31.216 1.959-44.078 44.078c-.637.638-1.527.977-2.421.915z"/></g></svg>
