<svg id="Capa_1" enable-background="new 0 0 512 512" height="512" viewBox="0 0 512 512" width="512" xmlns="http://www.w3.org/2000/svg"><g id="XMLID_1250_"><g id="XMLID_452_"><path id="XMLID_532_" d="m451.05 415.388c5.816-6.997 9.32-15.98 9.32-25.768v-12.315c0-22.26-18.11-40.37-40.371-40.37-22.26 0-40.371 18.11-40.371 40.37v12.315c0 9.788 3.504 18.772 9.32 25.768-22.133 7.96-40.361 24.174-50.949 44.917-10.587-20.742-28.816-36.957-50.95-44.917 5.816-6.997 9.32-15.98 9.32-25.768v-12.315c0-22.26-18.11-40.37-40.371-40.37s-40.371 18.11-40.371 40.37v12.315c0 9.788 3.504 18.772 9.32 25.768-22.133 7.96-40.361 24.174-50.949 44.917-10.587-20.742-28.816-36.957-50.95-44.917 5.816-6.997 9.32-15.98 9.32-25.768v-12.315c0-22.26-18.11-40.37-40.371-40.37s-40.371 18.11-40.371 40.37v12.315c0 9.788 3.504 18.772 9.32 25.768-35.492 12.765-60.946 46.767-60.946 86.612 0 5.523 4.477 10 10 10h492c5.523 0 10-4.488 10-10.011 0-39.836-25.453-73.836-60.95-86.601zm-51.421-25.769v-12.315c0-11.232 9.138-20.37 20.371-20.37 11.232 0 20.371 9.138 20.371 20.37v12.315c0 11.232-9.138 20.371-20.371 20.371-11.232 0-20.371-9.138-20.371-20.371zm-164 0v-12.315c0-11.232 9.138-20.37 20.371-20.37 11.232 0 20.371 9.138 20.371 20.37v12.315c0 11.232-9.138 20.371-20.371 20.371-11.232 0-20.371-9.138-20.371-20.371zm-164 0v-12.315c0-11.232 9.138-20.37 20.371-20.37s20.371 9.138 20.371 20.37v12.315c0 11.232-9.138 20.371-20.371 20.371s-20.371-9.138-20.371-20.371zm-50.939 102.381c4.423-31.72 29.591-56.891 61.31-61.317v24.651c0 5.523 4.477 10 10 10s10-4.477 10-10v-24.651c31.716 4.426 56.882 29.594 61.308 61.317zm164 0c4.423-31.72 29.591-56.891 61.31-61.317v24.651c0 5.523 4.477 10 10 10s10-4.477 10-10v-24.651c31.716 4.426 56.882 29.594 61.308 61.317zm164 0c4.423-31.72 29.591-56.891 61.31-61.317v24.651c0 5.523 4.477 10 10 10s10-4.477 10-10v-24.651c31.716 4.426 56.882 29.594 61.308 61.317z"/><path id="XMLID_1404_" d="m86.875 266.257 19.29 33.411c1.786 3.094 5.087 5 8.66 5s6.874-1.906 8.66-5l19.22-33.29h56.906c18.578 0 35.752-6.112 49.629-16.423 15.744 18.277 38.649 28.923 63.148 28.923h56.906l19.22 33.29c1.786 3.094 5.087 5 8.66 5s6.874-1.906 8.66-5l19.29-33.411c43.889-2.354 78.876-38.802 78.876-83.268 0-45.981-37.408-83.389-83.389-83.389h-40.207c3.295-8.956 5.096-18.627 5.096-28.711 0-45.981-37.408-83.389-83.389-83.389h-9.111c-5.523 0-10 4.477-10 10s4.477 10 10 10h9.111c34.953 0 63.389 28.436 63.389 63.389s-28.436 63.389-63.389 63.389h-62.68c-3.573 0-6.874 1.906-8.66 5l-13.446 23.29-13.447-23.29c-1.786-3.094-5.087-5-8.66-5h-1.33c-34.953 0-63.389-28.436-63.389-63.389.001-34.953 28.437-63.389 63.39-63.389h9.111c5.523 0 10-4.477 10-10s-4.477-10-10-10h-9.111c-45.981 0-83.389 37.408-83.389 83.389 0 5.545.545 10.965 1.583 16.211h-20.694c-45.981 0-83.389 37.408-83.389 83.389 0 44.466 34.987 80.914 78.875 83.268zm282.855-134.157h50.881c34.953 0 63.389 28.436 63.389 63.389s-28.436 63.389-63.389 63.389h-1.33c-3.573 0-6.874 1.906-8.66 5l-13.447 23.29-13.446-23.29c-1.786-3.094-5.087-5-8.66-5h-62.68c-18.937 0-36.62-8.371-48.607-22.701 11.995-14.446 19.219-32.988 19.219-53.188 0-5.487-.545-10.903-1.592-16.212h20.703c27.806.001 52.46-13.693 67.619-34.677zm-278.341-12.5h27.414c12.886 26.609 39.487 45.39 70.572 47.057l19.29 33.411c1.786 3.094 5.087 5 8.66 5s6.874-1.906 8.66-5l19.22-33.29h15.692c1.388 5.26 2.103 10.686 2.103 16.212 0 34.953-28.436 63.389-63.389 63.389h-62.68c-3.573 0-6.874 1.906-8.66 5l-13.446 23.29-13.447-23.29c-1.786-3.094-5.087-5-8.66-5h-1.33c-34.952-.001-63.388-28.437-63.388-63.39s28.436-63.389 63.389-63.389z"/><path id="XMLID_1408_" d="m248 20c2.63 0 5.21-1.07 7.07-2.93s2.93-4.44 2.93-7.07-1.07-5.21-2.93-7.07-4.44-2.93-7.07-2.93-5.21 1.07-7.07 2.93-2.93 4.44-2.93 7.07 1.07 5.21 2.93 7.07 4.44 2.93 7.07 2.93z"/><path id="XMLID_1410_" d="m192.59 76.32c-1.86 1.86-2.92 4.44-2.92 7.07s1.06 5.21 2.92 7.07c1.87 1.86 4.44 2.93 7.08 2.93 2.63 0 5.21-1.07 7.07-2.93s2.93-4.44 2.93-7.07-1.07-5.21-2.93-7.07-4.44-2.93-7.07-2.93c-2.64 0-5.21 1.07-7.08 2.93z"/><path id="XMLID_1411_" d="m248 93.39c2.63 0 5.21-1.07 7.07-2.93s2.93-4.44 2.93-7.07-1.07-5.21-2.93-7.07-4.44-2.93-7.07-2.93-5.21 1.07-7.07 2.93-2.93 4.44-2.93 7.07 1.07 5.21 2.93 7.07 4.44 2.93 7.07 2.93z"/><path id="XMLID_1414_" d="m303.4 90.46c1.87-1.86 2.93-4.44 2.93-7.07s-1.06-5.21-2.93-7.07c-1.86-1.86-4.43-2.93-7.07-2.93-2.63 0-5.21 1.07-7.07 2.93s-2.93 4.44-2.93 7.07 1.07 5.21 2.93 7.07 4.44 2.93 7.07 2.93c2.64 0 5.21-1.07 7.07-2.93z"/></g></g></svg>
