<svg id="Capa_1" enable-background="new 0 0 512 512" height="512" viewBox="0 0 512 512" width="512" xmlns="http://www.w3.org/2000/svg"><g><path d="m139.442 407.783 68.558-39.584-30-52.051-30-52.05-68.925 39.771c-2.013-10.86-3.075-21.824-3.075-32.869 0-26.656 6.068-52.597 17.477-76.571l-52.039-30.214c-16.578 33.274-25.438 69.459-25.438 106.785 0 43.667 11.882 84.534 32.274 119.894 39.113 67.82 110.12 115.992 192.726 121.106v-61.758c-37.852-3.14-73.09-18.214-101.558-42.459z" fill="#57d9ad"/><path d="m241 512v-61.758c-37.852-3.14-73.09-18.214-101.558-42.458l68.558-39.584-30-52.051-129.726 74.745c39.113 67.82 110.12 115.992 192.726 121.106z" fill="#26bfa6"/><path d="m470.717 164.44-52.136 30.245c11.832 24.796 17.419 50.785 17.419 76.315 0 11.038-1.06 22.013-3.082 32.91l-68.919-39.811-30 52.05-30 52.051 68.621 39.532c-28.469 24.267-63.732 39.366-101.62 42.51v61.758c82.604-5.114 153.611-53.282 192.726-121.104 20.392-35.358 32.274-76.227 32.274-119.896 0-36.414-8.286-72.697-25.283-106.56z" fill="#ffea80"/><path d="m470.717 164.44-52.136 30.245c11.832 24.796 17.419 50.785 17.419 76.315 0 11.038-1.06 22.013-3.082 32.91l-68.919-39.811-30 52.05 129.727 74.747c20.392-35.358 32.274-76.227 32.274-119.896 0-36.414-8.286-72.697-25.283-106.56z" fill="#fc6"/><g><path d="m256 31c-77.054 0-151.705 36.216-199.799 107.1l52.2 30.298c20.14-29.678 51.487-54.033 87.599-66.899v79.501h60 60v-79.501c34.243 12.2 65.83 35.121 87.599 67.2l52.2-30.3c-37.421-60.288-113.214-107.399-199.799-107.399z" fill="#f25555"/><path d="m316 101.499c34.243 12.2 65.83 35.121 87.599 67.2l52.2-30.3c-37.421-60.288-113.214-107.399-199.799-107.399v150h60z" fill="#d93752"/><path d="m256 0c-24.853 0-45 21.147-45 46s20.147 45 45 45 45-20.147 45-45-20.147-46-45-46z" fill="#ffe6cc"/><path d="m301 46c0-24.853-20.147-46-45-46v91c24.853 0 45-20.147 45-45z" fill="#ffccb3"/></g><path d="m102.365 359.727c-12.973-22.473-41.732-27.997-61.214-16.69-21.553 12.398-28.932 39.955-16.494 61.465 12.272 21.246 39.725 29.015 61.479 16.465 20.186-11.629 29.594-38.075 16.229-61.24z" fill="#ffe6cc"/><path d="m86.137 420.967c20.186-11.628 29.594-38.075 16.229-61.24l-77.708 44.775c12.271 21.246 39.724 29.015 61.479 16.465z" fill="#ffccb3"/><path d="m470.845 343.021c-22.453-12.964-48.611-4.104-61.457 16.565-11.938 19.213-6.288 48.252 16.471 61.379 21.806 12.586 49.285 4.647 61.479-16.465 12.291-21.282 5.322-48.887-16.493-61.479z" fill="#e77b45"/><path d="m470.845 343.021c-22.453-12.964-48.611-4.104-61.457 16.565l77.951 44.914c12.29-21.282 5.321-48.887-16.494-61.479z" fill="#cc5229"/></g></svg>
