<svg id="Capa_1" enable-background="new 0 0 511.848 511.848" height="512" viewBox="0 0 511.848 511.848" width="512" xmlns="http://www.w3.org/2000/svg"><g><path d="m22.097 406c12.319 21.336 35.912 32.33 59.142 29.562 69.833 74.271 152.182 74.083 159.686 76.286v-91.066c-7.049-1.786-30.666-3.07-59.703-20.049l34.262-19.78-75-129.904-34.559 19.953s0 0 0-.001c0-33.297 10.667-54.454 12.797-61.893l-78.313-45.216c-3.19 9.841-24.484 47.642-24.484 107.109 0 23.549 3.4 46.738 10.098 69.062-13.909 18.642-16.274 44.549-3.926 65.937zm25.98-15c-8.271-14.326-3.345-32.71 10.981-40.981 14.366-8.294 32.694-3.372 40.98 10.981 8.29 14.359 3.381 32.689-10.98 40.981-14.325 8.27-32.708 3.344-40.981-10.981zm162.847 54.28v31.565c-37.169-8.217-71.669-26.795-99.762-53.687 7.927-6.21 14.103-14.258 18.051-23.522l14.587 11.678c20.04 16.044 43.036 27.653 67.124 33.966zm-81.422-153.251 45 77.942-43.588 25.163c5.651-16.862 3.584-34.451-4.895-49.134-8.426-14.596-22.572-25.245-40.105-28.806zm-73.776-84.652 26.746 15.442c-4.349 15.63-6.548 31.785-6.548 48.181 0 14.773 2.551 27.357 5.183 45.41-9.984-1.201-20.027.129-29.357 3.888-3.864-16.062-5.826-32.572-5.826-49.298 0-21.817 3.291-43.147 9.802-63.623z"/><path d="m471.439 163.892-78.313 45.215c2.071 7.233 12.797 28.6 12.797 61.893v.001l-34.559-19.953-75 129.904 34.262 19.78c-29.021 16.969-52.391 18.196-59.703 20.049v91.066c7.51-2.205 89.861-2.024 159.686-76.286 23.276 2.774 46.848-8.27 59.141-29.562 12.348-21.388 9.983-47.294-3.925-65.938 6.698-22.324 10.098-45.512 10.098-69.062.001-59.537-21.397-97.585-24.484-107.107zm-15.317 43.484c6.511 20.476 9.802 41.804 9.802 63.624 0 16.727-1.962 33.237-5.826 49.298-9.33-3.759-19.372-5.09-29.357-3.888 2.633-18.065 5.183-30.65 5.183-45.41 0-16.396-2.199-32.551-6.548-48.181zm-73.776 84.653 43.588 25.166c-17.55 3.564-31.687 14.224-40.105 28.805-8.478 14.683-10.546 32.272-4.895 49.134l-43.588-25.163zm-81.422 153.251c24.088-6.313 47.084-17.922 67.125-33.966l14.587-11.678c3.948 9.265 10.123 17.312 18.051 23.522-28.094 26.891-62.594 45.47-99.762 53.687v-31.565zm162.846-54.28c-8.271 14.326-26.655 19.252-40.981 10.981-14.359-8.291-19.272-26.619-10.98-40.981 8.286-14.35 26.603-19.281 40.98-10.98 14.326 8.27 19.252 26.654 10.981 40.98z"/><path d="m311.191 37.413c-9.038-21.588-30.204-37.413-55.267-37.413-24.975 0-46.208 15.773-55.267 37.413-98.053 23.122-138.742 94.311-145.223 100.514l78.341 45.23c5.163-5.312 18.239-25.148 47.149-41.808v39.651h150v-39.653c28.883 16.644 41.935 36.445 47.148 41.81l78.342-45.23c-5.714-5.469-47.836-77.549-145.223-100.514zm-55.267-7.413c16.262 0 30 14.196 30 31 0 16.542-13.458 30-30 30s-30-13.458-30-30c0-16.804 13.738-31 30-31zm-128.352 114.935-26.793-15.469c25.93-28.423 59.055-49.142 95.76-59.945 1.444 10.106 5.406 19.41 11.242 27.245-9.185 4.448-45.791 13.297-80.209 48.169zm83.352 6.065v-50.377c11.003 12.481 27.092 20.377 45 20.377s33.997-7.896 45-20.377v50.377zm173.352-6.065c-34.427-34.882-70.583-43.508-80.209-48.168 5.836-7.835 9.798-17.139 11.241-27.244 36.705 10.802 69.83 31.522 95.76 59.945z"/></g></svg>
