<svg width="128" height="128" viewBox="0 0 128 128" fill="none" xmlns="http://www.w3.org/2000/svg">
<g clip-path="url(#clip0_6311_9544)">
<path d="M31.5182 96.3591C31.7232 97.3748 32.7129 98.0311 33.7269 97.8261C38.9609 96.7696 42.8322 94.7671 45.6829 92.5183C48.5337 94.7671 52.4049 96.7698 57.6389 97.8261C58.6529 98.0311 59.6429 97.3746 59.8477 96.3591C60.0524 95.3441 59.3957 94.3551 58.3807 94.1503C54.1179 93.2898 50.8949 91.7473 48.4574 89.9433C51.1487 87.0021 52.9734 83.4338 53.8114 79.8881H58.3314C59.3672 79.8881 60.2064 79.0486 60.2064 78.0131C60.2064 76.9776 59.3672 76.1381 58.3314 76.1381H47.5584V71.7363C47.5584 70.7008 46.7192 69.8613 45.6834 69.8613C44.6477 69.8613 43.8084 70.7008 43.8084 71.7363V76.1381H33.0344C31.9987 76.1381 31.1594 76.9776 31.1594 78.0131C31.1594 79.0486 31.9987 79.8881 33.0344 79.8881H37.5544C38.3907 83.4258 40.2092 86.9866 42.8907 89.9241C40.4537 91.7403 37.2347 93.2923 32.9852 94.1501C31.9699 94.3548 31.3132 95.3441 31.5182 96.3591ZM41.4162 79.8881H49.9329C49.3807 81.7618 48.1822 84.6693 45.6567 87.4271C43.1337 84.6718 41.9552 81.7671 41.4162 79.8881Z" fill="black"/>
<path d="M82.3162 18.748C81.5372 18.748 80.839 19.23 80.5627 19.9585L71.3715 44.2103C71.0045 45.1785 71.492 46.261 72.4602 46.628C73.429 46.995 74.5112 46.5073 74.8782 45.5393L76.6965 40.7418C76.7585 40.748 76.8212 40.7513 76.885 40.7513H87.84C87.873 40.7513 87.905 40.748 87.9375 40.7463L89.754 45.539C90.1212 46.5075 91.2042 46.9945 92.172 46.6278C93.1402 46.2608 93.6277 45.1783 93.2607 44.21L84.0695 19.9583C83.7935 19.23 83.0955 18.748 82.3162 18.748ZM78.1142 37.0013L82.3162 25.9138L86.5182 37.0013H78.1142Z" fill="black"/>
<path d="M11.7858 116.457H16.6226C18.1479 116.457 19.5237 117.42 20.0462 118.853L22.5182 125.628C23.0439 127.069 24.3747 128 25.9087 128C27.4427 128 28.7737 127.069 29.2997 125.628L31.7715 118.852C32.2943 117.42 33.67 116.457 35.195 116.457H53.6349C54.6707 116.457 55.5099 115.618 55.5099 114.582C55.5099 113.547 54.6707 112.707 53.6349 112.707H35.1953C32.1008 112.707 29.3092 114.66 28.2487 117.567L25.9092 123.98L23.5694 117.567C22.5089 114.66 19.7174 112.707 16.6229 112.707H11.7858C7.35481 112.707 3.75003 109.103 3.75003 104.672V62.0325C3.75003 57.6015 7.35481 53.9967 11.7858 53.9967H36.633V54.4249C36.633 60.9237 41.9201 66.2108 48.4189 66.2108H87.6172V104.672C87.6172 109.103 84.0122 112.708 79.5811 112.708H62.3852C61.3495 112.708 60.5102 113.547 60.5102 114.583C60.5102 115.618 61.3495 116.458 62.3852 116.458H79.5811C86.0799 116.458 91.3672 111.171 91.3672 104.672V66.2108H92.805C94.33 66.2108 95.706 67.1735 96.2285 68.606L98.7003 75.3813C99.2263 76.8226 100.558 77.7536 102.091 77.7536C103.626 77.7536 104.956 76.8221 105.482 75.3813L107.954 68.606C108.477 67.1735 109.852 66.2108 111.377 66.2108H116.214C122.713 66.2108 128 60.9237 128 54.4249V38.8768C128 37.8413 127.161 37.0018 126.125 37.0018C125.089 37.0018 124.25 37.8413 124.25 38.8768V54.4249C124.25 58.856 120.645 62.4607 116.214 62.4607H111.377C108.283 62.4607 105.491 64.4138 104.431 67.3205L102.091 73.7338L99.7515 67.3205C98.6908 64.4138 95.899 62.4607 92.805 62.4607C91.289 62.4607 50.0484 62.4607 48.4189 62.4607C43.9878 62.4607 40.3831 58.856 40.3831 54.4249C40.3831 52.6232 40.3831 14.9124 40.3831 11.7856C40.3831 7.35481 43.9878 3.75003 48.4186 3.75003H116.214C120.645 3.75003 124.25 7.35481 124.25 11.7858V30.1267C124.25 31.1622 125.089 32.0018 126.125 32.0018C127.161 32.0018 128 31.1622 128 30.1267V11.7858C128 5.28704 122.713 0 116.214 0H48.4186C41.9201 0 36.6328 5.28704 36.6328 11.7858V50.2466H11.7858C5.28729 50.2466 0 55.5337 0 62.0325V104.672C0 111.17 5.28729 116.457 11.7858 116.457Z" fill="black"/>
</g>
<defs>
<clipPath id="clip0_6311_9544">
<rect width="128" height="128" fill="white"/>
</clipPath>
</defs>
</svg>
