<svg id="Capa_1" enable-background="new 0 0 512 512" height="512" viewBox="0 0 512 512" width="512" xmlns="http://www.w3.org/2000/svg"><g><g><path d="m497.625 83.425c0-19.331-3.297-38.302-9.801-56.389-2.268-6.304-9.256-9.761-15.577-7.697-8.981 2.931-20.279-2.358-32.237-7.958-11.39-5.335-24.302-11.381-37.896-11.381s-26.507 6.046-37.898 11.38c-11.957 5.599-23.251 10.888-32.237 7.958-6.323-2.06-13.311 1.394-15.576 7.699-6.503 18.084-9.801 37.056-9.801 56.388 0 2.825.095 5.62.237 8.397-24.218-9.865-50.683-15.322-78.403-15.322-114.967 0-208.5 93.533-208.5 208.5 0 26.288 4.912 51.443 13.832 74.627l-15.093 15.093c-5.734 5.735-5.734 15.067 0 20.803l112.169 112.168c2.778 2.779 6.473 4.309 10.402 4.309s7.623-1.53 10.402-4.309l21.617-21.617c17.58 4.832 36.077 7.426 55.17 7.426s37.59-2.594 55.17-7.426l21.617 21.616c2.778 2.779 6.473 4.309 10.402 4.309s7.623-1.53 10.402-4.309l42.956-42.956c2.929-2.929 2.929-7.678 0-10.606-2.93-2.929-7.678-2.929-10.607 0l-42.751 42.751-39.119-39.119 111.76-111.759 39.118 39.119-44.26 44.259c-2.929 2.929-2.929 7.678 0 10.606 2.93 2.929 7.678 2.929 10.607 0l44.464-44.464c2.778-2.779 4.309-6.473 4.309-10.402 0-3.93-1.53-7.624-4.309-10.402l-15.092-15.092c8.92-23.184 13.832-48.339 13.832-74.627 0-25.304-4.555-49.557-12.85-72.014 47.585-30.324 73.541-75.731 73.541-129.559zm-356.378 413.455-111.76-111.759 39.118-39.118 111.76 111.759zm77.293-292.113h14.803l13.972 13.972c2.746 2.747 4.212 6.399 4.126 10.284-.085 3.881-1.717 7.47-4.594 10.104-5.478 5.013-14.428 4.598-19.951-.927l-49.578-49.578c-5.497-5.498-5.497-14.442-.001-19.94 2.069-2.068 4.626-3.346 7.302-3.854-.019.353-.054.702-.054 1.059v4.905c0 18.734 15.241 33.975 33.975 33.975zm-18.975-33.975v-4.905c0-2.381 1.938-4.318 4.318-4.318h38.567c5.035 0 9.576 2.673 12.076 6.825l-21.375 21.375h-14.611c-10.463-.002-18.975-8.514-18.975-18.977zm22.862 84.152c2.692 2.692 4.158 6.272 4.129 10.08-.03 3.808-1.553 7.365-4.287 10.015-5.496 5.326-14.371 5.257-19.781-.155l-55.716-55.716h-.001c-2.663-2.663-4.13-6.204-4.13-9.97s1.467-7.307 4.131-9.97c2.662-2.663 6.203-4.129 9.97-4.129 3.766 0 7.307 1.466 9.969 4.129zm-40.519 20.574c2.693 2.693 4.159 6.273 4.129 10.081-.029 3.808-1.552 7.364-4.287 10.015-5.496 5.327-14.37 5.256-19.781-.155l-36.395-36.395-9.349-9.349c-2.663-2.663-4.129-6.204-4.129-9.97s1.466-7.307 4.129-9.97c2.749-2.749 6.36-4.123 9.971-4.123 3.609 0 7.219 1.373 9.967 4.12l.003.003zm-66.951-5.858 24.375 24.375c2.689 2.692 4.154 6.27 4.124 10.074-.03 3.808-1.553 7.365-4.287 10.015-5.497 5.326-14.37 5.257-19.781-.155l-24.361-24.361c-5.497-5.498-5.497-14.442-.001-19.94 2.749-2.749 6.36-4.123 9.971-4.123 3.606.002 7.212 1.373 9.96 4.115zm14.405 63.388c7.315 0 14.635-2.713 20.247-8.152 4.027-3.903 6.772-8.761 8.042-14.078 4.412 2.472 9.35 3.718 14.292 3.718 7.315 0 14.634-2.713 20.246-8.152 4.258-4.126 7.09-9.318 8.251-14.993 3.804 1.71 7.911 2.571 12.021 2.571 7.315 0 14.635-2.713 20.247-8.152 5.644-5.47 8.786-12.81 8.847-20.669.02-2.602-.305-5.151-.942-7.6 5.928-.622 11.674-3.058 16.362-7.35 5.925-5.424 9.285-12.824 9.462-20.836.176-8.016-2.849-15.553-8.517-21.221l-10.961-10.961 23.941-23.941c5.5-5.496 14.444-5.497 19.94 0 5.491 5.491 5.497 14.422.02 19.921-.006.006-.012.012-.019.019-2.929 2.929-2.929 7.678.001 10.606 2.928 2.929 7.677 2.928 10.606 0 5.496-5.497 14.442-5.497 19.938 0 5.491 5.491 5.497 14.422.019 19.921-.006.006-.012.012-.018.019h-.001c-2.929 2.929-2.929 7.678 0 10.606 2.929 2.929 7.678 2.929 10.606 0 2.664-2.664 6.204-4.13 9.971-4.13 3.766 0 7.307 1.466 9.969 4.129 5.498 5.498 5.498 14.443 0 19.94-2.929 2.929-2.929 7.678 0 10.606 2.929 2.929 7.678 2.929 10.606 0 2.728-2.727 6.326-4.197 10.209-4.127 3.853.064 7.43 1.655 10.071 4.479 5.13 5.483 4.798 14.45-.74 19.988l-53.812 53.812c-2.929 2.929-2.929 7.678 0 10.606 2.93 2.929 7.678 2.929 10.607 0l13.127-13.122 12.275 12.275-79.593 79.593-43.044-43.044c6.122-2.144 12.64-3.173 19.219-2.928l14.273.527c12.573.473 24.98-2.592 35.916-8.841 3.597-2.055 4.847-6.637 2.791-10.233-2.055-3.597-6.638-4.846-10.232-2.792-8.504 4.859-18.169 7.239-27.92 6.875l-14.273-.527c-18.657-.7-36.933 6.486-50.135 19.688l-40.18 40.18-77.123-77.122 20.924-20.924c4.455 2.539 9.457 3.816 14.464 3.816zm99.074 145.452c-14.704 0-29.018-1.681-42.79-4.806l5.531-5.531c2.778-2.778 4.309-6.473 4.309-10.402 0-3.93-1.53-7.624-4.309-10.402l-9.473-9.473 40.181-40.181c1.836-1.837 3.804-3.516 5.873-5.045l46.318 46.318-8.381 8.381c-5.733 5.735-5.733 15.067.001 20.803l5.531 5.531c-13.773 3.126-28.087 4.807-42.791 4.807zm193.5-193.5c0 22.026-3.706 43.201-10.517 62.943l-12.751-12.751c-2.778-2.779-6.473-4.309-10.402-4.309s-7.624 1.53-10.402 4.309l-2.982 2.982-12.275-12.275 30.082-30.082c11.193-11.194 11.682-29.516 1.088-40.841-5.443-5.82-12.822-9.098-20.776-9.231-.664-.012-1.327 0-1.986.033.401-7.938-2.423-16.011-8.472-22.061-5.496-5.496-12.804-8.523-20.576-8.523-.502 0-1.002.013-1.499.038.401-7.938-2.422-16.012-8.472-22.061-6.054-6.054-14.126-8.873-22.075-8.471.406-7.943-2.418-16.022-8.472-22.075-9.658-9.658-24.469-11.089-35.662-4.303-5.37-7.216-13.926-11.753-23.335-11.753h-38.567c-4.139 0-7.969 1.32-11.117 3.545-9.153-1.746-18.983.89-26.056 7.961-6.05 6.05-8.871 14.123-8.469 22.062-.498-.025-.998-.039-1.5-.039-7.773 0-15.081 3.027-20.576 8.523-5.497 5.496-8.524 12.804-8.524 20.577 0 .502.014 1.002.039 1.5-7.938-.402-16.011 2.42-22.061 8.47-5.497 5.496-8.523 12.804-8.523 20.577 0 3.965.792 7.807 2.293 11.351-5.488 1.07-10.726 3.725-14.969 7.967-11.345 11.346-11.345 29.807 0 41.153l19.142 19.142-20.194 20.194-4.36-4.36c-2.778-2.779-6.473-4.309-10.402-4.309s-7.623 1.53-10.401 4.309l-12.751 12.751c-6.81-19.742-10.516-40.917-10.516-62.943 0-106.696 86.804-193.5 193.5-193.5 28.603 0 55.765 6.259 80.219 17.448 7.866 48.178 38.315 87.859 87.732 113.379 1.793.926 3.76 1.39 5.727 1.39 1.966 0 3.933-.463 5.724-1.389 1.045-.54 2.063-1.099 3.09-1.651 7.115 20.134 11.004 41.781 11.004 64.323zm-19.822-76.604c-24.82-13.019-44.348-29.804-58.056-49.906-14.901-21.854-22.457-47.109-22.457-75.065 0-16.823 2.741-33.341 8.153-49.138 13.804 3.33 27.528-3.096 40.822-9.322 10.463-4.899 21.281-9.965 31.538-9.965 10.256 0 21.074 5.066 31.536 9.965 13.295 6.227 27.02 12.653 40.823 9.322 5.411 15.796 8.152 32.316 8.152 49.138 0 27.956-7.556 53.211-22.457 75.065-13.707 20.101-33.235 36.887-58.054 49.906z"/><path d="m453.87 93.158c3.953-1.237 6.154-5.445 4.917-9.398-7.792-24.896-30.567-41.623-56.673-41.623-32.741 0-59.379 26.637-59.379 59.378s26.638 59.378 59.379 59.378c24.293 0 45.894-14.552 55.03-37.074 1.557-3.838-.292-8.212-4.131-9.769-3.84-1.559-8.213.292-9.77 4.13-6.829 16.834-22.974 27.712-41.13 27.712-24.471 0-44.379-19.908-44.379-44.378s19.908-44.378 44.379-44.378c19.513 0 36.535 12.5 42.358 31.104 1.238 3.954 5.45 6.155 9.399 4.918z"/><path d="m421.766 83.278-23.16 23.161-16.146-16.146c-2.93-2.929-7.678-2.929-10.607 0s-2.929 7.678 0 10.606l21.449 21.449c1.465 1.464 3.385 2.197 5.304 2.197s3.839-.732 5.304-2.197l28.464-28.464c2.929-2.929 2.929-7.678 0-10.606-2.93-2.929-7.678-2.929-10.608 0z"/></g></g></svg>
