<svg id="Capa_1" enable-background="new 0 0 512 512" height="512" viewBox="0 0 512 512" width="512" xmlns="http://www.w3.org/2000/svg"><g><g><path d="m291.532 66.273c4.142 0 7.5-3.357 7.5-7.5v-.057c0-4.143-3.358-7.472-7.5-7.472s-7.5 3.386-7.5 7.528 3.358 7.501 7.5 7.501z"/><path d="m254.455 66.273c4.142 0 7.5-3.357 7.5-7.5v-.057c0-4.143-3.358-7.472-7.5-7.472s-7.5 3.386-7.5 7.528 3.358 7.501 7.5 7.501z"/><path d="m217.378 66.273c4.142 0 7.5-3.357 7.5-7.5v-.057c0-4.143-3.358-7.472-7.5-7.472s-7.5 3.386-7.5 7.528 3.358 7.501 7.5 7.501z"/><path d="m123.925 51.273-76.763-.057c-.002 0-.003 0-.005 0-4.14 0-7.497 3.354-7.5 7.494-.003 4.143 3.353 7.503 7.495 7.506l76.763.057h.005c4.14 0 7.497-3.354 7.5-7.494.002-4.142-3.353-7.503-7.495-7.506z"/><path d="m287.507 124.863h-111.062c-6.933 0-12.574 5.641-12.574 12.574v33.479c0 6.948 5.641 12.602 12.574 12.602h111.062c6.933 0 12.574-5.653 12.574-12.602v-33.479c0-6.933-5.641-12.574-12.574-12.574zm-2.426 43.655h-106.209v-28.654h106.209z"/><path d="m292.581 210.217h-121.209c-4.142 0-7.5 3.357-7.5 7.5s3.358 7.5 7.5 7.5h121.209c4.142 0 7.5-3.357 7.5-7.5s-3.358-7.5-7.5-7.5z"/><path d="m189.882 245.736h-18.51c-4.142 0-7.5 3.357-7.5 7.5s3.358 7.5 7.5 7.5h18.51c4.142 0 7.5-3.357 7.5-7.5s-3.358-7.5-7.5-7.5z"/><path d="m292.581 245.736h-62.05c-4.142 0-7.5 3.357-7.5 7.5s3.358 7.5 7.5 7.5h62.05c4.142 0 7.5-3.357 7.5-7.5s-3.358-7.5-7.5-7.5z"/><path d="m444.802 450.744h-.255c-4.142 0-7.5 3.357-7.5 7.5s3.358 7.5 7.5 7.5h.255c4.142 0 7.5-3.357 7.5-7.5s-3.358-7.5-7.5-7.5z"/><path d="m490.667 301.75h-59.114v-129.049c0-11.669-9.494-21.163-21.163-21.163h-71.7v-114.592c0-11.404-9.278-20.682-20.682-20.682h-297.327c-11.404.001-20.681 9.278-20.681 20.682v241.718c0 11.419 9.277 20.709 20.681 20.709h33.801v97.131c0 11.669 9.494 21.163 21.163 21.163h104.223l-8.866 29.646h-14.994c-13.342 0-24.196 10.867-24.196 24.226v11.707c0 6.887 5.603 12.489 12.489 12.489h197.434c6.887 0 12.489-5.603 12.489-12.489v-11.707c0-13.358-10.867-24.226-24.225-24.226h-14.991l-8.847-29.646h71.443v56.735c0 11.763 9.557 21.333 21.305 21.333h91.758c11.763 0 21.333-9.57 21.333-21.333v-151.346c0-11.748-9.57-21.306-21.333-21.306zm-475.667-23.086v-177.438h137.039c4.142 0 7.5-3.357 7.5-7.5s-3.358-7.5-7.5-7.5h-137.039v-49.28c0-3.133 2.548-5.682 5.681-5.682h297.327c3.133 0 5.682 2.549 5.682 5.682v49.279h-137.011c-4.142 0-7.5 3.357-7.5 7.5s3.358 7.5 7.5 7.5h137.011v177.438c0 3.147-2.549 5.709-5.682 5.709h-297.327c-3.133.001-5.681-2.56-5.681-5.708zm303.008 20.709c11.404 0 20.682-9.29 20.682-20.709v-112.126h71.7c3.398 0 6.163 2.765 6.163 6.163v129.049h-17.644c-11.748 0-21.305 9.558-21.305 21.306v41.683h-308.122v-65.365h248.526zm21.215 172.166v9.196h-192.411v-9.196c0-5.087 4.125-9.226 9.196-9.226h173.991c5.086 0 9.224 4.139 9.224 9.226zm-79.014-68.872c-4.142 0-7.5 3.357-7.5 7.5s3.358 7.5 7.5 7.5h30.298l8.847 29.646h-112.696l8.866-29.646h30.188c4.142 0 7.5-3.357 7.5-7.5s-3.358-7.5-7.5-7.5h-150.067c-3.398 0-6.163-2.765-6.163-6.163v-16.766h308.123v22.929zm236.791 71.735c0 3.492-2.841 6.333-6.333 6.333h-91.758c-3.477 0-6.305-2.841-6.305-6.333v-151.346c0-3.477 2.828-6.306 6.305-6.306h91.758c3.492 0 6.333 2.829 6.333 6.306z"/><path d="m127.661 124.863h-76.451c-6.949 0-12.603 5.641-12.603 12.574v110.696c0 6.949 5.653 12.603 12.603 12.603h76.451c6.949 0 12.602-5.653 12.602-12.603v-110.695c0-6.934-5.653-12.575-12.602-12.575zm-2.398 120.873h-71.655v-105.873h71.655z"/></g></g></svg>
