<?xml version="1.0" encoding="UTF-8"?>
<svg width="960px" height="640px" viewBox="0 0 960 640" version="1.1" xmlns="http://www.w3.org/2000/svg" xmlns:xlink="http://www.w3.org/1999/xlink">
    <title>01-templates</title>
    <g id="Page-1" stroke="none" stroke-width="1" fill="none" fill-rule="evenodd">
        <g id="01-templates">
            <path d="M587,266.9 L587,482.6 L53.1,482.6 L53.1,266.9 L587,266.9 M591,262.9 L49.1,262.9 L49.1,486.6 L591,486.6 L591,262.9 Z" id="Shape" fill="#FFD419" fill-rule="nonzero"></path>
            <polygon id="Path" fill="#004A1E" fill-rule="nonzero" points="55 541 245.9 541 245.9 601.7 55 601.7"></polygon>
            <path d="M243.1,320.1 L162.8,320.1 C162.8,320.1 155.3,308.5 155.3,304.3 C155.3,300.9 162.8,289.8 162.8,289.8 L243.1,289.8 C243.1,289.8 250.1,301.1 250.1,304.9 C250.1,308.7 243.1,320.1 243.1,320.1 L243.1,320.1 Z M304.276757,452.1 L227.338257,452.1 C227.338257,452.1 221.1,440.5 221.1,436.3 C221.1,432.9 227.338257,421.8 227.338257,421.8 L304.276757,421.8 C304.276757,421.8 310.1,433.1 310.1,436.9 C310.182306,440.8 304.276757,452.1 304.276757,452.1 Z M270.6,408.1 L99.4,408.1 C99.4,408.1 91.9,396.5 91.9,392.3 C91.9,388.9 99.4,377.8 99.4,377.8 L270.6,377.8 C270.6,377.8 277.601047,389.1 277.601047,392.9 C277.7,396.8 270.6,408.1 270.6,408.1 Z" id="Shape" fill="#FFD419" fill-rule="nonzero"></path>
            <path d="M0,40 L0,10 C0,4.5 4.5,0 10,0 L950,0 C955.5,0 960,4.5 960,10 L960,40" id="Path" fill="#DADADA" fill-rule="nonzero"></path>
            <circle id="Oval" fill="#FFFFFF" fill-rule="nonzero" cx="25.4" cy="20" r="8.5"></circle>
            <circle id="Oval" fill="#FFFFFF" fill-rule="nonzero" cx="49.1" cy="20" r="8.5"></circle>
            <circle id="Oval" fill="#FFFFFF" fill-rule="nonzero" cx="72.9" cy="20" r="8.5"></circle>
            <polygon id="Path" fill="#0B0B0B" fill-rule="nonzero" points="1 40 959 40 959 105 1 105"></polygon>
            <path d="M189.3,69 L189.3,89.7 L186.4,89.7 L186.4,65.9 L190.6,65.9 L203,85.5 L203,65.9 L205.9,65.9 L205.9,89.7 L202.3,89.7 L189.3,69 L189.3,69 Z M226.2,81.2 C226.2,86.3 223.1,90 218.4,90 C213.7,90 210.6,86.3 210.6,81.2 C210.6,76 213.7,72.4 218.4,72.4 C223.1,72.4 226.2,76 226.2,81.2 Z M223.3,81.3 L223.3,81.1 C223.3,77.7 221.6,74.8 218.4,74.8 C215.2,74.8 213.5,77.7 213.5,81.1 L213.5,81.3 C213.5,84.6 215.2,87.6 218.4,87.6 C221.6,87.6 223.3,84.6 223.3,81.3 Z M234.8,85.4 C234.8,86.5 235,87.5 237,87.5 C237.5,87.5 238.6,87.4 239.1,87.3 L239.4,89.7 C239.4,89.7 237.8,89.9 236.4,89.9 C233.7,89.9 232,88.8 232,86 L232,75.1 L228.8,75.1 L228.8,72.7 L232,72.7 L232,67.2 L234.8,66.2 L234.8,72.7 L239.5,72.7 L239.5,75.1 L234.8,75.1 L234.8,85.4 L234.8,85.4 Z M244.7,65.9 C245.8,65.9 246.7,66.9 246.7,68 C246.7,69.2 245.8,70.1 244.7,70.1 C243.5,70.1 242.6,69.2 242.6,68 C242.6,66.8 243.5,65.9 244.7,65.9 Z M246,89.7 L243.2,89.7 L243.2,72.7 L246,72.7 L246,89.7 Z M255.5,72.7 L258.9,72.7 L258.9,75.1 L255.5,75.1 L255.5,89.6 L252.7,89.6 L252.7,75.1 L249.9,75.1 L249.9,72.7 L252.7,72.7 L252.7,69.5 C252.7,66.6 254.7,65.5 257.4,65.5 C258.8,65.5 259.7,65.7 260.1,65.7 L259.9,68.1 C259.3,68 258,68 257.5,68 C255.9,68 255.5,69 255.5,70 L255.5,72.7 L255.5,72.7 Z M260.8,72.7 L264,72.7 L268.2,86.7 L272.2,72.7 L275.3,72.7 L269.1,92.2 C268.4,94.6 266.7,95.2 264.6,95.2 C263.7,95.2 262.7,95.1 261.6,94.9 L262,92.5 C262,92.5 263.2,92.7 264.2,92.7 C265.4,92.7 266.1,92.2 266.3,91 L266.5,90.2 L260.8,72.7 Z" id="Notify" fill="#FFFFFF" fill-rule="nonzero"></path>
            <text id="US" font-family="Arial-BoldMT, Arial" font-size="42" font-weight="bold" fill="#FFFFFF">
                <tspan x="118" y="90">US</tspan>
            </text>
            <g id="flag" transform="translate(58.000000, 66.000000)" fill-rule="nonzero">
                <rect id="Rectangle" fill="#B22234" x="1" y="0" width="45" height="24"></rect>
                <path d="M1,3.06893665 L46,3.06893665 M46,6.64136199 L1,6.64136199 M1,10.2137873 L46,10.2137873 M46,13.7862127 L1,13.7862127 M1,17.358638 L46,17.358638 M46,20.9310634 L1,20.9310634" id="Shape" stroke="#FFFFFF" stroke-width="1.29554656" fill="#000000"></path>
                <rect id="Rectangle" fill="#3C3B6E" x="0" y="0" width="18" height="13"></rect>
                <g id="Group" transform="translate(1.000000, 1.000000)" fill="#FFFFFF">
                    <g id="s18">
                        <g id="s9">
                            <g id="s5">
                                <g id="s4">
                                    <polygon id="s" points="0.719041131 0 1.16343299 1.3731533 0 0.524497893 1.43808226 0.524497893 0.274649275 1.3731533"></polygon>
                                    <g id="s-link" transform="translate(0.000000, 2.656712)">
                                        <polygon id="s" points="0.719041131 0 1.16343299 1.3731533 0 0.524497893 1.43808226 0.524497893 0.274649275 1.3731533"></polygon>
                                    </g>
                                    <g id="s-link" transform="translate(0.000000, 5.313423)">
                                        <polygon id="s" points="0.719041131 0 1.16343299 1.3731533 0 0.524497893 1.43808226 0.524497893 0.274649275 1.3731533"></polygon>
                                    </g>
                                    <g id="s-link" transform="translate(0.000000, 7.970135)">
                                        <polygon id="s" points="0.719041131 0 1.16343299 1.3731533 0 0.524497893 1.43808226 0.524497893 0.274649275 1.3731533"></polygon>
                                    </g>
                                </g>
                                <g id="s-link" transform="translate(0.000000, 10.626847)">
                                    <polygon id="s" points="0.719041131 0 1.16343299 1.3731533 0 0.524497893 1.43808226 0.524497893 0.274649275 1.3731533"></polygon>
                                </g>
                            </g>
                            <g id="s4" transform="translate(1.556192, 1.328356)">
                                <polygon id="s" points="0.719041131 0 1.16343299 1.3731533 0 0.524497893 1.43808226 0.524497893 0.274649275 1.3731533"></polygon>
                                <g id="s-link" transform="translate(0.000000, 2.656712)">
                                    <polygon id="s" points="0.719041131 0 1.16343299 1.3731533 0 0.524497893 1.43808226 0.524497893 0.274649275 1.3731533"></polygon>
                                </g>
                                <g id="s-link" transform="translate(0.000000, 5.313423)">
                                    <polygon id="s" points="0.719041131 0 1.16343299 1.3731533 0 0.524497893 1.43808226 0.524497893 0.274649275 1.3731533"></polygon>
                                </g>
                                <g id="s-link" transform="translate(0.000000, 7.970135)">
                                    <polygon id="s" points="0.719041131 0 1.16343299 1.3731533 0 0.524497893 1.43808226 0.524497893 0.274649275 1.3731533"></polygon>
                                </g>
                            </g>
                        </g>
                        <g id="s9" transform="translate(3.112384, 0.000000)">
                            <g id="s5">
                                <g id="s4">
                                    <polygon id="s" points="0.719041131 0 1.16343299 1.3731533 0 0.524497893 1.43808226 0.524497893 0.274649275 1.3731533"></polygon>
                                    <g id="s-link" transform="translate(0.000000, 2.656712)">
                                        <polygon id="s" points="0.719041131 0 1.16343299 1.3731533 0 0.524497893 1.43808226 0.524497893 0.274649275 1.3731533"></polygon>
                                    </g>
                                    <g id="s-link" transform="translate(0.000000, 5.313423)">
                                        <polygon id="s" points="0.719041131 0 1.16343299 1.3731533 0 0.524497893 1.43808226 0.524497893 0.274649275 1.3731533"></polygon>
                                    </g>
                                    <g id="s-link" transform="translate(0.000000, 7.970135)">
                                        <polygon id="s" points="0.719041131 0 1.16343299 1.3731533 0 0.524497893 1.43808226 0.524497893 0.274649275 1.3731533"></polygon>
                                    </g>
                                </g>
                                <g id="s-link" transform="translate(0.000000, 10.626847)">
                                    <polygon id="s" points="0.719041131 0 1.16343299 1.3731533 0 0.524497893 1.43808226 0.524497893 0.274649275 1.3731533"></polygon>
                                </g>
                            </g>
                            <g id="s4" transform="translate(1.556192, 1.328356)">
                                <polygon id="s" points="0.719041131 0 1.16343299 1.3731533 0 0.524497893 1.43808226 0.524497893 0.274649275 1.3731533"></polygon>
                                <g id="s-link" transform="translate(0.000000, 2.656712)">
                                    <polygon id="s" points="0.719041131 0 1.16343299 1.3731533 0 0.524497893 1.43808226 0.524497893 0.274649275 1.3731533"></polygon>
                                </g>
                                <g id="s-link" transform="translate(0.000000, 5.313423)">
                                    <polygon id="s" points="0.719041131 0 1.16343299 1.3731533 0 0.524497893 1.43808226 0.524497893 0.274649275 1.3731533"></polygon>
                                </g>
                                <g id="s-link" transform="translate(0.000000, 7.970135)">
                                    <polygon id="s" points="0.719041131 0 1.16343299 1.3731533 0 0.524497893 1.43808226 0.524497893 0.274649275 1.3731533"></polygon>
                                </g>
                            </g>
                        </g>
                    </g>
                    <g id="s18" transform="translate(6.224767, 0.000000)">
                        <g id="s9">
                            <g id="s5">
                                <g id="s4">
                                    <polygon id="s" points="0.719041131 0 1.16343299 1.3731533 0 0.524497893 1.43808226 0.524497893 0.274649275 1.3731533"></polygon>
                                    <g id="s-link" transform="translate(0.000000, 2.656712)">
                                        <polygon id="s" points="0.719041131 0 1.16343299 1.3731533 0 0.524497893 1.43808226 0.524497893 0.274649275 1.3731533"></polygon>
                                    </g>
                                    <g id="s-link" transform="translate(0.000000, 5.313423)">
                                        <polygon id="s" points="0.719041131 0 1.16343299 1.3731533 0 0.524497893 1.43808226 0.524497893 0.274649275 1.3731533"></polygon>
                                    </g>
                                    <g id="s-link" transform="translate(0.000000, 7.970135)">
                                        <polygon id="s" points="0.719041131 0 1.16343299 1.3731533 0 0.524497893 1.43808226 0.524497893 0.274649275 1.3731533"></polygon>
                                    </g>
                                </g>
                                <g id="s-link" transform="translate(0.000000, 10.626847)">
                                    <polygon id="s" points="0.719041131 0 1.16343299 1.3731533 0 0.524497893 1.43808226 0.524497893 0.274649275 1.3731533"></polygon>
                                </g>
                            </g>
                            <g id="s4" transform="translate(1.556192, 1.328356)">
                                <polygon id="s" points="0.719041131 0 1.16343299 1.3731533 0 0.524497893 1.43808226 0.524497893 0.274649275 1.3731533"></polygon>
                                <g id="s-link" transform="translate(0.000000, 2.656712)">
                                    <polygon id="s" points="0.719041131 0 1.16343299 1.3731533 0 0.524497893 1.43808226 0.524497893 0.274649275 1.3731533"></polygon>
                                </g>
                                <g id="s-link" transform="translate(0.000000, 5.313423)">
                                    <polygon id="s" points="0.719041131 0 1.16343299 1.3731533 0 0.524497893 1.43808226 0.524497893 0.274649275 1.3731533"></polygon>
                                </g>
                                <g id="s-link" transform="translate(0.000000, 7.970135)">
                                    <polygon id="s" points="0.719041131 0 1.16343299 1.3731533 0 0.524497893 1.43808226 0.524497893 0.274649275 1.3731533"></polygon>
                                </g>
                            </g>
                        </g>
                        <g id="s9" transform="translate(3.112384, 0.000000)">
                            <g id="s5">
                                <g id="s4">
                                    <polygon id="s" points="0.719041131 0 1.16343299 1.3731533 0 0.524497893 1.43808226 0.524497893 0.274649275 1.3731533"></polygon>
                                    <g id="s-link" transform="translate(0.000000, 2.656712)">
                                        <polygon id="s" points="0.719041131 0 1.16343299 1.3731533 0 0.524497893 1.43808226 0.524497893 0.274649275 1.3731533"></polygon>
                                    </g>
                                    <g id="s-link" transform="translate(0.000000, 5.313423)">
                                        <polygon id="s" points="0.719041131 0 1.16343299 1.3731533 0 0.524497893 1.43808226 0.524497893 0.274649275 1.3731533"></polygon>
                                    </g>
                                    <g id="s-link" transform="translate(0.000000, 7.970135)">
                                        <polygon id="s" points="0.719041131 0 1.16343299 1.3731533 0 0.524497893 1.43808226 0.524497893 0.274649275 1.3731533"></polygon>
                                    </g>
                                </g>
                                <g id="s-link" transform="translate(0.000000, 10.626847)">
                                    <polygon id="s" points="0.719041131 0 1.16343299 1.3731533 0 0.524497893 1.43808226 0.524497893 0.274649275 1.3731533"></polygon>
                                </g>
                            </g>
                            <g id="s4" transform="translate(1.556192, 1.328356)">
                                <polygon id="s" points="0.719041131 0 1.16343299 1.3731533 0 0.524497893 1.43808226 0.524497893 0.274649275 1.3731533"></polygon>
                                <g id="s-link" transform="translate(0.000000, 2.656712)">
                                    <polygon id="s" points="0.719041131 0 1.16343299 1.3731533 0 0.524497893 1.43808226 0.524497893 0.274649275 1.3731533"></polygon>
                                </g>
                                <g id="s-link" transform="translate(0.000000, 5.313423)">
                                    <polygon id="s" points="0.719041131 0 1.16343299 1.3731533 0 0.524497893 1.43808226 0.524497893 0.274649275 1.3731533"></polygon>
                                </g>
                                <g id="s-link" transform="translate(0.000000, 7.970135)">
                                    <polygon id="s" points="0.719041131 0 1.16343299 1.3731533 0 0.524497893 1.43808226 0.524497893 0.274649275 1.3731533"></polygon>
                                </g>
                            </g>
                        </g>
                    </g>
                    <g id="s9" transform="translate(12.449534, 0.000000)">
                        <g id="s5">
                            <g id="s4">
                                <polygon id="s" points="0.719041131 0 1.16343299 1.3731533 0 0.524497893 1.43808226 0.524497893 0.274649275 1.3731533"></polygon>
                                <g id="s-link" transform="translate(0.000000, 2.656712)">
                                    <polygon id="s" points="0.719041131 0 1.16343299 1.3731533 0 0.524497893 1.43808226 0.524497893 0.274649275 1.3731533"></polygon>
                                </g>
                                <g id="s-link" transform="translate(0.000000, 5.313423)">
                                    <polygon id="s" points="0.719041131 0 1.16343299 1.3731533 0 0.524497893 1.43808226 0.524497893 0.274649275 1.3731533"></polygon>
                                </g>
                                <g id="s-link" transform="translate(0.000000, 7.970135)">
                                    <polygon id="s" points="0.719041131 0 1.16343299 1.3731533 0 0.524497893 1.43808226 0.524497893 0.274649275 1.3731533"></polygon>
                                </g>
                            </g>
                            <g id="s-link" transform="translate(0.000000, 10.626847)">
                                <polygon id="s" points="0.719041131 0 1.16343299 1.3731533 0 0.524497893 1.43808226 0.524497893 0.274649275 1.3731533"></polygon>
                            </g>
                        </g>
                        <g id="s4" transform="translate(1.556192, 1.328356)">
                            <polygon id="s" points="0.719041131 0 1.16343299 1.3731533 0 0.524497893 1.43808226 0.524497893 0.274649275 1.3731533"></polygon>
                            <g id="s-link" transform="translate(0.000000, 2.656712)">
                                <polygon id="s" points="0.719041131 0 1.16343299 1.3731533 0 0.524497893 1.43808226 0.524497893 0.274649275 1.3731533"></polygon>
                            </g>
                            <g id="s-link" transform="translate(0.000000, 5.313423)">
                                <polygon id="s" points="0.719041131 0 1.16343299 1.3731533 0 0.524497893 1.43808226 0.524497893 0.274649275 1.3731533"></polygon>
                            </g>
                            <g id="s-link" transform="translate(0.000000, 7.970135)">
                                <polygon id="s" points="0.719041131 0 1.16343299 1.3731533 0 0.524497893 1.43808226 0.524497893 0.274649275 1.3731533"></polygon>
                            </g>
                        </g>
                    </g>
                    <g id="s5" transform="translate(15.561918, 0.000000)">
                        <g id="s4">
                            <polygon id="s" points="0.719041131 0 1.16343299 1.3731533 0 0.524497893 1.43808226 0.524497893 0.274649275 1.3731533"></polygon>
                            <g id="s-link" transform="translate(0.000000, 2.656712)">
                                <polygon id="s" points="0.719041131 0 1.16343299 1.3731533 0 0.524497893 1.43808226 0.524497893 0.274649275 1.3731533"></polygon>
                            </g>
                            <g id="s-link" transform="translate(0.000000, 5.313423)">
                                <polygon id="s" points="0.719041131 0 1.16343299 1.3731533 0 0.524497893 1.43808226 0.524497893 0.274649275 1.3731533"></polygon>
                            </g>
                            <g id="s-link" transform="translate(0.000000, 7.970135)">
                                <polygon id="s" points="0.719041131 0 1.16343299 1.3731533 0 0.524497893 1.43808226 0.524497893 0.274649275 1.3731533"></polygon>
                            </g>
                        </g>
                        <g id="s-link" transform="translate(0.000000, 10.626847)">
                            <polygon id="s" points="0.719041131 0 1.16343299 1.3731533 0 0.524497893 1.43808226 0.524497893 0.274649275 1.3731533"></polygon>
                        </g>
                    </g>
                </g>
            </g>
            <polygon id="Path" fill="#00823B" fill-rule="nonzero" points="55 534 245.9 534 245.9 594.7 55 594.7"></polygon>
            <path d="M70,174.3 L60.2,174.3 L59,178.3 L53.6,178.3 L61.8,153.1 L68.5,153.1 L76.9,178.3 L71.2,178.3 L70,174.3 Z M61.6,169.8 L68.7,169.8 L65.2,158.4 L65.1,158.4 L61.6,169.8 L61.6,169.8 Z M78.3,168.8 C78.3,163.2 81.6,159.1 86.6,159.1 C88.8,159.1 90.3,160 91.4,161.1 L91.4,153.1 L96.3,153.1 L96.3,178.3 L91.4,178.3 L91.4,176.7 C90.4,177.8 89,178.7 86.8,178.7 C81.8,178.7 78.4,174.6 78.4,169 L78.4,168.8 L78.3,168.8 Z M91.4,167.1 C91.4,165.1 89.9,163.6 87.5,163.6 C84.7,163.6 83.2,165.8 83.2,168.8 L83.2,169 C83.2,172 84.7,174.2 87.5,174.2 C89.9,174.2 91.4,172.7 91.4,170.7 L91.4,167.1 L91.4,167.1 Z M99.7,168.8 C99.7,163.2 103,159.1 108,159.1 C110.2,159.1 111.7,160 112.8,161.1 L112.8,153.1 L117.7,153.1 L117.7,178.3 L112.8,178.3 L112.8,176.7 C111.8,177.8 110.4,178.7 108.2,178.7 C103.2,178.7 99.8,174.6 99.8,169 L99.8,168.8 L99.7,168.8 Z M112.9,167.1 C112.9,165.1 111.4,163.6 109,163.6 C106.2,163.6 104.7,165.8 104.7,168.8 L104.7,169 C104.7,172 106.2,174.2 109,174.2 C111.4,174.2 112.9,172.7 112.9,170.7 L112.9,167.1 L112.9,167.1 Z M137.1,172.7 C137.1,173.6 137.5,174.3 139.2,174.3 C139.9,174.3 141.1,174.2 141.6,174.1 L142,178.4 C142,178.4 139.6,178.7 137.5,178.7 C134.2,178.7 132.2,177.2 132.2,173.9 L132.2,163.9 L128.8,163.9 L128.8,159.5 L132.2,159.5 L132.2,154.2 L137.1,152.9 L137.1,159.5 L142,159.5 L142,163.9 L137.1,163.9 L137.1,172.7 Z M149.5,170.5 C150,172.9 151.8,174.2 154.1,174.2 C155.9,174.2 157.6,173.6 158.9,172.4 L161.3,176.1 C159.6,177.5 157.1,178.6 154,178.6 C148.8,178.6 144.5,175 144.5,169 L144.5,168.8 C144.5,163.3 148.3,159.1 153.6,159.1 C158.6,159.1 162.2,162.9 162.2,168.4 L162.2,170.6 L149.5,170.6 L149.5,170.5 Z M149.5,166.9 L157.1,166.9 C157,165.2 155.9,163.3 153.4,163.3 C150.9,163.3 149.7,165.2 149.5,166.9 Z M169.7,168.4 L164,159.4 L169.6,159.4 L172.5,164.5 L175.5,159.4 L181.2,159.4 L175.4,168.4 L181.9,178.2 L176,178.2 L172.3,172.4 L168.9,178.2 L163.2,178.2 L169.7,168.4 L169.7,168.4 Z M191.2,172.7 C191.2,173.6 191.6,174.3 193.3,174.3 C194,174.3 195.2,174.2 195.7,174.1 L196.1,178.4 C196.1,178.4 193.7,178.7 191.6,178.7 C188.3,178.7 186.3,177.2 186.3,173.9 L186.3,163.9 L182.9,163.9 L182.9,159.5 L186.3,159.5 L186.3,154.2 L191.2,152.9 L191.2,159.5 L196.1,159.5 L196.1,163.9 L191.2,163.9 L191.2,172.7 Z M224.1,178.3 L219.2,178.3 L219.2,167.4 C219.2,164.7 217.9,163.8 216.4,163.8 C214.5,163.8 213.1,165.1 213.1,168.1 L213.1,178.4 L208.2,178.4 L208.2,159.6 L213.1,159.6 L213.1,161.3 C214.3,159.9 216.1,159.3 217.9,159.3 C219.8,159.3 221.6,160.1 222.8,161.9 C224.1,160 226.3,159.3 228.5,159.3 C232.7,159.3 235.2,162.3 235.2,165.6 L235.2,178.5 L230.3,178.5 L230.3,167.6 C230.3,164.9 229,164 227.5,164 C225.6,164 224.2,165.3 224.2,168.3 L224.2,178.3 L224.1,178.3 Z M243.6,170.5 C244.1,172.9 245.9,174.2 248.2,174.2 C250,174.2 251.7,173.6 253,172.4 L255.4,176.1 C253.7,177.5 251.2,178.6 248.1,178.6 C242.9,178.6 238.6,175 238.6,169 L238.6,168.8 C238.6,163.3 242.4,159.1 247.7,159.1 C252.7,159.1 256.3,162.9 256.3,168.4 L256.3,170.6 L243.6,170.6 L243.6,170.5 Z M243.7,166.9 L251.3,166.9 C251.2,165.2 250.1,163.3 247.6,163.3 C245,163.3 243.8,165.2 243.7,166.9 Z M261.3,172.2 C262.6,173.5 264.9,174.5 266.8,174.5 C268.3,174.5 269.5,174.1 269.5,173 C269.5,172.1 268.8,171.7 267.2,171.3 C266.1,171 264.1,170.7 262.5,170 C260.7,169.2 259.2,167.7 259.2,165.1 C259.2,161.1 262.8,159.1 266.9,159.1 C270.1,159.1 272.8,160.3 274.4,161.8 L271.3,165 C270.3,164.1 268.7,163.3 267,163.3 C265.7,163.3 264.3,163.8 264.3,164.9 C264.3,165.8 265.1,166.1 266.5,166.4 C268.8,167 270.5,167.4 271.9,168.1 C273.4,168.9 274.5,170.5 274.5,172.6 C274.5,176.6 271.1,178.6 266.9,178.6 C263.8,178.6 260.3,177.4 258.4,175.8 L261.3,172.2 L261.3,172.2 Z M279.6,172.2 C280.9,173.5 283.2,174.5 285.1,174.5 C286.6,174.5 287.8,174.1 287.8,173 C287.8,172.1 287.1,171.7 285.5,171.3 C284.4,171 282.4,170.7 280.8,170 C279,169.2 277.5,167.7 277.5,165.1 C277.5,161.1 281.1,159.1 285.2,159.1 C288.4,159.1 291.1,160.3 292.7,161.8 L289.6,165 C288.6,164.1 287,163.3 285.3,163.3 C284,163.3 282.6,163.8 282.6,164.9 C282.6,165.8 283.4,166.1 284.8,166.4 C287.1,167 288.8,167.4 290.2,168.1 C291.7,168.9 292.8,170.5 292.8,172.6 C292.8,176.6 289.4,178.6 285.2,178.6 C282.1,178.6 278.6,177.4 276.7,175.8 L279.6,172.2 L279.6,172.2 Z M301.8,178.6 C298.4,178.6 295.3,176.4 295.3,172.7 C295.3,169.7 297.3,167.7 300.6,167.2 L306.3,166.4 L306.3,165.8 C306.3,164.1 305.2,163.4 303.3,163.4 C301,163.4 299.2,164.3 297.8,164.9 L295.9,161.2 C298.1,160 300.8,159.1 303.5,159.1 C307,159.1 311.1,160 311.1,165.1 L311.1,173.2 C311.1,174.3 311.7,174.7 312.7,175.1 L310.5,178.6 C308.7,178.5 307.5,177.5 307,176.5 C305.9,178 304.1,178.6 301.8,178.6 L301.8,178.6 Z M302.4,170.7 C301.2,170.9 300.4,171.6 300.4,172.6 C300.4,173.8 301.3,174.8 303,174.8 C305.3,174.8 306.3,173.3 306.3,171.3 L306.3,170 L302.4,170.7 L302.4,170.7 Z M322.8,159.1 C324.6,159.1 326.3,159.8 327.2,160.8 L327.2,159.4 L332.1,159.4 L332.1,178 C332.1,182.6 328.4,184.5 323.9,184.5 C321.2,184.5 317.9,184 315.8,182.8 L317.2,178.6 C318.6,179.2 321.1,180 323.4,180 C325.5,180 327.4,179.3 327.4,177 L327.4,174.7 C326.4,175.7 324.9,176.4 322.8,176.4 C318.5,176.4 315.1,172.9 315.1,167.9 C314.9,163 317.8,159.1 322.8,159.1 L322.8,159.1 Z M319.9,167.9 C319.9,170.4 320.9,172.3 323.6,172.3 C326.3,172.3 327.3,170.4 327.3,167.9 C327.3,165.4 326.3,163.4 323.6,163.4 C320.9,163.4 319.9,165.4 319.9,167.9 Z M340.7,170.5 C341.2,172.9 343,174.2 345.3,174.2 C347.1,174.2 348.8,173.6 350.1,172.4 L352.5,176.1 C350.8,177.5 348.3,178.6 345.2,178.6 C340,178.6 335.7,175 335.7,169 L335.7,168.8 C335.7,163.3 339.5,159.1 344.8,159.1 C349.8,159.1 353.4,162.9 353.4,168.4 L353.4,170.6 L340.7,170.6 L340.7,170.5 Z M340.7,166.9 L348.3,166.9 C348.2,165.2 347.1,163.3 344.6,163.3 C342,163.3 340.8,165.2 340.7,166.9 L340.7,166.9 Z M371.3,172.7 C371.3,173.6 371.7,174.3 373.4,174.3 C374.1,174.3 375.3,174.2 375.8,174.1 L376.2,178.4 C376.2,178.4 373.8,178.7 371.7,178.7 C368.4,178.7 366.4,177.2 366.4,173.9 L366.4,163.9 L363,163.9 L363,159.5 L366.4,159.5 L366.4,154.2 L371.3,152.9 L371.3,159.5 L376.2,159.5 L376.2,163.9 L371.3,163.9 L371.3,172.7 L371.3,172.7 Z M383.7,170.5 C384.2,172.9 386,174.2 388.3,174.2 C390.1,174.2 391.8,173.6 393.1,172.4 L395.5,176.1 C393.8,177.5 391.3,178.6 388.2,178.6 C383,178.6 378.7,175 378.7,169 L378.7,168.8 C378.7,163.3 382.5,159.1 387.8,159.1 C392.8,159.1 396.4,162.9 396.4,168.4 L396.4,170.6 L383.7,170.6 L383.7,170.5 Z M383.7,166.9 L391.3,166.9 C391.2,165.2 390.1,163.3 387.6,163.3 C385,163.3 383.9,165.2 383.7,166.9 L383.7,166.9 Z M415.7,178.3 L410.8,178.3 L410.8,167.4 C410.8,164.7 409.5,163.8 408,163.8 C406.1,163.8 404.7,165.1 404.7,168.1 L404.7,178.4 L399.8,178.4 L399.8,159.6 L404.7,159.6 L404.7,161.3 C405.9,159.9 407.7,159.3 409.5,159.3 C411.4,159.3 413.2,160.1 414.4,161.9 C415.7,160 417.9,159.3 420.1,159.3 C424.3,159.3 426.8,162.3 426.8,165.6 L426.8,178.5 L421.9,178.5 L421.9,167.6 C421.9,164.9 420.6,164 419.1,164 C417.2,164 415.8,165.3 415.8,168.3 L415.8,178.3 L415.7,178.3 Z M436,159.5 L436,161.1 C437,160 438.6,159.1 440.8,159.1 C445.8,159.1 449.1,163.2 449.1,168.8 L449.1,169 C449.1,174.6 445.7,178.7 440.7,178.7 C438.5,178.7 437.1,177.8 436.1,176.7 L436.1,184.3 L431.2,184.3 L431.2,159.5 L436,159.5 L436,159.5 Z M435.9,170.6 C435.9,172.6 437.4,174.1 439.8,174.1 C442.6,174.1 444.1,171.9 444.1,168.9 L444.1,168.7 C444.1,165.7 442.6,163.5 439.8,163.5 C437.4,163.5 435.9,165 435.9,167 L435.9,170.6 L435.9,170.6 Z M452.6,153.1 L457.5,153.1 L457.5,173.2 C457.5,174 457.9,174.4 458.9,174.4 C459.5,174.4 460.2,174.3 460.7,174.2 L461.1,178.3 C461.1,178.3 458.8,178.6 457,178.6 C454.3,178.6 452.6,177.2 452.6,174.5 L452.6,153.1 L452.6,153.1 Z M468.8,178.6 C465.4,178.6 462.3,176.4 462.3,172.7 C462.3,169.7 464.3,167.7 467.6,167.2 L473.3,166.4 L473.3,165.8 C473.3,164.1 472.2,163.4 470.3,163.4 C468,163.4 466.2,164.3 464.8,164.9 L462.9,161.2 C465.1,160 467.8,159.1 470.5,159.1 C474,159.1 478.1,160 478.1,165.1 L478.1,173.2 C478.1,174.3 478.7,174.7 479.7,175.1 L477.5,178.6 C475.7,178.5 474.5,177.5 474,176.5 C472.8,178 471,178.6 468.8,178.6 L468.8,178.6 Z M469.4,170.7 C468.2,170.9 467.4,171.6 467.4,172.6 C467.4,173.8 468.3,174.8 470,174.8 C472.3,174.8 473.3,173.3 473.3,171.3 L473.3,170 L469.4,170.7 L469.4,170.7 Z M489.4,172.7 C489.4,173.6 489.8,174.3 491.5,174.3 C492.2,174.3 493.4,174.2 493.9,174.1 L494.3,178.4 C494.3,178.4 491.9,178.7 489.8,178.7 C486.5,178.7 484.5,177.2 484.5,173.9 L484.5,163.9 L481.1,163.9 L481.1,159.5 L484.5,159.5 L484.5,154.2 L489.4,152.9 L489.4,159.5 L494.3,159.5 L494.3,163.9 L489.4,163.9 L489.4,172.7 L489.4,172.7 Z M501.9,170.5 C502.4,172.9 504.2,174.2 506.5,174.2 C508.3,174.2 510,173.6 511.3,172.4 L513.7,176.1 C512,177.5 509.5,178.6 506.4,178.6 C501.2,178.6 496.9,175 496.9,169 L496.9,168.8 C496.9,163.3 500.7,159.1 506,159.1 C511,159.1 514.6,162.9 514.6,168.4 L514.6,170.6 L501.9,170.6 L501.9,170.5 Z M501.9,166.9 L509.5,166.9 C509.4,165.2 508.3,163.3 505.8,163.3 C503.2,163.3 502,165.2 501.9,166.9 L501.9,166.9 Z M73.8,224.8 L77.2,224.8 L77.2,247.2 L74.4,247.2 L74.4,228.2 L66.8,238.5 L59.2,228.3 L59.2,247.2 L56.4,247.2 L56.4,224.8 L59.8,224.8 L66.8,234.3 L73.8,224.8 L73.8,224.8 Z M84.4,240 C84.6,243 86.5,245.2 89.4,245.2 C91.2,245.2 92.5,244.5 93.6,243.6 L94.9,245.5 C93.5,246.7 91.6,247.5 89.2,247.5 C84.6,247.5 81.6,244 81.6,239.2 C81.6,234.3 84.4,230.9 88.9,230.9 C93.1,230.9 95.7,234.4 95.7,239.2 L95.7,240 L84.4,240 Z M84.5,237.9 L92.9,237.9 C92.8,235.4 91.4,233.2 88.9,233.2 C86.2,233.2 84.6,235.5 84.5,237.9 Z M98.3,245.2 L99.9,243.3 C100.9,244.2 102.6,245.3 104.7,245.3 C106.5,245.3 107.9,244.5 107.9,242.9 C107.9,241.2 106.2,240.8 104,240.2 C101.7,239.6 99,238.8 99,235.5 C99,232.8 101.5,230.9 104.8,230.9 C106.9,230.9 109.2,231.8 110.3,232.9 L108.8,234.7 C107.9,233.8 106.5,233.2 104.9,233.2 C102.8,233.2 101.7,234.1 101.7,235.6 C101.7,236.8 102.6,237.3 104,237.7 C104.8,237.9 105.8,238.2 106.6,238.5 C108.7,239.2 110.5,240.3 110.5,242.9 C110.5,246.2 107.6,247.7 104.5,247.7 C102.5,247.5 100.1,246.8 98.3,245.2 L98.3,245.2 Z M113.4,245.2 L115,243.3 C116,244.2 117.7,245.3 119.8,245.3 C121.6,245.3 123,244.5 123,242.9 C123,241.2 121.3,240.8 119.1,240.2 C116.8,239.6 114.1,238.8 114.1,235.5 C114.1,232.8 116.6,230.9 119.9,230.9 C122,230.9 124.3,231.8 125.4,232.9 L123.9,234.7 C123,233.8 121.6,233.2 120,233.2 C117.9,233.2 116.8,234.1 116.8,235.6 C116.8,236.8 117.7,237.3 119.1,237.7 C119.9,237.9 120.9,238.2 121.7,238.5 C123.8,239.2 125.6,240.3 125.6,242.9 C125.6,246.2 122.7,247.7 119.6,247.7 C117.5,247.5 115.1,246.8 113.4,245.2 L113.4,245.2 Z M134.2,247.5 C131,247.5 128.6,245.6 128.6,242.7 C128.6,240.2 130.3,238.5 132.9,238.2 L138.5,237.4 L138.5,236.4 C138.5,234 136.9,233.2 134.9,233.2 C133.1,233.2 131.5,233.8 130.3,234.4 L129.3,232.3 C131.1,231.3 133.2,230.8 135.2,230.8 C139.1,230.8 141.1,232.5 141.1,235.9 L141.1,243.4 C141.1,244.5 141.5,245.2 142.4,245.6 L140.9,247.5 C139.9,247.2 139.1,246.5 138.8,245.6 C137.9,246.7 136.3,247.5 134.2,247.5 L134.2,247.5 Z M134.2,240.1 C132.4,240.4 131.3,240.9 131.3,242.6 C131.3,244.5 132.8,245.5 134.6,245.5 C136.6,245.5 138.5,244.3 138.5,242.4 L138.5,239.5 L134.2,240.1 Z M151.8,230.9 C153.5,230.9 155.2,231.5 156.3,233 L156.3,231.2 L158.9,231.2 L158.9,247.3 C158.9,251.3 155.4,252.4 152.1,252.4 C150.2,252.4 148,252 146.2,251.1 L147.1,248.9 C148.3,249.5 150.3,250 152.2,250 C154.9,250 156.4,249 156.4,246.5 L156.4,243.5 C155.3,245 153.6,245.6 151.9,245.6 C147.9,245.6 145.4,242.4 145.4,238.2 C145.3,234.1 147.8,230.9 151.8,230.9 L151.8,230.9 Z M156.4,238.2 C156.4,235.4 155.2,233.2 152.3,233.2 C149.4,233.2 148.1,235.4 148.1,238.2 L148.1,238.3 C148.1,241.1 149.4,243.3 152.3,243.3 C155.2,243.3 156.4,241.1 156.4,238.3 L156.4,238.2 Z M165.8,240 C166,243 167.9,245.2 170.8,245.2 C172.6,245.2 173.9,244.5 175,243.6 L176.3,245.5 C174.9,246.7 173,247.5 170.6,247.5 C166,247.5 163,244 163,239.2 C163,234.3 165.8,230.9 170.3,230.9 C174.5,230.9 177.1,234.4 177.1,239.2 L177.1,240 L165.8,240 L165.8,240 Z M165.9,237.9 L174.3,237.9 C174.2,235.4 172.8,233.2 170.3,233.2 C167.7,233.2 166,235.5 165.9,237.9 Z" id="Shape" fill="#0B0B0B" fill-rule="nonzero"></path>
            <path d="M117.7,571.7 C119.2,573.5 121.4,574.6 124,574.6 C126.7,574.6 129.1,573.2 129.1,570.6 C129.1,568.9 128.2,568.1 127,567.5 C124.8,566.4 121.3,566.4 118.9,564.9 C117.5,564 116.3,562.6 116.3,560.2 C116.3,556.7 119.2,554 123.9,554 C126.8,554 129.6,555.2 131.3,557 L129.3,558.6 C128.1,557.4 126.3,556.3 123.9,556.3 C121.2,556.3 119,557.6 119,560 C119,563.6 124.3,563.2 128.2,564.9 C130.2,565.8 131.9,567.3 131.9,570.2 C131.9,574.6 127.9,576.9 123.8,576.9 C120.1,576.9 117.4,575.3 115.6,573.4 L117.7,571.7 L117.7,571.7 Z M142.2,577 C139,577 136.6,575.1 136.6,572.2 C136.6,569.7 138.3,568 140.9,567.7 L146.5,566.9 L146.5,565.9 C146.5,563.5 144.9,562.7 142.9,562.7 C141.1,562.7 139.5,563.3 138.3,563.9 L137.3,561.8 C139.1,560.8 141.2,560.3 143.2,560.3 C147.1,560.3 149.1,562 149.1,565.4 L149.1,572.9 C149.1,574 149.5,574.7 150.4,575.1 L148.9,577 C147.9,576.7 147.1,576 146.8,575.1 C145.9,576.1 144.3,577 142.2,577 L142.2,577 Z M142.2,569.5 C140.4,569.8 139.3,570.3 139.3,572 C139.3,573.9 140.8,574.9 142.6,574.9 C144.6,574.9 146.5,573.7 146.5,571.8 L146.5,568.9 L142.2,569.5 Z M159.1,576.7 L154,560.7 L157,560.7 L160.8,574.2 L164.6,560.7 L167.6,560.7 L162.5,576.7 L159.1,576.7 L159.1,576.7 Z M174.2,569.5 C174.4,572.5 176.3,574.7 179.2,574.7 C181,574.7 182.3,574 183.4,573.1 L184.7,575 C183.3,576.2 181.4,577 179,577 C174.4,577 171.4,573.5 171.4,568.7 C171.4,563.8 174.2,560.4 178.7,560.4 C182.9,560.4 185.5,563.9 185.5,568.7 L185.5,569.5 L174.2,569.5 L174.2,569.5 Z M174.2,567.4 L182.6,567.4 C182.5,564.9 181.1,562.7 178.6,562.7 C176,562.7 174.3,564.9 174.2,567.4 Z" id="Shape" fill="#FFFFFF" fill-rule="nonzero"></path>
            <path d="M95.2,303.2 L83.4,303.2 L83.4,313.5 L80.6,313.5 L80.6,291.1 L83.4,291.1 L83.4,300.8 L95.2,300.8 L95.2,291.1 L98,291.1 L98,313.5 L95.2,313.5 L95.2,303.2 Z M105.2,306.4 C105.4,309.4 107.3,311.6 110.2,311.6 C112,311.6 113.3,310.9 114.4,310 L115.7,311.9 C114.3,313.1 112.4,313.9 110,313.9 C105.4,313.9 102.4,310.4 102.4,305.6 C102.4,300.7 105.2,297.3 109.7,297.3 C113.9,297.3 116.5,300.8 116.5,305.6 L116.5,306.4 L105.2,306.4 L105.2,306.4 Z M105.2,304.2 L113.6,304.2 C113.5,301.7 112.1,299.5 109.6,299.5 C107,299.5 105.3,301.8 105.2,304.2 Z M118.5,297.6 L121.5,297.6 L125.4,310.8 L129.1,297.6 L132,297.6 L126.2,316 C125.5,318.2 123.9,318.8 122,318.8 C121.1,318.8 120.2,318.7 119.2,318.5 L119.6,316.2 C119.6,316.2 120.7,316.4 121.7,316.4 C122.9,316.4 123.5,315.9 123.7,314.8 L123.9,314.1 L118.5,297.6 L118.5,297.6 Z M148.8,291.6 L151,289.9 L152.3,291.8 C147.8,294.9 145.1,299.3 145.1,304.9 L145.1,305.1 C145.1,310.7 147.7,315.1 152.3,318.2 L151,320.1 L148.8,318.4 C144.5,315 142.2,310.5 142.2,305 C142.2,299.5 144.6,295 148.8,291.6 L148.8,291.6 Z M160.6,291.6 L162.8,289.9 L164.1,291.8 C159.6,294.9 156.9,299.3 156.9,304.9 L156.9,305.1 C156.9,310.7 159.5,315.1 164.1,318.2 L162.8,320.1 L160.6,318.4 C156.3,315 154,310.5 154,305 C154,299.5 156.3,295 160.6,291.6 L160.6,291.6 Z M166.9,297.6 L169.5,297.6 L169.5,299.4 C170.6,297.9 172.2,297.3 174.2,297.3 C177.8,297.3 179.5,299.8 179.5,302.7 L179.5,313.5 L176.9,313.5 L176.9,303.5 C176.9,300.7 175.5,299.6 173.6,299.6 C171.6,299.6 169.5,301 169.5,304 L169.5,313.5 L166.9,313.5 L166.9,297.6 Z M188.9,313.8 C185.7,313.8 183.3,311.9 183.3,309 C183.3,306.5 185,304.8 187.6,304.5 L193.2,303.7 L193.2,302.7 C193.2,300.3 191.6,299.5 189.6,299.5 C187.8,299.5 186.2,300.1 185,300.7 L184,298.6 C185.8,297.6 187.9,297.1 189.9,297.1 C193.8,297.1 195.8,298.8 195.8,302.2 L195.8,309.7 C195.8,310.8 196.2,311.5 197.1,311.9 L195.6,313.8 C194.6,313.5 193.8,312.8 193.5,311.9 C192.6,313 191,313.8 188.9,313.8 L188.9,313.8 Z M188.9,306.4 C187.1,306.7 186,307.2 186,308.9 C186,310.8 187.5,311.8 189.3,311.8 C191.3,311.8 193.2,310.6 193.2,308.7 L193.2,305.8 L188.9,306.4 Z M212.9,313.5 L210.3,313.5 L210.3,303.5 C210.3,300.7 208.9,299.7 207.1,299.7 C205.3,299.7 203.6,301 203.6,304.1 L203.6,313.5 L201,313.5 L201,297.5 L203.6,297.5 L203.6,299.3 C204.7,297.8 206.1,297.2 207.8,297.2 C209.2,297.2 211.3,297.9 212.1,299.9 C213.3,297.9 215.2,297.2 217,297.2 C220.5,297.2 222.4,299.7 222.4,302.5 L222.4,313.4 L219.8,313.4 L219.8,303.4 C219.8,300.6 218.3,299.6 216.5,299.6 C214.7,299.6 213,300.9 213,304 L213,313.5 L212.9,313.5 Z M229.1,306.4 C229.3,309.4 231.2,311.6 234.1,311.6 C235.9,311.6 237.2,310.9 238.3,310 L239.6,311.9 C238.2,313.1 236.3,313.9 233.9,313.9 C229.3,313.9 226.3,310.4 226.3,305.6 C226.3,300.7 229.1,297.3 233.6,297.3 C237.8,297.3 240.4,300.8 240.4,305.6 L240.4,306.4 L229.1,306.4 L229.1,306.4 Z M229.1,304.2 L237.5,304.2 C237.4,301.7 236,299.5 233.5,299.5 C230.9,299.5 229.3,301.8 229.1,304.2 Z M245.3,318.4 L243.1,320.1 L241.8,318.2 C246.3,315.1 249,310.7 249,305.1 L249,304.9 C249,299.3 246.4,294.9 241.8,291.8 L243.1,289.9 L245.3,291.6 C249.6,295 251.9,299.5 251.9,305 C251.9,310.5 249.6,315 245.3,318.4 L245.3,318.4 Z M257.1,318.4 L254.9,320.1 L253.6,318.2 C258.1,315.1 260.8,310.7 260.8,305.1 L260.8,304.9 C260.8,299.3 258.2,294.9 253.6,291.8 L254.9,289.9 L257.1,291.6 C261.4,295 263.7,299.5 263.7,305 C263.7,310.5 261.3,315 257.1,318.4 L257.1,318.4 Z M272.1,312.3 C272.1,314.1 271.2,316.2 268.4,316.4 L268,316.4 L267.9,315.2 L268.3,315.1 C269.1,315 269.9,314.7 269.9,313.8 L269.9,313.7 L269.6,313.7 C268.4,313.7 267.5,312.8 267.5,311.6 C267.5,310.4 268.5,309.5 269.6,309.5 C271,309.6 272.1,310.7 272.1,312.3 L272.1,312.3 Z M80.6,335.1 L83.4,335.1 L83.4,357.5 L80.6,357.5 L80.6,335.1 Z M93.5,337.6 C93.5,339.4 92.6,341.5 89.8,341.7 L89.4,341.7 L89.3,340.5 L89.7,340.4 C90.5,340.3 91.3,340 91.3,339.1 L91.3,339 L91,339 C89.8,339 88.9,338.1 88.9,336.9 C88.9,335.7 89.9,334.8 91,334.8 C92.4,334.8 93.5,335.9 93.5,337.6 L93.5,337.6 Z M109.9,357.5 L107.3,357.5 L107.3,347.5 C107.3,344.7 105.9,343.7 104.1,343.7 C102.3,343.7 100.6,345 100.6,348.1 L100.6,357.5 L98,357.5 L98,341.5 L100.6,341.5 L100.6,343.3 C101.7,341.8 103.1,341.2 104.8,341.2 C106.2,341.2 108.3,341.9 109.1,343.9 C110.3,341.9 112.2,341.2 114,341.2 C117.5,341.2 119.4,343.7 119.4,346.5 L119.4,357.4 L116.8,357.4 L116.8,347.4 C116.8,344.6 115.3,343.6 113.5,343.6 C111.7,343.6 110,344.9 110,348 L110,357.5 L109.9,357.5 Z M136.2,353.6 C136.2,354.7 136.4,355.6 138.2,355.6 C138.7,355.6 139.7,355.5 140.2,355.4 L140.5,357.7 C140.5,357.7 139,357.9 137.7,357.9 C135.2,357.9 133.6,356.9 133.6,354.2 L133.6,343.9 L130.6,343.9 L130.6,341.6 L133.6,341.6 L133.6,336.4 L136.2,335.5 L136.2,341.6 L140.6,341.6 L140.6,343.9 L136.2,343.9 L136.2,353.6 L136.2,353.6 Z M152.4,343.9 L152,343.9 C149.3,343.9 146.9,345 146.9,349.3 L146.9,357.5 L144.3,357.5 L144.3,341.5 L146.9,341.5 L146.9,344 C147.7,342.1 149.7,341.2 151.7,341.2 L152.5,341.2 L152.5,343.9 L152.4,343.9 Z M154,341.6 L157,341.6 L160.9,354.8 L164.6,341.6 L167.5,341.6 L161.7,360 C161,362.2 159.4,362.8 157.5,362.8 C156.6,362.8 155.7,362.7 154.7,362.5 L155.1,360.2 C155.1,360.2 156.2,360.4 157.2,360.4 C158.4,360.4 159,359.9 159.2,358.8 L159.4,358.1 L154,341.6 L154,341.6 Z M172.4,335.1 C173.5,335.1 174.3,336 174.3,337.1 C174.3,338.2 173.4,339.1 172.4,339.1 C171.3,339.1 170.4,338.2 170.4,337.1 C170.4,336 171.3,335.1 172.4,335.1 Z M173.6,357.5 L171,357.5 L171,341.5 L173.6,341.5 L173.6,357.5 Z M178.8,341.6 L181.4,341.6 L181.4,343.4 C182.5,341.9 184.1,341.3 186.1,341.3 C189.7,341.3 191.4,343.8 191.4,346.7 L191.4,357.5 L188.8,357.5 L188.8,347.5 C188.8,344.7 187.4,343.6 185.5,343.6 C183.5,343.6 181.4,345 181.4,348 L181.4,357.5 L178.8,357.5 L178.8,341.6 Z M202,341.2 C203.7,341.2 205.4,341.8 206.5,343.3 L206.5,341.5 L209.1,341.5 L209.1,357.6 C209.1,361.6 205.6,362.7 202.3,362.7 C200.4,362.7 198.2,362.3 196.4,361.4 L197.3,359.2 C198.5,359.8 200.5,360.3 202.4,360.3 C205.1,360.3 206.6,359.3 206.6,356.8 L206.6,353.8 C205.5,355.3 203.8,355.9 202.1,355.9 C198.1,355.9 195.6,352.7 195.6,348.5 C195.6,344.3 198,341.2 202,341.2 L202,341.2 Z M206.5,348.6 C206.5,345.8 205.3,343.6 202.4,343.6 C199.5,343.6 198.2,345.8 198.2,348.6 L198.2,348.7 C198.2,351.5 199.5,353.7 202.4,353.7 C205.3,353.7 206.5,351.5 206.5,348.7 L206.5,348.6 Z M236.4,349.6 C236.4,354.4 233.5,357.9 229,357.9 C224.6,357.9 221.6,354.4 221.6,349.6 C221.6,344.7 224.5,341.3 229,341.3 C233.4,341.2 236.4,344.7 236.4,349.6 Z M233.6,349.6 L233.6,349.4 C233.6,346.2 232,343.5 229,343.5 C226,343.5 224.4,346.2 224.4,349.4 L224.4,349.6 C224.4,352.7 226,355.5 229,355.5 C232,355.5 233.6,352.8 233.6,349.6 Z M253,357.5 L250.4,357.5 L250.4,355.7 C249.3,357.2 247.7,357.8 245.7,357.8 C242.1,357.8 240.4,355.3 240.4,352.4 L240.4,341.6 L243,341.6 L243,351.6 C243,354.4 244.4,355.5 246.3,355.5 C248.5,355.5 250.4,354.1 250.4,351.1 L250.4,341.6 L253,341.6 L253,357.5 Z M262.3,353.6 C262.3,354.7 262.5,355.6 264.3,355.6 C264.8,355.6 265.8,355.5 266.3,355.4 L266.6,357.7 C266.6,357.7 265.1,357.9 263.8,357.9 C261.3,357.9 259.7,356.9 259.7,354.2 L259.7,343.9 L256.7,343.9 L256.7,341.6 L259.7,341.6 L259.7,336.4 L262.3,335.5 L262.3,341.6 L266.7,341.6 L266.7,343.9 L262.3,343.9 L262.3,353.6 L262.3,353.6 Z M282,338.1 L282,357.6 L279.3,357.6 L279.3,335.2 L283.3,335.2 L294.9,353.7 L294.9,335.2 L297.6,335.2 L297.6,357.6 L294.2,357.6 L282,338.1 L282,338.1 Z M316.8,349.6 C316.8,354.4 313.9,357.9 309.4,357.9 C305,357.9 302,354.4 302,349.6 C302,344.7 304.9,341.3 309.4,341.3 C313.9,341.2 316.8,344.7 316.8,349.6 Z M314.1,349.6 L314.1,349.4 C314.1,346.2 312.5,343.5 309.5,343.5 C306.5,343.5 304.9,346.2 304.9,349.4 L304.9,349.6 C304.9,352.7 306.5,355.5 309.5,355.5 C312.5,355.5 314.1,352.8 314.1,349.6 Z M324.8,353.6 C324.8,354.7 325,355.6 326.8,355.6 C327.3,355.6 328.3,355.5 328.8,355.4 L329.1,357.7 C329.1,357.7 327.6,357.9 326.3,357.9 C323.8,357.9 322.2,356.9 322.2,354.2 L322.2,343.9 L319.2,343.9 L319.2,341.6 L322.2,341.6 L322.2,336.4 L324.8,335.5 L324.8,341.6 L329.2,341.6 L329.2,343.9 L324.8,343.9 L324.8,353.6 L324.8,353.6 Z M334.2,335.1 C335.3,335.1 336.1,336 336.1,337.1 C336.1,338.2 335.2,339.1 334.2,339.1 C333.1,339.1 332.2,338.2 332.2,337.1 C332.2,336 333.1,335.1 334.2,335.1 Z M335.5,357.5 L332.9,357.5 L332.9,341.5 L335.5,341.5 L335.5,357.5 Z M344.3,341.6 L347.5,341.6 L347.5,343.9 L344.3,343.9 L344.3,357.6 L341.7,357.6 L341.7,343.9 L339,343.9 L339,341.6 L341.7,341.6 L341.7,338.6 C341.7,335.8 343.6,334.9 346.1,334.9 C347.4,334.9 348.2,335.1 348.7,335.1 L348.5,337.3 C347.9,337.2 346.7,337.2 346.2,337.2 C344.7,337.2 344.3,338.1 344.3,339.1 L344.3,341.6 L344.3,341.6 Z M349.3,341.6 L352.3,341.6 L356.2,354.8 L359.9,341.6 L362.8,341.6 L357,360 C356.3,362.2 354.7,362.8 352.8,362.8 C351.9,362.8 351,362.7 350,362.5 L350.4,360.2 C350.4,360.2 351.5,360.4 352.5,360.4 C353.7,360.4 354.3,359.9 354.5,358.8 L354.7,358.1 L349.3,341.6 L349.3,341.6 Z M367.2,353.6 C368.4,353.6 369.3,354.6 369.3,355.7 C369.3,356.9 368.3,357.8 367.2,357.8 C366.1,357.8 365.1,356.8 365.1,355.7 C365.1,354.5 366,353.6 367.2,353.6 Z M379.9,335.1 L395.3,335.1 L395.3,337.6 L389,337.6 L389,357.5 L386.2,357.5 L386.2,337.6 L379.9,337.6 L379.9,335.1 L379.9,335.1 Z M409.8,349.6 C409.8,354.4 406.9,357.9 402.4,357.9 C398,357.9 395,354.4 395,349.6 C395,344.7 397.9,341.3 402.4,341.3 C406.9,341.2 409.8,344.7 409.8,349.6 Z M407.1,349.6 L407.1,349.4 C407.1,346.2 405.5,343.5 402.5,343.5 C399.5,343.5 397.9,346.2 397.9,349.4 L397.9,349.6 C397.9,352.7 399.5,355.5 402.5,355.5 C405.5,355.5 407.1,352.8 407.1,349.6 Z M424.5,355.7 C423.6,357 421.9,357.8 419.8,357.8 C415.7,357.8 413,354.3 413,349.5 C413,344.7 415.7,341.2 419.8,341.2 C421.8,341.2 423.5,342 424.5,343.3 L424.5,335 L427.1,335 L427.1,357.4 L424.5,357.4 L424.5,355.7 L424.5,355.7 Z M415.8,349.6 C415.8,352.9 417.4,355.5 420.3,355.5 C423.1,355.5 424.5,353.5 424.5,350.8 L424.5,348.2 C424.5,345.5 423.1,343.5 420.3,343.5 C417.4,343.5 415.8,346.1 415.8,349.4 L415.8,349.6 L415.8,349.6 Z M436.6,357.8 C433.4,357.8 431,355.9 431,353 C431,350.5 432.7,348.8 435.3,348.5 L440.9,347.7 L440.9,346.7 C440.9,344.3 439.3,343.5 437.3,343.5 C435.5,343.5 433.9,344.1 432.7,344.7 L431.7,342.6 C433.5,341.6 435.6,341.1 437.6,341.1 C441.5,341.1 443.5,342.8 443.5,346.2 L443.5,353.7 C443.5,354.8 443.9,355.5 444.8,355.9 L443.3,357.8 C442.3,357.5 441.5,356.8 441.2,355.9 C440.4,357 438.8,357.8 436.6,357.8 L436.6,357.8 Z M436.7,350.4 C434.9,350.7 433.8,351.2 433.8,352.9 C433.8,354.8 435.3,355.8 437.1,355.8 C439.1,355.8 441,354.6 441,352.7 L441,349.8 L436.7,350.4 Z M446.8,341.6 L449.8,341.6 L453.7,354.8 L457.4,341.6 L460.3,341.6 L454.5,360 C453.8,362.2 452.2,362.8 450.3,362.8 C449.4,362.8 448.5,362.7 447.5,362.5 L447.9,360.2 C447.9,360.2 449,360.4 450,360.4 C451.2,360.4 451.8,359.9 452,358.8 L452.2,358.1 L446.8,341.6 L446.8,341.6 Z M472.8,335.1 C473.9,335.1 474.7,336 474.7,337.1 C474.7,338.2 473.8,339.1 472.8,339.1 C471.7,339.1 470.8,338.2 470.8,337.1 C470.9,336 471.7,335.1 472.8,335.1 Z M474.1,357.5 L471.5,357.5 L471.5,341.5 L474.1,341.5 L474.1,357.5 Z M477.9,355.5 L479.5,353.6 C480.5,354.5 482.2,355.6 484.3,355.6 C486.1,355.6 487.5,354.8 487.5,353.2 C487.5,351.5 485.8,351.1 483.6,350.5 C481.3,349.9 478.6,349.1 478.6,345.8 C478.6,343.1 481.1,341.2 484.4,341.2 C486.5,341.2 488.8,342.1 489.9,343.2 L488.4,345 C487.5,344.1 486.1,343.5 484.5,343.5 C482.4,343.5 481.3,344.4 481.3,345.9 C481.3,347.1 482.2,347.6 483.6,348 C484.4,348.2 485.4,348.5 486.2,348.8 C488.3,349.5 490.1,350.6 490.1,353.2 C490.1,356.5 487.2,358 484.1,358 C482,357.8 479.6,357.1 477.9,355.5 L477.9,355.5 Z M85.6,379.6 L87.8,377.9 L89.1,379.8 C84.6,382.9 81.9,387.3 81.9,392.9 L81.9,393.1 C81.9,398.7 84.5,403.1 89.1,406.2 L87.8,408.1 L85.6,406.4 C81.3,403 79,398.5 79,393 C79,387.5 81.3,383 85.6,379.6 Z M97.3,379.6 L99.5,377.9 L100.8,379.8 C96.3,382.9 93.6,387.3 93.6,392.9 L93.6,393.1 C93.6,398.7 96.2,403.1 100.8,406.2 L99.5,408.1 L97.3,406.4 C93,403 90.7,398.5 90.7,393 C90.7,387.5 93,383 97.3,379.6 L97.3,379.6 Z M113.8,399.7 C112.9,401 111.2,401.8 109.1,401.8 C105,401.8 102.3,398.3 102.3,393.5 C102.3,388.7 105,385.2 109.1,385.2 C111.1,385.2 112.8,386 113.8,387.3 L113.8,379 L116.4,379 L116.4,401.4 L113.8,401.4 L113.8,399.7 L113.8,399.7 Z M105,393.6 C105,396.9 106.6,399.5 109.5,399.5 C112.3,399.5 113.7,397.5 113.7,394.8 L113.7,392.2 C113.7,389.5 112.3,387.5 109.5,387.5 C106.6,387.5 105,390.1 105,393.4 L105,393.6 L105,393.6 Z M125.9,401.8 C122.7,401.8 120.3,399.9 120.3,397 C120.3,394.5 122,392.8 124.6,392.5 L130.2,391.7 L130.2,390.7 C130.2,388.3 128.6,387.5 126.6,387.5 C124.8,387.5 123.2,388.1 122,388.7 L121,386.6 C122.8,385.6 124.9,385.1 126.9,385.1 C130.8,385.1 132.8,386.8 132.8,390.2 L132.8,397.7 C132.8,398.8 133.2,399.5 134.1,399.9 L132.6,401.8 C131.6,401.5 130.8,400.8 130.5,399.9 C129.6,401 128,401.8 125.9,401.8 L125.9,401.8 Z M125.9,394.4 C124.1,394.7 123,395.2 123,396.9 C123,398.8 124.5,399.8 126.3,399.8 C128.3,399.8 130.2,398.6 130.2,396.7 L130.2,393.8 L125.9,394.4 L125.9,394.4 Z M136,385.6 L139,385.6 L142.9,398.8 L146.6,385.6 L149.5,385.6 L143.7,404 C143,406.2 141.4,406.8 139.5,406.8 C138.6,406.8 137.7,406.7 136.7,406.5 L137.1,404.2 C137.1,404.2 138.2,404.4 139.2,404.4 C140.4,404.4 141,403.9 141.2,402.8 L141.4,402.1 L136,385.6 L136,385.6 Z M174.5,393.6 C174.5,398.4 171.6,401.9 167.1,401.9 C162.6,401.9 159.7,398.4 159.7,393.6 C159.7,388.7 162.6,385.3 167.1,385.3 C171.6,385.3 174.5,388.7 174.5,393.6 Z M171.8,393.6 L171.8,393.4 C171.8,390.2 170.2,387.5 167.2,387.5 C164.2,387.5 162.6,390.2 162.6,393.4 L162.6,393.6 C162.6,396.7 164.2,399.5 167.2,399.5 C170.2,399.5 171.8,396.8 171.8,393.6 Z M182.2,385.6 L185.4,385.6 L185.4,387.9 L182.2,387.9 L182.2,401.6 L179.6,401.6 L179.6,387.9 L176.9,387.9 L176.9,385.6 L179.6,385.6 L179.6,382.6 C179.6,379.8 181.5,378.9 184,378.9 C185.3,378.9 186.1,379.1 186.6,379.1 L186.4,381.3 C185.8,381.2 184.6,381.2 184.1,381.2 C182.6,381.2 182.2,382.1 182.2,383.1 L182.2,385.6 L182.2,385.6 Z M210.6,398.4 L213.5,385.5 L216.3,385.5 L212.4,401.5 L209,401.5 L205.8,388.7 L202.5,401.5 L199.3,401.5 L195.4,385.5 L198.2,385.5 L201,398.4 L204.4,385.5 L207.4,385.5 L210.6,398.4 Z M221.6,394.4 C221.8,397.4 223.7,399.6 226.6,399.6 C228.4,399.6 229.7,398.9 230.8,398 L232.1,399.9 C230.7,401.1 228.8,401.9 226.4,401.9 C221.8,401.9 218.8,398.4 218.8,393.6 C218.8,388.7 221.6,385.3 226.1,385.3 C230.3,385.3 232.9,388.8 232.9,393.6 L232.9,394.4 L221.6,394.4 L221.6,394.4 Z M221.6,392.2 L230,392.2 C229.9,389.7 228.5,387.5 226,387.5 C223.4,387.5 221.7,389.8 221.6,392.2 Z M238.7,394.4 C238.9,397.4 240.8,399.6 243.7,399.6 C245.5,399.6 246.8,398.9 247.9,398 L249.2,399.9 C247.8,401.1 245.9,401.9 243.5,401.9 C238.9,401.9 235.9,398.4 235.9,393.6 C235.9,388.7 238.7,385.3 243.2,385.3 C247.4,385.3 250,388.8 250,393.6 L250,394.4 L238.7,394.4 L238.7,394.4 Z M238.7,392.2 L247.1,392.2 C247,389.7 245.6,387.5 243.1,387.5 C240.5,387.5 238.8,389.8 238.7,392.2 Z M256.6,393.4 L264.1,385.6 L267.4,385.6 L261.3,391.9 L267.7,401.5 L264.5,401.5 L259.5,393.6 L256.6,396.5 L256.6,401.4 L254,401.4 L254,379 L256.6,379 L256.6,393.4 L256.6,393.4 Z M272.9,406.4 L270.7,408.1 L269.4,406.2 C273.9,403.1 276.6,398.7 276.6,393.1 L276.6,392.9 C276.6,387.3 274,382.9 269.4,379.8 L270.7,377.9 L272.9,379.6 C277.2,383 279.5,387.5 279.5,393 C279.5,398.5 277.2,403 272.9,406.4 L272.9,406.4 Z M284.6,406.4 L282.4,408.1 L281.1,406.2 C285.6,403.1 288.3,398.7 288.3,393.1 L288.3,392.9 C288.3,387.3 285.7,382.9 281.1,379.8 L282.4,377.9 L284.6,379.6 C288.9,383 291.2,387.5 291.2,393 C291.2,398.5 288.9,403 284.6,406.4 L284.6,406.4 Z M308.1,401.8 C304.9,401.8 302.5,399.9 302.5,397 C302.5,394.5 304.2,392.8 306.8,392.5 L312.4,391.7 L312.4,390.7 C312.4,388.3 310.8,387.5 308.8,387.5 C307,387.5 305.4,388.1 304.2,388.7 L303.2,386.6 C305,385.6 307.1,385.1 309.1,385.1 C313,385.1 315,386.8 315,390.2 L315,397.7 C315,398.8 315.4,399.5 316.3,399.9 L314.8,401.8 C313.8,401.5 313,400.8 312.7,399.9 C311.8,401 310.3,401.8 308.1,401.8 L308.1,401.8 Z M308.2,394.4 C306.4,394.7 305.3,395.2 305.3,396.9 C305.3,398.8 306.8,399.8 308.6,399.8 C310.6,399.8 312.5,398.6 312.5,396.7 L312.5,393.8 L308.2,394.4 Z M320.2,385.6 L322.8,385.6 L322.8,387.4 C323.9,385.9 325.5,385.3 327.5,385.3 C331.1,385.3 332.8,387.8 332.8,390.7 L332.8,401.5 L330.2,401.5 L330.2,391.5 C330.2,388.7 328.8,387.6 326.9,387.6 C324.9,387.6 322.8,389 322.8,392 L322.8,401.5 L320.2,401.5 L320.2,385.6 L320.2,385.6 Z M348.3,399.7 C347.4,401 345.7,401.8 343.6,401.8 C339.5,401.8 336.8,398.3 336.8,393.5 C336.8,388.7 339.5,385.2 343.6,385.2 C345.6,385.2 347.3,386 348.3,387.3 L348.3,379 L350.9,379 L350.9,401.4 L348.3,401.4 L348.3,399.7 L348.3,399.7 Z M339.6,393.6 C339.6,396.9 341.2,399.5 344.1,399.5 C346.9,399.5 348.3,397.5 348.3,394.8 L348.3,392.2 C348.3,389.5 346.9,387.5 344.1,387.5 C341.2,387.5 339.6,390.1 339.6,393.4 L339.6,393.6 L339.6,393.6 Z M376.4,401.5 L373.8,401.5 L373.8,391.5 C373.8,388.7 372.4,387.7 370.6,387.7 C368.8,387.7 367.1,389 367.1,392.1 L367.1,401.5 L364.5,401.5 L364.5,385.5 L367.1,385.5 L367.1,387.3 C368.2,385.8 369.6,385.2 371.3,385.2 C372.7,385.2 374.8,385.9 375.6,387.9 C376.8,385.9 378.7,385.2 380.5,385.2 C384,385.2 385.9,387.7 385.9,390.5 L385.9,401.4 L383.3,401.4 L383.3,391.4 C383.3,388.6 381.8,387.6 380,387.6 C378.2,387.6 376.5,388.9 376.5,392 L376.5,401.5 L376.4,401.5 Z M388.9,385.6 L391.9,385.6 L395.8,398.8 L399.5,385.6 L402.4,385.6 L396.6,404 C395.9,406.2 394.3,406.8 392.4,406.8 C391.5,406.8 390.6,406.7 389.6,406.5 L390,404.2 C390,404.2 391.1,404.4 392.1,404.4 C393.3,404.4 393.9,403.9 394.1,402.8 L394.3,402.1 L388.9,385.6 L388.9,385.6 Z M417,385.6 L420.2,385.6 L420.2,387.9 L417,387.9 L417,401.6 L414.4,401.6 L414.4,387.9 L411.7,387.9 L411.7,385.6 L414.4,385.6 L414.4,382.6 C414.4,379.8 416.3,378.9 418.8,378.9 C420.1,378.9 420.9,379.1 421.4,379.1 L421.2,381.3 C420.6,381.2 419.4,381.2 418.9,381.2 C417.4,381.2 417,382.1 417,383.1 L417,385.6 L417,385.6 Z M428.1,401.8 C424.9,401.8 422.5,399.9 422.5,397 C422.5,394.5 424.2,392.8 426.8,392.5 L432.4,391.7 L432.4,390.7 C432.4,388.3 430.8,387.5 428.8,387.5 C427,387.5 425.4,388.1 424.2,388.7 L423.2,386.6 C425,385.6 427.1,385.1 429.1,385.1 C433,385.1 435,386.8 435,390.2 L435,397.7 C435,398.8 435.4,399.5 436.3,399.9 L434.8,401.8 C433.8,401.5 433,400.8 432.7,399.9 C431.8,401 430.3,401.8 428.1,401.8 L428.1,401.8 Z M428.2,394.4 C426.4,394.7 425.3,395.2 425.3,396.9 C425.3,398.8 426.8,399.8 428.6,399.8 C430.6,399.8 432.5,398.6 432.5,396.7 L432.5,393.8 L428.2,394.4 Z M443.4,401.5 L438.3,385.5 L441.3,385.5 L445.1,399 L448.9,385.5 L451.9,385.5 L446.8,401.5 L443.4,401.5 Z M468.9,393.6 C468.9,398.4 466,401.9 461.5,401.9 C457.1,401.9 454.1,398.4 454.1,393.6 C454.1,388.7 457,385.3 461.5,385.3 C466,385.2 468.9,388.7 468.9,393.6 Z M466.2,393.6 L466.2,393.4 C466.2,390.2 464.6,387.5 461.6,387.5 C458.6,387.5 457,390.2 457,393.4 L457,393.6 C457,396.7 458.6,399.5 461.6,399.5 C464.6,399.5 466.2,396.8 466.2,393.6 Z M485.6,401.5 L483,401.5 L483,399.7 C481.9,401.2 480.3,401.8 478.3,401.8 C474.7,401.8 473,399.3 473,396.4 L473,385.6 L475.6,385.6 L475.6,395.6 C475.6,398.4 477,399.5 478.9,399.5 C481.1,399.5 483,398.1 483,395.1 L483,385.6 L485.6,385.6 L485.6,401.5 L485.6,401.5 Z M498.8,387.9 L498.4,387.9 C495.7,387.9 493.3,389 493.3,393.3 L493.3,401.5 L490.7,401.5 L490.7,385.5 L493.3,385.5 L493.3,388 C494.1,386.1 496.1,385.2 498.1,385.2 L498.9,385.2 L498.9,387.9 L498.8,387.9 Z M503.6,379.1 C504.7,379.1 505.5,380 505.5,381.1 C505.5,382.2 504.6,383.1 503.6,383.1 C502.5,383.1 501.6,382.2 501.6,381.1 C501.6,380 502.5,379.1 503.6,379.1 Z M504.9,401.5 L502.3,401.5 L502.3,385.5 L504.9,385.5 L504.9,401.5 Z M514.1,397.6 C514.1,398.7 514.3,399.6 516.1,399.6 C516.6,399.6 517.6,399.5 518.1,399.4 L518.4,401.7 C518.4,401.7 516.9,401.9 515.6,401.9 C513.1,401.9 511.5,400.9 511.5,398.2 L511.5,387.9 L508.5,387.9 L508.5,385.6 L511.5,385.6 L511.5,380.4 L514.1,379.5 L514.1,385.6 L518.5,385.6 L518.5,387.9 L514.1,387.9 L514.1,397.6 L514.1,397.6 Z M523.9,394.4 C524.1,397.4 526,399.6 528.9,399.6 C530.7,399.6 532,398.9 533.1,398 L534.4,399.9 C533,401.1 531.1,401.9 528.7,401.9 C524.1,401.9 521.1,398.4 521.1,393.6 C521.1,388.7 523.9,385.3 528.4,385.3 C532.6,385.3 535.2,388.8 535.2,393.6 L535.2,394.4 L523.9,394.4 L523.9,394.4 Z M523.9,392.2 L532.3,392.2 C532.2,389.7 530.8,387.5 528.3,387.5 C525.7,387.5 524.1,389.8 523.9,392.2 Z M81.7,437.6 C81.7,440.8 83.3,443.5 86.3,443.5 C88.3,443.5 89.6,442.3 90.4,440.8 L92.6,442 C91.5,444.3 89.2,445.7 86.3,445.7 C81.9,445.7 78.9,442.2 78.9,437.4 C78.9,432.5 81.8,429.1 86.3,429.1 C89.2,429.1 91.5,430.6 92.6,432.8 L90.4,434 C89.6,432.5 88.3,431.3 86.3,431.3 C83.2,431.3 81.7,434 81.7,437.2 L81.7,437.6 L81.7,437.6 Z M110.2,437.6 C110.2,442.4 107.3,445.9 102.8,445.9 C98.3,445.9 95.4,442.4 95.4,437.6 C95.4,432.7 98.3,429.3 102.8,429.3 C107.3,429.3 110.2,432.7 110.2,437.6 Z M107.5,437.6 L107.5,437.4 C107.5,434.2 105.9,431.5 102.9,431.5 C99.9,431.5 98.3,434.2 98.3,437.4 L98.3,437.6 C98.3,440.7 99.9,443.5 102.9,443.5 C105.9,443.5 107.5,440.8 107.5,437.6 Z M114.3,423.1 L116.9,423.1 L116.9,441.9 C116.9,443 117.2,443.5 118.4,443.5 C119.1,443.5 119.6,443.4 120,443.4 L120.3,445.6 C120.3,445.6 118.8,445.8 117.6,445.8 C115.7,445.8 114.2,445 114.2,442.7 L114.2,423.1 L114.3,423.1 Z M136.9,437.6 C136.9,442.4 134,445.9 129.5,445.9 C125,445.9 122.1,442.4 122.1,437.6 C122.1,432.7 125,429.3 129.5,429.3 C134,429.3 136.9,432.7 136.9,437.6 Z M134.2,437.6 L134.2,437.4 C134.2,434.2 132.6,431.5 129.6,431.5 C126.6,431.5 125,434.2 125,437.4 L125,437.6 C125,440.7 126.6,443.5 129.6,443.5 C132.6,443.5 134.2,440.8 134.2,437.6 Z M153.6,445.5 L151,445.5 L151,443.7 C149.9,445.2 148.3,445.8 146.3,445.8 C142.7,445.8 141,443.3 141,440.4 L141,429.6 L143.6,429.6 L143.6,439.6 C143.6,442.4 145,443.5 146.9,443.5 C149.1,443.5 151,442.1 151,439.1 L151,429.6 L153.6,429.6 L153.6,445.5 L153.6,445.5 Z M166.9,431.9 L166.5,431.9 C163.8,431.9 161.4,433 161.4,437.3 L161.4,445.5 L158.8,445.5 L158.8,429.5 L161.4,429.5 L161.4,432 C162.2,430.1 164.2,429.2 166.2,429.2 L167,429.2 L167,431.9 L166.9,431.9 Z M179.3,423.1 C180.4,423.1 181.2,424 181.2,425.1 C181.2,426.2 180.3,427.1 179.3,427.1 C178.2,427.1 177.3,426.2 177.3,425.1 C177.3,424 178.2,423.1 179.3,423.1 Z M180.5,445.5 L177.9,445.5 L177.9,429.5 L180.5,429.5 L180.5,445.5 Z M184.3,443.5 L185.9,441.6 C186.9,442.5 188.6,443.6 190.7,443.6 C192.5,443.6 193.9,442.8 193.9,441.2 C193.9,439.5 192.2,439.1 190,438.5 C187.7,437.9 185,437.1 185,433.8 C185,431.1 187.5,429.2 190.8,429.2 C192.9,429.2 195.2,430.1 196.3,431.2 L194.8,433 C193.9,432.1 192.5,431.5 190.9,431.5 C188.8,431.5 187.7,432.4 187.7,433.9 C187.7,435.1 188.6,435.6 190,436 C190.8,436.2 191.8,436.5 192.6,436.8 C194.7,437.5 196.5,438.6 196.5,441.2 C196.5,444.5 193.6,446 190.5,446 C188.4,445.8 186.1,445.1 184.3,443.5 L184.3,443.5 Z M214.7,423.6 L216.9,421.9 L218.2,423.8 C213.7,426.9 211,431.3 211,436.9 L211,437.1 C211,442.7 213.6,447.1 218.2,450.2 L216.9,452.1 L214.7,450.4 C210.4,447 208.1,442.5 208.1,437 C208.1,431.5 210.5,427 214.7,423.6 L214.7,423.6 Z M226.4,423.6 L228.6,421.9 L229.9,423.8 C225.4,426.9 222.7,431.3 222.7,436.9 L222.7,437.1 C222.7,442.7 225.3,447.1 229.9,450.2 L228.6,452.1 L226.4,450.4 C222.1,447 219.8,442.5 219.8,437 C219.8,431.5 222.2,427 226.4,423.6 L226.4,423.6 Z M234.1,437.6 C234.1,440.8 235.7,443.5 238.7,443.5 C240.7,443.5 242,442.3 242.8,440.8 L245,442 C243.9,444.3 241.6,445.7 238.7,445.7 C234.3,445.7 231.3,442.2 231.3,437.4 C231.3,432.5 234.2,429.1 238.7,429.1 C241.6,429.1 243.9,430.6 245,432.8 L242.8,434 C242,432.5 240.7,431.3 238.7,431.3 C235.6,431.3 234.1,434 234.1,437.2 L234.1,437.6 L234.1,437.6 Z M262.6,437.6 C262.6,442.4 259.7,445.9 255.2,445.9 C250.8,445.9 247.8,442.4 247.8,437.6 C247.8,432.7 250.7,429.3 255.2,429.3 C259.7,429.2 262.6,432.7 262.6,437.6 Z M259.9,437.6 L259.9,437.4 C259.9,434.2 258.3,431.5 255.3,431.5 C252.3,431.5 250.7,434.2 250.7,437.4 L250.7,437.6 C250.7,440.7 252.3,443.5 255.3,443.5 C258.3,443.5 259.9,440.8 259.9,437.6 Z M266.7,423.1 L269.3,423.1 L269.3,441.9 C269.3,443 269.6,443.5 270.8,443.5 C271.5,443.5 272,443.4 272.4,443.4 L272.7,445.6 C272.7,445.6 271.2,445.8 270,445.8 C268.1,445.8 266.6,445 266.6,442.7 L266.6,423.1 L266.7,423.1 Z M289.3,437.6 C289.3,442.4 286.4,445.9 281.9,445.9 C277.5,445.9 274.5,442.4 274.5,437.6 C274.5,432.7 277.4,429.3 281.9,429.3 C286.3,429.2 289.3,432.7 289.3,437.6 Z M286.6,437.6 L286.6,437.4 C286.6,434.2 285,431.5 282,431.5 C279,431.5 277.4,434.2 277.4,437.4 L277.4,437.6 C277.4,440.7 279,443.5 282,443.5 C285,443.5 286.6,440.8 286.6,437.6 Z M302.2,431.9 L301.8,431.9 C299.1,431.9 296.7,433 296.7,437.3 L296.7,445.5 L294.1,445.5 L294.1,429.5 L296.7,429.5 L296.7,432 C297.5,430.1 299.5,429.2 301.5,429.2 L302.3,429.2 L302.3,431.9 L302.2,431.9 Z M306.4,450.4 L304.2,452.1 L302.9,450.2 C307.4,447.1 310.1,442.7 310.1,437.1 L310.1,436.9 C310.1,431.3 307.5,426.9 302.9,423.8 L304.2,421.9 L306.4,423.6 C310.7,427 313,431.5 313,437 C313,442.5 310.7,447 306.4,450.4 L306.4,450.4 Z M318.1,450.4 L315.9,452.1 L314.6,450.2 C319.1,447.1 321.8,442.7 321.8,437.1 L321.8,436.9 C321.8,431.3 319.2,426.9 314.6,423.8 L315.9,421.9 L318.1,423.6 C322.4,427 324.7,431.5 324.7,437 C324.7,442.5 322.4,447 318.1,450.4 L318.1,450.4 Z M330.7,441.6 C331.9,441.6 332.8,442.6 332.8,443.7 C332.8,444.9 331.8,445.8 330.7,445.8 C329.6,445.8 328.6,444.8 328.6,443.7 C328.5,442.5 329.5,441.6 330.7,441.6 Z" id="Shape" fill="#0B0B0B" fill-rule="nonzero"></path>
            <path d="M585,268.9 L585,480.6 L55.1,480.6 L55.1,268.9 L585,268.9 M587,266.9 L53.1,266.9 L53.1,482.6 L587,482.6 L587,266.9 Z" id="Shape" fill="#8C8C8C" fill-rule="nonzero"></path>
            <polygon id="Path" fill="#DADADA" fill-rule="nonzero" points="0 636 960 636 960 640 0 640"></polygon>
            <polygon id="Path" fill="#DADADA" fill-rule="nonzero" points="4 640 4 40 956 40 956 640 960 640 960 36 0 36 0 640"></polygon>
        </g>
    </g>
</svg>