<svg width="960" height="604" viewBox="0 0 960 604" fill="none" xmlns="http://www.w3.org/2000/svg">
<g clip-path="url(#clip0_121_148)">
<path d="M0 4V-26C0 -31.5 4.5 -36 10 -36H950C955.5 -36 960 -31.5 960 -26V4" fill="#DADADA"/>
<path d="M1 4H959V69H1V4Z" fill="#0B0B0B"/>
<path d="M187.3 33V53.7H184.4V29.9H188.6L201 49.5V29.9H203.9V53.7H200.3L187.3 33ZM224.2 45.2C224.2 50.3 221.1 54 216.4 54C211.7 54 208.6 50.3 208.6 45.2C208.6 40 211.7 36.4 216.4 36.4C221.1 36.4 224.2 40 224.2 45.2ZM221.3 45.3V45.1C221.3 41.7 219.6 38.8 216.4 38.8C213.2 38.8 211.5 41.7 211.5 45.1V45.3C211.5 48.6 213.2 51.6 216.4 51.6C219.6 51.6 221.3 48.6 221.3 45.3ZM232.8 49.4C232.8 50.5 233 51.5 235 51.5C235.5 51.5 236.6 51.4 237.1 51.3L237.4 53.7C237.4 53.7 235.8 53.9 234.4 53.9C231.7 53.9 230 52.8 230 50V39.1H226.8V36.7H230V31.2L232.8 30.2V36.7H237.5V39.1H232.8V49.4ZM242.7 29.9C243.8 29.9 244.7 30.9 244.7 32C244.7 33.2 243.8 34.1 242.7 34.1C241.5 34.1 240.6 33.2 240.6 32C240.6 30.8 241.5 29.9 242.7 29.9ZM244 53.7H241.2V36.7H244V53.7ZM253.5 36.7H256.9V39.1H253.5V53.6H250.7V39.1H247.9V36.7H250.7V33.5C250.7 30.6 252.7 29.5 255.4 29.5C256.8 29.5 257.7 29.7 258.1 29.7L257.9 32.1C257.3 32 256 32 255.5 32C253.9 32 253.5 33 253.5 34V36.7ZM258.8 36.7H262L266.2 50.7L270.2 36.7H273.3L267.1 56.2C266.4 58.6 264.7 59.2 262.6 59.2C261.7 59.2 260.7 59.1 259.6 58.9L260 56.5C260 56.5 261.2 56.7 262.2 56.7C263.4 56.7 264.1 56.2 264.3 55L264.5 54.2L258.8 36.7Z" fill="white"/>
<path d="M119.015 20.9355H125.085V37.2188C125.085 39.8027 125.16 41.4775 125.311 42.2432C125.57 43.4736 126.186 44.4648 127.156 45.2168C128.141 45.9551 129.48 46.3242 131.176 46.3242C132.898 46.3242 134.197 45.9756 135.072 45.2783C135.947 44.5674 136.474 43.6992 136.651 42.6738C136.829 41.6484 136.918 39.9463 136.918 37.5674V20.9355H142.988V36.7266C142.988 40.3359 142.824 42.8857 142.496 44.376C142.168 45.8662 141.56 47.124 140.671 48.1494C139.796 49.1748 138.62 49.9951 137.144 50.6104C135.667 51.2119 133.739 51.5127 131.36 51.5127C128.489 51.5127 126.309 51.1846 124.818 50.5283C123.342 49.8584 122.173 48.9971 121.312 47.9443C120.45 46.8779 119.883 45.7637 119.609 44.6016C119.213 42.8789 119.015 40.3359 119.015 36.9727V20.9355ZM147.869 41.2178L153.775 40.6436C154.131 42.626 154.849 44.082 155.929 45.0117C157.022 45.9414 158.492 46.4062 160.338 46.4062C162.293 46.4062 163.763 45.9961 164.747 45.1758C165.745 44.3418 166.244 43.3711 166.244 42.2637C166.244 41.5527 166.032 40.9512 165.608 40.459C165.198 39.9531 164.474 39.5156 163.435 39.1465C162.724 38.9004 161.104 38.4629 158.574 37.834C155.32 37.0273 153.037 36.0361 151.725 34.8604C149.879 33.2061 148.956 31.1895 148.956 28.8105C148.956 27.2793 149.387 25.8506 150.248 24.5244C151.123 23.1846 152.374 22.166 154.001 21.4688C155.642 20.7715 157.617 20.4229 159.928 20.4229C163.701 20.4229 166.538 21.25 168.438 22.9043C170.353 24.5586 171.357 26.7666 171.453 29.5283L165.383 29.7949C165.123 28.25 164.562 27.1426 163.701 26.4727C162.854 25.7891 161.575 25.4473 159.866 25.4473C158.103 25.4473 156.722 25.8096 155.724 26.5342C155.081 26.999 154.76 27.6211 154.76 28.4004C154.76 29.1113 155.061 29.7197 155.662 30.2256C156.428 30.8682 158.287 31.5381 161.24 32.2354C164.193 32.9326 166.374 33.6572 167.782 34.4092C169.204 35.1475 170.312 36.166 171.104 37.4648C171.911 38.75 172.314 40.3428 172.314 42.2432C172.314 43.9658 171.836 45.5791 170.879 47.083C169.922 48.5869 168.568 49.708 166.818 50.4463C165.068 51.1709 162.888 51.5332 160.276 51.5332C156.476 51.5332 153.557 50.6582 151.52 48.9082C149.482 47.1445 148.266 44.5811 147.869 41.2178Z" fill="white"/>
<path d="M102 30H57V54H102V30Z" fill="#B22234"/>
<path d="M57 33.0689H102H57ZM102 36.6413H57H102ZM57 40.2138H102H57ZM102 43.7862H57H102ZM57 47.3586H102H57ZM102 50.931H57H102Z" fill="black"/>
<path d="M57 33.0689H102M102 36.6413H57M57 40.2138H102M102 43.7862H57M57 47.3586H102M102 50.931H57" stroke="white" stroke-width="1.29555"/>
<path d="M74 30H56V43H74V30Z" fill="#3C3B6E"/>
<path d="M57.719 31L58.1634 32.3732L57 31.5245H58.4381L57.2746 32.3732L57.719 31Z" fill="white"/>
<path d="M57.719 33.6567L58.1634 35.0299L57 34.1812H58.4381L57.2746 35.0299L57.719 33.6567Z" fill="white"/>
<path d="M57.719 36.3134L58.1634 37.6866L57 36.8379H58.4381L57.2746 37.6866L57.719 36.3134Z" fill="white"/>
<path d="M57.719 38.9702L58.1634 40.3433L57 39.4947H58.4381L57.2746 40.3433L57.719 38.9702Z" fill="white"/>
<path d="M57.719 41.6268L58.1634 43L57 42.1513H58.4381L57.2746 43L57.719 41.6268Z" fill="white"/>
<path d="M59.2752 32.3284L59.7196 33.7015L58.5562 32.8529H59.9943L58.8308 33.7015L59.2752 32.3284Z" fill="white"/>
<path d="M59.2752 34.9851L59.7196 36.3583L58.5562 35.5096H59.9943L58.8308 36.3583L59.2752 34.9851Z" fill="white"/>
<path d="M59.2752 37.6418L59.7196 39.0149L58.5562 38.1663H59.9943L58.8308 39.0149L59.2752 37.6418Z" fill="white"/>
<path d="M59.2752 40.2985L59.7196 41.6717L58.5562 40.823H59.9943L58.8308 41.6717L59.2752 40.2985Z" fill="white"/>
<path d="M60.8314 31L61.2758 32.3732L60.1124 31.5245H61.5505L60.387 32.3732L60.8314 31Z" fill="white"/>
<path d="M60.8314 33.6567L61.2758 35.0299L60.1124 34.1812H61.5505L60.387 35.0299L60.8314 33.6567Z" fill="white"/>
<path d="M60.8314 36.3134L61.2758 37.6866L60.1124 36.8379H61.5505L60.387 37.6866L60.8314 36.3134Z" fill="white"/>
<path d="M60.8314 38.9702L61.2758 40.3433L60.1124 39.4947H61.5505L60.387 40.3433L60.8314 38.9702Z" fill="white"/>
<path d="M60.8314 41.6268L61.2758 43L60.1124 42.1513H61.5505L60.387 43L60.8314 41.6268Z" fill="white"/>
<path d="M62.3876 32.3284L62.832 33.7015L61.6686 32.8529H63.1067L61.9432 33.7015L62.3876 32.3284Z" fill="white"/>
<path d="M62.3876 34.9851L62.832 36.3583L61.6686 35.5096H63.1067L61.9432 36.3583L62.3876 34.9851Z" fill="white"/>
<path d="M62.3876 37.6418L62.832 39.0149L61.6686 38.1663H63.1067L61.9432 39.0149L62.3876 37.6418Z" fill="white"/>
<path d="M62.3876 40.2985L62.832 41.6717L61.6686 40.823H63.1067L61.9432 41.6717L62.3876 40.2985Z" fill="white"/>
<path d="M63.9438 31L64.3882 32.3732L63.2248 31.5245H64.6628L63.4994 32.3732L63.9438 31Z" fill="white"/>
<path d="M63.9438 33.6567L64.3882 35.0299L63.2248 34.1812H64.6628L63.4994 35.0299L63.9438 33.6567Z" fill="white"/>
<path d="M63.9438 36.3134L64.3882 37.6866L63.2248 36.8379H64.6628L63.4994 37.6866L63.9438 36.3134Z" fill="white"/>
<path d="M63.9438 38.9702L64.3882 40.3433L63.2248 39.4947H64.6628L63.4994 40.3433L63.9438 38.9702Z" fill="white"/>
<path d="M63.9438 41.6268L64.3882 43L63.2248 42.1513H64.6628L63.4994 43L63.9438 41.6268Z" fill="white"/>
<path d="M65.5 32.3284L65.9444 33.7015L64.7809 32.8529H66.219L65.0556 33.7015L65.5 32.3284Z" fill="white"/>
<path d="M65.5 34.9851L65.9444 36.3583L64.7809 35.5096H66.219L65.0556 36.3583L65.5 34.9851Z" fill="white"/>
<path d="M65.5 37.6418L65.9444 39.0149L64.7809 38.1663H66.219L65.0556 39.0149L65.5 37.6418Z" fill="white"/>
<path d="M65.5 40.2985L65.9444 41.6717L64.7809 40.823H66.219L65.0556 41.6717L65.5 40.2985Z" fill="white"/>
<path d="M67.0562 31L67.5006 32.3732L66.3372 31.5245H67.7752L66.6118 32.3732L67.0562 31Z" fill="white"/>
<path d="M67.0562 33.6567L67.5006 35.0299L66.3372 34.1812H67.7752L66.6118 35.0299L67.0562 33.6567Z" fill="white"/>
<path d="M67.0562 36.3134L67.5006 37.6866L66.3372 36.8379H67.7752L66.6118 37.6866L67.0562 36.3134Z" fill="white"/>
<path d="M67.0562 38.9702L67.5006 40.3433L66.3372 39.4947H67.7752L66.6118 40.3433L67.0562 38.9702Z" fill="white"/>
<path d="M67.0562 41.6268L67.5006 43L66.3372 42.1513H67.7752L66.6118 43L67.0562 41.6268Z" fill="white"/>
<path d="M68.6124 32.3284L69.0568 33.7015L67.8933 32.8529H69.3314L68.168 33.7015L68.6124 32.3284Z" fill="white"/>
<path d="M68.6124 34.9851L69.0568 36.3583L67.8933 35.5096H69.3314L68.168 36.3583L68.6124 34.9851Z" fill="white"/>
<path d="M68.6124 37.6418L69.0568 39.0149L67.8933 38.1663H69.3314L68.168 39.0149L68.6124 37.6418Z" fill="white"/>
<path d="M68.6124 40.2985L69.0568 41.6717L67.8933 40.823H69.3314L68.168 41.6717L68.6124 40.2985Z" fill="white"/>
<path d="M70.1686 31L70.613 32.3732L69.4495 31.5245H70.8876L69.7242 32.3732L70.1686 31Z" fill="white"/>
<path d="M70.1686 33.6567L70.613 35.0299L69.4495 34.1812H70.8876L69.7242 35.0299L70.1686 33.6567Z" fill="white"/>
<path d="M70.1686 36.3134L70.613 37.6866L69.4495 36.8379H70.8876L69.7242 37.6866L70.1686 36.3134Z" fill="white"/>
<path d="M70.1686 38.9702L70.613 40.3433L69.4495 39.4947H70.8876L69.7242 40.3433L70.1686 38.9702Z" fill="white"/>
<path d="M70.1686 41.6268L70.613 43L69.4495 42.1513H70.8876L69.7242 43L70.1686 41.6268Z" fill="white"/>
<path d="M71.7247 32.3284L72.1691 33.7015L71.0057 32.8529H72.4438L71.2804 33.7015L71.7247 32.3284Z" fill="white"/>
<path d="M71.7247 34.9851L72.1691 36.3583L71.0057 35.5096H72.4438L71.2804 36.3583L71.7247 34.9851Z" fill="white"/>
<path d="M71.7247 37.6418L72.1691 39.0149L71.0057 38.1663H72.4438L71.2804 39.0149L71.7247 37.6418Z" fill="white"/>
<path d="M71.7247 40.2985L72.1691 41.6717L71.0057 40.823H72.4438L71.2804 41.6717L71.7247 40.2985Z" fill="white"/>
<path d="M73.281 31L73.7254 32.3732L72.5619 31.5245H74L72.8366 32.3732L73.281 31Z" fill="white"/>
<path d="M73.281 33.6567L73.7254 35.0299L72.5619 34.1812H74L72.8366 35.0299L73.281 33.6567Z" fill="white"/>
<path d="M73.281 36.3134L73.7254 37.6866L72.5619 36.8379H74L72.8366 37.6866L73.281 36.3134Z" fill="white"/>
<path d="M73.281 38.9702L73.7254 40.3433L72.5619 39.4947H74L72.8366 40.3433L73.281 38.9702Z" fill="white"/>
<path d="M73.281 41.6268L73.7254 43L72.5619 42.1513H74L72.8366 43L73.281 41.6268Z" fill="white"/>
<path d="M53.1 188H463.1V398.7H53.1V188ZM496.9 188H906.9V398.7H496.9V188Z" fill="#005EA5"/>
<path d="M53.1 412.6H463.1V481.3H53.1V412.6ZM496.9 412.6H906.9V481.3H496.9V412.6Z" fill="#006435"/>
<path d="M129 250.6C129 265.7 122.1 280.1 105 280.1C95.7 280.1 88.9 275.4 86.2 268.7L97.1 264.6C98.9 268.3 101.6 269.9 105.6 269.9C113 269.9 116.3 263 116.8 255.1C114.1 258.5 109.3 260.3 104.5 260.3C93.7 260.3 85.8 252.8 85.8 242.3C85.8 231.1 94.1 222.6 106.5 222.6C120.1 222.6 129 232.5 129 249.2V250.6ZM106.9 232.5C101.1 232.5 97.4 236.6 97.4 241.8C97.4 246.9 101.1 251 106.9 251C112.7 251 116.5 246.9 116.5 241.8C116.5 236.5 112.7 232.5 106.9 232.5ZM178.9 238.6C178.9 242.5 176.9 247.6 171.2 250.2C177.7 252.8 180.5 258.1 180.5 263.2C180.5 274.9 169.7 280.1 158.5 280.1C147.3 280.1 136.5 274.9 136.5 263.2C136.5 258.1 139.4 252.7 145.8 250.2C140.2 247.6 138.1 242.5 138.1 238.6C138.1 227.9 148.1 222.6 158.5 222.6C168.9 222.7 178.9 227.6 178.9 238.6ZM168.5 262.9C168.5 258.4 164.4 255.2 158.4 255.2C152.5 255.2 148.3 258.4 148.3 262.9C148.3 267.5 152.4 270.6 158.4 270.6C164.3 270.5 168.5 267.5 168.5 262.9ZM167.2 239C167.2 234.8 163.5 232.2 158.4 232.2C153.3 232.2 149.6 234.8 149.6 239C149.6 243.5 153.1 245.9 158.4 245.9C163.7 245.9 167.2 243.5 167.2 239ZM232.5 251.4C232.5 265.8 225.9 280.1 210.2 280.1C194.5 280.1 187.9 265.8 187.9 251.4C187.9 237 194.5 222.7 210.2 222.7C225.9 222.7 232.5 236.9 232.5 251.4ZM220.7 252.5V250.3C220.7 239.8 217.2 232.8 210.2 232.8C203.2 232.8 199.6 239.8 199.6 250.3V252.5C199.6 262.9 203.2 269.9 210.2 269.9C217.2 269.9 220.7 262.9 220.7 252.5ZM530.5 279.3V269.3C530.5 269.4 539.3 263 549.9 254.6C555.5 250.2 558.5 246.1 558.5 240.9C558.5 236.5 555.7 233 550.4 233C543.8 233 541.4 237.7 541.4 243.3L529.8 242.6C529.8 230 538.3 222.7 550.7 222.7C561.8 222.7 570.6 229.6 570.6 240.7C570.6 246.5 568.3 251.9 562.1 257.9C558.6 261.3 553.8 264.8 547.8 268.8H571.3V279.3H530.5ZM594.9 274.6C594.9 280.7 591.6 287.4 580.8 287.4L580.4 283.7C581.8 283.5 582.9 283.2 583.8 283C586.4 282.3 586.8 281 586.8 280V279.8C582.2 279.8 579.1 277.2 579.1 272.7C579.1 268.7 582.5 265.3 586.6 265.3C591.6 265.2 594.9 269.4 594.9 274.6ZM629.1 279.3V266.7H601.3V254.7L627 223.5H640.5V256.5H648.6V266.7H640.5V279.3H629.1ZM629.1 256.5V235.6L611.8 256.5H629.1ZM656 254L659.1 223.4H694.6V233.6H668.8L667.5 244.7C670.1 241.9 674.8 240.6 678.7 240.6C689.9 240.6 697.4 248.5 697.4 259.8C697.4 272.1 687.7 280 675.4 280C665.3 280 656.5 275.2 654 265.6L664.8 262.2C666 266.3 669 269.9 675.3 269.9C682 269.9 685.6 265.4 685.6 260C685.6 254.7 682.1 250.3 675.7 250.3C672 250.3 668.8 252.1 666.8 255.1L656 254ZM749 251.4C749 265.8 742.4 280.1 726.7 280.1C711 280.1 704.4 265.8 704.4 251.4C704.4 237 711 222.7 726.7 222.7C742.4 222.7 749 236.9 749 251.4ZM737.2 252.5V250.3C737.2 239.8 733.7 232.8 726.7 232.8C719.7 232.8 716.1 239.8 716.1 250.3V252.5C716.1 262.9 719.7 269.9 726.7 269.9C733.7 269.9 737.2 262.9 737.2 252.5ZM86.5 361.3C86.7 364.3 88.6 366.5 91.5 366.5C93.3 366.5 94.6 365.8 95.7 364.9L97 366.8C95.6 368 93.7 368.8 91.3 368.8C86.7 368.8 83.7 365.3 83.7 360.5C83.7 355.6 86.5 352.2 91 352.2C95.2 352.2 97.8 355.7 97.8 360.5V361.3H86.5ZM86.6 359.2H95C94.9 356.7 93.5 354.5 91 354.5C88.4 354.5 86.7 356.8 86.6 359.2ZM113.8 368.5H111.2V358.5C111.2 355.7 109.8 354.7 108 354.7C106.2 354.7 104.5 356 104.5 359.1V368.5H101.9V352.5H104.5V354.3C105.6 352.8 107 352.2 108.7 352.2C110.1 352.2 112.2 352.9 113 354.9C114.2 352.9 116.1 352.2 117.9 352.2C121.4 352.2 123.3 354.7 123.3 357.5V368.4H120.7V358.4C120.7 355.6 119.2 354.6 117.4 354.6C115.6 354.6 113.9 355.9 113.9 359V368.5H113.8ZM132.6 368.8C129.4 368.8 127 366.9 127 364C127 361.5 128.7 359.8 131.3 359.5L136.9 358.7V357.7C136.9 355.3 135.3 354.5 133.3 354.5C131.5 354.5 129.9 355.1 128.7 355.7L127.7 353.6C129.5 352.6 131.6 352.1 133.6 352.1C137.5 352.1 139.5 353.8 139.5 357.2V364.7C139.5 365.8 139.9 366.5 140.8 366.9L139.3 368.8C138.3 368.5 137.5 367.8 137.2 366.9C136.3 368 134.7 368.8 132.6 368.8ZM132.6 361.4C130.8 361.7 129.7 362.2 129.7 363.9C129.7 365.8 131.2 366.8 133 366.8C135 366.8 136.9 365.6 136.9 363.7V360.8L132.6 361.4ZM146 346.1C147.1 346.1 147.9 347 147.9 348.1C147.9 349.2 147 350.1 146 350.1C144.9 350.1 144 349.2 144 348.1C144 347 144.9 346.1 146 346.1ZM147.2 368.5H144.6V352.5H147.2V368.5ZM152.3 346.1H154.9V364.9C154.9 366 155.2 366.5 156.4 366.5C157.1 366.5 157.6 366.4 158 366.4L158.3 368.6C158.3 368.6 156.8 368.8 155.6 368.8C153.7 368.8 152.2 368 152.2 365.7V346.1H152.3ZM159.7 366.5L161.3 364.6C162.3 365.5 164 366.6 166.1 366.6C167.9 366.6 169.3 365.8 169.3 364.2C169.3 362.5 167.6 362.1 165.4 361.5C163.1 360.9 160.4 360.1 160.4 356.8C160.4 354.1 162.9 352.2 166.2 352.2C168.3 352.2 170.6 353.1 171.7 354.2L170.2 356C169.3 355.1 167.9 354.5 166.3 354.5C164.2 354.5 163.1 355.4 163.1 356.9C163.1 358.1 164 358.6 165.4 359C166.2 359.2 167.2 359.5 168 359.8C170.1 360.5 171.9 361.6 171.9 364.2C171.9 367.5 169 369 165.9 369C163.9 368.8 161.5 368.1 159.7 366.5Z" fill="white"/>
<path d="M55.9 117.1H61V142.3H55.9V117.1ZM65.9 123.5H70.8V125.1C71.8 124.1 73.3 123.1 75.6 123.1C79.7 123.1 82.1 125.9 82.1 129.6V142.3H77.2V131.4C77.2 128.7 75.9 127.7 74.2 127.7C72.2 127.7 70.7 129.1 70.7 132V142.3H65.8V123.5H65.9ZM101.4 136.7C101.4 137.6 101.8 138.3 103.5 138.3C104.2 138.3 105.4 138.2 105.9 138.1L106.3 142.4C106.3 142.4 103.9 142.7 101.8 142.7C98.5 142.7 96.5 141.2 96.5 137.9V127.9H93.1V123.5H96.5V118.2L101.4 116.9V123.5H106.3V127.9H101.4V136.7ZM109.7 117.1H114.6V125.1C115.6 124.1 117.1 123.1 119.4 123.1C123.5 123.1 125.9 125.9 125.9 129.6V142.3H121V131.4C121 128.7 119.7 127.7 118 127.7C116 127.7 114.5 129.1 114.5 132V142.3H109.6V117.1H109.7ZM134.3 134.5C134.8 136.9 136.6 138.2 138.9 138.2C140.7 138.2 142.4 137.6 143.7 136.4L146.1 140.1C144.4 141.5 141.9 142.6 138.8 142.6C133.6 142.6 129.3 139 129.3 133V132.8C129.3 127.3 133.1 123.1 138.4 123.1C143.4 123.1 147 126.9 147 132.4V134.6H134.3V134.5ZM134.4 130.9H142C141.9 129.2 140.8 127.3 138.3 127.3C135.7 127.3 134.5 129.2 134.4 130.9ZM158.7 117.1H163.6V137.2C163.6 138 164 138.4 165 138.4C165.6 138.4 166.3 138.3 166.8 138.2L167.2 142.3C167.2 142.3 164.9 142.6 163.1 142.6C160.4 142.6 158.7 141.2 158.7 138.5V117.1ZM174.9 142.6C171.5 142.6 168.4 140.4 168.4 136.7C168.4 133.7 170.4 131.7 173.7 131.2L179.4 130.4V129.8C179.4 128.1 178.3 127.4 176.4 127.4C174.1 127.4 172.3 128.3 170.9 128.9L169 125.2C171.2 124 173.9 123.1 176.6 123.1C180.1 123.1 184.2 124 184.2 129.1V137.2C184.2 138.3 184.8 138.7 185.8 139.1L183.6 142.6C181.8 142.5 180.6 141.5 180.1 140.5C178.9 142 177.1 142.6 174.9 142.6ZM175.5 134.7C174.3 134.9 173.5 135.6 173.5 136.6C173.5 137.8 174.4 138.8 176.1 138.8C178.4 138.8 179.4 137.3 179.4 135.3V134L175.5 134.7ZM190.3 136.2C191.6 137.5 193.9 138.5 195.8 138.5C197.3 138.5 198.5 138.1 198.5 137C198.5 136.1 197.8 135.7 196.2 135.3C195.1 135 193.1 134.7 191.5 134C189.7 133.2 188.2 131.7 188.2 129.1C188.2 125.1 191.8 123.1 195.9 123.1C199.1 123.1 201.8 124.3 203.4 125.8L200.3 129C199.3 128.1 197.7 127.3 196 127.3C194.7 127.3 193.3 127.8 193.3 128.9C193.3 129.8 194.1 130.1 195.5 130.4C197.8 131 199.5 131.4 200.9 132.1C202.4 132.9 203.5 134.5 203.5 136.6C203.5 140.6 200.1 142.6 195.9 142.6C192.8 142.6 189.3 141.4 187.4 139.8L190.3 136.2ZM214 136.7C214 137.6 214.4 138.3 216.1 138.3C216.8 138.3 218 138.2 218.5 138.1L218.9 142.4C218.9 142.4 216.5 142.7 214.4 142.7C211.1 142.7 209.1 141.2 209.1 137.9V127.9H205.7V123.5H209.1V118.2L214 116.9V123.5H218.9V127.9H214V136.7ZM242.6 121.9H229.8V117.1H247.8V122L238 142.3H232L242.6 121.9ZM258.8 132.8C258.8 127.2 262.1 123.1 267.1 123.1C269.3 123.1 270.8 124 271.9 125.1V117.1H276.8V142.3H271.9V140.7C270.9 141.8 269.5 142.7 267.3 142.7C262.3 142.7 258.9 138.6 258.9 133V132.8H258.8ZM271.9 131.1C271.9 129.1 270.4 127.6 268 127.6C265.2 127.6 263.7 129.8 263.7 132.8V133C263.7 136 265.2 138.2 268 138.2C270.4 138.2 271.9 136.7 271.9 134.7V131.1ZM286.6 142.6C283.2 142.6 280.1 140.4 280.1 136.7C280.1 133.7 282.1 131.7 285.4 131.2L291.1 130.4V129.8C291.1 128.1 290 127.4 288.1 127.4C285.8 127.4 284 128.3 282.6 128.9L280.7 125.2C282.9 124 285.6 123.1 288.3 123.1C291.8 123.1 295.9 124 295.9 129.1V137.2C295.9 138.3 296.5 138.7 297.5 139.1L295.3 142.6C293.5 142.5 292.3 141.5 291.8 140.5C290.7 142 288.8 142.6 286.6 142.6ZM287.2 134.7C286 134.9 285.2 135.6 285.2 136.6C285.2 137.8 286.1 138.8 287.8 138.8C290.1 138.8 291.1 137.3 291.1 135.3V134L287.2 134.7ZM304.3 143L304.4 142.4H304L298.2 123.4H303.6L307.1 136.4L310.5 123.4H315.8L309.3 145C308.5 147.8 306.3 148.6 303.4 148.6C302.2 148.6 300.3 148.5 299 148.2L300 143.9C300 143.9 301.3 144.1 302.6 144.1C303.7 144.2 304.1 143.8 304.3 143ZM319.8 136.2C321.1 137.5 323.4 138.5 325.3 138.5C326.8 138.5 328 138.1 328 137C328 136.1 327.3 135.7 325.7 135.3C324.6 135 322.6 134.7 321 134C319.2 133.2 317.7 131.7 317.7 129.1C317.7 125.1 321.3 123.1 325.4 123.1C328.6 123.1 331.3 124.3 332.9 125.8L329.8 129C328.8 128.1 327.2 127.3 325.5 127.3C324.2 127.3 322.8 127.8 322.8 128.9C322.8 129.8 323.6 130.1 325 130.4C327.3 131 329 131.4 330.4 132.1C331.9 132.9 333 134.5 333 136.6C333 140.6 329.6 142.6 325.4 142.6C322.3 142.6 318.8 141.4 316.9 139.8L319.8 136.2Z" fill="#0B0B0B"/>
<path d="M532.7 364.5C532.7 365.6 532.9 366.5 534.7 366.5C535.2 366.5 536.2 366.4 536.7 366.3L537 368.6C537 368.6 535.5 368.8 534.2 368.8C531.7 368.8 530.1 367.8 530.1 365.1V354.8H527.1V352.5H530.1V347.3L532.7 346.4V352.5H537.1V354.8H532.7V364.5ZM542.5 361.3C542.7 364.3 544.6 366.5 547.5 366.5C549.3 366.5 550.6 365.8 551.7 364.9L553 366.8C551.6 368 549.7 368.8 547.3 368.8C542.7 368.8 539.7 365.3 539.7 360.5C539.7 355.6 542.5 352.2 547 352.2C551.2 352.2 553.8 355.7 553.8 360.5V361.3H542.5ZM542.5 359.2H550.9C550.8 356.7 549.4 354.5 546.9 354.5C544.3 354.5 542.6 356.8 542.5 359.2ZM561.2 360.1L556.3 352.5H559.3L562.7 358L566 352.5H569L564.1 360.1L569.6 368.5H566.5L562.5 362.3L558.9 368.5H555.8L561.2 360.1ZM577 364.5C577 365.6 577.2 366.5 579 366.5C579.5 366.5 580.5 366.4 581 366.3L581.3 368.6C581.3 368.6 579.8 368.8 578.5 368.8C576 368.8 574.4 367.8 574.4 365.1V354.8H571.4V352.5H574.4V347.3L577 346.4V352.5H581.4V354.8H577V364.5ZM605.4 368.5H602.8V358.5C602.8 355.7 601.4 354.7 599.6 354.7C597.8 354.7 596.1 356 596.1 359.1V368.5H593.5V352.5H596.1V354.3C597.2 352.8 598.6 352.2 600.3 352.2C601.7 352.2 603.8 352.9 604.6 354.9C605.8 352.9 607.7 352.2 609.5 352.2C613 352.2 614.9 354.7 614.9 357.5V368.4H612.3V358.4C612.3 355.6 610.8 354.6 609 354.6C607.2 354.6 605.5 355.9 605.5 359V368.5H605.4ZM621.6 361.3C621.8 364.3 623.7 366.5 626.6 366.5C628.4 366.5 629.7 365.8 630.8 364.9L632.1 366.8C630.7 368 628.8 368.8 626.4 368.8C621.8 368.8 618.8 365.3 618.8 360.5C618.8 355.6 621.6 352.2 626.1 352.2C630.3 352.2 632.9 355.7 632.9 360.5V361.3H621.6ZM621.6 359.2H630C629.9 356.7 628.5 354.5 626 354.5C623.4 354.5 621.7 356.8 621.6 359.2ZM635.5 366.5L637.1 364.6C638.1 365.5 639.8 366.6 641.9 366.6C643.7 366.6 645.1 365.8 645.1 364.2C645.1 362.5 643.4 362.1 641.2 361.5C638.9 360.9 636.2 360.1 636.2 356.8C636.2 354.1 638.7 352.2 642 352.2C644.1 352.2 646.4 353.1 647.5 354.2L646 356C645.1 355.1 643.7 354.5 642.1 354.5C640 354.5 638.9 355.4 638.9 356.9C638.9 358.1 639.8 358.6 641.2 359C642 359.2 643 359.5 643.8 359.8C645.9 360.5 647.7 361.6 647.7 364.2C647.7 367.5 644.8 369 641.7 369C639.6 368.8 637.3 368.1 635.5 366.5ZM650.5 366.5L652.1 364.6C653.1 365.5 654.8 366.6 656.9 366.6C658.7 366.6 660.1 365.8 660.1 364.2C660.1 362.5 658.4 362.1 656.2 361.5C653.9 360.9 651.2 360.1 651.2 356.8C651.2 354.1 653.7 352.2 657 352.2C659.1 352.2 661.4 353.1 662.5 354.2L661 356C660.1 355.1 658.7 354.5 657.1 354.5C655 354.5 653.9 355.4 653.9 356.9C653.9 358.1 654.8 358.6 656.2 359C657 359.2 658 359.5 658.8 359.8C660.9 360.5 662.7 361.6 662.7 364.2C662.7 367.5 659.8 369 656.7 369C654.7 368.8 652.3 368.1 650.5 366.5ZM671.3 368.8C668.1 368.8 665.7 366.9 665.7 364C665.7 361.5 667.4 359.8 670 359.5L675.6 358.7V357.7C675.6 355.3 674 354.5 672 354.5C670.2 354.5 668.6 355.1 667.4 355.7L666.4 353.6C668.2 352.6 670.3 352.1 672.3 352.1C676.2 352.1 678.2 353.8 678.2 357.2V364.7C678.2 365.8 678.6 366.5 679.5 366.9L678 368.8C677 368.5 676.2 367.8 675.9 366.9C675 368 673.5 368.8 671.3 368.8ZM671.4 361.4C669.6 361.7 668.5 362.2 668.5 363.9C668.5 365.8 670 366.8 671.8 366.8C673.8 366.8 675.7 365.6 675.7 363.7V360.8L671.4 361.4ZM688.9 352.2C690.6 352.2 692.3 352.8 693.4 354.3V352.5H696V368.6C696 372.6 692.5 373.7 689.2 373.7C687.3 373.7 685.1 373.3 683.3 372.4L684.2 370.2C685.4 370.8 687.4 371.3 689.3 371.3C692 371.3 693.5 370.3 693.5 367.8V364.8C692.4 366.3 690.7 366.9 689 366.9C685 366.9 682.5 363.7 682.5 359.5C682.5 355.4 685 352.2 688.9 352.2ZM693.5 359.6C693.5 356.8 692.3 354.6 689.4 354.6C686.5 354.6 685.2 356.8 685.2 359.6V359.7C685.2 362.5 686.5 364.7 689.4 364.7C692.3 364.7 693.5 362.5 693.5 359.7V359.6ZM703 361.3C703.2 364.3 705.1 366.5 708 366.5C709.8 366.5 711.1 365.8 712.2 364.9L713.5 366.8C712.1 368 710.2 368.8 707.8 368.8C703.2 368.8 700.2 365.3 700.2 360.5C700.2 355.6 703 352.2 707.5 352.2C711.7 352.2 714.3 355.7 714.3 360.5V361.3H703ZM703 359.2H711.4C711.3 356.7 709.9 354.5 707.4 354.5C704.8 354.5 703.1 356.8 703 359.2ZM716.9 366.5L718.5 364.6C719.5 365.5 721.2 366.6 723.3 366.6C725.1 366.6 726.5 365.8 726.5 364.2C726.5 362.5 724.8 362.1 722.6 361.5C720.3 360.9 717.6 360.1 717.6 356.8C717.6 354.1 720.1 352.2 723.4 352.2C725.5 352.2 727.8 353.1 728.9 354.2L727.4 356C726.5 355.1 725.1 354.5 723.5 354.5C721.4 354.5 720.3 355.4 720.3 356.9C720.3 358.1 721.2 358.6 722.6 359C723.4 359.2 724.4 359.5 725.2 359.8C727.3 360.5 729.1 361.6 729.1 364.2C729.1 367.5 726.2 369 723.1 369C721 368.8 718.7 368.1 716.9 366.5ZM84.4 458.6V455.9C86.1 454.4 90.8 450.5 92.5 449C94.3 447.4 95.9 445.4 95.9 442.8C95.9 440 94.1 438.4 91.5 438.4C88.7 438.4 87.3 440.3 87.1 443.1L84.2 442.9C84.3 438.5 87.2 436 91.5 436C95.9 436 98.8 438.6 98.8 443C98.8 446.3 97.1 448.4 92.1 452.7L88 456.2H99V458.7H84.4V458.6ZM113.8 458.6V452.8H102.6V450L112.7 436.1H116.6V450.4H120.3V452.7H116.6V458.5H113.8V458.6ZM113.8 450.5V438.5L105.2 450.5H113.8ZM136 442.6H139.2V444.9H136V458.6H133.4V444.9H130.7V442.6H133.4V439.6C133.4 436.8 135.3 435.9 137.8 435.9C139.1 435.9 139.9 436.1 140.4 436.1L140.2 438.3C139.6 438.2 138.4 438.2 137.9 438.2C136.4 438.2 136 439.1 136 440.1V442.6ZM147.2 458.9C144 458.9 141.6 457 141.6 454.1C141.6 451.6 143.3 449.9 145.9 449.6L151.5 448.8V447.8C151.5 445.4 149.9 444.6 147.9 444.6C146.1 444.6 144.5 445.2 143.3 445.8L142.3 443.7C144.1 442.7 146.2 442.2 148.2 442.2C152.1 442.2 154.1 443.9 154.1 447.3V454.8C154.1 455.9 154.5 456.6 155.4 457L153.9 458.9C152.9 458.6 152.1 457.9 151.8 457C150.9 458.1 149.3 458.9 147.2 458.9ZM147.2 451.5C145.4 451.8 144.3 452.3 144.3 454C144.3 455.9 145.8 456.9 147.6 456.9C149.6 456.9 151.5 455.7 151.5 453.8V450.9L147.2 451.5ZM160.5 436.2C161.6 436.2 162.4 437.1 162.4 438.2C162.4 439.3 161.5 440.2 160.5 440.2C159.4 440.2 158.5 439.3 158.5 438.2C158.6 437.1 159.5 436.2 160.5 436.2ZM161.8 458.6H159.2V442.6H161.8V458.6ZM166.8 436.2H169.4V455C169.4 456.1 169.7 456.6 170.9 456.6C171.6 456.6 172.1 456.5 172.5 456.5L172.8 458.7C172.8 458.7 171.3 458.9 170.1 458.9C168.2 458.9 166.7 458.1 166.7 455.8V436.2H166.8ZM177.5 451.4C177.7 454.4 179.6 456.6 182.5 456.6C184.3 456.6 185.6 455.9 186.7 455L188 456.9C186.6 458.1 184.7 458.9 182.3 458.9C177.7 458.9 174.7 455.4 174.7 450.6C174.7 445.7 177.5 442.3 182 442.3C186.2 442.3 188.8 445.8 188.8 450.6V451.4H177.5ZM177.5 449.3H185.9C185.8 446.8 184.4 444.6 181.9 444.6C179.3 444.6 177.7 446.9 177.5 449.3ZM203.3 456.8C202.4 458.1 200.7 458.9 198.6 458.9C194.5 458.9 191.8 455.4 191.8 450.6C191.8 445.8 194.5 442.3 198.6 442.3C200.6 442.3 202.3 443.1 203.3 444.4V436.1H205.9V458.5H203.3V456.8ZM194.6 450.7C194.6 454 196.2 456.6 199.1 456.6C201.9 456.6 203.3 454.6 203.3 451.9V449.3C203.3 446.6 201.9 444.6 199.1 444.6C196.2 444.6 194.6 447.2 194.6 450.5V450.7Z" fill="white"/>
<path d="M275.4 525.4C280 525.4 283.2 528 284.7 531.8L281.8 532.8C281.1 530.5 278.9 528 275.5 528C270.3 528 267.9 532.7 267.9 537.9V538.4C267.9 543.5 270.3 548.3 275.5 548.3C279 548.3 281.1 545.8 281.8 543.5L284.7 544.5C283.2 548.4 280.1 550.9 275.4 550.9C268.7 550.9 264.6 545.3 264.6 538.2C264.6 531 268.7 525.4 275.4 525.4ZM304.5 541.7C304.5 547 301.2 550.9 296.3 550.9C291.4 550.9 288.1 547 288.1 541.7C288.1 536.3 291.4 532.5 296.3 532.5C301.2 532.5 304.5 536.3 304.5 541.7ZM301.5 541.8V541.6C301.5 538.1 299.7 535 296.4 535C293 535 291.3 538 291.3 541.6V541.8C291.3 545.3 293.1 548.3 296.4 548.3C299.7 548.3 301.5 545.3 301.5 541.8ZM322.4 550.5H319.5V539.4C319.5 536.2 317.9 535.1 316 535.1C314.1 535.1 312.1 536.6 312.1 540V550.5H309.2V532.8H312.1V534.8C313.3 533.2 314.9 532.4 316.7 532.4C318.3 532.4 320.6 533.2 321.5 535.3C322.8 533.1 324.9 532.4 326.9 532.4C330.7 532.4 332.9 535.2 332.9 538.3V550.4H330V539.3C330 536.1 328.3 535 326.4 535C324.4 535 322.5 536.5 322.5 539.9V550.5H322.4ZM341.2 532.8V534.8C342.2 533.3 344.1 532.4 346.4 532.4C351 532.4 353.9 536.3 353.9 541.6C353.9 547 351 550.8 346.4 550.8C344.1 550.8 342.3 549.9 341.2 548.4V555.8H338.3V532.7H341.2V532.8ZM350.9 541.6C350.9 537.9 349.1 535.1 345.9 535.1C342.8 535.1 341.2 537.3 341.2 540.3V543.2C341.2 546.1 342.8 548.4 345.9 548.4C349.2 548.4 350.9 545.6 350.9 541.9V541.6ZM363.4 550.9C359.9 550.9 357.2 548.8 357.2 545.5C357.2 542.7 359.1 540.9 361.9 540.5L368.1 539.6V538.5C368.1 535.8 366.4 535 364.2 535C362.2 535 360.5 535.6 359.1 536.4L358 534.1C360 533 362.3 532.5 364.5 532.5C368.8 532.5 371.1 534.4 371.1 538.1V546.4C371.1 547.6 371.6 548.4 372.6 548.8L371 550.9C369.9 550.6 369 549.8 368.6 548.8C367.6 549.9 365.8 550.9 363.4 550.9ZM363.5 542.6C361.5 542.9 360.3 543.5 360.3 545.3C360.3 547.4 362 548.5 363.9 548.5C366.1 548.5 368.3 547.1 368.3 545.1V541.9L363.5 542.6ZM385.8 535.4H385.3C382.3 535.4 379.6 536.6 379.6 541.4V550.5H376.7V532.8H379.6V535.6C380.5 533.5 382.6 532.5 384.9 532.5H385.8V535.4ZM391.1 542.6C391.3 545.9 393.4 548.3 396.6 548.3C398.6 548.3 400 547.6 401.2 546.6L402.7 548.7C401.1 550 399 550.9 396.4 550.9C391.3 550.9 388 547 388 541.7C388 536.3 391.2 532.5 396 532.5C400.6 532.5 403.6 536.4 403.6 541.7V542.6H391.1ZM391.2 540.2H400.6C400.5 537.5 399 535 396.2 535C393.2 535 391.3 537.5 391.2 540.2ZM421.2 546.1C421.2 547.3 421.4 548.3 423.5 548.3C424 548.3 425.2 548.2 425.7 548.1L426 550.7C426 550.7 424.3 550.9 422.8 550.9C420 550.9 418.3 549.8 418.3 546.8V535.4H415V532.8H418.3V527L421.2 526V532.8H426.1V535.4H421.2V546.1ZM445.3 541.7C445.3 547 442 550.9 437.1 550.9C432.2 550.9 428.9 547 428.9 541.7C428.9 536.3 432.2 532.5 437.1 532.5C442.1 532.5 445.3 536.3 445.3 541.7ZM442.3 541.8V541.6C442.3 538.1 440.5 535 437.2 535C433.8 535 432.1 538 432.1 541.6V541.8C432.1 545.3 433.9 548.3 437.2 548.3C440.6 548.3 442.3 545.3 442.3 541.8ZM462.1 532.8V534.8C463.1 533.3 465 532.4 467.3 532.4C471.9 532.4 474.8 536.3 474.8 541.6C474.8 547 471.9 550.8 467.3 550.8C465 550.8 463.2 549.9 462.1 548.4V555.8H459.2V532.7H462.1V532.8ZM471.8 541.6C471.8 537.9 470 535.1 466.8 535.1C463.7 535.1 462.1 537.3 462.1 540.3V543.2C462.1 546.1 463.7 548.4 466.8 548.4C470.1 548.4 471.8 545.6 471.8 541.9V541.6ZM488.5 535.4H488C485 535.4 482.3 536.6 482.3 541.4V550.5H479.4V532.8H482.3V535.6C483.2 533.5 485.3 532.5 487.6 532.5H488.5V535.4ZM493.8 542.6C494 545.9 496.1 548.3 499.3 548.3C501.3 548.3 502.7 547.6 503.9 546.6L505.4 548.7C503.8 550 501.7 550.9 499.1 550.9C494 550.9 490.7 547 490.7 541.7C490.7 536.3 493.9 532.5 498.7 532.5C503.3 532.5 506.3 536.4 506.3 541.7V542.6H493.8ZM493.9 540.2H503.3C503.2 537.5 501.7 535 498.9 535C495.9 535 494 537.5 493.9 540.2ZM514.3 550.5L508.7 532.8H512L516.3 547.8L520.5 532.8H523.8L518.2 550.5H514.3ZM529.2 525.7C530.4 525.7 531.3 526.7 531.3 527.9C531.3 529.1 530.3 530.1 529.2 530.1C528 530.1 527 529.1 527 527.9C527 526.7 528 525.7 529.2 525.7ZM530.6 550.5H527.7V532.8H530.6V550.5ZM551.5 541.7C551.5 547 548.2 550.9 543.3 550.9C538.4 550.9 535.1 547 535.1 541.7C535.1 536.3 538.4 532.5 543.3 532.5C548.2 532.5 551.5 536.3 551.5 541.7ZM548.5 541.8V541.6C548.5 538.1 546.7 535 543.4 535C540 535 538.3 538 538.3 541.6V541.8C538.3 545.3 540.1 548.3 543.4 548.3C546.7 548.3 548.5 545.3 548.5 541.8ZM570 550.5H567.1V548.5C565.9 550.1 564.1 550.9 561.9 550.9C558 550.9 556 548.1 556 544.9V532.9H558.9V544C558.9 547.1 560.5 548.3 562.6 548.3C565 548.3 567.1 546.7 567.1 543.4V532.9H570V550.5ZM574.1 548.3L575.9 546.2C577 547.2 578.9 548.4 581.3 548.4C583.3 548.4 584.8 547.5 584.8 545.7C584.8 543.8 582.9 543.4 580.5 542.7C578 542 575 541.2 575 537.5C575 534.5 577.7 532.4 581.5 532.4C583.8 532.4 586.4 533.4 587.6 534.6L585.9 536.6C584.9 535.6 583.3 534.9 581.5 534.9C579.2 534.9 578 535.9 578 537.5C578 538.8 579 539.4 580.6 539.8C581.5 540 582.6 540.4 583.5 540.7C585.9 541.4 587.8 542.7 587.8 545.5C587.8 549.2 584.6 550.8 581.1 550.8C578.7 550.9 576.1 550 574.1 548.3ZM616.9 547.1L620.1 532.8H623.2L618.9 550.5H615.2L611.6 536.3L607.9 550.5H604.3L600 532.8H603.1L606.2 547.1L609.9 532.8H613.2L616.9 547.1ZM629.1 542.6C629.3 545.9 631.4 548.3 634.6 548.3C636.6 548.3 638 547.6 639.2 546.6L640.7 548.7C639.1 550 637 550.9 634.4 550.9C629.3 550.9 626 547 626 541.7C626 536.3 629.2 532.5 634 532.5C638.6 532.5 641.6 536.4 641.6 541.7V542.6H629.1ZM629.1 540.2H638.5C638.4 537.5 636.9 535 634.1 535C631.1 535 629.3 537.5 629.1 540.2ZM648 542.6C648.2 545.9 650.3 548.3 653.5 548.3C655.5 548.3 656.9 547.6 658.1 546.6L659.6 548.7C658 550 655.9 550.9 653.3 550.9C648.2 550.9 644.9 547 644.9 541.7C644.9 536.3 648.1 532.5 652.9 532.5C657.5 532.5 660.5 536.4 660.5 541.7V542.6H648ZM648.1 540.2H657.5C657.4 537.5 655.9 535 653.1 535C650.1 535 648.2 537.5 648.1 540.2ZM667.9 541.5L676.2 532.8H679.9L673.2 539.8L680.3 550.5H676.8L671.2 541.8L668 545.1V550.6H665V525.8H667.9V541.5ZM682.2 548.3L684 546.2C685.1 547.2 687 548.4 689.4 548.4C691.4 548.4 692.9 547.5 692.9 545.7C692.9 543.8 691 543.4 688.6 542.7C686.1 542 683.1 541.2 683.1 537.5C683.1 534.5 685.8 532.4 689.6 532.4C691.9 532.4 694.5 533.4 695.7 534.6L694 536.6C693 535.6 691.4 534.9 689.6 534.9C687.3 534.9 686.1 535.9 686.1 537.5C686.1 538.8 687.1 539.4 688.7 539.8C689.6 540 690.7 540.4 691.6 540.7C694 541.4 695.9 542.7 695.9 545.5C695.9 549.2 692.7 550.8 689.2 550.8C686.7 550.9 684.1 550 682.2 548.3Z" fill="#005EA5"/>
<path d="M543.9 446.8C543.9 452.9 541.5 459 535 459C531.8 459 529.6 457.6 528.3 455.4L531.1 454.5C532.1 456 533.3 456.6 535 456.6C539.2 456.6 541 452.2 541.1 447.7H541C540 449.3 538.1 450.9 535.1 450.9C530.8 450.9 527.8 447.8 527.8 443.6C527.8 439.3 531 436 535.5 436C540.2 436 543.9 439.6 543.9 446.3V446.8ZM535.7 438.2C532.9 438.2 530.7 440.2 530.7 443.3C530.7 446.4 532.8 448.5 535.7 448.5C538.6 448.5 540.7 446.5 540.7 443.4C540.7 440.4 538.6 438.2 535.7 438.2ZM548.2 458.6V455.9C549.9 454.4 554.6 450.5 556.3 449C558.1 447.4 559.7 445.4 559.7 442.8C559.7 440 557.9 438.4 555.3 438.4C552.5 438.4 551.1 440.3 550.9 443.1L548 442.9C548.1 438.5 551 436 555.3 436C559.7 436 562.6 438.6 562.6 443C562.6 446.3 560.9 448.4 555.9 452.7L551.8 456.2H562.8V458.7H548.2V458.6ZM579.3 442.6H582.5V444.9H579.3V458.6H576.7V444.9H574V442.6H576.7V439.6C576.7 436.8 578.6 435.9 581.1 435.9C582.4 435.9 583.2 436.1 583.7 436.1L583.5 438.3C582.9 438.2 581.7 438.2 581.2 438.2C579.7 438.2 579.3 439.1 579.3 440.1V442.6ZM590.4 458.9C587.2 458.9 584.8 457 584.8 454.1C584.8 451.6 586.5 449.9 589.1 449.6L594.7 448.8V447.8C594.7 445.4 593.1 444.6 591.1 444.6C589.3 444.6 587.7 445.2 586.5 445.8L585.5 443.7C587.3 442.7 589.4 442.2 591.4 442.2C595.3 442.2 597.3 443.9 597.3 447.3V454.8C597.3 455.9 597.7 456.6 598.6 457L597.1 458.9C596.1 458.6 595.3 457.9 595 457C594.1 458.1 592.6 458.9 590.4 458.9ZM590.5 451.5C588.7 451.8 587.6 452.3 587.6 454C587.6 455.9 589.1 456.9 590.9 456.9C592.9 456.9 594.8 455.7 594.8 453.8V450.9L590.5 451.5ZM603.8 436.2C604.9 436.2 605.7 437.1 605.7 438.2C605.7 439.3 604.8 440.2 603.8 440.2C602.7 440.2 601.8 439.3 601.8 438.2C601.9 437.1 602.7 436.2 603.8 436.2ZM605.1 458.6H602.5V442.6H605.1V458.6ZM610.1 436.2H612.7V455C612.7 456.1 613 456.6 614.2 456.6C614.9 456.6 615.4 456.5 615.8 456.5L616.1 458.7C616.1 458.7 614.6 458.9 613.4 458.9C611.5 458.9 610 458.1 610 455.8V436.2H610.1ZM620.8 451.4C621 454.4 622.9 456.6 625.8 456.6C627.6 456.6 628.9 455.9 630 455L631.3 456.9C629.9 458.1 628 458.9 625.6 458.9C621 458.9 618 455.4 618 450.6C618 445.7 620.8 442.3 625.3 442.3C629.5 442.3 632.1 445.8 632.1 450.6V451.4H620.8ZM620.8 449.3H629.2C629.1 446.8 627.7 444.6 625.2 444.6C622.6 444.6 620.9 446.9 620.8 449.3ZM646.6 456.8C645.7 458.1 644 458.9 641.9 458.9C637.8 458.9 635.1 455.4 635.1 450.6C635.1 445.8 637.8 442.3 641.9 442.3C643.9 442.3 645.6 443.1 646.6 444.4V436.1H649.2V458.5H646.6V456.8ZM637.9 450.7C637.9 454 639.5 456.6 642.4 456.6C645.2 456.6 646.6 454.6 646.6 451.9V449.3C646.6 446.6 645.2 444.6 642.4 444.6C639.5 444.6 637.9 447.2 637.9 450.5V450.7Z" fill="white"/>
<path d="M251 540.6H53.1M906.9 540.6H709" stroke="#8C8C8C"/>
<path d="M0 600H960V604H0V600Z" fill="#DADADA"/>
<path d="M4 604V4H956V604H960V0H0V604H4Z" fill="#DADADA"/>
<rect x="2" y="5" width="959" height="66" fill="#1B1B1B"/>
<path d="M71.3906 49H67V40.5312C67 38.7396 66.9062 37.5833 66.7188 37.0625C66.5312 36.5312 66.224 36.1198 65.7969 35.8281C65.3802 35.5365 64.875 35.3906 64.2812 35.3906C63.5208 35.3906 62.8385 35.599 62.2344 36.0156C61.6302 36.4323 61.2135 36.9844 60.9844 37.6719C60.7656 38.3594 60.6562 39.6302 60.6562 41.4844V49H56.2656V32.4062H60.3438V34.8438C61.7917 32.9688 63.6146 32.0312 65.8125 32.0312C66.7812 32.0312 67.6667 32.2083 68.4688 32.5625C69.2708 32.9062 69.875 33.349 70.2812 33.8906C70.6979 34.4323 70.9844 35.0469 71.1406 35.7344C71.3073 36.4219 71.3906 37.4062 71.3906 38.6875V49ZM74.8438 40.4688C74.8438 39.0104 75.2031 37.599 75.9219 36.2344C76.6406 34.8698 77.6562 33.8281 78.9688 33.1094C80.2917 32.3906 81.7656 32.0312 83.3906 32.0312C85.901 32.0312 87.9583 32.849 89.5625 34.4844C91.1667 36.1094 91.9688 38.1667 91.9688 40.6562C91.9688 43.1667 91.1562 45.25 89.5312 46.9062C87.9167 48.5521 85.8802 49.375 83.4219 49.375C81.901 49.375 80.4479 49.0312 79.0625 48.3438C77.6875 47.6562 76.6406 46.651 75.9219 45.3281C75.2031 43.9948 74.8438 42.375 74.8438 40.4688ZM79.3438 40.7031C79.3438 42.349 79.7344 43.6094 80.5156 44.4844C81.2969 45.3594 82.2604 45.7969 83.4062 45.7969C84.5521 45.7969 85.5104 45.3594 86.2812 44.4844C87.0625 43.6094 87.4531 42.3385 87.4531 40.6719C87.4531 39.0469 87.0625 37.7969 86.2812 36.9219C85.5104 36.0469 84.5521 35.6094 83.4062 35.6094C82.2604 35.6094 81.2969 36.0469 80.5156 36.9219C79.7344 37.7969 79.3438 39.0573 79.3438 40.7031ZM103.031 32.4062V35.9062H100.031V42.5938C100.031 43.9479 100.057 44.7396 100.109 44.9688C100.172 45.1875 100.302 45.3698 100.5 45.5156C100.708 45.6615 100.958 45.7344 101.25 45.7344C101.656 45.7344 102.245 45.5938 103.016 45.3125L103.391 48.7188C102.37 49.1562 101.214 49.375 99.9219 49.375C99.1302 49.375 98.4167 49.2448 97.7812 48.9844C97.1458 48.7135 96.6771 48.3698 96.375 47.9531C96.0833 47.526 95.8802 46.9531 95.7656 46.2344C95.6719 45.724 95.625 44.6927 95.625 43.1406V35.9062H93.6094V32.4062H95.625V29.1094L100.031 26.5469V32.4062H103.031ZM106.078 30.1562V26.0938H110.469V30.1562H106.078ZM106.078 49V32.4062H110.469V49H106.078ZM113.062 32.4062H115.5V31.1562C115.5 29.7604 115.646 28.7188 115.938 28.0312C116.24 27.3438 116.786 26.7865 117.578 26.3594C118.38 25.9219 119.391 25.7031 120.609 25.7031C121.859 25.7031 123.083 25.8906 124.281 26.2656L123.688 29.3281C122.99 29.1615 122.318 29.0781 121.672 29.0781C121.036 29.0781 120.578 29.2292 120.297 29.5312C120.026 29.8229 119.891 30.3906 119.891 31.2344V32.4062H123.172V35.8594H119.891V49H115.5V35.8594H113.062V32.4062ZM123.562 32.4062H128.234L132.203 44.1875L136.078 32.4062H140.625L134.766 48.375L133.719 51.2656C133.333 52.2344 132.964 52.974 132.609 53.4844C132.266 53.9948 131.865 54.4062 131.406 54.7188C130.958 55.0417 130.401 55.2917 129.734 55.4688C129.078 55.6458 128.333 55.7344 127.5 55.7344C126.656 55.7344 125.828 55.6458 125.016 55.4688L124.625 52.0312C125.312 52.1667 125.932 52.2344 126.484 52.2344C127.505 52.2344 128.26 51.9323 128.75 51.3281C129.24 50.7344 129.615 49.974 129.875 49.0469L123.562 32.4062ZM141.078 49V44.6094H145.469V49H141.078ZM149.578 50.0938L154.594 50.7031C154.677 51.2865 154.87 51.6875 155.172 51.9062C155.589 52.2188 156.245 52.375 157.141 52.375C158.286 52.375 159.146 52.2031 159.719 51.8594C160.104 51.6302 160.396 51.2604 160.594 50.75C160.729 50.3854 160.797 49.7135 160.797 48.7344V46.3125C159.484 48.1042 157.828 49 155.828 49C153.599 49 151.833 48.0573 150.531 46.1719C149.51 44.6823 149 42.8281 149 40.6094C149 37.8281 149.667 35.7031 151 34.2344C152.344 32.7656 154.01 32.0312 156 32.0312C158.052 32.0312 159.745 32.9323 161.078 34.7344V32.4062H165.188V47.2969C165.188 49.2552 165.026 50.7188 164.703 51.6875C164.38 52.6562 163.927 53.4167 163.344 53.9688C162.76 54.5208 161.979 54.9531 161 55.2656C160.031 55.5781 158.802 55.7344 157.312 55.7344C154.5 55.7344 152.505 55.25 151.328 54.2812C150.151 53.3229 149.562 52.1042 149.562 50.625C149.562 50.4792 149.568 50.3021 149.578 50.0938ZM153.5 40.3594C153.5 42.1198 153.839 43.4115 154.516 44.2344C155.203 45.0469 156.047 45.4531 157.047 45.4531C158.12 45.4531 159.026 45.0365 159.766 44.2031C160.505 43.3594 160.875 42.1146 160.875 40.4688C160.875 38.75 160.521 37.474 159.812 36.6406C159.104 35.8073 158.208 35.3906 157.125 35.3906C156.073 35.3906 155.203 35.8021 154.516 36.625C153.839 37.4375 153.5 38.6823 153.5 40.3594ZM168.531 40.4688C168.531 39.0104 168.891 37.599 169.609 36.2344C170.328 34.8698 171.344 33.8281 172.656 33.1094C173.979 32.3906 175.453 32.0312 177.078 32.0312C179.589 32.0312 181.646 32.849 183.25 34.4844C184.854 36.1094 185.656 38.1667 185.656 40.6562C185.656 43.1667 184.844 45.25 183.219 46.9062C181.604 48.5521 179.568 49.375 177.109 49.375C175.589 49.375 174.135 49.0312 172.75 48.3438C171.375 47.6562 170.328 46.651 169.609 45.3281C168.891 43.9948 168.531 42.375 168.531 40.4688ZM173.031 40.7031C173.031 42.349 173.422 43.6094 174.203 44.4844C174.984 45.3594 175.948 45.7969 177.094 45.7969C178.24 45.7969 179.198 45.3594 179.969 44.4844C180.75 43.6094 181.141 42.3385 181.141 40.6719C181.141 39.0469 180.75 37.7969 179.969 36.9219C179.198 36.0469 178.24 35.6094 177.094 35.6094C175.948 35.6094 174.984 36.0469 174.203 36.9219C173.422 37.7969 173.031 39.0573 173.031 40.7031ZM193.672 49L186.984 32.4062H191.594L194.719 40.875L195.625 43.7031C195.865 42.9844 196.016 42.5104 196.078 42.2812C196.224 41.8125 196.38 41.3438 196.547 40.875L199.703 32.4062H204.219L197.625 49H193.672Z" fill="white"/>
<rect x="51" y="171" width="856" height="319" fill="white"/>
<rect x="53" y="174" width="854" height="200" fill="#055595"/>
<path d="M105.848 283.056C93.56 283.056 82.76 275.616 81.608 263.856H92.792C94.136 269.664 98.84 273.648 105.416 273.648C116.456 273.648 123.656 265.776 122.552 247.104C119.96 253.248 113.624 257.328 105.416 257.328C91.448 257.328 81.704 248.928 81.704 235.248C81.704 221.424 91.544 211.632 106.808 211.632C123.8 211.632 134.36 224.832 134.36 246.048C134.36 270.192 123.8 283.056 105.848 283.056ZM107.144 247.824C113.864 247.824 120.584 242.64 120.584 237.12C120.68 227.184 115.208 220.704 107.096 220.704C99.656 220.704 94.328 226.368 94.328 234.672C94.328 242.832 99.128 247.824 107.144 247.824ZM169.899 211.632C183.723 211.632 194.139 218.496 194.139 230.88C194.139 238.224 189.675 243.264 183.627 245.952C190.299 247.296 197.211 254.928 197.211 262.944C197.211 275.184 186.363 283.008 169.899 283.008C153.483 283.008 142.635 275.184 142.635 262.944C142.635 254.928 149.499 247.296 156.171 245.952C150.171 243.264 145.659 238.224 145.659 230.88C145.659 218.496 156.123 211.632 169.899 211.632ZM169.899 241.296C177.195 241.296 182.331 237.312 182.331 230.64C182.331 223.968 177.147 219.792 169.899 219.792C162.651 219.792 157.419 224.016 157.419 230.64C157.419 237.312 162.651 241.296 169.899 241.296ZM169.899 273.984C179.019 273.984 184.731 269.52 184.731 262.704C184.731 255.888 179.019 251.088 169.899 251.088C160.827 251.088 155.115 255.888 155.115 262.704C155.115 269.52 160.827 273.984 169.899 273.984ZM231.413 211.632C247.253 211.632 257.189 224.112 257.189 247.44C257.189 270.672 247.397 283.056 231.365 283.056C215.285 283.056 205.541 270.72 205.541 247.536C205.541 224.16 215.525 211.632 231.413 211.632ZM231.413 273.312C240.437 273.312 244.805 265.92 244.805 247.488C244.805 228.672 240.293 221.088 231.365 221.088C222.437 221.088 217.781 228.768 217.781 247.488C217.781 265.824 222.341 273.312 231.413 273.312Z" fill="white"/>
<rect x="52" y="398" width="855" height="92" fill="#159E2A"/>
<path d="M90.472 326.208H86.776L86.792 335.696C86.792 337.168 87.24 337.328 88.504 337.328H90.552V339.792C90.104 339.968 89.272 340.128 87.848 340.128C83.912 340.128 82.888 338.496 82.888 335.84V326.208H80.2V323.456H83L83.976 318.544H86.776V323.44H90.472V326.208ZM96.7975 332.624C96.7815 335.44 98.2055 337.44 100.878 337.44C102.718 337.44 104.174 336.64 104.622 334.944H108.174C107.597 338.4 104.302 340.32 100.958 340.32C96.1735 340.32 92.9095 337.104 92.9095 331.904C92.9095 326.832 95.7735 323.136 100.734 323.136C105.614 323.136 108.238 326.448 108.238 331.44V332.624H96.7975ZM96.7815 330.208H104.558C104.558 327.808 103.31 325.936 100.718 325.936C98.1415 325.936 96.7815 328.08 96.7815 330.208ZM126.243 340H122.115L117.763 334.112L113.427 340H109.299L115.651 331.392L109.827 323.456H113.955L117.779 328.624L121.603 323.456H125.747L119.875 331.392L126.243 340ZM137.941 326.208H134.245L134.261 335.696C134.261 337.168 134.709 337.328 135.973 337.328H138.021V339.792C137.573 339.968 136.741 340.128 135.317 340.128C131.381 340.128 130.357 338.496 130.357 335.84V326.208H127.669V323.456H130.469L131.445 318.544H134.245V323.44H137.941V326.208ZM149.083 340V323.456H152.875V325.824C153.819 324.368 155.419 323.136 157.995 323.136C159.739 323.136 161.771 324.064 162.699 325.808C163.755 324.256 165.547 323.136 167.723 323.136C170.123 323.136 173.115 324.464 173.115 329.12V340H169.227V329.584C169.227 327.12 167.739 326.352 166.235 326.352C164.859 326.352 163.019 327.088 163.019 329.2V340H159.131V328.96C159.131 327.248 157.547 326.352 156.171 326.352C154.715 326.352 152.971 327.232 152.971 329.2V340H149.083ZM180.454 332.624C180.438 335.44 181.862 337.44 184.534 337.44C186.374 337.44 187.83 336.64 188.278 334.944H191.83C191.254 338.4 187.958 340.32 184.614 340.32C179.83 340.32 176.566 337.104 176.566 331.904C176.566 326.832 179.43 323.136 184.39 323.136C189.27 323.136 191.894 326.448 191.894 331.44V332.624H180.454ZM180.438 330.208H188.214C188.214 327.808 186.966 325.936 184.374 325.936C181.798 325.936 180.438 328.08 180.438 330.208ZM201.857 340.32C198.401 340.32 195.217 338.72 194.673 334.976H198.097C198.529 336.816 200.177 337.568 201.841 337.568C203.825 337.568 205.153 336.896 205.153 335.472C205.153 334.432 204.513 333.84 203.009 333.52L199.873 332.8C197.057 332.176 195.233 330.848 195.217 328.24C195.201 325.296 197.489 323.136 201.857 323.136C205.713 323.136 208.225 324.912 208.305 328.096H204.993C204.753 326.672 203.601 325.824 201.825 325.824C199.985 325.824 198.689 326.528 198.689 327.968C198.689 328.976 199.569 329.504 201.377 329.888L204.353 330.608C207.745 331.456 208.545 333.696 208.545 335.248C208.545 338.448 205.937 340.32 201.857 340.32ZM218.325 340.32C214.869 340.32 211.685 338.72 211.141 334.976H214.565C214.997 336.816 216.645 337.568 218.309 337.568C220.293 337.568 221.621 336.896 221.621 335.472C221.621 334.432 220.981 333.84 219.477 333.52L216.341 332.8C213.525 332.176 211.701 330.848 211.685 328.24C211.669 325.296 213.957 323.136 218.325 323.136C222.181 323.136 224.693 324.912 224.773 328.096H221.461C221.221 326.672 220.069 325.824 218.293 325.824C216.453 325.824 215.157 326.528 215.157 327.968C215.157 328.976 216.037 329.504 217.845 329.888L220.821 330.608C224.213 331.456 225.013 333.696 225.013 335.248C225.013 338.448 222.405 340.32 218.325 340.32ZM233.43 340.32C230.246 340.32 227.91 338.528 227.91 335.392C227.91 331.744 230.422 329.904 236.182 329.808L238.662 329.744V328.624C238.662 326.88 237.638 325.824 235.477 325.84C233.862 325.872 232.39 326.544 231.958 328.256H228.646C228.822 324.848 231.574 323.136 235.654 323.136C240.374 323.136 242.406 325.072 242.406 328.4V340H239.126L238.806 337.024C237.606 339.504 235.766 340.32 233.43 340.32ZM234.694 337.68C236.614 337.68 238.646 336.128 238.662 334.512V331.904L236.63 331.936C233.622 331.968 231.622 332.784 231.622 334.992C231.622 336.688 232.934 337.68 234.694 337.68ZM253.912 345.472C248.344 345.472 245.256 343.872 245.256 341.28C245.256 338.96 248.072 338.176 248.44 337.936C247.896 337.632 246.552 337.088 246.552 335.648C246.552 334.528 247.592 333.504 249.72 333.104C247.64 332.096 246.504 330.272 246.504 328.416C246.504 325.152 249.56 323.2 254.056 323.2C256.264 323.2 257.592 323.728 258.84 324.56C259.688 324.224 262.248 323.184 263.4 322.704L263.384 325.92L260.52 326.432C260.792 327.056 260.968 327.84 260.968 328.4C260.968 331.296 258.536 333.76 253.736 333.76C253.4 333.76 252.744 333.744 252.408 333.712C250.68 333.776 250.152 334.16 250.152 334.576C250.152 335.152 251.064 335.264 253.176 335.408C253.928 335.456 255.192 335.52 256.68 335.616C260.456 335.856 262.424 337.616 262.424 340.24C262.424 343.296 259.624 345.472 253.912 345.472ZM253.864 331.472C255.896 331.472 257.272 330.4 257.272 328.496C257.272 326.544 255.896 325.376 253.864 325.376C251.784 325.376 250.408 326.56 250.408 328.496C250.408 330.352 251.688 331.472 253.864 331.472ZM254.568 343.184C257.368 343.184 258.68 342.4 258.68 340.912C258.68 339.776 257.752 338.992 255.944 338.864L251.768 338.608C250.392 338.528 249.08 339.568 249.08 340.816C249.08 342.384 250.824 343.184 254.568 343.184ZM269.266 332.624C269.25 335.44 270.674 337.44 273.346 337.44C275.186 337.44 276.642 336.64 277.09 334.944H280.642C280.066 338.4 276.77 340.32 273.426 340.32C268.642 340.32 265.378 337.104 265.378 331.904C265.378 326.832 268.242 323.136 273.202 323.136C278.082 323.136 280.706 326.448 280.706 331.44V332.624H269.266ZM269.25 330.208H277.026C277.026 327.808 275.778 325.936 273.186 325.936C270.61 325.936 269.25 328.08 269.25 330.208ZM290.669 340.32C287.213 340.32 284.029 338.72 283.485 334.976H286.909C287.341 336.816 288.989 337.568 290.653 337.568C292.637 337.568 293.965 336.896 293.965 335.472C293.965 334.432 293.325 333.84 291.821 333.52L288.685 332.8C285.869 332.176 284.045 330.848 284.029 328.24C284.013 325.296 286.301 323.136 290.669 323.136C294.525 323.136 297.037 324.912 297.117 328.096H293.805C293.565 326.672 292.413 325.824 290.637 325.824C288.797 325.824 287.501 326.528 287.501 327.968C287.501 328.976 288.381 329.504 290.189 329.888L293.165 330.608C296.557 331.456 297.357 333.696 297.357 335.248C297.357 338.448 294.749 340.32 290.669 340.32ZM314.513 340.32C311.057 340.32 307.873 338.72 307.329 334.976H310.753C311.185 336.816 312.833 337.568 314.497 337.568C316.481 337.568 317.809 336.896 317.809 335.472C317.809 334.432 317.169 333.84 315.665 333.52L312.529 332.8C309.713 332.176 307.889 330.848 307.873 328.24C307.857 325.296 310.145 323.136 314.513 323.136C318.369 323.136 320.881 324.912 320.961 328.096H317.649C317.409 326.672 316.257 325.824 314.481 325.824C312.641 325.824 311.345 326.528 311.345 327.968C311.345 328.976 312.225 329.504 314.033 329.888L317.009 330.608C320.401 331.456 321.201 333.696 321.201 335.248C321.201 338.448 318.593 340.32 314.513 340.32ZM327.891 332.624C327.875 335.44 329.299 337.44 331.971 337.44C333.811 337.44 335.267 336.64 335.715 334.944H339.267C338.691 338.4 335.395 340.32 332.051 340.32C327.267 340.32 324.003 337.104 324.003 331.904C324.003 326.832 326.867 323.136 331.827 323.136C336.707 323.136 339.331 326.448 339.331 331.44V332.624H327.891ZM327.875 330.208H335.651C335.651 327.808 334.403 325.936 331.811 325.936C329.235 325.936 327.875 328.08 327.875 330.208ZM343.052 340V323.456H346.86V325.824C347.628 324.544 349.196 323.264 351.836 323.264C354.892 323.264 357.628 325.008 357.628 329.12V340H353.724V329.584C353.724 327.424 352.38 326.368 350.572 326.368C348.7 326.368 346.94 327.312 346.94 329.2V340H343.052ZM370.441 326.208H366.745L366.761 335.696C366.761 337.168 367.209 337.328 368.473 337.328H370.521V339.792C370.073 339.968 369.241 340.128 367.817 340.128C363.881 340.128 362.857 338.496 362.857 335.84V326.208H360.169V323.456H362.969L363.945 318.544H366.745V323.44H370.441V326.208Z" fill="white"/>
<path d="M96.936 432.864H100.824V456H97.32L85.688 439.024V456H81.8V432.864H85.608L96.936 449.392V432.864ZM112.433 456.32C107.697 456.32 104.609 453.168 104.609 447.808C104.609 442.608 107.537 439.136 112.449 439.136C117.185 439.136 120.209 442.384 120.209 447.808C120.209 452.832 117.425 456.32 112.433 456.32ZM112.449 453.36C115.121 453.36 116.401 450.976 116.401 447.696C116.401 444.656 115.345 442.064 112.449 442.064C109.729 442.064 108.449 444.368 108.449 447.696C108.449 450.688 109.505 453.36 112.449 453.36ZM140.715 439.456V442.208H136.987V456H133.099V442.208H129.835V439.456H133.099V436.992C133.099 434.352 134.587 432.864 137.371 432.864H140.859L140.875 435.52H138.571C137.307 435.52 136.923 436.144 136.923 437.536V439.456H140.715ZM148.836 456.32C145.652 456.32 143.316 454.528 143.316 451.392C143.316 447.744 145.828 445.904 151.588 445.808L154.068 445.744V444.624C154.068 442.88 153.044 441.824 150.884 441.84C149.268 441.872 147.796 442.544 147.364 444.256H144.052C144.228 440.848 146.98 439.136 151.06 439.136C155.78 439.136 157.812 441.072 157.812 444.4V456H154.532L154.212 453.024C153.012 455.504 151.172 456.32 148.836 456.32ZM150.1 453.68C152.02 453.68 154.052 452.128 154.068 450.512V447.904L152.036 447.936C149.028 447.968 147.028 448.784 147.028 450.992C147.028 452.688 148.34 453.68 150.1 453.68ZM165.814 432.88V436.56H161.958V432.88H165.814ZM165.75 439.456V456H162.022V439.456H165.75ZM175.132 456.24C170.844 456.24 170.364 453.888 170.364 451.536V432.224H174.172V451.088C174.172 452.528 174.732 453.328 176.044 453.44L176.876 453.472V455.92C176.3 456.112 175.66 456.24 175.132 456.24ZM186.226 456.32C183.01 456.304 179.906 454.416 179.906 450.8V439.456H183.81V450.352C183.81 452.16 184.946 453.424 187.25 453.424C189.346 453.424 190.706 452.288 190.706 450.224V439.456H194.578V456H191.586L191.154 452.768C190.546 455.488 188.354 456.336 186.226 456.32ZM199.146 456V439.456H202.874V443.04C203.674 440.576 205.594 439.136 207.962 439.136C208.346 439.136 208.73 439.184 208.922 439.28V443.008C208.682 442.912 208.25 442.864 207.978 442.864C204.778 442.608 203.034 443.92 203.034 446.384V456H199.146ZM215.016 448.624C215 451.44 216.424 453.44 219.096 453.44C220.936 453.44 222.392 452.64 222.84 450.944H226.392C225.816 454.4 222.52 456.32 219.176 456.32C214.392 456.32 211.128 453.104 211.128 447.904C211.128 442.832 213.992 439.136 218.952 439.136C223.832 439.136 226.456 442.448 226.456 447.44V448.624H215.016ZM215 446.208H222.776C222.776 443.808 221.528 441.936 218.936 441.936C216.36 441.936 215 444.08 215 446.208ZM236.419 456.32C232.963 456.32 229.779 454.72 229.235 450.976H232.659C233.091 452.816 234.739 453.568 236.403 453.568C238.387 453.568 239.715 452.896 239.715 451.472C239.715 450.432 239.075 449.84 237.571 449.52L234.435 448.8C231.619 448.176 229.795 446.848 229.779 444.24C229.763 441.296 232.051 439.136 236.419 439.136C240.275 439.136 242.787 440.912 242.867 444.096H239.555C239.315 442.672 238.163 441.824 236.387 441.824C234.547 441.824 233.251 442.528 233.251 443.968C233.251 444.976 234.131 445.504 235.939 445.888L238.915 446.608C242.307 447.456 243.107 449.696 243.107 451.248C243.107 454.448 240.499 456.32 236.419 456.32Z" fill="white"/>
</g>
<rect x="2.5" y="2.5" width="955" height="599" stroke="#DADADA" stroke-width="5"/>
<defs>
<clipPath id="clip0_121_148">
<rect width="960" height="604" fill="white"/>
</clipPath>
</defs>
</svg>
