<?xml version="1.0" encoding="UTF-8"?>
<svg width="960px" height="640px" viewBox="0 0 960 640" version="1.1" xmlns="http://www.w3.org/2000/svg" xmlns:xlink="http://www.w3.org/1999/xlink">
    <title>02-reporting</title>
    <g id="Page-1" stroke="none" stroke-width="1" fill="none" fill-rule="evenodd">
        <g id="02-reporting">
            <path d="M0,40 L0,10 C0,4.5 4.5,0 10,0 L950,0 C955.5,0 960,4.5 960,10 L960,40" id="Path" fill="#DADADA" fill-rule="nonzero"></path>
            <circle id="Oval" fill="#FFFFFF" fill-rule="nonzero" cx="25.4" cy="20" r="8.5"></circle>
            <circle id="Oval" fill="#FFFFFF" fill-rule="nonzero" cx="49.1" cy="20" r="8.5"></circle>
            <circle id="Oval" fill="#FFFFFF" fill-rule="nonzero" cx="72.9" cy="20" r="8.5"></circle>
            <polygon id="Path" fill="#0B0B0B" fill-rule="nonzero" points="1 40 959 40 959 105 1 105"></polygon>
            <g id="header" transform="translate(56.000000, 52.000000)">
                <path d="M131.3,17 L131.3,37.7 L128.4,37.7 L128.4,13.9 L132.6,13.9 L145,33.5 L145,13.9 L147.9,13.9 L147.9,37.7 L144.3,37.7 L131.3,17 L131.3,17 Z M168.2,29.2 C168.2,34.3 165.1,38 160.4,38 C155.7,38 152.6,34.3 152.6,29.2 C152.6,24 155.7,20.4 160.4,20.4 C165.1,20.4 168.2,24 168.2,29.2 Z M165.3,29.3 L165.3,29.1 C165.3,25.7 163.6,22.8 160.4,22.8 C157.2,22.8 155.5,25.7 155.5,29.1 L155.5,29.3 C155.5,32.6 157.2,35.6 160.4,35.6 C163.6,35.6 165.3,32.6 165.3,29.3 Z M176.8,33.4 C176.8,34.5 177,35.5 179,35.5 C179.5,35.5 180.6,35.4 181.1,35.3 L181.4,37.7 C181.4,37.7 179.8,37.9 178.4,37.9 C175.7,37.9 174,36.8 174,34 L174,23.1 L170.8,23.1 L170.8,20.7 L174,20.7 L174,15.2 L176.8,14.2 L176.8,20.7 L181.5,20.7 L181.5,23.1 L176.8,23.1 L176.8,33.4 L176.8,33.4 Z M186.7,13.9 C187.8,13.9 188.7,14.9 188.7,16 C188.7,17.2 187.8,18.1 186.7,18.1 C185.5,18.1 184.6,17.2 184.6,16 C184.6,14.8 185.5,13.9 186.7,13.9 Z M188,37.7 L185.2,37.7 L185.2,20.7 L188,20.7 L188,37.7 Z M197.5,20.7 L200.9,20.7 L200.9,23.1 L197.5,23.1 L197.5,37.6 L194.7,37.6 L194.7,23.1 L191.9,23.1 L191.9,20.7 L194.7,20.7 L194.7,17.5 C194.7,14.6 196.7,13.5 199.4,13.5 C200.8,13.5 201.7,13.7 202.1,13.7 L201.9,16.1 C201.3,16 200,16 199.5,16 C197.9,16 197.5,17 197.5,18 L197.5,20.7 L197.5,20.7 Z M202.8,20.7 L206,20.7 L210.2,34.7 L214.2,20.7 L217.3,20.7 L211.1,40.2 C210.4,42.6 208.7,43.2 206.6,43.2 C205.7,43.2 204.7,43.1 203.6,42.9 L204,40.5 C204,40.5 205.2,40.7 206.2,40.7 C207.4,40.7 208.1,40.2 208.3,39 L208.5,38.2 L202.8,20.7 Z" id="Notify" fill="#FFFFFF" fill-rule="nonzero"></path>
                <text id="US" font-family="Arial-BoldMT, Arial" font-size="42" font-weight="bold" fill="#FFFFFF">
                    <tspan x="60" y="38">US</tspan>
                </text>
                <g id="flag" transform="translate(0.000000, 14.000000)" fill-rule="nonzero">
                    <rect id="Rectangle" fill="#B22234" x="1" y="0" width="45" height="24"></rect>
                    <path d="M1,3.06893665 L46,3.06893665 M46,6.64136199 L1,6.64136199 M1,10.2137873 L46,10.2137873 M46,13.7862127 L1,13.7862127 M1,17.358638 L46,17.358638 M46,20.9310634 L1,20.9310634" id="Shape" stroke="#FFFFFF" stroke-width="1.29554656" fill="#000000"></path>
                    <rect id="Rectangle" fill="#3C3B6E" x="0" y="0" width="18" height="13"></rect>
                    <g id="Group" transform="translate(1.000000, 1.000000)" fill="#FFFFFF">
                        <g id="s18">
                            <g id="s9">
                                <g id="s5">
                                    <g id="s4">
                                        <polygon id="s" points="0.719041131 0 1.16343299 1.3731533 0 0.524497893 1.43808226 0.524497893 0.274649275 1.3731533"></polygon>
                                        <g id="s-link" transform="translate(0.000000, 2.656712)">
                                            <polygon id="s" points="0.719041131 0 1.16343299 1.3731533 0 0.524497893 1.43808226 0.524497893 0.274649275 1.3731533"></polygon>
                                        </g>
                                        <g id="s-link" transform="translate(0.000000, 5.313423)">
                                            <polygon id="s" points="0.719041131 0 1.16343299 1.3731533 0 0.524497893 1.43808226 0.524497893 0.274649275 1.3731533"></polygon>
                                        </g>
                                        <g id="s-link" transform="translate(0.000000, 7.970135)">
                                            <polygon id="s" points="0.719041131 0 1.16343299 1.3731533 0 0.524497893 1.43808226 0.524497893 0.274649275 1.3731533"></polygon>
                                        </g>
                                    </g>
                                    <g id="s-link" transform="translate(0.000000, 10.626847)">
                                        <polygon id="s" points="0.719041131 0 1.16343299 1.3731533 0 0.524497893 1.43808226 0.524497893 0.274649275 1.3731533"></polygon>
                                    </g>
                                </g>
                                <g id="s4" transform="translate(1.556192, 1.328356)">
                                    <polygon id="s" points="0.719041131 0 1.16343299 1.3731533 0 0.524497893 1.43808226 0.524497893 0.274649275 1.3731533"></polygon>
                                    <g id="s-link" transform="translate(0.000000, 2.656712)">
                                        <polygon id="s" points="0.719041131 0 1.16343299 1.3731533 0 0.524497893 1.43808226 0.524497893 0.274649275 1.3731533"></polygon>
                                    </g>
                                    <g id="s-link" transform="translate(0.000000, 5.313423)">
                                        <polygon id="s" points="0.719041131 0 1.16343299 1.3731533 0 0.524497893 1.43808226 0.524497893 0.274649275 1.3731533"></polygon>
                                    </g>
                                    <g id="s-link" transform="translate(0.000000, 7.970135)">
                                        <polygon id="s" points="0.719041131 0 1.16343299 1.3731533 0 0.524497893 1.43808226 0.524497893 0.274649275 1.3731533"></polygon>
                                    </g>
                                </g>
                            </g>
                            <g id="s9" transform="translate(3.112384, 0.000000)">
                                <g id="s5">
                                    <g id="s4">
                                        <polygon id="s" points="0.719041131 0 1.16343299 1.3731533 0 0.524497893 1.43808226 0.524497893 0.274649275 1.3731533"></polygon>
                                        <g id="s-link" transform="translate(0.000000, 2.656712)">
                                            <polygon id="s" points="0.719041131 0 1.16343299 1.3731533 0 0.524497893 1.43808226 0.524497893 0.274649275 1.3731533"></polygon>
                                        </g>
                                        <g id="s-link" transform="translate(0.000000, 5.313423)">
                                            <polygon id="s" points="0.719041131 0 1.16343299 1.3731533 0 0.524497893 1.43808226 0.524497893 0.274649275 1.3731533"></polygon>
                                        </g>
                                        <g id="s-link" transform="translate(0.000000, 7.970135)">
                                            <polygon id="s" points="0.719041131 0 1.16343299 1.3731533 0 0.524497893 1.43808226 0.524497893 0.274649275 1.3731533"></polygon>
                                        </g>
                                    </g>
                                    <g id="s-link" transform="translate(0.000000, 10.626847)">
                                        <polygon id="s" points="0.719041131 0 1.16343299 1.3731533 0 0.524497893 1.43808226 0.524497893 0.274649275 1.3731533"></polygon>
                                    </g>
                                </g>
                                <g id="s4" transform="translate(1.556192, 1.328356)">
                                    <polygon id="s" points="0.719041131 0 1.16343299 1.3731533 0 0.524497893 1.43808226 0.524497893 0.274649275 1.3731533"></polygon>
                                    <g id="s-link" transform="translate(0.000000, 2.656712)">
                                        <polygon id="s" points="0.719041131 0 1.16343299 1.3731533 0 0.524497893 1.43808226 0.524497893 0.274649275 1.3731533"></polygon>
                                    </g>
                                    <g id="s-link" transform="translate(0.000000, 5.313423)">
                                        <polygon id="s" points="0.719041131 0 1.16343299 1.3731533 0 0.524497893 1.43808226 0.524497893 0.274649275 1.3731533"></polygon>
                                    </g>
                                    <g id="s-link" transform="translate(0.000000, 7.970135)">
                                        <polygon id="s" points="0.719041131 0 1.16343299 1.3731533 0 0.524497893 1.43808226 0.524497893 0.274649275 1.3731533"></polygon>
                                    </g>
                                </g>
                            </g>
                        </g>
                        <g id="s18" transform="translate(6.224767, 0.000000)">
                            <g id="s9">
                                <g id="s5">
                                    <g id="s4">
                                        <polygon id="s" points="0.719041131 0 1.16343299 1.3731533 0 0.524497893 1.43808226 0.524497893 0.274649275 1.3731533"></polygon>
                                        <g id="s-link" transform="translate(0.000000, 2.656712)">
                                            <polygon id="s" points="0.719041131 0 1.16343299 1.3731533 0 0.524497893 1.43808226 0.524497893 0.274649275 1.3731533"></polygon>
                                        </g>
                                        <g id="s-link" transform="translate(0.000000, 5.313423)">
                                            <polygon id="s" points="0.719041131 0 1.16343299 1.3731533 0 0.524497893 1.43808226 0.524497893 0.274649275 1.3731533"></polygon>
                                        </g>
                                        <g id="s-link" transform="translate(0.000000, 7.970135)">
                                            <polygon id="s" points="0.719041131 0 1.16343299 1.3731533 0 0.524497893 1.43808226 0.524497893 0.274649275 1.3731533"></polygon>
                                        </g>
                                    </g>
                                    <g id="s-link" transform="translate(0.000000, 10.626847)">
                                        <polygon id="s" points="0.719041131 0 1.16343299 1.3731533 0 0.524497893 1.43808226 0.524497893 0.274649275 1.3731533"></polygon>
                                    </g>
                                </g>
                                <g id="s4" transform="translate(1.556192, 1.328356)">
                                    <polygon id="s" points="0.719041131 0 1.16343299 1.3731533 0 0.524497893 1.43808226 0.524497893 0.274649275 1.3731533"></polygon>
                                    <g id="s-link" transform="translate(0.000000, 2.656712)">
                                        <polygon id="s" points="0.719041131 0 1.16343299 1.3731533 0 0.524497893 1.43808226 0.524497893 0.274649275 1.3731533"></polygon>
                                    </g>
                                    <g id="s-link" transform="translate(0.000000, 5.313423)">
                                        <polygon id="s" points="0.719041131 0 1.16343299 1.3731533 0 0.524497893 1.43808226 0.524497893 0.274649275 1.3731533"></polygon>
                                    </g>
                                    <g id="s-link" transform="translate(0.000000, 7.970135)">
                                        <polygon id="s" points="0.719041131 0 1.16343299 1.3731533 0 0.524497893 1.43808226 0.524497893 0.274649275 1.3731533"></polygon>
                                    </g>
                                </g>
                            </g>
                            <g id="s9" transform="translate(3.112384, 0.000000)">
                                <g id="s5">
                                    <g id="s4">
                                        <polygon id="s" points="0.719041131 0 1.16343299 1.3731533 0 0.524497893 1.43808226 0.524497893 0.274649275 1.3731533"></polygon>
                                        <g id="s-link" transform="translate(0.000000, 2.656712)">
                                            <polygon id="s" points="0.719041131 0 1.16343299 1.3731533 0 0.524497893 1.43808226 0.524497893 0.274649275 1.3731533"></polygon>
                                        </g>
                                        <g id="s-link" transform="translate(0.000000, 5.313423)">
                                            <polygon id="s" points="0.719041131 0 1.16343299 1.3731533 0 0.524497893 1.43808226 0.524497893 0.274649275 1.3731533"></polygon>
                                        </g>
                                        <g id="s-link" transform="translate(0.000000, 7.970135)">
                                            <polygon id="s" points="0.719041131 0 1.16343299 1.3731533 0 0.524497893 1.43808226 0.524497893 0.274649275 1.3731533"></polygon>
                                        </g>
                                    </g>
                                    <g id="s-link" transform="translate(0.000000, 10.626847)">
                                        <polygon id="s" points="0.719041131 0 1.16343299 1.3731533 0 0.524497893 1.43808226 0.524497893 0.274649275 1.3731533"></polygon>
                                    </g>
                                </g>
                                <g id="s4" transform="translate(1.556192, 1.328356)">
                                    <polygon id="s" points="0.719041131 0 1.16343299 1.3731533 0 0.524497893 1.43808226 0.524497893 0.274649275 1.3731533"></polygon>
                                    <g id="s-link" transform="translate(0.000000, 2.656712)">
                                        <polygon id="s" points="0.719041131 0 1.16343299 1.3731533 0 0.524497893 1.43808226 0.524497893 0.274649275 1.3731533"></polygon>
                                    </g>
                                    <g id="s-link" transform="translate(0.000000, 5.313423)">
                                        <polygon id="s" points="0.719041131 0 1.16343299 1.3731533 0 0.524497893 1.43808226 0.524497893 0.274649275 1.3731533"></polygon>
                                    </g>
                                    <g id="s-link" transform="translate(0.000000, 7.970135)">
                                        <polygon id="s" points="0.719041131 0 1.16343299 1.3731533 0 0.524497893 1.43808226 0.524497893 0.274649275 1.3731533"></polygon>
                                    </g>
                                </g>
                            </g>
                        </g>
                        <g id="s9" transform="translate(12.449534, 0.000000)">
                            <g id="s5">
                                <g id="s4">
                                    <polygon id="s" points="0.719041131 0 1.16343299 1.3731533 0 0.524497893 1.43808226 0.524497893 0.274649275 1.3731533"></polygon>
                                    <g id="s-link" transform="translate(0.000000, 2.656712)">
                                        <polygon id="s" points="0.719041131 0 1.16343299 1.3731533 0 0.524497893 1.43808226 0.524497893 0.274649275 1.3731533"></polygon>
                                    </g>
                                    <g id="s-link" transform="translate(0.000000, 5.313423)">
                                        <polygon id="s" points="0.719041131 0 1.16343299 1.3731533 0 0.524497893 1.43808226 0.524497893 0.274649275 1.3731533"></polygon>
                                    </g>
                                    <g id="s-link" transform="translate(0.000000, 7.970135)">
                                        <polygon id="s" points="0.719041131 0 1.16343299 1.3731533 0 0.524497893 1.43808226 0.524497893 0.274649275 1.3731533"></polygon>
                                    </g>
                                </g>
                                <g id="s-link" transform="translate(0.000000, 10.626847)">
                                    <polygon id="s" points="0.719041131 0 1.16343299 1.3731533 0 0.524497893 1.43808226 0.524497893 0.274649275 1.3731533"></polygon>
                                </g>
                            </g>
                            <g id="s4" transform="translate(1.556192, 1.328356)">
                                <polygon id="s" points="0.719041131 0 1.16343299 1.3731533 0 0.524497893 1.43808226 0.524497893 0.274649275 1.3731533"></polygon>
                                <g id="s-link" transform="translate(0.000000, 2.656712)">
                                    <polygon id="s" points="0.719041131 0 1.16343299 1.3731533 0 0.524497893 1.43808226 0.524497893 0.274649275 1.3731533"></polygon>
                                </g>
                                <g id="s-link" transform="translate(0.000000, 5.313423)">
                                    <polygon id="s" points="0.719041131 0 1.16343299 1.3731533 0 0.524497893 1.43808226 0.524497893 0.274649275 1.3731533"></polygon>
                                </g>
                                <g id="s-link" transform="translate(0.000000, 7.970135)">
                                    <polygon id="s" points="0.719041131 0 1.16343299 1.3731533 0 0.524497893 1.43808226 0.524497893 0.274649275 1.3731533"></polygon>
                                </g>
                            </g>
                        </g>
                        <g id="s5" transform="translate(15.561918, 0.000000)">
                            <g id="s4">
                                <polygon id="s" points="0.719041131 0 1.16343299 1.3731533 0 0.524497893 1.43808226 0.524497893 0.274649275 1.3731533"></polygon>
                                <g id="s-link" transform="translate(0.000000, 2.656712)">
                                    <polygon id="s" points="0.719041131 0 1.16343299 1.3731533 0 0.524497893 1.43808226 0.524497893 0.274649275 1.3731533"></polygon>
                                </g>
                                <g id="s-link" transform="translate(0.000000, 5.313423)">
                                    <polygon id="s" points="0.719041131 0 1.16343299 1.3731533 0 0.524497893 1.43808226 0.524497893 0.274649275 1.3731533"></polygon>
                                </g>
                                <g id="s-link" transform="translate(0.000000, 7.970135)">
                                    <polygon id="s" points="0.719041131 0 1.16343299 1.3731533 0 0.524497893 1.43808226 0.524497893 0.274649275 1.3731533"></polygon>
                                </g>
                            </g>
                            <g id="s-link" transform="translate(0.000000, 10.626847)">
                                <polygon id="s" points="0.719041131 0 1.16343299 1.3731533 0 0.524497893 1.43808226 0.524497893 0.274649275 1.3731533"></polygon>
                            </g>
                        </g>
                    </g>
                </g>
            </g>
            <path d="M53.1,224 L463.1,224 L463.1,434.7 L53.1,434.7 L53.1,224 Z M496.9,224 L906.9,224 L906.9,434.7 L496.9,434.7 L496.9,224 Z" id="Shape" fill="#005EA5" fill-rule="nonzero"></path>
            <path d="M53.1,448.6 L463.1,448.6 L463.1,517.3 L53.1,517.3 L53.1,448.6 Z M496.9,448.6 L906.9,448.6 L906.9,517.3 L496.9,517.3 L496.9,448.6 Z" id="Shape" fill="#006435" fill-rule="nonzero"></path>
            <path d="M129,286.6 C129,301.7 122.1,316.1 105,316.1 C95.7,316.1 88.9,311.4 86.2,304.7 L97.1,300.6 C98.9,304.3 101.6,305.9 105.6,305.9 C113,305.9 116.3,299 116.8,291.1 C114.1,294.5 109.3,296.3 104.5,296.3 C93.7,296.3 85.8,288.8 85.8,278.3 C85.8,267.1 94.1,258.6 106.5,258.6 C120.1,258.6 129,268.5 129,285.2 L129,286.6 Z M106.9,268.5 C101.1,268.5 97.4,272.6 97.4,277.8 C97.4,282.9 101.1,287 106.9,287 C112.7,287 116.5,282.9 116.5,277.8 C116.5,272.5 112.7,268.5 106.9,268.5 Z M178.9,274.6 C178.9,278.5 176.9,283.6 171.2,286.2 C177.7,288.8 180.5,294.1 180.5,299.2 C180.5,310.9 169.7,316.1 158.5,316.1 C147.3,316.1 136.5,310.9 136.5,299.2 C136.5,294.1 139.4,288.7 145.8,286.2 C140.2,283.6 138.1,278.5 138.1,274.6 C138.1,263.9 148.1,258.6 158.5,258.6 C168.9,258.7 178.9,263.6 178.9,274.6 L178.9,274.6 Z M168.5,298.9 C168.5,294.4 164.4,291.2 158.4,291.2 C152.5,291.2 148.3,294.4 148.3,298.9 C148.3,303.5 152.4,306.6 158.4,306.6 C164.3,306.5 168.5,303.5 168.5,298.9 Z M167.2,275 C167.2,270.8 163.5,268.2 158.4,268.2 C153.3,268.2 149.6,270.8 149.6,275 C149.6,279.5 153.1,281.9 158.4,281.9 C163.7,281.9 167.2,279.5 167.2,275 Z M232.5,287.4 C232.5,301.8 225.9,316.1 210.2,316.1 C194.5,316.1 187.9,301.8 187.9,287.4 C187.9,273 194.5,258.7 210.2,258.7 C225.9,258.7 232.5,272.9 232.5,287.4 Z M220.7,288.5 L220.7,286.3 C220.7,275.8 217.2,268.8 210.2,268.8 C203.2,268.8 199.6,275.8 199.6,286.3 L199.6,288.5 C199.6,298.9 203.2,305.9 210.2,305.9 C217.2,305.9 220.7,298.9 220.7,288.5 Z M530.5,315.3 L530.5,305.3 C530.5,305.4 539.3,299 549.9,290.6 C555.5,286.2 558.5,282.1 558.5,276.9 C558.5,272.5 555.7,269 550.4,269 C543.8,269 541.4,273.7 541.4,279.3 L529.8,278.6 C529.8,266 538.3,258.7 550.7,258.7 C561.8,258.7 570.6,265.6 570.6,276.7 C570.6,282.5 568.3,287.9 562.1,293.9 C558.6,297.3 553.8,300.8 547.8,304.8 L571.3,304.8 L571.3,315.3 L530.5,315.3 L530.5,315.3 Z M594.9,310.6 C594.9,316.7 591.6,323.4 580.8,323.4 L580.4,319.7 C581.8,319.5 582.9,319.2 583.8,319 C586.4,318.3 586.8,317 586.8,316 L586.8,315.8 C582.2,315.8 579.1,313.2 579.1,308.7 C579.1,304.7 582.5,301.3 586.6,301.3 C591.6,301.2 594.9,305.4 594.9,310.6 L594.9,310.6 Z M629.1,315.3 L629.1,302.7 L601.3,302.7 L601.3,290.7 L627,259.5 L640.5,259.5 L640.5,292.5 L648.6,292.5 L648.6,302.7 L640.5,302.7 L640.5,315.3 L629.1,315.3 L629.1,315.3 Z M629.1,292.5 L629.1,271.6 L611.8,292.5 L629.1,292.5 Z M656,290 L659.1,259.4 L694.6,259.4 L694.6,269.6 L668.8,269.6 L667.5,280.7 C670.1,277.9 674.8,276.6 678.7,276.6 C689.9,276.6 697.4,284.5 697.4,295.8 C697.4,308.1 687.7,316 675.4,316 C665.3,316 656.5,311.2 654,301.6 L664.8,298.2 C666,302.3 669,305.9 675.3,305.9 C682,305.9 685.6,301.4 685.6,296 C685.6,290.7 682.1,286.3 675.7,286.3 C672,286.3 668.8,288.1 666.8,291.1 L656,290 Z M749,287.4 C749,301.8 742.4,316.1 726.7,316.1 C711,316.1 704.4,301.8 704.4,287.4 C704.4,273 711,258.7 726.7,258.7 C742.4,258.7 749,272.9 749,287.4 Z M737.2,288.5 L737.2,286.3 C737.2,275.8 733.7,268.8 726.7,268.8 C719.7,268.8 716.1,275.8 716.1,286.3 L716.1,288.5 C716.1,298.9 719.7,305.9 726.7,305.9 C733.7,305.9 737.2,298.9 737.2,288.5 Z M86.5,397.3 C86.7,400.3 88.6,402.5 91.5,402.5 C93.3,402.5 94.6,401.8 95.7,400.9 L97,402.8 C95.6,404 93.7,404.8 91.3,404.8 C86.7,404.8 83.7,401.3 83.7,396.5 C83.7,391.6 86.5,388.2 91,388.2 C95.2,388.2 97.8,391.7 97.8,396.5 L97.8,397.3 L86.5,397.3 L86.5,397.3 Z M86.6,395.2 L95,395.2 C94.9,392.7 93.5,390.5 91,390.5 C88.4,390.5 86.7,392.8 86.6,395.2 Z M113.8,404.5 L111.2,404.5 L111.2,394.5 C111.2,391.7 109.8,390.7 108,390.7 C106.2,390.7 104.5,392 104.5,395.1 L104.5,404.5 L101.9,404.5 L101.9,388.5 L104.5,388.5 L104.5,390.3 C105.6,388.8 107,388.2 108.7,388.2 C110.1,388.2 112.2,388.9 113,390.9 C114.2,388.9 116.1,388.2 117.9,388.2 C121.4,388.2 123.3,390.7 123.3,393.5 L123.3,404.4 L120.7,404.4 L120.7,394.4 C120.7,391.6 119.2,390.6 117.4,390.6 C115.6,390.6 113.9,391.9 113.9,395 L113.9,404.5 L113.8,404.5 Z M132.6,404.8 C129.4,404.8 127,402.9 127,400 C127,397.5 128.7,395.8 131.3,395.5 L136.9,394.7 L136.9,393.7 C136.9,391.3 135.3,390.5 133.3,390.5 C131.5,390.5 129.9,391.1 128.7,391.7 L127.7,389.6 C129.5,388.6 131.6,388.1 133.6,388.1 C137.5,388.1 139.5,389.8 139.5,393.2 L139.5,400.7 C139.5,401.8 139.9,402.5 140.8,402.9 L139.3,404.8 C138.3,404.5 137.5,403.8 137.2,402.9 C136.3,404 134.7,404.8 132.6,404.8 L132.6,404.8 Z M132.6,397.4 C130.8,397.7 129.7,398.2 129.7,399.9 C129.7,401.8 131.2,402.8 133,402.8 C135,402.8 136.9,401.6 136.9,399.7 L136.9,396.8 L132.6,397.4 Z M146,382.1 C147.1,382.1 147.9,383 147.9,384.1 C147.9,385.2 147,386.1 146,386.1 C144.9,386.1 144,385.2 144,384.1 C144,383 144.9,382.1 146,382.1 Z M147.2,404.5 L144.6,404.5 L144.6,388.5 L147.2,388.5 L147.2,404.5 Z M152.3,382.1 L154.9,382.1 L154.9,400.9 C154.9,402 155.2,402.5 156.4,402.5 C157.1,402.5 157.6,402.4 158,402.4 L158.3,404.6 C158.3,404.6 156.8,404.8 155.6,404.8 C153.7,404.8 152.2,404 152.2,401.7 L152.2,382.1 L152.3,382.1 Z M159.7,402.5 L161.3,400.6 C162.3,401.5 164,402.6 166.1,402.6 C167.9,402.6 169.3,401.8 169.3,400.2 C169.3,398.5 167.6,398.1 165.4,397.5 C163.1,396.9 160.4,396.1 160.4,392.8 C160.4,390.1 162.9,388.2 166.2,388.2 C168.3,388.2 170.6,389.1 171.7,390.2 L170.2,392 C169.3,391.1 167.9,390.5 166.3,390.5 C164.2,390.5 163.1,391.4 163.1,392.9 C163.1,394.1 164,394.6 165.4,395 C166.2,395.2 167.2,395.5 168,395.8 C170.1,396.5 171.9,397.6 171.9,400.2 C171.9,403.5 169,405 165.9,405 C163.9,404.8 161.5,404.1 159.7,402.5 L159.7,402.5 Z" id="Shape" fill="#FFFFFF" fill-rule="nonzero"></path>
            <path d="M55.9,153.1 L61,153.1 L61,178.3 L55.9,178.3 L55.9,153.1 Z M65.9,159.5 L70.8,159.5 L70.8,161.1 C71.8,160.1 73.3,159.1 75.6,159.1 C79.7,159.1 82.1,161.9 82.1,165.6 L82.1,178.3 L77.2,178.3 L77.2,167.4 C77.2,164.7 75.9,163.7 74.2,163.7 C72.2,163.7 70.7,165.1 70.7,168 L70.7,178.3 L65.8,178.3 L65.8,159.5 L65.9,159.5 Z M101.4,172.7 C101.4,173.6 101.8,174.3 103.5,174.3 C104.2,174.3 105.4,174.2 105.9,174.1 L106.3,178.4 C106.3,178.4 103.9,178.7 101.8,178.7 C98.5,178.7 96.5,177.2 96.5,173.9 L96.5,163.9 L93.1,163.9 L93.1,159.5 L96.5,159.5 L96.5,154.2 L101.4,152.9 L101.4,159.5 L106.3,159.5 L106.3,163.9 L101.4,163.9 L101.4,172.7 L101.4,172.7 Z M109.7,153.1 L114.6,153.1 L114.6,161.1 C115.6,160.1 117.1,159.1 119.4,159.1 C123.5,159.1 125.9,161.9 125.9,165.6 L125.9,178.3 L121,178.3 L121,167.4 C121,164.7 119.7,163.7 118,163.7 C116,163.7 114.5,165.1 114.5,168 L114.5,178.3 L109.6,178.3 L109.6,153.1 L109.7,153.1 Z M134.3,170.5 C134.8,172.9 136.6,174.2 138.9,174.2 C140.7,174.2 142.4,173.6 143.7,172.4 L146.1,176.1 C144.4,177.5 141.9,178.6 138.8,178.6 C133.6,178.6 129.3,175 129.3,169 L129.3,168.8 C129.3,163.3 133.1,159.1 138.4,159.1 C143.4,159.1 147,162.9 147,168.4 L147,170.6 L134.3,170.6 L134.3,170.5 Z M134.4,166.9 L142,166.9 C141.9,165.2 140.8,163.3 138.3,163.3 C135.7,163.3 134.5,165.2 134.4,166.9 Z M158.7,153.1 L163.6,153.1 L163.6,173.2 C163.6,174 164,174.4 165,174.4 C165.6,174.4 166.3,174.3 166.8,174.2 L167.2,178.3 C167.2,178.3 164.9,178.6 163.1,178.6 C160.4,178.6 158.7,177.2 158.7,174.5 L158.7,153.1 L158.7,153.1 Z M174.9,178.6 C171.5,178.6 168.4,176.4 168.4,172.7 C168.4,169.7 170.4,167.7 173.7,167.2 L179.4,166.4 L179.4,165.8 C179.4,164.1 178.3,163.4 176.4,163.4 C174.1,163.4 172.3,164.3 170.9,164.9 L169,161.2 C171.2,160 173.9,159.1 176.6,159.1 C180.1,159.1 184.2,160 184.2,165.1 L184.2,173.2 C184.2,174.3 184.8,174.7 185.8,175.1 L183.6,178.6 C181.8,178.5 180.6,177.5 180.1,176.5 C178.9,178 177.1,178.6 174.9,178.6 Z M175.5,170.7 C174.3,170.9 173.5,171.6 173.5,172.6 C173.5,173.8 174.4,174.8 176.1,174.8 C178.4,174.8 179.4,173.3 179.4,171.3 L179.4,170 L175.5,170.7 Z M190.3,172.2 C191.6,173.5 193.9,174.5 195.8,174.5 C197.3,174.5 198.5,174.1 198.5,173 C198.5,172.1 197.8,171.7 196.2,171.3 C195.1,171 193.1,170.7 191.5,170 C189.7,169.2 188.2,167.7 188.2,165.1 C188.2,161.1 191.8,159.1 195.9,159.1 C199.1,159.1 201.8,160.3 203.4,161.8 L200.3,165 C199.3,164.1 197.7,163.3 196,163.3 C194.7,163.3 193.3,163.8 193.3,164.9 C193.3,165.8 194.1,166.1 195.5,166.4 C197.8,167 199.5,167.4 200.9,168.1 C202.4,168.9 203.5,170.5 203.5,172.6 C203.5,176.6 200.1,178.6 195.9,178.6 C192.8,178.6 189.3,177.4 187.4,175.8 L190.3,172.2 L190.3,172.2 Z M214,172.7 C214,173.6 214.4,174.3 216.1,174.3 C216.8,174.3 218,174.2 218.5,174.1 L218.9,178.4 C218.9,178.4 216.5,178.7 214.4,178.7 C211.1,178.7 209.1,177.2 209.1,173.9 L209.1,163.9 L205.7,163.9 L205.7,159.5 L209.1,159.5 L209.1,154.2 L214,152.9 L214,159.5 L218.9,159.5 L218.9,163.9 L214,163.9 L214,172.7 Z M242.6,157.9 L229.8,157.9 L229.8,153.1 L247.8,153.1 L247.8,158 L238,178.3 L232,178.3 L242.6,157.9 L242.6,157.9 Z M258.8,168.8 C258.8,163.2 262.1,159.1 267.1,159.1 C269.3,159.1 270.8,160 271.9,161.1 L271.9,153.1 L276.8,153.1 L276.8,178.3 L271.9,178.3 L271.9,176.7 C270.9,177.8 269.5,178.7 267.3,178.7 C262.3,178.7 258.9,174.6 258.9,169 L258.9,168.8 L258.8,168.8 Z M271.9,167.1 C271.9,165.1 270.4,163.6 268,163.6 C265.2,163.6 263.7,165.8 263.7,168.8 L263.7,169 C263.7,172 265.2,174.2 268,174.2 C270.4,174.2 271.9,172.7 271.9,170.7 L271.9,167.1 L271.9,167.1 Z M286.6,178.6 C283.2,178.6 280.1,176.4 280.1,172.7 C280.1,169.7 282.1,167.7 285.4,167.2 L291.1,166.4 L291.1,165.8 C291.1,164.1 290,163.4 288.1,163.4 C285.8,163.4 284,164.3 282.6,164.9 L280.7,161.2 C282.9,160 285.6,159.1 288.3,159.1 C291.8,159.1 295.9,160 295.9,165.1 L295.9,173.2 C295.9,174.3 296.5,174.7 297.5,175.1 L295.3,178.6 C293.5,178.5 292.3,177.5 291.8,176.5 C290.7,178 288.8,178.6 286.6,178.6 L286.6,178.6 Z M287.2,170.7 C286,170.9 285.2,171.6 285.2,172.6 C285.2,173.8 286.1,174.8 287.8,174.8 C290.1,174.8 291.1,173.3 291.1,171.3 L291.1,170 L287.2,170.7 L287.2,170.7 Z M304.3,179 L304.4,178.4 L304,178.4 L298.2,159.4 L303.6,159.4 L307.1,172.4 L310.5,159.4 L315.8,159.4 L309.3,181 C308.5,183.8 306.3,184.6 303.4,184.6 C302.2,184.6 300.3,184.5 299,184.2 L300,179.9 C300,179.9 301.3,180.1 302.6,180.1 C303.7,180.2 304.1,179.8 304.3,179 L304.3,179 Z M319.8,172.2 C321.1,173.5 323.4,174.5 325.3,174.5 C326.8,174.5 328,174.1 328,173 C328,172.1 327.3,171.7 325.7,171.3 C324.6,171 322.6,170.7 321,170 C319.2,169.2 317.7,167.7 317.7,165.1 C317.7,161.1 321.3,159.1 325.4,159.1 C328.6,159.1 331.3,160.3 332.9,161.8 L329.8,165 C328.8,164.1 327.2,163.3 325.5,163.3 C324.2,163.3 322.8,163.8 322.8,164.9 C322.8,165.8 323.6,166.1 325,166.4 C327.3,167 329,167.4 330.4,168.1 C331.9,168.9 333,170.5 333,172.6 C333,176.6 329.6,178.6 325.4,178.6 C322.3,178.6 318.8,177.4 316.9,175.8 L319.8,172.2 L319.8,172.2 Z" id="Shape" fill="#0B0B0B" fill-rule="nonzero"></path>
            <path d="M532.7,400.5 C532.7,401.6 532.9,402.5 534.7,402.5 C535.2,402.5 536.2,402.4 536.7,402.3 L537,404.6 C537,404.6 535.5,404.8 534.2,404.8 C531.7,404.8 530.1,403.8 530.1,401.1 L530.1,390.8 L527.1,390.8 L527.1,388.5 L530.1,388.5 L530.1,383.3 L532.7,382.4 L532.7,388.5 L537.1,388.5 L537.1,390.8 L532.7,390.8 L532.7,400.5 L532.7,400.5 Z M542.5,397.3 C542.7,400.3 544.6,402.5 547.5,402.5 C549.3,402.5 550.6,401.8 551.7,400.9 L553,402.8 C551.6,404 549.7,404.8 547.3,404.8 C542.7,404.8 539.7,401.3 539.7,396.5 C539.7,391.6 542.5,388.2 547,388.2 C551.2,388.2 553.8,391.7 553.8,396.5 L553.8,397.3 L542.5,397.3 L542.5,397.3 Z M542.5,395.2 L550.9,395.2 C550.8,392.7 549.4,390.5 546.9,390.5 C544.3,390.5 542.6,392.8 542.5,395.2 Z M561.2,396.1 L556.3,388.5 L559.3,388.5 L562.7,394 L566,388.5 L569,388.5 L564.1,396.1 L569.6,404.5 L566.5,404.5 L562.5,398.3 L558.9,404.5 L555.8,404.5 L561.2,396.1 L561.2,396.1 Z M577,400.5 C577,401.6 577.2,402.5 579,402.5 C579.5,402.5 580.5,402.4 581,402.3 L581.3,404.6 C581.3,404.6 579.8,404.8 578.5,404.8 C576,404.8 574.4,403.8 574.4,401.1 L574.4,390.8 L571.4,390.8 L571.4,388.5 L574.4,388.5 L574.4,383.3 L577,382.4 L577,388.5 L581.4,388.5 L581.4,390.8 L577,390.8 L577,400.5 L577,400.5 Z M605.4,404.5 L602.8,404.5 L602.8,394.5 C602.8,391.7 601.4,390.7 599.6,390.7 C597.8,390.7 596.1,392 596.1,395.1 L596.1,404.5 L593.5,404.5 L593.5,388.5 L596.1,388.5 L596.1,390.3 C597.2,388.8 598.6,388.2 600.3,388.2 C601.7,388.2 603.8,388.9 604.6,390.9 C605.8,388.9 607.7,388.2 609.5,388.2 C613,388.2 614.9,390.7 614.9,393.5 L614.9,404.4 L612.3,404.4 L612.3,394.4 C612.3,391.6 610.8,390.6 609,390.6 C607.2,390.6 605.5,391.9 605.5,395 L605.5,404.5 L605.4,404.5 Z M621.6,397.3 C621.8,400.3 623.7,402.5 626.6,402.5 C628.4,402.5 629.7,401.8 630.8,400.9 L632.1,402.8 C630.7,404 628.8,404.8 626.4,404.8 C621.8,404.8 618.8,401.3 618.8,396.5 C618.8,391.6 621.6,388.2 626.1,388.2 C630.3,388.2 632.9,391.7 632.9,396.5 L632.9,397.3 L621.6,397.3 L621.6,397.3 Z M621.6,395.2 L630,395.2 C629.9,392.7 628.5,390.5 626,390.5 C623.4,390.5 621.7,392.8 621.6,395.2 Z M635.5,402.5 L637.1,400.6 C638.1,401.5 639.8,402.6 641.9,402.6 C643.7,402.6 645.1,401.8 645.1,400.2 C645.1,398.5 643.4,398.1 641.2,397.5 C638.9,396.9 636.2,396.1 636.2,392.8 C636.2,390.1 638.7,388.2 642,388.2 C644.1,388.2 646.4,389.1 647.5,390.2 L646,392 C645.1,391.1 643.7,390.5 642.1,390.5 C640,390.5 638.9,391.4 638.9,392.9 C638.9,394.1 639.8,394.6 641.2,395 C642,395.2 643,395.5 643.8,395.8 C645.9,396.5 647.7,397.6 647.7,400.2 C647.7,403.5 644.8,405 641.7,405 C639.6,404.8 637.3,404.1 635.5,402.5 L635.5,402.5 Z M650.5,402.5 L652.1,400.6 C653.1,401.5 654.8,402.6 656.9,402.6 C658.7,402.6 660.1,401.8 660.1,400.2 C660.1,398.5 658.4,398.1 656.2,397.5 C653.9,396.9 651.2,396.1 651.2,392.8 C651.2,390.1 653.7,388.2 657,388.2 C659.1,388.2 661.4,389.1 662.5,390.2 L661,392 C660.1,391.1 658.7,390.5 657.1,390.5 C655,390.5 653.9,391.4 653.9,392.9 C653.9,394.1 654.8,394.6 656.2,395 C657,395.2 658,395.5 658.8,395.8 C660.9,396.5 662.7,397.6 662.7,400.2 C662.7,403.5 659.8,405 656.7,405 C654.7,404.8 652.3,404.1 650.5,402.5 L650.5,402.5 Z M671.3,404.8 C668.1,404.8 665.7,402.9 665.7,400 C665.7,397.5 667.4,395.8 670,395.5 L675.6,394.7 L675.6,393.7 C675.6,391.3 674,390.5 672,390.5 C670.2,390.5 668.6,391.1 667.4,391.7 L666.4,389.6 C668.2,388.6 670.3,388.1 672.3,388.1 C676.2,388.1 678.2,389.8 678.2,393.2 L678.2,400.7 C678.2,401.8 678.6,402.5 679.5,402.9 L678,404.8 C677,404.5 676.2,403.8 675.9,402.9 C675,404 673.5,404.8 671.3,404.8 L671.3,404.8 Z M671.4,397.4 C669.6,397.7 668.5,398.2 668.5,399.9 C668.5,401.8 670,402.8 671.8,402.8 C673.8,402.8 675.7,401.6 675.7,399.7 L675.7,396.8 L671.4,397.4 Z M688.9,388.2 C690.6,388.2 692.3,388.8 693.4,390.3 L693.4,388.5 L696,388.5 L696,404.6 C696,408.6 692.5,409.7 689.2,409.7 C687.3,409.7 685.1,409.3 683.3,408.4 L684.2,406.2 C685.4,406.8 687.4,407.3 689.3,407.3 C692,407.3 693.5,406.3 693.5,403.8 L693.5,400.8 C692.4,402.3 690.7,402.9 689,402.9 C685,402.9 682.5,399.7 682.5,395.5 C682.5,391.4 685,388.2 688.9,388.2 L688.9,388.2 Z M693.5,395.6 C693.5,392.8 692.3,390.6 689.4,390.6 C686.5,390.6 685.2,392.8 685.2,395.6 L685.2,395.7 C685.2,398.5 686.5,400.7 689.4,400.7 C692.3,400.7 693.5,398.5 693.5,395.7 L693.5,395.6 Z M703,397.3 C703.2,400.3 705.1,402.5 708,402.5 C709.8,402.5 711.1,401.8 712.2,400.9 L713.5,402.8 C712.1,404 710.2,404.8 707.8,404.8 C703.2,404.8 700.2,401.3 700.2,396.5 C700.2,391.6 703,388.2 707.5,388.2 C711.7,388.2 714.3,391.7 714.3,396.5 L714.3,397.3 L703,397.3 L703,397.3 Z M703,395.2 L711.4,395.2 C711.3,392.7 709.9,390.5 707.4,390.5 C704.8,390.5 703.1,392.8 703,395.2 Z M716.9,402.5 L718.5,400.6 C719.5,401.5 721.2,402.6 723.3,402.6 C725.1,402.6 726.5,401.8 726.5,400.2 C726.5,398.5 724.8,398.1 722.6,397.5 C720.3,396.9 717.6,396.1 717.6,392.8 C717.6,390.1 720.1,388.2 723.4,388.2 C725.5,388.2 727.8,389.1 728.9,390.2 L727.4,392 C726.5,391.1 725.1,390.5 723.5,390.5 C721.4,390.5 720.3,391.4 720.3,392.9 C720.3,394.1 721.2,394.6 722.6,395 C723.4,395.2 724.4,395.5 725.2,395.8 C727.3,396.5 729.1,397.6 729.1,400.2 C729.1,403.5 726.2,405 723.1,405 C721,404.8 718.7,404.1 716.9,402.5 L716.9,402.5 Z M84.4,494.6 L84.4,491.9 C86.1,490.4 90.8,486.5 92.5,485 C94.3,483.4 95.9,481.4 95.9,478.8 C95.9,476 94.1,474.4 91.5,474.4 C88.7,474.4 87.3,476.3 87.1,479.1 L84.2,478.9 C84.3,474.5 87.2,472 91.5,472 C95.9,472 98.8,474.6 98.8,479 C98.8,482.3 97.1,484.4 92.1,488.7 L88,492.2 L99,492.2 L99,494.7 L84.4,494.7 L84.4,494.6 Z M113.8,494.6 L113.8,488.8 L102.6,488.8 L102.6,486 L112.7,472.1 L116.6,472.1 L116.6,486.4 L120.3,486.4 L120.3,488.7 L116.6,488.7 L116.6,494.5 L113.8,494.5 L113.8,494.6 Z M113.8,486.5 L113.8,474.5 L105.2,486.5 L113.8,486.5 Z M136,478.6 L139.2,478.6 L139.2,480.9 L136,480.9 L136,494.6 L133.4,494.6 L133.4,480.9 L130.7,480.9 L130.7,478.6 L133.4,478.6 L133.4,475.6 C133.4,472.8 135.3,471.9 137.8,471.9 C139.1,471.9 139.9,472.1 140.4,472.1 L140.2,474.3 C139.6,474.2 138.4,474.2 137.9,474.2 C136.4,474.2 136,475.1 136,476.1 L136,478.6 L136,478.6 Z M147.2,494.9 C144,494.9 141.6,493 141.6,490.1 C141.6,487.6 143.3,485.9 145.9,485.6 L151.5,484.8 L151.5,483.8 C151.5,481.4 149.9,480.6 147.9,480.6 C146.1,480.6 144.5,481.2 143.3,481.8 L142.3,479.7 C144.1,478.7 146.2,478.2 148.2,478.2 C152.1,478.2 154.1,479.9 154.1,483.3 L154.1,490.8 C154.1,491.9 154.5,492.6 155.4,493 L153.9,494.9 C152.9,494.6 152.1,493.9 151.8,493 C150.9,494.1 149.3,494.9 147.2,494.9 L147.2,494.9 Z M147.2,487.5 C145.4,487.8 144.3,488.3 144.3,490 C144.3,491.9 145.8,492.9 147.6,492.9 C149.6,492.9 151.5,491.7 151.5,489.8 L151.5,486.9 L147.2,487.5 Z M160.5,472.2 C161.6,472.2 162.4,473.1 162.4,474.2 C162.4,475.3 161.5,476.2 160.5,476.2 C159.4,476.2 158.5,475.3 158.5,474.2 C158.6,473.1 159.5,472.2 160.5,472.2 Z M161.8,494.6 L159.2,494.6 L159.2,478.6 L161.8,478.6 L161.8,494.6 Z M166.8,472.2 L169.4,472.2 L169.4,491 C169.4,492.1 169.7,492.6 170.9,492.6 C171.6,492.6 172.1,492.5 172.5,492.5 L172.8,494.7 C172.8,494.7 171.3,494.9 170.1,494.9 C168.2,494.9 166.7,494.1 166.7,491.8 L166.7,472.2 L166.8,472.2 Z M177.5,487.4 C177.7,490.4 179.6,492.6 182.5,492.6 C184.3,492.6 185.6,491.9 186.7,491 L188,492.9 C186.6,494.1 184.7,494.9 182.3,494.9 C177.7,494.9 174.7,491.4 174.7,486.6 C174.7,481.7 177.5,478.3 182,478.3 C186.2,478.3 188.8,481.8 188.8,486.6 L188.8,487.4 L177.5,487.4 L177.5,487.4 Z M177.5,485.3 L185.9,485.3 C185.8,482.8 184.4,480.6 181.9,480.6 C179.3,480.6 177.7,482.9 177.5,485.3 Z M203.3,492.8 C202.4,494.1 200.7,494.9 198.6,494.9 C194.5,494.9 191.8,491.4 191.8,486.6 C191.8,481.8 194.5,478.3 198.6,478.3 C200.6,478.3 202.3,479.1 203.3,480.4 L203.3,472.1 L205.9,472.1 L205.9,494.5 L203.3,494.5 L203.3,492.8 Z M194.6,486.7 C194.6,490 196.2,492.6 199.1,492.6 C201.9,492.6 203.3,490.6 203.3,487.9 L203.3,485.3 C203.3,482.6 201.9,480.6 199.1,480.6 C196.2,480.6 194.6,483.2 194.6,486.5 L194.6,486.7 L194.6,486.7 Z" id="Shape" fill="#FFFFFF" fill-rule="nonzero"></path>
            <path d="M275.4,561.4 C280,561.4 283.2,564 284.7,567.8 L281.8,568.8 C281.1,566.5 278.9,564 275.5,564 C270.3,564 267.9,568.7 267.9,573.9 L267.9,574.4 C267.9,579.5 270.3,584.3 275.5,584.3 C279,584.3 281.1,581.8 281.8,579.5 L284.7,580.5 C283.2,584.4 280.1,586.9 275.4,586.9 C268.7,586.9 264.6,581.3 264.6,574.2 C264.6,567 268.7,561.4 275.4,561.4 Z M304.5,577.7 C304.5,583 301.2,586.9 296.3,586.9 C291.4,586.9 288.1,583 288.1,577.7 C288.1,572.3 291.4,568.5 296.3,568.5 C301.2,568.5 304.5,572.3 304.5,577.7 Z M301.5,577.8 L301.5,577.6 C301.5,574.1 299.7,571 296.4,571 C293,571 291.3,574 291.3,577.6 L291.3,577.8 C291.3,581.3 293.1,584.3 296.4,584.3 C299.7,584.3 301.5,581.3 301.5,577.8 Z M322.4,586.5 L319.5,586.5 L319.5,575.4 C319.5,572.2 317.9,571.1 316,571.1 C314.1,571.1 312.1,572.6 312.1,576 L312.1,586.5 L309.2,586.5 L309.2,568.8 L312.1,568.8 L312.1,570.8 C313.3,569.2 314.9,568.4 316.7,568.4 C318.3,568.4 320.6,569.2 321.5,571.3 C322.8,569.1 324.9,568.4 326.9,568.4 C330.7,568.4 332.9,571.2 332.9,574.3 L332.9,586.4 L330,586.4 L330,575.3 C330,572.1 328.3,571 326.4,571 C324.4,571 322.5,572.5 322.5,575.9 L322.5,586.5 L322.4,586.5 Z M341.2,568.8 L341.2,570.8 C342.2,569.3 344.1,568.4 346.4,568.4 C351,568.4 353.9,572.3 353.9,577.6 C353.9,583 351,586.8 346.4,586.8 C344.1,586.8 342.3,585.9 341.2,584.4 L341.2,591.8 L338.3,591.8 L338.3,568.7 L341.2,568.7 L341.2,568.8 Z M350.9,577.6 C350.9,573.9 349.1,571.1 345.9,571.1 C342.8,571.1 341.2,573.3 341.2,576.3 L341.2,579.2 C341.2,582.1 342.8,584.4 345.9,584.4 C349.2,584.4 350.9,581.6 350.9,577.9 L350.9,577.6 L350.9,577.6 Z M363.4,586.9 C359.9,586.9 357.2,584.8 357.2,581.5 C357.2,578.7 359.1,576.9 361.9,576.5 L368.1,575.6 L368.1,574.5 C368.1,571.8 366.4,571 364.2,571 C362.2,571 360.5,571.6 359.1,572.4 L358,570.1 C360,569 362.3,568.5 364.5,568.5 C368.8,568.5 371.1,570.4 371.1,574.1 L371.1,582.4 C371.1,583.6 371.6,584.4 372.6,584.8 L371,586.9 C369.9,586.6 369,585.8 368.6,584.8 C367.6,585.9 365.8,586.9 363.4,586.9 Z M363.5,578.6 C361.5,578.9 360.3,579.5 360.3,581.3 C360.3,583.4 362,584.5 363.9,584.5 C366.1,584.5 368.3,583.1 368.3,581.1 L368.3,577.9 L363.5,578.6 L363.5,578.6 Z M385.8,571.4 L385.3,571.4 C382.3,571.4 379.6,572.6 379.6,577.4 L379.6,586.5 L376.7,586.5 L376.7,568.8 L379.6,568.8 L379.6,571.6 C380.5,569.5 382.6,568.5 384.9,568.5 L385.8,568.5 L385.8,571.4 L385.8,571.4 Z M391.1,578.6 C391.3,581.9 393.4,584.3 396.6,584.3 C398.6,584.3 400,583.6 401.2,582.6 L402.7,584.7 C401.1,586 399,586.9 396.4,586.9 C391.3,586.9 388,583 388,577.7 C388,572.3 391.2,568.5 396,568.5 C400.6,568.5 403.6,572.4 403.6,577.7 L403.6,578.6 L391.1,578.6 L391.1,578.6 Z M391.2,576.2 L400.6,576.2 C400.5,573.5 399,571 396.2,571 C393.2,571 391.3,573.5 391.2,576.2 Z M421.2,582.1 C421.2,583.3 421.4,584.3 423.5,584.3 C424,584.3 425.2,584.2 425.7,584.1 L426,586.7 C426,586.7 424.3,586.9 422.8,586.9 C420,586.9 418.3,585.8 418.3,582.8 L418.3,571.4 L415,571.4 L415,568.8 L418.3,568.8 L418.3,563 L421.2,562 L421.2,568.8 L426.1,568.8 L426.1,571.4 L421.2,571.4 L421.2,582.1 L421.2,582.1 Z M445.3,577.7 C445.3,583 442,586.9 437.1,586.9 C432.2,586.9 428.9,583 428.9,577.7 C428.9,572.3 432.2,568.5 437.1,568.5 C442.1,568.5 445.3,572.3 445.3,577.7 Z M442.3,577.8 L442.3,577.6 C442.3,574.1 440.5,571 437.2,571 C433.8,571 432.1,574 432.1,577.6 L432.1,577.8 C432.1,581.3 433.9,584.3 437.2,584.3 C440.6,584.3 442.3,581.3 442.3,577.8 Z M462.1,568.8 L462.1,570.8 C463.1,569.3 465,568.4 467.3,568.4 C471.9,568.4 474.8,572.3 474.8,577.6 C474.8,583 471.9,586.8 467.3,586.8 C465,586.8 463.2,585.9 462.1,584.4 L462.1,591.8 L459.2,591.8 L459.2,568.7 L462.1,568.7 L462.1,568.8 Z M471.8,577.6 C471.8,573.9 470,571.1 466.8,571.1 C463.7,571.1 462.1,573.3 462.1,576.3 L462.1,579.2 C462.1,582.1 463.7,584.4 466.8,584.4 C470.1,584.4 471.8,581.6 471.8,577.9 L471.8,577.6 L471.8,577.6 Z M488.5,571.4 L488,571.4 C485,571.4 482.3,572.6 482.3,577.4 L482.3,586.5 L479.4,586.5 L479.4,568.8 L482.3,568.8 L482.3,571.6 C483.2,569.5 485.3,568.5 487.6,568.5 L488.5,568.5 L488.5,571.4 L488.5,571.4 Z M493.8,578.6 C494,581.9 496.1,584.3 499.3,584.3 C501.3,584.3 502.7,583.6 503.9,582.6 L505.4,584.7 C503.8,586 501.7,586.9 499.1,586.9 C494,586.9 490.7,583 490.7,577.7 C490.7,572.3 493.9,568.5 498.7,568.5 C503.3,568.5 506.3,572.4 506.3,577.7 L506.3,578.6 L493.8,578.6 L493.8,578.6 Z M493.9,576.2 L503.3,576.2 C503.2,573.5 501.7,571 498.9,571 C495.9,571 494,573.5 493.9,576.2 Z M514.3,586.5 L508.7,568.8 L512,568.8 L516.3,583.8 L520.5,568.8 L523.8,568.8 L518.2,586.5 L514.3,586.5 L514.3,586.5 Z M529.2,561.7 C530.4,561.7 531.3,562.7 531.3,563.9 C531.3,565.1 530.3,566.1 529.2,566.1 C528,566.1 527,565.1 527,563.9 C527,562.7 528,561.7 529.2,561.7 Z M530.6,586.5 L527.7,586.5 L527.7,568.8 L530.6,568.8 L530.6,586.5 Z M551.5,577.7 C551.5,583 548.2,586.9 543.3,586.9 C538.4,586.9 535.1,583 535.1,577.7 C535.1,572.3 538.4,568.5 543.3,568.5 C548.2,568.5 551.5,572.3 551.5,577.7 Z M548.5,577.8 L548.5,577.6 C548.5,574.1 546.7,571 543.4,571 C540,571 538.3,574 538.3,577.6 L538.3,577.8 C538.3,581.3 540.1,584.3 543.4,584.3 C546.7,584.3 548.5,581.3 548.5,577.8 Z M570,586.5 L567.1,586.5 L567.1,584.5 C565.9,586.1 564.1,586.9 561.9,586.9 C558,586.9 556,584.1 556,580.9 L556,568.9 L558.9,568.9 L558.9,580 C558.9,583.1 560.5,584.3 562.6,584.3 C565,584.3 567.1,582.7 567.1,579.4 L567.1,568.9 L570,568.9 L570,586.5 Z M574.1,584.3 L575.9,582.2 C577,583.2 578.9,584.4 581.3,584.4 C583.3,584.4 584.8,583.5 584.8,581.7 C584.8,579.8 582.9,579.4 580.5,578.7 C578,578 575,577.2 575,573.5 C575,570.5 577.7,568.4 581.5,568.4 C583.8,568.4 586.4,569.4 587.6,570.6 L585.9,572.6 C584.9,571.6 583.3,570.9 581.5,570.9 C579.2,570.9 578,571.9 578,573.5 C578,574.8 579,575.4 580.6,575.8 C581.5,576 582.6,576.4 583.5,576.7 C585.9,577.4 587.8,578.7 587.8,581.5 C587.8,585.2 584.6,586.8 581.1,586.8 C578.7,586.9 576.1,586 574.1,584.3 L574.1,584.3 Z M616.9,583.1 L620.1,568.8 L623.2,568.8 L618.9,586.5 L615.2,586.5 L611.6,572.3 L607.9,586.5 L604.3,586.5 L600,568.8 L603.1,568.8 L606.2,583.1 L609.9,568.8 L613.2,568.8 L616.9,583.1 L616.9,583.1 Z M629.1,578.6 C629.3,581.9 631.4,584.3 634.6,584.3 C636.6,584.3 638,583.6 639.2,582.6 L640.7,584.7 C639.1,586 637,586.9 634.4,586.9 C629.3,586.9 626,583 626,577.7 C626,572.3 629.2,568.5 634,568.5 C638.6,568.5 641.6,572.4 641.6,577.7 L641.6,578.6 L629.1,578.6 L629.1,578.6 Z M629.1,576.2 L638.5,576.2 C638.4,573.5 636.9,571 634.1,571 C631.1,571 629.3,573.5 629.1,576.2 Z M648,578.6 C648.2,581.9 650.3,584.3 653.5,584.3 C655.5,584.3 656.9,583.6 658.1,582.6 L659.6,584.7 C658,586 655.9,586.9 653.3,586.9 C648.2,586.9 644.9,583 644.9,577.7 C644.9,572.3 648.1,568.5 652.9,568.5 C657.5,568.5 660.5,572.4 660.5,577.7 L660.5,578.6 L648,578.6 Z M648.1,576.2 L657.5,576.2 C657.4,573.5 655.9,571 653.1,571 C650.1,571 648.2,573.5 648.1,576.2 Z M667.9,577.5 L676.2,568.8 L679.9,568.8 L673.2,575.8 L680.3,586.5 L676.8,586.5 L671.2,577.8 L668,581.1 L668,586.6 L665,586.6 L665,561.8 L667.9,561.8 L667.9,577.5 L667.9,577.5 Z M682.2,584.3 L684,582.2 C685.1,583.2 687,584.4 689.4,584.4 C691.4,584.4 692.9,583.5 692.9,581.7 C692.9,579.8 691,579.4 688.6,578.7 C686.1,578 683.1,577.2 683.1,573.5 C683.1,570.5 685.8,568.4 689.6,568.4 C691.9,568.4 694.5,569.4 695.7,570.6 L694,572.6 C693,571.6 691.4,570.9 689.6,570.9 C687.3,570.9 686.1,571.9 686.1,573.5 C686.1,574.8 687.1,575.4 688.7,575.8 C689.6,576 690.7,576.4 691.6,576.7 C694,577.4 695.9,578.7 695.9,581.5 C695.9,585.2 692.7,586.8 689.2,586.8 C686.7,586.9 684.1,586 682.2,584.3 L682.2,584.3 Z" id="Shape" fill="#005EA5" fill-rule="nonzero"></path>
            <path d="M543.9,482.8 C543.9,488.9 541.5,495 535,495 C531.8,495 529.6,493.6 528.3,491.4 L531.1,490.5 C532.1,492 533.3,492.6 535,492.6 C539.2,492.6 541,488.2 541.1,483.7 L541,483.7 C540,485.3 538.1,486.9 535.1,486.9 C530.8,486.9 527.8,483.8 527.8,479.6 C527.8,475.3 531,472 535.5,472 C540.2,472 543.9,475.6 543.9,482.3 L543.9,482.8 Z M535.7,474.2 C532.9,474.2 530.7,476.2 530.7,479.3 C530.7,482.4 532.8,484.5 535.7,484.5 C538.6,484.5 540.7,482.5 540.7,479.4 C540.7,476.4 538.6,474.2 535.7,474.2 Z M548.2,494.6 L548.2,491.9 C549.9,490.4 554.6,486.5 556.3,485 C558.1,483.4 559.7,481.4 559.7,478.8 C559.7,476 557.9,474.4 555.3,474.4 C552.5,474.4 551.1,476.3 550.9,479.1 L548,478.9 C548.1,474.5 551,472 555.3,472 C559.7,472 562.6,474.6 562.6,479 C562.6,482.3 560.9,484.4 555.9,488.7 L551.8,492.2 L562.8,492.2 L562.8,494.7 L548.2,494.7 L548.2,494.6 Z M579.3,478.6 L582.5,478.6 L582.5,480.9 L579.3,480.9 L579.3,494.6 L576.7,494.6 L576.7,480.9 L574,480.9 L574,478.6 L576.7,478.6 L576.7,475.6 C576.7,472.8 578.6,471.9 581.1,471.9 C582.4,471.9 583.2,472.1 583.7,472.1 L583.5,474.3 C582.9,474.2 581.7,474.2 581.2,474.2 C579.7,474.2 579.3,475.1 579.3,476.1 L579.3,478.6 L579.3,478.6 Z M590.4,494.9 C587.2,494.9 584.8,493 584.8,490.1 C584.8,487.6 586.5,485.9 589.1,485.6 L594.7,484.8 L594.7,483.8 C594.7,481.4 593.1,480.6 591.1,480.6 C589.3,480.6 587.7,481.2 586.5,481.8 L585.5,479.7 C587.3,478.7 589.4,478.2 591.4,478.2 C595.3,478.2 597.3,479.9 597.3,483.3 L597.3,490.8 C597.3,491.9 597.7,492.6 598.6,493 L597.1,494.9 C596.1,494.6 595.3,493.9 595,493 C594.1,494.1 592.6,494.9 590.4,494.9 L590.4,494.9 Z M590.5,487.5 C588.7,487.8 587.6,488.3 587.6,490 C587.6,491.9 589.1,492.9 590.9,492.9 C592.9,492.9 594.8,491.7 594.8,489.8 L594.8,486.9 L590.5,487.5 Z M603.8,472.2 C604.9,472.2 605.7,473.1 605.7,474.2 C605.7,475.3 604.8,476.2 603.8,476.2 C602.7,476.2 601.8,475.3 601.8,474.2 C601.9,473.1 602.7,472.2 603.8,472.2 Z M605.1,494.6 L602.5,494.6 L602.5,478.6 L605.1,478.6 L605.1,494.6 Z M610.1,472.2 L612.7,472.2 L612.7,491 C612.7,492.1 613,492.6 614.2,492.6 C614.9,492.6 615.4,492.5 615.8,492.5 L616.1,494.7 C616.1,494.7 614.6,494.9 613.4,494.9 C611.5,494.9 610,494.1 610,491.8 L610,472.2 L610.1,472.2 Z M620.8,487.4 C621,490.4 622.9,492.6 625.8,492.6 C627.6,492.6 628.9,491.9 630,491 L631.3,492.9 C629.9,494.1 628,494.9 625.6,494.9 C621,494.9 618,491.4 618,486.6 C618,481.7 620.8,478.3 625.3,478.3 C629.5,478.3 632.1,481.8 632.1,486.6 L632.1,487.4 L620.8,487.4 L620.8,487.4 Z M620.8,485.3 L629.2,485.3 C629.1,482.8 627.7,480.6 625.2,480.6 C622.6,480.6 620.9,482.9 620.8,485.3 Z M646.6,492.8 C645.7,494.1 644,494.9 641.9,494.9 C637.8,494.9 635.1,491.4 635.1,486.6 C635.1,481.8 637.8,478.3 641.9,478.3 C643.9,478.3 645.6,479.1 646.6,480.4 L646.6,472.1 L649.2,472.1 L649.2,494.5 L646.6,494.5 L646.6,492.8 Z M637.9,486.7 C637.9,490 639.5,492.6 642.4,492.6 C645.2,492.6 646.6,490.6 646.6,487.9 L646.6,485.3 C646.6,482.6 645.2,480.6 642.4,480.6 C639.5,480.6 637.9,483.2 637.9,486.5 L637.9,486.7 L637.9,486.7 Z" id="Shape" fill="#FFFFFF" fill-rule="nonzero"></path>
            <path d="M251,576.6 L53.1,576.6 M906.9,576.6 L709,576.6" id="Shape" stroke="#8C8C8C"></path>
            <polygon id="Path" fill="#DADADA" fill-rule="nonzero" points="0 636 960 636 960 640 0 640"></polygon>
            <polygon id="Path" fill="#DADADA" fill-rule="nonzero" points="4 640 4 40 956 40 956 640 960 640 960 36 0 36 0 640"></polygon>
        </g>
    </g>
</svg>