<svg width="960" height="600" viewBox="0 0 960 600" fill="none" xmlns="http://www.w3.org/2000/svg">
<g clip-path="url(#clip0_123_291)">
<path d="M1 3.97339H959V598.013H1V3.97339Z" fill="#0B0B0B"/>
<path d="M1 3.97339H150.5V596.026H1V3.97339Z" fill="#1E1E1E"/>
<path d="M0 3.97362V-25.8277C0 -31.2913 4.5 -35.7615 10 -35.7615H950C955.5 -35.7615 960 -31.2913 960 -25.8277V3.97362" fill="#DADADA"/>
<path d="M205.1 63.6755H214.8V83.4437H223.1V85.8278H204V83.4437H212.3V65.9602H205.2V63.6755H205.1ZM213.5 55.3311C214.9 55.3311 216.1 56.4238 216.1 57.9139C216.1 59.3046 215 60.3973 213.5 60.3973C212.1 60.3973 211 59.3046 211 57.9139C211 56.5232 212.1 55.3311 213.5 55.3311ZM251.4 59.5033C250.2 57.8146 247.8 57.1192 245.9 57.1192C242.5 57.1192 241.1 59.3046 241.1 61.49V63.6755H249.4V66.0596H241V85.8278H238.4V66.0596H232V63.6755H238.5V61.5894C238.5 58.0132 240.7 54.6357 245.9 54.6357C248.6 54.6357 251.8 55.7285 253.6 58.1126L251.4 59.5033Z" fill="#FFEE7D"/>
<path d="M288.2 85.8277V63.6754H290.8V68.543H291.2C292.9 65.4635 295.8 63.2781 299.4 63.2781C306.5 63.2781 306.5 68.841 306.5 69.735V70.4304H303.9V70.2317C303.9 69.735 303.9 65.7615 299.1 65.7615C295.3 65.7615 290.8 69.6357 290.8 76.2913V85.9271H288.2V85.8277ZM315.3 74.7019C315.3 67.8476 320.1 63.1787 325.8 63.1787C331.6 63.1787 335.8 67.8476 335.8 74.7019V75.3973H318.1C318.2 80.3642 321.9 83.7417 326.2 83.7417C329.4 83.7417 331.7 81.8542 333 78.7748L335.3 79.8675C333.6 83.841 330 86.2251 325.8 86.2251C320.1 86.1258 315.3 81.5562 315.3 74.7019ZM318.1 73.1125H333.1C332.6 68.6423 329.7 65.6622 325.8 65.6622C321.8 65.6622 318.6 68.6423 318.1 73.1125ZM344.2 85.8277H341.6V63.6754H344.2V66.8542H344.8C346.2 64.4701 347.4 63.1787 349.5 63.1787C352.6 63.1787 353.9 65.0662 354.6 66.8542H355.3C356.7 64.5695 358.2 63.1787 360.3 63.1787C365.8 63.1787 365.8 68.245 365.8 69.0397V85.7284H363.2V69.3377C363.2 68.7417 363.2 65.5628 360.1 65.5628C357.6 65.5628 355 69.2383 355 72.9138V85.6291H352.4V69.2383C352.4 68.6423 352.4 65.4635 349.3 65.4635C346.8 65.4635 344.2 69.139 344.2 72.8145V85.8277ZM374.1 63.6754H383.8V83.4436H392.1V85.8277H373V83.4436H381.3V65.9602H374.2V63.6754H374.1ZM382.5 55.3311C383.9 55.3311 385.1 56.4238 385.1 57.9138C385.1 59.3046 384 60.3973 382.5 60.3973C381.1 60.3973 380 59.3046 380 57.9138C380 56.5231 381.1 55.3311 382.5 55.3311ZM400.9 85.8277V63.6754H403.5V68.543H403.9C405.6 65.4635 408.5 63.2781 412.1 63.2781C419.2 63.2781 419.2 68.841 419.2 69.735V85.9271H416.6V70.2317C416.6 69.735 416.6 65.7615 411.8 65.7615C408 65.7615 403.5 69.6357 403.5 76.2913V85.9271H400.9V85.8277ZM447.9 85.8277H445.3V81.9536H445C443 84.735 440.4 86.2251 437.5 86.2251C431.9 86.2251 427.5 81.0595 427.5 74.8013C427.5 68.4436 431.9 63.2781 437.5 63.2781C440.4 63.2781 443 64.9668 445 67.7483H445.3V55.6291H447.9V85.8277ZM445.3 74.7019C445.3 69.3377 442.5 65.6622 437.7 65.6622C433.5 65.6622 430.2 69.6357 430.2 74.7019C430.2 79.7681 433.5 83.7417 437.7 83.7417C442.4 83.7417 445.2 80.1655 445.3 75.0993V74.7019ZM456.1 74.7019C456.1 67.8476 460.9 63.1787 466.6 63.1787C472.4 63.1787 476.6 67.8476 476.6 74.7019V75.3973H458.9C459 80.3642 462.7 83.7417 467 83.7417C470.2 83.7417 472.5 81.8542 473.8 78.7748L476.1 79.8675C474.4 83.841 470.8 86.2251 466.6 86.2251C460.9 86.1258 456.1 81.5562 456.1 74.7019ZM458.9 73.1125H473.9C473.4 68.6423 470.5 65.6622 466.6 65.6622C462.6 65.6622 459.4 68.6423 458.9 73.1125ZM485.3 85.8277V63.6754H487.9V68.543H488.3C490 65.4635 492.9 63.2781 496.5 63.2781C503.6 63.2781 503.6 68.841 503.6 69.735V70.4304H501V70.2317C501 69.735 501 65.7615 496.2 65.7615C492.4 65.7615 487.9 69.6357 487.9 76.2913V85.9271H485.3V85.8277ZM513.7 85.8277H531.7V88.2119H513.7V85.8277ZM560.5 85.8277H557.9V81.9536H557.6C555.6 84.735 553 86.2251 550.1 86.2251C544.5 86.2251 540.1 81.0595 540.1 74.8013C540.1 68.4436 544.5 63.2781 550.1 63.2781C553 63.2781 555.6 64.9668 557.6 67.7483H557.9V55.6291H560.5V85.8277ZM557.9 74.7019C557.9 69.3377 555.1 65.6622 550.3 65.6622C546.1 65.6622 542.8 69.6357 542.8 74.7019C542.8 79.7681 546.1 83.7417 550.3 83.7417C555 83.7417 557.8 80.1655 557.9 75.0993V74.7019ZM588.1 63.6754V85.8277H585.5V80.8609H585.1C583.4 83.9403 580.5 86.2251 576.9 86.2251C569.8 86.2251 569.8 80.6622 569.8 79.7681V63.6754H572.4V79.2715C572.4 79.7681 572.4 83.7417 577.2 83.7417C581 83.7417 585.5 79.8675 585.5 73.2118V63.6754H588.1ZM596.9 74.7019C596.9 67.8476 601.7 63.1787 607.4 63.1787C613.2 63.1787 617.4 67.8476 617.4 74.7019V75.3973H599.7C599.8 80.3642 603.5 83.7417 607.8 83.7417C611 83.7417 613.3 81.8542 614.6 78.7748L616.9 79.8675C615.2 83.841 611.6 86.2251 607.4 86.2251C601.7 86.1258 596.9 81.5562 596.9 74.7019ZM599.7 73.1125H614.7C614.2 68.6423 611.3 65.6622 607.4 65.6622C603.4 65.6622 600.2 68.6423 599.7 73.1125Z" fill="#F8F8F8"/>
<path d="M665.7 86.5232C665.7 88.212 665.7 89.5034 666.8 89.5034H668.3V91.9868H666.8C664 91.9868 663.1 89.106 663.1 85.6292V77.9802C663.1 75.6954 661.4 74.404 659.8 73.7087V70.9272C661.6 70.3312 663.1 69.2385 663.1 66.6557V58.6093C663.1 54.7352 663.9 53.1458 666.8 53.1458H668.3V55.6292H666.8C665.7 55.6292 665.7 57.1193 665.7 59.6027V67.2517C665.7 70.1325 664.5 71.7219 663 72.4173C664.4 73.212 665.7 74.702 665.7 77.4835V86.5232Z" fill="#FFEE7D"/>
<path d="M316.4 233.841V211.689H319V216.556H319.4C321.1 213.477 324 211.291 327.6 211.291C334.7 211.291 334.7 216.854 334.7 217.748V233.94H332V218.245C332 217.748 332 213.775 327.2 213.775C323.4 213.775 318.9 217.649 318.9 224.305V233.94H316.4V233.841ZM353.7 211.192C359.4 211.192 364.1 215.861 364.1 222.715C364.1 229.569 359.3 234.139 353.7 234.139C347.9 234.139 343.2 229.47 343.2 222.715C343.2 215.861 348 211.192 353.7 211.192ZM353.7 231.755C358 231.755 361.5 228.079 361.5 222.715C361.5 217.351 358 213.675 353.7 213.675C349.4 213.675 345.9 217.351 345.9 222.715C345.9 228.079 349.4 231.755 353.7 231.755ZM380 227.285C380 229.47 381.5 231.656 384.9 231.656C386.8 231.656 389.1 230.861 390.2 228.775L392.5 229.867C390.8 232.848 387.6 234.04 384.9 234.04C379.7 234.04 377.4 230.563 377.4 227.086V213.973H371.1V211.589H377.4V203.642H380V211.689H390.9V214.073H380V227.285ZM402.3 211.689H412V231.457H420.3V233.841H401.2V231.457H409.5V213.973H402.4V211.689H402.3ZM410.7 203.344C412.1 203.344 413.3 204.437 413.3 205.927C413.3 207.318 412.2 208.411 410.7 208.411C409.2 208.411 408.2 207.318 408.2 205.927C408.2 204.536 409.3 203.344 410.7 203.344ZM448.6 207.516C447.4 205.828 445 205.132 443.1 205.132C439.7 205.132 438.3 207.318 438.3 209.503V211.689H446.6V214.073H438.3V233.841H435.7V214.073H429.2V211.689H435.7V209.603C435.7 206.026 437.9 202.649 443.1 202.649C445.8 202.649 449 203.742 450.8 206.126L448.6 207.516ZM453.1 238.411C454.6 240.298 456.4 241.192 458.1 241.192C460.3 241.192 461.6 240.199 462.1 238.907L464.3 232.947L454.8 211.689H457.7L465.5 228.874H465.8L472.4 211.689H475.3L464.5 239.702C463.6 241.987 461.6 243.675 458.1 243.675C455.6 243.675 453 242.583 451 240L453.1 238.411ZM491.8 231.457C491.8 229.967 493 228.775 494.5 228.775C496.1 228.775 497.3 229.967 497.3 231.457C497.3 233.046 496.1 234.238 494.5 234.238C493 234.139 491.8 233.046 491.8 231.457ZM515.1 226.689C515.1 226.689 515.6 228.477 517 229.569C518.2 230.563 520.1 231.556 523.2 231.556C526.2 231.556 528 230.761 529 229.768C530 228.775 530.3 227.781 530.3 227.185C530.3 223.907 525.8 224.007 522.7 223.609C519.6 223.212 516.1 222.814 514.6 220.828C513.7 219.735 513.4 218.642 513.4 217.848C513.4 217.252 513.5 215.662 514.8 214.073C515.9 212.583 518.2 211.192 522.4 211.192C526.9 211.192 529.2 212.98 530.5 214.768C531.6 216.457 531.7 218.245 531.7 218.245H529.1C529.1 218.245 529.1 216.954 528.3 215.861C527.5 214.768 525.9 213.675 522.7 213.675C519.5 213.675 518 214.47 517.2 215.463C516.4 216.358 516.3 217.252 516.3 217.649C516.3 220.232 519.5 220.828 523.6 221.225C528.9 221.821 530.4 222.02 531.9 223.51C532.8 224.404 533.3 225.695 533.3 227.185C533.3 228.079 532.9 229.768 531.5 231.159C530.2 232.649 527.8 234.04 523.7 234.04C519.5 234.04 516.9 232.649 515.3 231.06C513.3 229.172 512.7 226.589 512.7 226.589H515.1V226.689ZM540.6 222.715C540.6 215.861 545.4 211.192 551.1 211.192C556.9 211.192 561.1 215.861 561.1 222.715V223.411H543.4C543.5 228.377 547.2 231.755 551.5 231.755C554.7 231.755 557 229.867 558.3 226.788L560.6 227.881C558.9 231.854 555.3 234.238 551.1 234.238C545.3 234.139 540.6 229.569 540.6 222.715ZM543.4 221.126H558.4C557.9 216.656 555 213.675 551.1 213.675C547.1 213.675 543.9 216.656 543.4 221.126ZM569.8 233.841V211.689H572.4V216.556H572.8C574.5 213.477 577.4 211.291 581 211.291C588.1 211.291 588.1 216.854 588.1 217.748V233.94H585.5V218.245C585.5 217.748 585.5 213.775 580.7 213.775C576.9 213.775 572.4 217.649 572.4 224.305V233.94H569.8V233.841ZM616.9 233.841H614.3V229.967H614C612 232.748 609.4 234.238 606.5 234.238C600.9 234.238 596.5 229.073 596.5 222.814C596.5 216.457 600.9 211.291 606.5 211.291C609.4 211.291 612 212.98 614 215.762H614.3V203.642H616.9V233.841ZM614.3 222.715C614.3 217.351 611.5 213.675 606.7 213.675C602.5 213.675 599.2 217.649 599.2 222.715C599.2 227.781 602.5 231.755 606.7 231.755C611.4 231.755 614.2 228.179 614.3 223.113V222.715ZM626.3 233.841H644.3V236.225H626.3V233.841ZM653.2 222.715C653.2 215.861 658 211.192 663.7 211.192C669.5 211.192 673.7 215.861 673.7 222.715V223.411H656C656.1 228.377 659.8 231.755 664.1 231.755C667.3 231.755 669.6 229.867 670.9 226.788L673.2 227.881C671.5 231.854 667.9 234.238 663.7 234.238C658 234.139 653.2 229.569 653.2 222.715ZM656 221.126H671C670.5 216.656 667.6 213.675 663.7 213.675C659.8 213.675 656.5 216.656 656 221.126ZM682.1 233.841H679.5V211.689H682.1V214.867H682.7C684.1 212.483 685.3 211.192 687.4 211.192C690.5 211.192 691.8 213.079 692.5 214.867H693.2C694.6 212.583 696.1 211.192 698.2 211.192C703.7 211.192 703.7 216.258 703.7 217.053V233.742H701.1V217.351C701.1 216.755 701.1 213.576 698 213.576C695.5 213.576 692.9 217.252 692.9 220.927V233.642H690.3V217.252C690.3 216.656 690.3 213.477 687.2 213.477C684.7 213.477 682.1 217.152 682.1 220.828V233.841ZM710 217.947C710 217.947 710.1 211.291 719.1 211.291C726.3 211.291 726.7 215.662 726.7 217.848V229.371C726.7 230.066 726.9 231.954 729.1 231.954C730.6 231.954 731.3 230.662 731.3 230.662L733.5 231.755C733.5 231.755 732.1 234.139 729.1 234.139C726.1 234.139 725 232.351 724.7 230.861H724.3C721.7 233.742 718.2 234.139 717.1 234.139C715.6 234.139 709 234.04 708.9 227.185C708.9 223.013 713.2 221.126 716.6 220.43L724.1 218.841V217.748C724.1 216.358 723.8 213.576 719 213.576C712.7 213.576 712.6 217.848 712.6 217.848H710V217.947ZM724.2 221.324L717.6 222.715C714.3 223.411 711.5 224.503 711.5 227.185C711.5 231.358 716.1 231.656 717 231.656C720.3 231.656 724.1 229.172 724.1 226.192V221.324H724.2ZM740.2 211.689H749.9V231.457H758.2V233.841H739V231.457H747.3V213.973H740.2V211.689ZM748.6 203.344C750 203.344 751.2 204.437 751.2 205.927C751.2 207.318 750.1 208.411 748.6 208.411C747.1 208.411 746.1 207.318 746.1 205.927C746.1 204.536 747.2 203.344 748.6 203.344ZM768.3 203.642H778V231.457H786.3V233.841H767.2V231.457H775.5V206.026H768.4V203.642H768.3Z" fill="#F8F8F8"/>
<path d="M808.6 240.199C806.6 237.417 801.7 229.967 801.7 220.828V220.728C801.7 211.49 806.7 203.742 808.6 201.06H811C811 201.06 804.5 209.702 804.4 220.728V220.828C804.4 231.656 810.9 240.199 810.9 240.199H808.6Z" fill="#FFEE7D"/>
<path d="M379.7 280.033C379.7 281.821 379.1 284.106 378.5 286.192C377.9 288.278 377.3 289.967 377.3 289.967H376.8C376.8 289.967 376.2 288.278 375.6 286.192C375 284.106 374.4 281.821 374.4 280.033C374.4 278.543 375.7 277.351 377.1 277.351C378.5 277.351 379.7 278.543 379.7 280.033ZM389.4 280.033C389.4 281.821 388.8 284.106 388.2 286.192C387.6 288.278 387 289.967 387 289.967H386.5C386.5 289.967 385.9 288.278 385.3 286.192C384.7 284.106 384.1 281.821 384.1 280.033C384.1 278.543 385.4 277.351 386.8 277.351C388.1 277.351 389.4 278.543 389.4 280.033ZM402.1 311.722C403.2 313.808 405.5 314.603 407.4 314.603C410.8 314.603 412.3 312.417 412.3 310.232V288.08H404.5V285.695H414.9V310.133C414.9 313.709 412.7 317.086 407.4 317.086C404.7 317.086 401.5 315.894 399.8 312.914L402.1 311.722ZM413.7 277.351C415.1 277.351 416.3 278.444 416.3 279.934C416.3 281.325 415.2 282.417 413.7 282.417C412.3 282.417 411.2 281.325 411.2 279.934C411.2 278.543 412.2 277.351 413.7 277.351ZM438.2 285.199C443.9 285.199 448.6 289.868 448.6 296.722C448.6 303.576 443.8 308.146 438.2 308.146C432.4 308.146 427.7 303.477 427.7 296.722C427.7 289.967 432.4 285.199 438.2 285.199ZM438.2 305.762C442.5 305.762 446 302.086 446 296.722C446 291.358 442.5 287.682 438.2 287.682C433.9 287.682 430.4 291.358 430.4 296.722C430.4 302.086 433.9 305.762 438.2 305.762ZM458.8 300.695C458.8 300.695 459.3 302.483 460.7 303.576C461.9 304.57 463.8 305.563 466.9 305.563C469.9 305.563 471.7 304.768 472.7 303.775C473.7 302.781 474 301.788 474 301.192C474 297.914 469.5 298.013 466.4 297.616C463.3 297.219 459.8 296.821 458.3 294.834C457.4 293.742 457.1 292.649 457.1 291.854C457.1 291.258 457.2 289.669 458.5 288.08C459.6 286.589 461.9 285.199 466.1 285.199C470.6 285.199 472.9 286.987 474.2 288.775C475.3 290.464 475.4 292.252 475.4 292.252H472.8C472.8 292.252 472.8 290.96 472 289.868C471.2 288.775 469.6 287.682 466.4 287.682C463.2 287.682 461.7 288.477 460.9 289.47C460.1 290.364 460 291.258 460 291.656C460 294.238 463.2 294.834 467.3 295.232C472.6 295.828 474.1 296.027 475.6 297.517C476.5 298.411 477 299.702 477 301.192C477 302.086 476.6 303.775 475.2 305.166C473.9 306.656 471.5 308.046 467.4 308.046C463.2 308.046 460.6 306.656 459 305.066C457 303.179 456.4 300.596 456.4 300.596H458.8V300.695ZM485.3 307.848V277.649H487.9V290.464H488.3C490 287.384 492.9 285.199 496.5 285.199C503.6 285.199 503.6 290.762 503.6 291.656V307.848H501V292.152C501 291.656 501 287.682 496.2 287.682C492.4 287.682 487.9 291.556 487.9 298.212V307.848H485.3ZM532.1 306.06C530.3 307.848 528 309.735 522.4 309.735C519.4 309.735 516.5 308.543 514.2 306.457C511.1 303.576 511.1 300.695 511.1 293.543C511.1 286.291 511.1 283.51 514.2 280.53C516.4 278.444 519.4 277.252 522.4 277.252C525.6 277.252 528.5 278.444 530.8 280.53C533.9 283.411 533.9 286.291 533.9 293.543V301.391H530.2C528.6 301.391 526.9 300.795 526.5 299.305C525.3 301.093 523.4 301.589 521.5 301.589C520.6 301.589 516.1 301.391 516.1 296.623C516.1 293.642 518.8 292.649 521.5 291.854L525.9 290.762V290.265C525.9 289.47 525.6 287.881 522.9 287.881C519.3 287.881 519.2 290.364 519.2 290.364H516.8C516.8 290.364 516.8 285.596 522.9 285.596C527.8 285.596 528.2 288.874 528.2 290.464V297.715C528.2 298.808 528.8 299.106 529.8 299.106H531.4V293.642C531.4 287.185 531.4 284.702 529.1 282.417C527.4 280.729 524.9 279.834 522.5 279.834C520.1 279.834 517.7 280.729 515.9 282.417C513.6 284.702 513.6 287.185 513.6 293.642C513.6 299.901 513.6 302.384 515.9 304.768C517.6 306.457 520.1 307.351 522.5 307.351C527.1 307.351 528.8 305.762 530.4 304.272L532.1 306.06ZM522 293.94C520 294.437 518.4 295.033 518.4 296.623C518.4 299.205 521 299.305 521.6 299.305C522.7 299.305 525.9 298.609 525.9 295.629V292.947L522 293.94ZM540.6 296.722C540.6 289.868 545.4 285.199 551.1 285.199C556.9 285.199 561.1 289.868 561.1 296.722V297.417H543.4C543.5 302.384 547.2 305.762 551.5 305.762C554.7 305.762 557 303.874 558.3 300.795L560.6 301.887C558.9 305.861 555.3 308.245 551.1 308.245C545.3 308.146 540.6 303.576 540.6 296.722ZM543.4 295.133H558.4C557.9 290.662 555 287.682 551.1 287.682C547.1 287.682 543.9 290.662 543.4 295.133ZM579.1 298.311L572.4 307.848H569.2L577.3 296.523V296.027L569.7 285.695H572.9L579 294.338H579.1L585.2 285.695H588.4L580.8 296.027V296.523L588.9 307.848H585.7L579.1 298.311ZM597.4 291.954C597.4 291.954 597.5 285.298 606.5 285.298C613.7 285.298 614.1 289.669 614.1 291.854V303.378C614.1 304.073 614.3 305.96 616.5 305.96C618 305.96 618.7 304.669 618.7 304.669L620.9 305.762C620.9 305.762 619.5 308.146 616.5 308.146C613.5 308.146 612.4 306.358 612.1 304.868H611.7C609.1 307.748 605.6 308.146 604.5 308.146C603 308.146 596.4 308.046 596.3 301.192C596.3 297.02 600.6 295.132 604 294.437L611.5 292.848V291.755C611.5 290.364 611.2 287.583 606.4 287.583C600.1 287.583 600 291.854 600 291.854H597.4V291.954ZM611.6 295.331L605 296.722C601.7 297.417 598.9 298.51 598.9 301.192C598.9 305.364 603.5 305.662 604.4 305.662C607.7 305.662 611.5 303.179 611.5 300.199V295.331H611.6ZM625.8 307.848H623.2V285.695H625.8V288.874H626.4C627.8 286.49 629 285.199 631.1 285.199C634.2 285.199 635.5 287.086 636.2 288.874H636.9C638.3 286.589 639.8 285.199 641.9 285.199C647.4 285.199 647.4 290.265 647.4 291.06V307.748H644.8V291.358C644.8 290.762 644.8 287.583 641.7 287.583C639.2 287.583 636.6 291.258 636.6 294.934V307.649H634V291.258C634 290.662 634 287.483 630.9 287.483C628.4 287.483 625.8 291.159 625.8 294.834V307.848ZM653.7 285.695H656.3V289.768H656.6C658.6 286.987 661.2 285.298 664.1 285.298C669.7 285.298 674.1 290.464 674.1 296.821C674.1 303.08 669.7 308.245 664.1 308.245C661.2 308.245 658.6 306.755 656.6 303.974H656.3V315.993H653.7V285.695ZM656.3 297.119C656.4 302.185 659.2 305.762 663.9 305.762C668.1 305.762 671.4 301.788 671.4 296.722C671.4 291.656 668.1 287.682 663.9 287.682C659.1 287.682 656.3 291.358 656.3 296.722V297.119ZM683.9 277.649H693.6V305.464H701.9V307.848H682.8V305.464H691.1V280.033H684V277.649H683.9ZM709.6 296.722C709.6 289.868 714.4 285.199 720.1 285.199C725.9 285.199 730.1 289.868 730.1 296.722V297.417H712.4C712.5 302.384 716.2 305.762 720.5 305.762C723.7 305.762 726 303.874 727.3 300.795L729.6 301.887C727.9 305.861 724.3 308.245 720.1 308.245C714.3 308.146 709.6 303.576 709.6 296.722ZM712.3 295.133H727.3C726.8 290.662 723.9 287.682 720 287.682C716.1 287.682 712.9 290.662 712.3 295.133ZM745.2 305.464C745.2 303.974 746.4 302.781 747.9 302.781C749.5 302.781 750.7 303.974 750.7 305.464C750.7 307.053 749.5 308.245 747.9 308.245C746.4 308.146 745.2 307.053 745.2 305.464ZM776 305.762C779.1 305.762 781.8 303.874 783 300.596H785.8C784.4 305.265 780.5 308.245 776 308.245C770.3 308.245 765.7 303.576 765.7 296.821C765.7 290.066 770.4 285.298 776 285.298C780.8 285.298 785 288.775 786 294.04H783.2C782.2 290.166 779.3 287.682 775.9 287.682C771.7 287.682 768.2 291.358 768.2 296.722C768.3 302.086 771.7 305.762 776 305.762ZM804.3 285.199C810 285.199 814.7 289.868 814.7 296.722C814.7 303.576 809.9 308.146 804.3 308.146C798.5 308.146 793.8 303.477 793.8 296.722C793.8 289.967 798.5 285.199 804.3 285.199ZM804.2 305.762C808.5 305.762 812 302.086 812 296.722C812 291.358 808.5 287.682 804.2 287.682C799.9 287.682 796.4 291.358 796.4 296.722C796.5 302.086 800 305.762 804.2 305.762ZM822.9 307.848H820.3V285.695H822.9V288.874H823.5C824.9 286.49 826.1 285.199 828.2 285.199C831.3 285.199 832.6 287.086 833.3 288.874H834C835.4 286.589 836.9 285.199 839 285.199C844.5 285.199 844.5 290.265 844.5 291.06V307.748H841.9V291.358C841.9 290.762 841.9 287.583 838.8 287.583C836.3 287.583 833.7 291.258 833.7 294.934V307.649H831.1V291.258C831.1 290.662 831.1 287.483 828 287.483C825.5 287.483 822.9 291.159 822.9 294.834V307.848ZM858.5 280.033C858.5 281.821 857.9 284.106 857.3 286.192C856.7 288.278 856.1 289.967 856.1 289.967H855.6C855.6 289.967 855 288.278 854.4 286.192C853.8 284.106 853.2 281.821 853.2 280.033C853.2 278.543 854.5 277.351 855.9 277.351C857.2 277.351 858.5 278.543 858.5 280.033ZM868.1 280.033C868.1 281.821 867.5 284.106 866.9 286.192C866.3 288.278 865.7 289.967 865.7 289.967H865.2C865.2 289.967 864.6 288.278 864 286.192C863.4 284.106 862.8 281.821 862.8 280.033C862.8 278.543 864.1 277.351 865.5 277.351C866.9 277.351 868.1 278.543 868.1 280.033Z" fill="#7DFFEE"/>
<path d="M318.7 388.212C318.7 388.212 325.2 379.669 325.2 368.841V368.742C325.1 357.814 318.6 349.073 318.6 349.073H321C322.9 351.755 327.9 359.404 327.9 368.742V368.841C327.9 377.881 323.1 385.43 321 388.212H318.7ZM210.6 521.523C210.6 518.841 211.9 517.252 213.3 516.457C211.8 515.762 210.6 514.172 210.6 511.291V503.642C210.6 501.06 210.6 499.669 209.5 499.669H208V497.185H209.5C212.4 497.185 213.2 498.775 213.2 502.649V510.695C213.2 513.278 214.7 514.371 216.5 514.967V517.748C214.9 518.444 213.2 519.636 213.2 522.02V529.669C213.2 533.146 212.3 536.026 209.5 536.026H208V533.543H209.5C210.5 533.543 210.6 532.152 210.6 530.563V521.523Z" fill="#FFEE7D"/>
<path d="M53.2 64.0728V63.6754C53.2 61.5893 55.5 55.3311 62.4 55.3311C68.6 55.3311 71.8 60.7946 71.8 63.6754V63.7748C71.8 66.4569 71.4 70.3311 65.4 74.0066C61.7 76.192 59.2 77.8807 57.6 79.5695C56.9 80.2648 56.4 81.0595 56.1 81.9536V83.543H73V85.9271H52.9V85.6291C52.9 81.9536 53.9 79.8675 55.7 77.9801C57.5 75.9933 60.6 74.0065 64.2 71.7218C69 68.6423 69.1 66.2582 69.1 64.4701V64.1721C69.1 61.9867 66.8 57.8145 62.5 57.8145C57.5 57.8145 55.9 62.5827 55.9 64.1721H53.2V64.0728ZM99.3 59.8013C101.1 62.5827 101.9 66.3575 101.9 70.6291C101.9 74.9999 101 78.7748 99.3 81.6556C97.6 84.437 95.2 86.1258 92.1 86.1258C88.9 86.1258 86.5 84.437 84.8 81.6556C83 78.7748 82.2 74.9999 82.2 70.6291C82.2 66.3575 83.1 62.5827 84.8 59.8013C86.5 57.0198 88.9 55.3311 92.1 55.3311C95.2 55.3311 97.6 57.0198 99.3 59.8013ZM86.7 61.5893C85.5 63.8741 84.8 67.0529 84.8 70.7284C84.8 74.4039 85.5 77.682 86.7 79.9668C88 82.3509 89.8 83.841 92.1 83.841C94.4 83.841 96.1 82.3509 97.4 79.9668C98.6 77.682 99.3 74.4039 99.3 70.7284C99.3 67.1522 98.6 63.8741 97.4 61.5893C96.1 59.2052 94.4 57.8145 92.1 57.8145C89.8 57.7152 88 59.2052 86.7 61.5893ZM53.2 138.079V137.682C53.2 135.596 55.5 129.338 62.4 129.338C68.6 129.338 71.8 134.801 71.8 137.682V137.781C71.8 140.463 71.4 144.338 65.4 148.013C61.7 150.199 59.2 151.887 57.6 153.576C56.9 154.271 56.4 155.066 56.1 155.96V157.55H73V159.934H52.9V159.636C52.9 155.96 53.9 153.874 55.7 151.987C57.5 150 60.6 148.013 64.2 145.728C69 142.649 69.1 140.265 69.1 138.477V138.079C69.1 135.894 66.8 131.722 62.5 131.722C57.5 131.722 55.9 136.49 55.9 138.079H53.2ZM96.7 129.636V159.834H94.1V134.305H93.8C91.5 135.993 89 136.192 86.3 136.192V133.808C89.9 133.808 94.1 132.914 94.1 129.636H96.7ZM53.2 212.086V211.689C53.2 209.603 55.5 203.344 62.4 203.344C68.6 203.344 71.8 208.808 71.8 211.689V211.788C71.8 214.47 71.4 218.344 65.4 222.02C61.7 224.205 59.2 225.894 57.6 227.583C56.9 228.278 56.4 229.073 56.1 229.967V231.556H73V233.94H52.9V233.642C52.9 229.967 53.9 227.881 55.7 225.993C57.5 224.007 60.6 222.02 64.2 219.735C69 216.656 69.1 214.271 69.1 212.483V212.185C69.1 210 66.8 205.828 62.5 205.828C57.5 205.828 55.9 210.596 55.9 212.185H53.2V212.086ZM81.4 212.086V211.689C81.4 209.603 83.7 203.344 90.6 203.344C96.8 203.344 100 208.808 100 211.689V211.788C100 214.47 99.6 218.344 93.6 222.02C89.9 224.205 87.4 225.894 85.8 227.583C85.1 228.278 84.6 229.073 84.3 229.967V231.556H101.2V233.94H81.1V233.642C81.1 229.967 82.1 227.881 83.9 225.993C85.7 224.007 88.8 222.02 92.4 219.735C97.2 216.656 97.3 214.271 97.3 212.483V212.185C97.3 210 95 205.828 90.7 205.828C85.7 205.828 84.1 210.596 84.1 212.185H81.4V212.086ZM53.2 286.093V285.695C53.2 283.609 55.5 277.351 62.4 277.351C68.6 277.351 71.8 282.814 71.8 285.695V285.795C71.8 288.477 71.4 292.351 65.4 296.026C61.7 298.212 59.2 299.901 57.6 301.589C56.9 302.285 56.4 303.079 56.1 303.973V305.563H73V307.947H52.9V307.649C52.9 303.973 53.9 301.887 55.7 300C57.5 298.013 60.6 296.026 64.2 293.742C69 290.662 69.1 288.278 69.1 286.49V286.093C69.1 283.907 66.8 279.735 62.5 279.735C57.5 279.735 55.9 284.503 55.9 286.093H53.2ZM82.1 300.397H84.8C85.3 303.477 88.2 305.761 91.7 305.761C95.6 305.761 98.7 302.881 98.7 299.305C98.7 295.828 95.7 292.848 92 292.848H89V290.463H91.7C95.1 290.463 97.9 288.079 97.9 285.099C97.9 282.119 95.1 279.636 91.7 279.636C88.3 279.636 85.6 282.02 85.5 285L82.9 284.205C83.4 280.232 87.2 277.252 91.7 277.252C96.6 277.252 100.6 280.728 100.6 285C100.6 287.583 98.5 289.967 96.2 291.358V291.755C99.1 293.344 101.5 296.126 101.5 299.305C101.5 304.172 97.1 308.146 91.8 308.146C86.7 308.146 82.6 304.867 82.1 300.397ZM53.2 360.099V359.702C53.2 357.616 55.5 351.358 62.4 351.358C68.6 351.358 71.8 356.821 71.8 359.702V359.801C71.8 362.483 71.4 366.358 65.4 370.033C61.7 372.218 59.2 373.907 57.6 375.596C56.9 376.291 56.4 377.086 56.1 377.98V379.569H73V381.954H52.9V381.656C52.9 377.98 53.9 375.894 55.7 374.007C57.5 372.02 60.6 370.033 64.2 367.748C69 364.669 69.1 362.285 69.1 360.497V360.199C69.1 358.013 66.8 353.841 62.5 353.841C57.5 353.841 55.9 358.609 55.9 360.199H53.2V360.099ZM80.3 371.622L94.9 351.656H98.2V371.026H103.7V373.411H98.2V381.854H95.6V373.411H80.3V371.622ZM83.5 371.026H95.6V354.934H95.5C90.9 361.391 88.1 364.669 83.5 371.026ZM53.2 434.106V433.709C53.2 431.622 55.5 425.364 62.4 425.364C68.6 425.364 71.8 430.828 71.8 433.709V433.808C71.8 436.49 71.4 440.364 65.4 444.04C61.7 446.225 59.2 447.914 57.6 449.603C56.9 450.298 56.4 451.093 56.1 451.987V453.576H73V455.96H52.9V455.662C52.9 451.987 53.9 449.901 55.7 448.013C57.5 446.026 60.6 444.04 64.2 441.755C69 438.675 69.1 436.291 69.1 434.503V434.106C69.1 431.92 66.8 427.748 62.5 427.748C57.5 427.748 55.9 432.516 55.9 434.106H53.2ZM86 447.218C86 447.218 86.5 453.775 92.8 453.775C99.2 453.775 99.7 447.218 99.7 445.232C99.7 442.748 98.6 437.682 93.8 437.682C90.2 437.682 87.8 441.457 87.7 441.954L84.6 441.556L86.1 425.563H101.1V427.947H88.5C88.1 431.225 87.7 434.801 87.4 438.179H87.5C88.8 436.689 91 435 93.8 435C100.8 435 102.3 441.656 102.3 445.033C102.3 447.616 101.5 456.159 92.7 456.159C84.9 456.159 83.4 448.907 83.2 447.516L86 447.218ZM53.2 508.112V507.715C53.2 505.629 55.5 499.371 62.4 499.371C68.6 499.371 71.8 504.834 71.8 507.715V507.814C71.8 510.497 71.4 514.371 65.4 518.046C61.7 520.232 59.2 521.92 57.6 523.609C56.9 524.304 56.4 525.099 56.1 525.993V527.583H73V529.967H52.9V529.669C52.9 525.993 53.9 523.907 55.7 522.02C57.5 520.033 60.6 518.046 64.2 515.761C69 512.682 69.1 510.298 69.1 508.51V508.212C69.1 506.026 66.8 501.854 62.5 501.854C57.5 501.854 55.9 506.622 55.9 508.212H53.2V508.112ZM99.6 506.92C98.5 503.94 96.5 501.854 92.7 501.854C87.7 501.854 84.7 507.516 84.7 515.265H84.9C86.4 512.185 89.2 509.801 92.4 509.801C98 509.801 102.3 514.47 102.3 520.232C102.3 525.795 98 530.364 92.6 530.364C88.2 530.364 85 527.781 83.3 523.41C82.4 521.026 82 518.245 82 514.967C82 506.523 86 499.47 92.6 499.47C97.6 499.47 100.4 502.152 101.9 506.225L99.6 506.92ZM85.6 520.033C85.6 524.404 88.7 527.781 92.6 527.781C96.5 527.781 99.6 524.305 99.6 520.033C99.6 515.662 96.5 512.185 92.6 512.185C88.7 512.185 85.6 515.662 85.6 520.033ZM62.5 575.861C66.9 575.861 69.1 579.934 69.1 582.218V582.516C69.1 584.205 69 586.589 64.2 589.768C60.6 592.053 57.6 594.139 55.7 596.026C55.1 596.622 54.6 597.318 54.2 598.013H57.3C57.4 597.914 57.5 597.814 57.5 597.715C59.1 596.026 61.6 594.338 65.3 592.152C71.3 588.576 71.7 584.603 71.7 581.92V581.821C71.7 578.94 68.5 573.477 62.3 573.477C55.4 573.477 53.1 579.735 53.1 581.821V582.218H55.8C55.9 580.53 57.6 575.861 62.5 575.861ZM83.5 573.675V576.059H97.8V576.755C94.9 580.132 90 587.185 88.7 597.914H91.4C93.3 583.311 101.8 576.159 101.8 576.159V573.675H83.5Z" fill="#6E6E6E"/>
<path d="M0 0V600H960V0H0ZM4 596.027V3.97351H956V596.027H4Z" fill="#DADADA"/>
</g>
<rect x="2.5" y="2.5" width="955" height="595" stroke="#DADADA" stroke-width="5"/>
<defs>
<clipPath id="clip0_123_291">
<rect width="960" height="600" fill="white"/>
</clipPath>
</defs>
</svg>
