<svg width="440" height="437" viewBox="0 0 440 437" fill="none" xmlns="http://www.w3.org/2000/svg">
<path d="M213.074 107.457H186.713C185.257 107.457 184.076 108.638 184.076 110.094C184.076 111.55 185.257 112.73 186.713 112.73H213.074C214.531 112.73 215.711 111.55 215.711 110.094C215.711 108.638 214.531 107.457 213.074 107.457Z" fill="#2491FF"/>
<path d="M186.713 102.125H196.474C197.93 102.125 199.11 100.944 199.11 99.4883C199.11 98.0321 197.93 96.8516 196.474 96.8516H186.713C185.257 96.8516 184.076 98.0321 184.076 99.4883C184.076 100.944 185.257 102.125 186.713 102.125Z" fill="#2491FF"/>
<path d="M212.967 117.662H186.713C185.257 117.662 184.076 118.843 184.076 120.299C184.076 121.755 185.257 122.936 186.713 122.936H212.967C214.424 122.936 215.604 121.755 215.604 120.299C215.604 118.843 214.424 117.662 212.967 117.662Z" fill="#2491FF"/>
<path d="M263.71 79.2605C263.71 70.2521 258.422 62.4573 250.788 58.8119V34.4258C250.788 28.1254 245.662 23 239.362 23H160.426C154.126 23 149 28.1254 149 34.4258V55.4401C149 56.8963 150.181 58.0768 151.637 58.0768C153.093 58.0768 154.273 56.8963 154.273 55.4401V34.4258C154.273 31.0332 157.034 28.2734 160.426 28.2734H177.421L178.894 34.667C180.096 39.8834 184.675 43.5263 190.028 43.5263H209.759C215.112 43.5263 219.691 39.8831 220.893 34.667L222.367 28.2734H239.362C242.754 28.2734 245.514 31.0332 245.514 34.4258V57.0555C244.074 56.7672 242.586 56.6136 241.063 56.6136C228.575 56.6136 218.416 66.7727 218.416 79.2602C218.416 79.8484 218.446 80.4291 218.49 81.0061H170.277C167.153 81.0061 164.611 83.5479 164.611 86.6725V133.541C164.611 136.665 167.153 139.208 170.277 139.208H208.291L212.184 145.95C212.825 147.061 214.019 147.75 215.302 147.75C216.584 147.75 217.778 147.06 218.42 145.95L222.312 139.208H229.51C232.634 139.208 235.176 136.666 235.176 133.541V101.126C237.054 101.633 239.027 101.907 241.063 101.907C242.586 101.907 244.074 101.754 245.514 101.465V191.574C245.514 194.967 242.754 197.727 239.362 197.727H232.914L231.44 191.333C230.238 186.117 225.659 182.473 220.306 182.473H205.763C204.306 182.473 203.126 183.654 203.126 185.11C203.126 186.566 204.306 187.747 205.763 187.747H220.306C223.188 187.747 225.654 189.708 226.301 192.517L227.502 197.727H172.286L173.486 192.517C174.134 189.708 176.599 187.747 179.482 187.747H195.216C196.672 187.747 197.853 186.566 197.853 185.11C197.853 183.654 196.672 182.473 195.216 182.473H179.482C174.128 182.473 169.55 186.117 168.348 191.333L166.874 197.727H160.426C157.034 197.727 154.273 194.967 154.273 191.574V65.987C154.273 64.5308 153.093 63.3502 151.637 63.3502C150.181 63.3502 149 64.5308 149 65.987V191.574C149 197.875 154.126 203 160.426 203H239.362C245.662 203 250.788 197.875 250.788 191.574V99.7092C258.422 96.0642 263.71 88.269 263.71 79.2605ZM215.754 33.4825C215.107 36.2915 212.642 38.2532 209.759 38.2532H190.028C187.146 38.2532 184.681 36.2915 184.033 33.4825L182.833 28.2734H216.955L215.754 33.4825ZM229.903 133.541C229.903 133.758 229.727 133.934 229.51 133.934H220.973C219.921 133.934 218.94 134.501 218.415 135.411L215.302 140.804L212.188 135.412C211.662 134.501 210.682 133.934 209.63 133.934H170.277C170.061 133.934 169.884 133.758 169.884 133.541V86.6729C169.884 86.4563 170.06 86.2798 170.277 86.2798H219.535C221.3 91.6795 225.042 96.189 229.903 98.9547V133.541ZM241.063 96.6341C231.483 96.6341 223.689 88.8403 223.689 79.2605C223.689 69.6808 231.483 61.8874 241.063 61.8874C250.643 61.8874 258.436 69.6812 258.436 79.2605C258.436 88.8403 250.643 96.6341 241.063 96.6341Z" fill="#2491FF"/>
<path d="M263.71 79.2605C263.71 70.2521 258.422 62.4573 250.788 58.8119V34.4258C250.788 28.1254 245.662 23 239.362 23H160.426C154.126 23 149 28.1254 149 34.4258V55.4401C149 56.8963 150.181 58.0768 151.637 58.0768C153.093 58.0768 154.273 56.8963 154.273 55.4401V34.4258C154.273 31.0332 157.034 28.2734 160.426 28.2734H177.421L178.894 34.667C180.096 39.8834 184.675 43.5263 190.028 43.5263H209.759C215.112 43.5263 219.691 39.8831 220.893 34.667L222.367 28.2734H239.362C242.754 28.2734 245.514 31.0332 245.514 34.4258V57.0555C244.074 56.7672 242.586 56.6136 241.063 56.6136C228.575 56.6136 218.416 66.7727 218.416 79.2602C218.416 79.8484 218.446 80.4291 218.49 81.0061H170.277C167.153 81.0061 164.611 83.5479 164.611 86.6725V133.541C164.611 136.665 167.153 139.208 170.277 139.208H208.291L212.184 145.95C212.825 147.061 214.019 147.75 215.302 147.75C216.584 147.75 217.778 147.06 218.42 145.95L222.312 139.208H229.51C232.634 139.208 235.176 136.666 235.176 133.541V101.126C237.054 101.633 239.027 101.907 241.063 101.907C242.586 101.907 244.074 101.754 245.514 101.465V191.574C245.514 194.967 242.754 197.727 239.362 197.727H232.914L231.44 191.333C230.238 186.117 225.659 182.473 220.306 182.473H205.763C204.306 182.473 203.126 183.654 203.126 185.11C203.126 186.566 204.306 187.747 205.763 187.747H220.306C223.188 187.747 225.654 189.708 226.301 192.517L227.502 197.727H172.286L173.486 192.517C174.134 189.708 176.599 187.747 179.482 187.747H195.216C196.672 187.747 197.853 186.566 197.853 185.11C197.853 183.654 196.672 182.473 195.216 182.473H179.482C174.128 182.473 169.55 186.117 168.348 191.333L166.874 197.727H160.426C157.034 197.727 154.273 194.967 154.273 191.574V65.987C154.273 64.5308 153.093 63.3502 151.637 63.3502C150.181 63.3502 149 64.5308 149 65.987V191.574C149 197.875 154.126 203 160.426 203H239.362C245.662 203 250.788 197.875 250.788 191.574V99.7092C258.422 96.0642 263.71 88.269 263.71 79.2605ZM215.754 33.4825C215.107 36.2915 212.642 38.2532 209.759 38.2532H190.028C187.146 38.2532 184.681 36.2915 184.033 33.4825L182.833 28.2734H216.955L215.754 33.4825ZM229.903 133.541C229.903 133.758 229.727 133.934 229.51 133.934H220.973C219.921 133.934 218.94 134.501 218.415 135.411L215.302 140.804L212.188 135.412C211.662 134.501 210.682 133.934 209.63 133.934H170.277C170.061 133.934 169.884 133.758 169.884 133.541V86.6729C169.884 86.4563 170.06 86.2798 170.277 86.2798H219.535C221.3 91.6795 225.042 96.189 229.903 98.9547V133.541ZM241.063 96.6341C231.483 96.6341 223.689 88.8403 223.689 79.2605C223.689 69.6808 231.483 61.8874 241.063 61.8874C250.643 61.8874 258.436 69.6812 258.436 79.2605C258.436 88.8403 250.643 96.6341 241.063 96.6341Z" fill="#2491FF"/>
<path d="M242.181 72.8418H238.121C236.665 72.8418 235.485 74.0223 235.485 75.4785C235.485 76.9347 236.665 78.1152 238.121 78.1152H239.544V84.7341C239.544 86.1903 240.725 87.3708 242.181 87.3708C243.637 87.3708 244.818 86.1903 244.818 84.7341V75.4785C244.818 74.0223 243.637 72.8418 242.181 72.8418Z" fill="#2491FF"/>
<g clip-path="url(#clip0_7160_2871)">
<path d="M276.1 312.367C277.748 312.367 279.089 311.026 279.089 309.379V299.737C279.089 298.09 277.748 296.749 276.1 296.749H261.01C259.362 296.749 258.021 298.09 258.021 299.737V309.379C258.021 311.026 259.362 312.367 261.01 312.367H276.1ZM263.295 302.023H273.815V307.094H263.295V302.023Z" fill="#2491FF"/>
<path d="M400.99 296.749H385.9C384.252 296.749 382.911 298.09 382.911 299.737V309.379C382.911 311.026 384.252 312.367 385.9 312.367H400.99C402.638 312.367 403.978 311.026 403.978 309.379V299.737C403.978 298.09 402.638 296.749 400.99 296.749ZM398.705 307.093H388.185V302.022H398.705V307.093Z" fill="#2491FF"/>
<path d="M243.959 287.957V301.698C243.959 303.154 245.14 304.335 246.596 304.335C248.052 304.335 249.233 303.154 249.233 301.698V287.96H287.877V315.106H285.671C283.967 315.106 282.581 316.491 282.581 318.195V323.916H280.286C278.582 323.916 277.197 325.302 277.197 327.005V332.727H249.233V314.003C249.233 312.547 248.052 311.366 246.596 311.366C245.14 311.366 243.959 312.547 243.959 314.003V334.909C243.959 336.613 245.346 338 247.05 338H414.95C416.654 338 418.041 336.613 418.041 334.909V287.957C419.684 287.888 421 286.53 421 284.87V271.628C421 269.924 419.614 268.538 417.909 268.538H376.511V266.346C376.511 264.599 375.089 263.177 373.343 263.177H364.502V249.717C367.064 248.663 368.872 246.14 368.872 243.202C368.872 240.183 366.962 237.602 364.287 236.603C363.58 225.763 357.672 216.32 349.041 210.749V202.614C349.041 199.296 346.341 196.596 343.023 196.596H342.569V184.272H343.138C344.594 184.272 345.774 183.091 345.774 181.635C345.774 180.179 344.594 178.998 343.138 178.998H342.562C342.381 173.703 338.625 169.3 333.637 168.132V160.637C333.637 159.181 332.457 158 331 158C329.544 158 328.364 159.181 328.364 160.637V168.132C323.376 169.3 319.619 173.703 319.439 178.998H318.863C317.406 178.998 316.226 180.179 316.226 181.635C316.226 183.091 317.406 184.272 318.863 184.272H319.431V196.596H318.977C315.659 196.596 312.959 199.296 312.959 202.614V210.749C304.328 216.32 298.421 225.763 297.713 236.602C295.038 237.601 293.129 240.183 293.129 243.202C293.129 246.153 294.953 248.686 297.534 249.731V263.177H288.657C286.911 263.177 285.489 264.598 285.489 266.345V268.537H244.091C242.387 268.537 241 269.924 241 271.628V284.869C241 286.529 242.316 287.888 243.959 287.957ZM293.151 279.171H296.818V315.106H293.151V279.171ZM305.758 279.171V315.106H302.091V279.171H305.758ZM342.029 279.171V315.106H338.397V292.721C338.397 288.642 335.079 285.323 331 285.323C326.921 285.323 323.603 288.642 323.603 292.721V315.106H319.971V279.171H342.029ZM359.909 279.171V315.106H356.242V279.171H359.909ZM350.969 315.106H347.302V279.171H350.969V315.106ZM328.876 315.106V292.721C328.876 291.549 329.829 290.597 331 290.597C332.171 290.597 333.124 291.549 333.124 292.721V315.106H328.876ZM314.698 315.106H311.031V279.171H314.698V315.106ZM287.855 320.379H374.145V323.916H287.855V320.379ZM282.47 329.189H379.53V332.727H282.47V329.189ZM384.803 332.727V327.006C384.803 325.302 383.418 323.916 381.714 323.916H379.419V318.195C379.419 316.492 378.033 315.106 376.329 315.106H374.123V307.841C374.123 306.385 372.942 305.204 371.486 305.204C370.029 305.204 368.849 306.385 368.849 307.841V315.106H365.182V279.171H368.849V295.536C368.849 296.992 370.029 298.173 371.486 298.173C372.942 298.173 374.123 296.992 374.123 295.536V287.96H412.767V332.727H384.803ZM415.727 273.811V282.687H374.122V279.074C375.493 278.726 376.511 277.481 376.511 276.003V273.811H415.727V273.811ZM355.688 263.177V250.244H359.229V263.177H355.688ZM346.875 263.177V250.244H350.415V263.177H346.875ZM338.061 263.177V250.244H341.601V263.177H338.061ZM329.248 263.177V250.244H332.788V263.177H329.248ZM320.434 263.177V250.244H323.974V263.177H320.434ZM311.62 263.177V250.244H315.161V263.177H311.62ZM331 173.102C334.337 173.102 337.076 175.712 337.282 178.998H324.717C324.924 175.712 327.663 173.102 331 173.102ZM324.705 184.272H337.295V196.596H333.637V189.763C333.637 188.307 332.457 187.127 331 187.127C329.544 187.127 328.363 188.307 328.363 189.763V196.596H324.705V184.272ZM318.232 202.614C318.232 202.203 318.566 201.869 318.977 201.869H343.023C343.433 201.869 343.767 202.203 343.767 202.614V207.978C339.833 206.342 335.52 205.438 331 205.438C326.48 205.438 322.167 206.342 318.232 207.978V202.614ZM331 210.712C345.597 210.712 357.629 221.905 358.962 236.16H321.288C319.832 236.16 318.652 237.341 318.652 238.797C318.652 240.253 319.832 241.434 321.288 241.434H361.83C362.804 241.434 363.598 242.227 363.598 243.202C363.598 244.177 362.804 244.97 361.83 244.97H300.17C299.195 244.97 298.402 244.177 298.402 243.202C298.402 242.227 299.195 241.434 300.17 241.434H308.984C310.44 241.434 311.621 240.253 311.621 238.797C311.621 237.341 310.44 236.16 308.984 236.16H303.038C304.371 221.905 316.403 210.712 331 210.712ZM302.807 250.244H306.347V263.177H302.807V250.244ZM290.763 268.45H371.237V273.897H290.763V268.45ZM246.273 273.811H285.489V276.003C285.489 277.481 286.507 278.726 287.878 279.074V282.686H246.273V273.811Z" fill="#2491FF"/>
</g>
<path d="M151.625 339.875C149.564 339.883 147.508 340.08 145.482 340.463C147.444 332.917 148.527 325.17 148.708 317.375H157.25C157.996 317.375 158.711 317.079 159.239 316.551C159.766 316.024 160.062 315.309 160.062 314.563C160.062 313.817 159.766 313.101 159.239 312.574C158.711 312.047 157.996 311.75 157.25 311.75H148.751C154.306 307.606 158.139 301.559 159.514 294.766C160.52 294.657 161.517 294.481 162.498 294.237C166.507 306.766 166.735 320.199 163.156 332.858C163.056 333.214 163.027 333.585 163.07 333.952C163.113 334.319 163.229 334.674 163.409 334.996C163.59 335.318 163.832 335.602 164.122 335.83C164.412 336.059 164.744 336.228 165.1 336.329C165.348 336.4 165.606 336.436 165.865 336.436C166.477 336.435 167.073 336.235 167.562 335.865C168.05 335.495 168.404 334.975 168.57 334.385C172.473 320.57 172.191 305.907 167.76 292.251C170.613 290.761 173.113 288.676 175.091 286.137C177.069 283.598 178.479 280.665 179.227 277.534C179.974 274.404 180.041 271.15 179.424 267.991C178.806 264.833 177.518 261.843 175.647 259.225C173.775 256.607 171.364 254.42 168.575 252.813C165.787 251.207 162.686 250.217 159.482 249.911C156.278 249.604 153.046 249.989 150.004 251.039C146.961 252.089 144.179 253.779 141.846 255.995C130.021 247.099 115.744 242.057 100.955 241.553C100.038 241.483 99.1156 241.438 98.1875 241.438C89.1786 241.431 80.247 243.1 71.8484 246.36C66.1981 241.683 59.1759 238.978 51.8483 238.656C44.5208 238.335 37.2885 240.413 31.25 244.576C30.9458 244.786 30.6859 245.054 30.4851 245.364C30.2843 245.674 30.1466 246.02 30.0797 246.383C30.0129 246.747 30.0182 247.12 30.0955 247.481C30.1727 247.842 30.3203 248.184 30.53 248.489C30.7396 248.793 31.007 249.053 31.3171 249.253C31.6271 249.454 31.9736 249.592 32.3369 249.659C32.7002 249.726 33.0731 249.72 33.4343 249.643C33.7955 249.566 34.138 249.418 34.4421 249.209C39.9284 245.415 46.5858 243.697 53.2228 244.363C59.8597 245.029 66.043 248.036 70.666 252.844C75.289 257.652 78.0499 263.949 78.4546 270.607C78.8594 277.265 76.8815 283.85 72.875 289.183C72.8562 285.583 71.6888 282.084 69.5429 279.195C67.3969 276.305 64.3845 274.176 60.9443 273.118C62.7284 271.086 63.889 268.583 64.287 265.909C64.6851 263.235 64.3038 260.502 63.1887 258.039C62.0737 255.576 60.2722 253.487 58.0001 252.021C55.728 250.556 53.0815 249.776 50.3778 249.776C47.674 249.776 45.0276 250.556 42.7554 252.021C40.4833 253.487 38.6818 255.576 37.5668 258.039C36.4518 260.502 36.0704 263.235 36.4685 265.909C36.8666 268.583 38.0271 271.086 39.8112 273.118C36.37 274.175 33.3563 276.304 31.2093 279.193C29.0623 282.083 27.8941 285.583 27.875 289.183C24.3407 284.486 22.3743 278.797 22.2547 272.92C22.135 267.044 23.8682 261.279 27.2084 256.442C27.418 256.138 27.5656 255.796 27.6429 255.435C27.7201 255.073 27.7255 254.7 27.6586 254.337C27.5918 253.974 27.454 253.627 27.2532 253.317C27.0524 253.007 26.7925 252.74 26.4884 252.53C26.1842 252.321 25.8418 252.173 25.4806 252.096C25.1193 252.018 24.7465 252.013 24.3832 252.08C24.0199 252.147 23.6733 252.285 23.3633 252.485C23.0533 252.686 22.7858 252.946 22.5762 253.25C17.999 259.882 15.9549 267.937 16.8159 275.949C17.6769 283.961 21.3857 291.398 27.2675 296.906C24.3864 308.301 24.3275 320.226 27.0959 331.649C27.2697 332.374 27.7245 333.001 28.3604 333.391C28.9962 333.781 29.7609 333.902 30.4864 333.728C31.2118 333.555 31.8384 333.1 32.2285 332.464C32.6185 331.828 32.74 331.063 32.5662 330.338C31.5531 326.085 30.9522 321.744 30.7718 317.375H47.6468C47.871 328.952 50.14 340.398 54.349 351.184C53.9525 351.167 53.5756 351.125 53.1875 351.125C49.637 351.129 46.1197 351.809 42.8234 353.128C40.0853 349.208 37.7708 345.009 35.9187 340.601C35.6308 339.913 35.0813 339.367 34.3911 339.084C33.701 338.801 32.9267 338.804 32.2385 339.092C31.5504 339.38 31.0049 339.929 30.7219 340.619C30.4389 341.31 30.4417 342.084 30.7296 342.772C32.6412 347.322 35.0063 351.668 37.789 355.743C33.9386 358.263 30.7656 361.69 28.5488 365.722C26.332 369.754 25.1391 374.269 25.0748 378.871C25.0106 383.472 26.0769 388.018 28.1803 392.111C30.2837 396.204 33.3597 399.718 37.1383 402.344C40.9169 404.97 45.2824 406.629 49.8517 407.173C54.4209 407.718 59.0541 407.133 63.3443 405.469C67.6345 403.805 71.4506 401.113 74.4575 397.63C77.4644 394.147 79.57 389.978 80.5896 385.491C93.4704 388.757 107.005 388.378 119.683 384.397C121.941 391.083 126.235 396.895 131.964 401.016C137.693 405.137 144.568 407.361 151.625 407.375C151.996 407.375 152.359 407.353 152.722 407.327L153.166 407.302C153.535 407.285 153.897 407.195 154.231 407.038C154.566 406.88 154.866 406.659 155.114 406.386C155.363 406.113 155.555 405.793 155.681 405.446C155.806 405.098 155.861 404.729 155.844 404.36C155.797 403.62 155.464 402.927 154.915 402.427C154.367 401.928 153.646 401.661 152.905 401.683L152.342 401.716C152.103 401.733 151.867 401.75 151.625 401.75C145.531 401.747 139.606 399.753 134.75 396.072V390.5C134.75 387.517 135.935 384.655 138.045 382.545C140.155 380.435 143.016 379.25 146 379.25H157.25C160.234 379.25 163.095 380.435 165.205 382.545C167.315 384.655 168.5 387.517 168.5 390.5V396.024C166.764 397.365 164.876 398.498 162.875 399.399C162.536 399.547 162.229 399.76 161.973 400.026C161.716 400.292 161.514 400.606 161.379 400.951C161.106 401.646 161.12 402.421 161.418 403.106C161.716 403.791 162.275 404.329 162.97 404.602C163.665 404.875 164.44 404.861 165.125 404.563C172.234 401.463 178.06 396.009 181.62 389.119C185.181 382.229 186.259 374.323 184.675 366.73C183.09 359.138 178.939 352.323 172.92 347.432C166.901 342.541 159.381 339.873 151.625 339.875ZM139.149 342.294C134.843 344.012 130.936 346.597 127.671 349.888C124.636 348.96 121.545 348.2 118.409 347.57C119.425 340.626 120.097 333.28 120.434 325.945C120.452 325.575 120.397 325.206 120.271 324.857C120.146 324.509 119.953 324.189 119.704 323.916C119.455 323.642 119.154 323.42 118.819 323.263C118.484 323.106 118.121 323.017 117.751 323C117.011 322.985 116.293 323.255 115.746 323.754C115.2 324.254 114.866 324.945 114.815 325.683C114.516 332.675 113.865 339.648 112.866 346.575C103.128 345.151 93.2361 345.138 83.4949 346.538C82.1332 336.876 81.4182 327.133 81.3546 317.375H143.083C142.888 325.82 141.565 334.2 139.149 342.294ZM98.4687 382.006C98.2775 382.006 98.0862 382.006 97.9062 382.006C93.3753 381.573 87.8037 370.782 84.4062 352.104C93.5481 350.798 102.83 350.809 111.969 352.138C108.456 371.327 102.721 381.576 98.4687 382.006ZM115.133 311.75H81.3546C81.4181 301.975 82.135 292.214 83.5006 282.534C88.3642 283.245 93.2722 283.61 98.1875 283.625C100.156 283.625 102.223 283.546 104.434 283.397C103.308 288.652 103.718 294.119 105.615 299.147C107.512 304.174 110.816 308.55 115.133 311.75ZM126.312 283.625C126.312 282.513 126.642 281.425 127.26 280.5C127.879 279.575 128.757 278.854 129.785 278.428C130.813 278.003 131.944 277.891 133.035 278.108C134.126 278.325 135.128 278.861 135.915 279.648C136.702 280.434 137.237 281.437 137.454 282.528C137.671 283.619 137.56 284.75 137.134 285.778C136.709 286.806 135.988 287.684 135.063 288.302C134.138 288.92 133.05 289.25 131.937 289.25C130.446 289.25 129.015 288.658 127.96 287.603C126.905 286.548 126.312 285.117 126.312 283.625ZM126.312 294.875H137.562C139.054 294.875 140.485 295.468 141.54 296.523C142.595 297.578 143.187 299.008 143.187 300.5V308.707C139.773 310.7 135.891 311.75 131.937 311.75C127.984 311.75 124.102 310.7 120.687 308.707V300.5C120.687 299.008 121.28 297.578 122.335 296.523C123.39 295.468 124.821 294.875 126.312 294.875ZM148.812 304.083V300.5C148.805 298.171 148.073 295.901 146.719 294.006C145.364 292.111 143.454 290.684 141.252 289.922C142.398 288.231 143.061 286.259 143.171 284.219C143.281 282.178 142.833 280.147 141.876 278.342C140.918 276.537 139.487 275.027 137.736 273.974C135.985 272.921 133.981 272.364 131.937 272.364C129.894 272.364 127.89 272.921 126.139 273.974C124.388 275.027 122.957 276.537 121.999 278.342C121.042 280.147 120.594 282.178 120.704 284.219C120.813 286.259 121.477 288.231 122.622 289.922C120.421 290.684 118.511 292.111 117.156 294.006C115.802 295.901 115.07 298.171 115.062 300.5V304.083C112.198 300.836 110.332 296.831 109.688 292.549C109.044 288.267 109.649 283.89 111.43 279.944C113.212 275.997 116.094 272.648 119.732 270.299C123.369 267.95 127.607 266.701 131.937 266.701C136.268 266.701 140.506 267.95 144.143 270.299C147.781 272.648 150.663 275.997 152.445 279.944C154.226 283.89 154.831 288.267 154.187 292.549C153.543 296.831 151.677 300.836 148.812 304.083ZM126.096 261.744C122.254 262.567 118.629 264.191 115.456 266.508C114.066 260.391 111.804 254.505 108.74 249.031C115.544 251.667 121.531 256.052 126.096 261.744ZM165.687 287C164.985 287.41 164.254 287.767 163.499 288.069C163.466 288.069 163.429 288.069 163.395 288.086C163.362 288.103 163.331 288.131 163.294 288.145C162.249 288.544 161.166 288.836 160.062 289.017C160.039 286.233 159.602 283.468 158.766 280.813H160.062C161.554 280.813 162.985 281.405 164.04 282.46C165.095 283.515 165.687 284.946 165.687 286.438V287ZM157.25 275.188C156.882 275.185 156.516 275.133 156.162 275.033C155.268 273.506 154.232 272.067 153.068 270.736C153.113 269.911 153.4 269.118 153.892 268.455C154.384 267.792 155.06 267.288 155.836 267.005C156.612 266.723 157.454 266.674 158.257 266.865C159.06 267.056 159.79 267.479 160.355 268.081C160.92 268.682 161.297 269.437 161.437 270.251C161.578 271.064 161.477 271.901 161.146 272.658C160.815 273.415 160.27 274.058 159.577 274.507C158.885 274.957 158.076 275.194 157.25 275.188ZM157.25 255.5C160.402 255.497 163.491 256.377 166.168 258.041C168.845 259.705 171.001 262.086 172.393 264.914C173.785 267.742 174.355 270.903 174.041 274.039C173.726 277.175 172.538 280.16 170.612 282.655C169.668 280.04 167.787 277.868 165.333 276.56C166.108 275.453 166.646 274.198 166.913 272.873C167.181 271.549 167.172 270.183 166.887 268.862C166.603 267.541 166.048 266.293 165.259 265.196C164.47 264.099 163.463 263.177 162.301 262.487C161.139 261.798 159.847 261.355 158.506 261.188C157.165 261.02 155.804 261.131 154.508 261.514C153.212 261.897 152.009 262.543 150.975 263.412C149.94 264.281 149.096 265.354 148.495 266.565C146.787 265.305 144.943 264.243 142.996 263.398C144.505 260.979 146.606 258.984 149.1 257.602C151.594 256.22 154.399 255.497 157.25 255.5ZM138.28 260.346C137.998 260.779 137.759 261.229 137.515 261.685C135.96 261.38 134.382 261.208 132.798 261.17C130.56 258.113 128.03 255.281 125.244 252.713C129.861 254.762 134.233 257.322 138.28 260.346ZM110.717 270.856C108.955 272.888 107.493 275.161 106.375 277.606C103.354 277.868 100.719 278 98.1875 278C93.5755 277.987 88.9703 277.647 84.4062 276.985C87.8796 257.941 93.6115 247.063 98.1875 247.063C101.771 247.063 106.971 254.454 110.709 270.856H110.717ZM76.25 250.736C80.2702 249.347 84.4141 248.346 88.625 247.746C85.8652 252.05 83.7574 256.739 82.3699 261.66C81.0308 257.668 78.9549 253.962 76.25 250.736ZM76.6184 293.562C76.0925 299.524 75.7746 305.656 75.7156 311.75H53.2662C53.3187 309.821 53.4284 307.891 53.5953 305.962C58.0638 305.532 62.4014 304.213 66.3535 302.084C70.3056 299.954 73.7926 297.057 76.61 293.562H76.6184ZM50.375 255.5C52.0437 255.5 53.675 255.995 55.0626 256.922C56.4501 257.849 57.5316 259.167 58.1702 260.709C58.8088 262.251 58.9759 263.947 58.6503 265.584C58.3248 267.22 57.5212 268.724 56.3412 269.904C55.1612 271.084 53.6577 271.888 52.021 272.213C50.3843 272.539 48.6878 272.372 47.1461 271.733C45.6043 271.094 44.2866 270.013 43.3594 268.625C42.4323 267.238 41.9375 265.606 41.9375 263.938C41.9375 261.7 42.8264 259.554 44.4087 257.971C45.9911 256.389 48.1372 255.5 50.375 255.5ZM44.75 278H56C58.9836 278 61.8451 279.185 63.9549 281.295C66.0647 283.405 67.25 286.267 67.25 289.25V294.822C62.3956 298.506 56.469 300.5 50.375 300.5C44.2809 300.5 38.3543 298.506 33.5 294.822V289.25C33.5 286.267 34.6852 283.405 36.795 281.295C38.9048 279.185 41.7663 278 44.75 278ZM47.9506 306.001C47.7968 307.92 47.6937 309.836 47.6412 311.75H30.7831C30.9299 308.045 31.3824 304.359 32.1359 300.728C36.878 303.792 42.3185 305.606 47.9506 306.001ZM53.2606 317.375H75.7071C75.806 327.455 76.5727 337.516 78.0021 347.494C72.3629 348.611 66.839 350.248 61.5012 352.382C61.3128 352.323 61.1159 352.287 60.9387 352.233C56.1045 341.234 53.495 329.387 53.2606 317.375ZM41.9375 398.707V390.5C41.9375 389.008 42.5301 387.578 43.585 386.523C44.6399 385.468 46.0706 384.875 47.5625 384.875H58.8125C60.3043 384.875 61.735 385.468 62.7899 386.523C63.8448 387.578 64.4375 389.008 64.4375 390.5V398.707C61.0232 400.7 57.1408 401.75 53.1875 401.75C49.2341 401.75 45.3517 400.7 41.9375 398.707ZM47.5625 373.625C47.5625 372.513 47.8924 371.425 48.5104 370.5C49.1285 369.575 50.007 368.854 51.0349 368.428C52.0627 368.003 53.1937 367.891 54.2848 368.108C55.376 368.325 56.3783 368.861 57.1649 369.648C57.9516 370.434 58.4873 371.437 58.7044 372.528C58.9214 373.619 58.81 374.75 58.3843 375.778C57.9585 376.806 57.2376 377.684 56.3125 378.302C55.3875 378.92 54.3 379.25 53.1875 379.25C51.6956 379.25 50.2649 378.658 49.21 377.603C48.1551 376.548 47.5625 375.117 47.5625 373.625ZM70.0625 394.083V390.5C70.055 388.171 69.3234 385.901 67.9689 384.006C66.6144 382.111 64.704 380.684 62.5025 379.922C63.6481 378.231 64.3114 376.259 64.4212 374.219C64.531 372.178 64.083 370.147 63.1255 368.342C62.168 366.537 60.737 365.027 58.9861 363.974C57.2352 362.921 55.2306 362.364 53.1875 362.364C51.1443 362.364 49.1397 362.921 47.3888 363.974C45.638 365.027 44.2069 366.537 43.2494 368.342C42.2919 370.147 41.8439 372.178 41.9537 374.219C42.0635 376.259 42.7268 378.231 43.8725 379.922C41.6709 380.684 39.7605 382.111 38.406 384.006C37.0515 385.901 36.3199 388.171 36.3125 390.5V394.083C33.4484 390.836 31.5822 386.831 30.9379 382.549C30.2936 378.267 30.8985 373.89 32.6801 369.944C34.4617 365.997 37.3442 362.648 40.9817 360.299C44.6193 357.95 48.8574 356.701 53.1875 356.701C57.5175 356.701 61.7556 357.95 65.3932 360.299C69.0307 362.648 71.9132 365.997 73.6948 369.944C75.4764 373.89 76.0813 378.267 75.437 382.549C74.7927 386.831 72.9265 390.836 70.0625 394.083ZM68.6309 355.771C72.0017 354.662 75.4352 353.753 78.9134 353.049C81.0818 365.025 84.3218 375.175 88.5715 381.334C86.116 380.978 83.6822 380.485 81.2815 379.858C81.2815 379.652 81.3125 379.456 81.3125 379.25C81.3095 374.592 80.1491 370.008 77.9355 365.91C75.7219 361.812 72.5246 358.328 68.6309 355.771ZM107.905 381.301C112.18 375.113 115.377 364.932 117.504 353.114C119.617 353.543 121.702 354.045 123.759 354.618C118.845 361.705 116.899 370.432 118.336 378.935C114.927 379.999 111.439 380.79 107.905 381.301ZM151.625 373.625C149.956 373.625 148.325 373.13 146.937 372.203C145.55 371.276 144.468 369.958 143.83 368.417C143.191 366.875 143.024 365.178 143.35 363.542C143.675 361.905 144.479 360.401 145.659 359.221C146.839 358.041 148.342 357.238 149.979 356.912C151.616 356.587 153.312 356.754 154.854 357.392C156.396 358.031 157.713 359.113 158.64 360.5C159.568 361.888 160.062 363.519 160.062 365.188C160.062 367.425 159.174 369.572 157.591 371.154C156.009 372.736 153.863 373.625 151.625 373.625ZM174.125 390.379C174.095 386.79 172.923 383.303 170.778 380.424C168.634 377.545 165.628 375.424 162.197 374.368C163.981 372.336 165.142 369.833 165.54 367.159C165.938 364.485 165.557 361.752 164.442 359.289C163.327 356.826 161.525 354.737 159.253 353.271C156.981 351.806 154.334 351.026 151.631 351.026C148.927 351.026 146.28 351.806 144.008 353.271C141.736 354.737 139.935 356.826 138.82 359.289C137.705 361.752 137.323 364.485 137.721 367.159C138.119 369.833 139.28 372.336 141.064 374.368C137.622 375.425 134.608 377.553 132.46 380.443C130.313 383.332 129.144 386.832 129.125 390.433C125.978 386.256 124.056 381.285 123.576 376.077C123.096 370.869 124.077 365.631 126.407 360.949C128.738 356.267 132.327 352.327 136.772 349.571C141.217 346.815 146.342 345.352 151.571 345.346C156.801 345.34 161.93 346.791 166.381 349.536C170.832 352.282 174.431 356.213 176.773 360.889C179.114 365.565 180.107 370.802 179.64 376.01C179.172 381.219 177.262 386.195 174.125 390.379Z" fill="#2491FF"/>
<path d="M101 181L101 201" stroke="#2491FF" stroke-width="5" stroke-linecap="round"/>
<path d="M91 191H111" stroke="#2491FF" stroke-width="5" stroke-linecap="round"/>
<path d="M217 229L217 249" stroke="#2491FF" stroke-width="5" stroke-linecap="round"/>
<path d="M207 239H227" stroke="#2491FF" stroke-width="5" stroke-linecap="round"/>
<path d="M297 115L297 135" stroke="#2491FF" stroke-width="5" stroke-linecap="round"/>
<path d="M287 125H307" stroke="#2491FF" stroke-width="5" stroke-linecap="round"/>
<defs>
<clipPath id="clip0_7160_2871">
<rect width="180" height="180" fill="white" transform="translate(241 158)"/>
</clipPath>
</defs>
</svg>
